<?xml version="1.0" encoding="UTF-8" standalone="no"?>
<!DOCTYPE svg PUBLIC "-//W3C//DTD SVG 1.1//EN"
 "http://www.w3.org/Graphics/SVG/1.1/DTD/svg11.dtd">
<!-- Generated by graphviz version 2.40.1 (20161225.0304)
 -->
<!-- Title: dependencies Pages: 1 -->
<svg width="4655pt" height="211pt"
 viewBox="0.00 0.00 4655.00 211.00" xmlns="http://www.w3.org/2000/svg" xmlns:xlink="http://www.w3.org/1999/xlink">
<g id="graph0" class="graph" transform="scale(1 1) rotate(0) translate(4 207)">
<title>dependencies</title>
<polygon fill="#ffffff" stroke="transparent" points="-4,4 -4,-207 4651,-207 4651,4 -4,4"/>
<text text-anchor="start" x="2302.5091" y="-42.4" font-family="sans-serif" font-weight="bold" font-size="14.00" fill="#000000">Legend</text>
<polygon fill="#ffffb3" stroke="transparent" points="2089.5,-10 2089.5,-30 2109.5,-30 2109.5,-10 2089.5,-10"/>
<text text-anchor="start" x="2113.129" y="-15.4" font-family="sans-serif" font-size="14.00" fill="#000000"> &#160;Declarations</text>
<polygon fill="#8dd3c7" stroke="transparent" points="2202.5,-10 2202.5,-30 2222.5,-30 2222.5,-10 2202.5,-10"/>
<text text-anchor="start" x="2226.2251" y="-15.4" font-family="sans-serif" font-size="14.00" fill="#000000"> &#160;Module</text>
<polygon fill="#80b1d3" stroke="transparent" points="2288.5,-10 2288.5,-30 2308.5,-30 2308.5,-10 2288.5,-10"/>
<text text-anchor="start" x="2312.2812" y="-15.4" font-family="sans-serif" font-size="14.00" fill="#000000"> &#160;Bootstrap</text>
<polygon fill="#fdb462" stroke="transparent" points="2385.5,-10 2385.5,-30 2405.5,-30 2405.5,-10 2385.5,-10"/>
<text text-anchor="start" x="2409.1732" y="-15.4" font-family="sans-serif" font-size="14.00" fill="#000000"> &#160;Providers</text>
<polygon fill="#fb8072" stroke="transparent" points="2481.5,-10 2481.5,-30 2501.5,-30 2501.5,-10 2481.5,-10"/>
<text text-anchor="start" x="2505.2258" y="-15.4" font-family="sans-serif" font-size="14.00" fill="#000000"> &#160;Exports</text>
<g id="clust1" class="cluster">
<title>cluster_DashboardModule</title>
<polygon fill="none" stroke="#000000" stroke-dasharray="1,5" points="8,-70 8,-195 4639,-195 4639,-70 8,-70"/>
</g>
<g id="clust2" class="cluster">
<title>cluster_DashboardModule_declarations</title>
<polygon fill="none" stroke="#000000" points="1376,-78 1376,-130 4631,-130 4631,-78 1376,-78"/>
</g>
<g id="clust23" class="cluster">
<title>cluster_DashboardModule_imports</title>
<polygon fill="none" stroke="#000000" points="310,-78 310,-130 1368,-130 1368,-78 310,-78"/>
</g>
<g id="clust26" class="cluster">
<title>cluster_DashboardModule_providers</title>
<polygon fill="none" stroke="#000000" points="16,-78 16,-130 302,-130 302,-78 16,-78"/>
</g>
<!-- AgentAddComponent -->
<g id="node1" class="node">
<title>AgentAddComponent</title>
<polygon fill="#ffffb3" stroke="#000000" points="4622.6512,-122 4483.3488,-122 4483.3488,-86 4622.6512,-86 4622.6512,-122"/>
<text text-anchor="middle" x="4553" y="-99.8" font-family="Times,serif" font-size="14.00" fill="#000000">AgentAddComponent</text>
</g>
<!-- DashboardModule -->
<g id="node21" class="node">
<title>DashboardModule</title>
<polygon fill="#8dd3c7" stroke="#000000" points="2288.191,-187 2285.191,-191 2264.191,-191 2261.191,-187 2167.809,-187 2167.809,-151 2288.191,-151 2288.191,-187"/>
<text text-anchor="middle" x="2228" y="-164.8" font-family="Times,serif" font-size="14.00" fill="#000000">DashboardModule</text>
</g>
<!-- AgentAddComponent&#45;&gt;DashboardModule -->
<g id="edge1" class="edge">
<title>AgentAddComponent&#45;&gt;DashboardModule</title>
<path fill="none" stroke="#000000" d="M4553,-122.3802C4553,-146.2785 4553,-185 4553,-185 4553,-185 2298.1038,-185 2298.1038,-185"/>
<polygon fill="#000000" stroke="#000000" points="2298.1038,-181.5001 2288.1038,-185 2298.1037,-188.5001 2298.1038,-181.5001"/>
</g>
<!-- AgentComponent -->
<g id="node2" class="node">
<title>AgentComponent</title>
<polygon fill="#ffffb3" stroke="#000000" points="4464.5451,-122 4349.4549,-122 4349.4549,-86 4464.5451,-86 4464.5451,-122"/>
<text text-anchor="middle" x="4407" y="-99.8" font-family="Times,serif" font-size="14.00" fill="#000000">AgentComponent</text>
</g>
<!-- AgentComponent&#45;&gt;DashboardModule -->
<g id="edge2" class="edge">
<title>AgentComponent&#45;&gt;DashboardModule</title>
<path fill="none" stroke="#000000" d="M4407,-122.3228C4407,-145.6602 4407,-183 4407,-183 4407,-183 2298.2672,-183 2298.2672,-183"/>
<polygon fill="#000000" stroke="#000000" points="2298.2672,-179.5001 2288.2672,-183 2298.2672,-186.5001 2298.2672,-179.5001"/>
</g>
<!-- CommunityComponent -->
<g id="node3" class="node">
<title>CommunityComponent</title>
<polygon fill="#ffffb3" stroke="#000000" points="4331.2316,-122 4182.7684,-122 4182.7684,-86 4331.2316,-86 4331.2316,-122"/>
<text text-anchor="middle" x="4257" y="-99.8" font-family="Times,serif" font-size="14.00" fill="#000000">CommunityComponent</text>
</g>
<!-- CommunityComponent&#45;&gt;DashboardModule -->
<g id="edge3" class="edge">
<title>CommunityComponent&#45;&gt;DashboardModule</title>
<path fill="none" stroke="#000000" d="M4257,-122.2479C4257,-145.0179 4257,-181 4257,-181 4257,-181 2298.1735,-181 2298.1735,-181"/>
<polygon fill="#000000" stroke="#000000" points="2298.1735,-177.5001 2288.1735,-181 2298.1734,-184.5001 2298.1735,-177.5001"/>
</g>
<!-- DashboardComponent -->
<g id="node4" class="node">
<title>DashboardComponent</title>
<polygon fill="#ffffb3" stroke="#000000" points="4164.9734,-122 4023.0266,-122 4023.0266,-86 4164.9734,-86 4164.9734,-122"/>
<text text-anchor="middle" x="4094" y="-99.8" font-family="Times,serif" font-size="14.00" fill="#000000">DashboardComponent</text>
</g>
<!-- DashboardComponent&#45;&gt;DashboardModule -->
<g id="edge4" class="edge">
<title>DashboardComponent&#45;&gt;DashboardModule</title>
<path fill="none" stroke="#000000" d="M4094,-122.2921C4094,-144.2057 4094,-178 4094,-178 4094,-178 2298.2341,-178 2298.2341,-178"/>
<polygon fill="#000000" stroke="#000000" points="2298.2341,-174.5001 2288.2341,-178 2298.2341,-181.5001 2298.2341,-174.5001"/>
</g>
<!-- DocComponent -->
<g id="node5" class="node">
<title>DocComponent</title>
<polygon fill="#ffffb3" stroke="#000000" points="4005.1542,-122 3900.8458,-122 3900.8458,-86 4005.1542,-86 4005.1542,-122"/>
<text text-anchor="middle" x="3953" y="-99.8" font-family="Times,serif" font-size="14.00" fill="#000000">DocComponent</text>
</g>
<!-- DocComponent&#45;&gt;DashboardModule -->
<g id="edge5" class="edge">
<title>DocComponent&#45;&gt;DashboardModule</title>
<path fill="none" stroke="#000000" d="M3953,-122.1686C3953,-143.498 3953,-176 3953,-176 3953,-176 2298.1305,-176 2298.1305,-176"/>
<polygon fill="#000000" stroke="#000000" points="2298.1306,-172.5001 2288.1305,-176 2298.1305,-179.5001 2298.1306,-172.5001"/>
</g>
<!-- ExchangeAddComponent -->
<g id="node6" class="node">
<title>ExchangeAddComponent</title>
<polygon fill="#ffffb3" stroke="#000000" points="3882.1358,-122 3721.8642,-122 3721.8642,-86 3882.1358,-86 3882.1358,-122"/>
<text text-anchor="middle" x="3802" y="-99.8" font-family="Times,serif" font-size="14.00" fill="#000000">ExchangeAddComponent</text>
</g>
<!-- ExchangeAddComponent&#45;&gt;DashboardModule -->
<g id="edge6" class="edge">
<title>ExchangeAddComponent&#45;&gt;DashboardModule</title>
<path fill="none" stroke="#000000" d="M3802,-122.0267C3802,-142.7672 3802,-174 3802,-174 3802,-174 2298.2586,-174 2298.2586,-174"/>
<polygon fill="#000000" stroke="#000000" points="2298.2586,-170.5001 2288.2586,-174 2298.2585,-177.5001 2298.2586,-170.5001"/>
</g>
<!-- ExchangeComponent -->
<g id="node7" class="node">
<title>ExchangeComponent</title>
<polygon fill="#ffffb3" stroke="#000000" points="3703.0296,-122 3566.9704,-122 3566.9704,-86 3703.0296,-86 3703.0296,-122"/>
<text text-anchor="middle" x="3635" y="-99.8" font-family="Times,serif" font-size="14.00" fill="#000000">ExchangeComponent</text>
</g>
<!-- ExchangeComponent&#45;&gt;DashboardModule -->
<g id="edge7" class="edge">
<title>ExchangeComponent&#45;&gt;DashboardModule</title>
<path fill="none" stroke="#000000" d="M3635,-122.2228C3635,-142.3652 3635,-172 3635,-172 3635,-172 2298.457,-172 2298.457,-172"/>
<polygon fill="#000000" stroke="#000000" points="2298.4571,-168.5001 2288.457,-172 2298.457,-175.5001 2298.4571,-168.5001"/>
</g>
<!-- ExchangeEditComponent -->
<g id="node8" class="node">
<title>ExchangeEditComponent</title>
<polygon fill="#ffffb3" stroke="#000000" points="3548.8627,-122 3389.1373,-122 3389.1373,-86 3548.8627,-86 3548.8627,-122"/>
<text text-anchor="middle" x="3469" y="-99.8" font-family="Times,serif" font-size="14.00" fill="#000000">ExchangeEditComponent</text>
</g>
<!-- ExchangeEditComponent&#45;&gt;DashboardModule -->
<g id="edge8" class="edge">
<title>ExchangeEditComponent&#45;&gt;DashboardModule</title>
<path fill="none" stroke="#000000" d="M3469,-122.1061C3469,-141.3391 3469,-169 3469,-169 3469,-169 2298.2754,-169 2298.2754,-169"/>
<polygon fill="#000000" stroke="#000000" points="2298.2754,-165.5001 2288.2754,-169 2298.2754,-172.5001 2298.2754,-165.5001"/>
</g>
<!-- FactComponent -->
<g id="node9" class="node">
<title>FactComponent</title>
<polygon fill="#ffffb3" stroke="#000000" points="3370.9357,-122 3265.0643,-122 3265.0643,-86 3370.9357,-86 3370.9357,-122"/>
<text text-anchor="middle" x="3318" y="-99.8" font-family="Times,serif" font-size="14.00" fill="#000000">FactComponent</text>
</g>
<!-- FactComponent&#45;&gt;DashboardModule -->
<g id="edge9" class="edge">
<title>FactComponent&#45;&gt;DashboardModule</title>
<path fill="none" stroke="#000000" d="M3318,-122.2222C3318,-140.8285 3318,-167 3318,-167 3318,-167 2298.1557,-167 2298.1557,-167"/>
<polygon fill="#000000" stroke="#000000" points="2298.1558,-163.5001 2288.1557,-167 2298.1557,-170.5001 2298.1558,-163.5001"/>
</g>
<!-- RechargeComponent -->
<g id="node10" class="node">
<title>RechargeComponent</title>
<polygon fill="#ffffb3" stroke="#000000" points="3247.1881,-122 3112.8119,-122 3112.8119,-86 3247.1881,-86 3247.1881,-122"/>
<text text-anchor="middle" x="3180" y="-99.8" font-family="Times,serif" font-size="14.00" fill="#000000">RechargeComponent</text>
</g>
<!-- RechargeComponent&#45;&gt;DashboardModule -->
<g id="edge10" class="edge">
<title>RechargeComponent&#45;&gt;DashboardModule</title>
<path fill="none" stroke="#000000" d="M3180,-122.302C3180,-140.2699 3180,-165 3180,-165 3180,-165 2298.2741,-165 2298.2741,-165"/>
<polygon fill="#000000" stroke="#000000" points="2298.2741,-161.5001 2288.2741,-165 2298.2741,-168.5001 2298.2741,-161.5001"/>
</g>
<!-- RobotComponent -->
<g id="node11" class="node">
<title>RobotComponent</title>
<polygon fill="#ffffb3" stroke="#000000" points="3094.5604,-122 2979.4396,-122 2979.4396,-86 3094.5604,-86 3094.5604,-122"/>
<text text-anchor="middle" x="3037" y="-99.8" font-family="Times,serif" font-size="14.00" fill="#000000">RobotComponent</text>
</g>
<!-- RobotComponent&#45;&gt;DashboardModule -->
<g id="edge11" class="edge">
<title>RobotComponent&#45;&gt;DashboardModule</title>
<path fill="none" stroke="#000000" d="M3037,-122.0225C3037,-139.3734 3037,-163 3037,-163 3037,-163 2298.1456,-163 2298.1456,-163"/>
<polygon fill="#000000" stroke="#000000" points="2298.1456,-159.5001 2288.1456,-163 2298.1455,-166.5001 2298.1456,-159.5001"/>
</g>
<!-- RobotDebugComponent -->
<g id="node12" class="node">
<title>RobotDebugComponent</title>
<polygon fill="#ffffb3" stroke="#000000" points="2961.3808,-122 2808.6192,-122 2808.6192,-86 2961.3808,-86 2961.3808,-122"/>
<text text-anchor="middle" x="2885" y="-99.8" font-family="Times,serif" font-size="14.00" fill="#000000">RobotDebugComponent</text>
</g>
<!-- RobotDebugComponent&#45;&gt;DashboardModule -->
<g id="edge12" class="edge">
<title>RobotDebugComponent&#45;&gt;DashboardModule</title>
<path fill="none" stroke="#000000" d="M2885,-122.027C2885,-138.3976 2885,-160 2885,-160 2885,-160 2298.3384,-160 2298.3384,-160"/>
<polygon fill="#000000" stroke="#000000" points="2298.3384,-156.5001 2288.3384,-160 2298.3384,-163.5001 2298.3384,-156.5001"/>
</g>
<!-- RobotDetailComponent -->
<g id="node13" class="node">
<title>RobotDetailComponent</title>
<polygon fill="#ffffb3" stroke="#000000" points="2790.7674,-122 2641.2326,-122 2641.2326,-86 2790.7674,-86 2790.7674,-122"/>
<text text-anchor="middle" x="2716" y="-99.8" font-family="Times,serif" font-size="14.00" fill="#000000">RobotDetailComponent</text>
</g>
<!-- RobotDetailComponent&#45;&gt;DashboardModule -->
<g id="edge13" class="edge">
<title>RobotDetailComponent&#45;&gt;DashboardModule</title>
<path fill="none" stroke="#000000" d="M2716,-122.2819C2716,-137.9478 2716,-158 2716,-158 2716,-158 2298.3278,-158 2298.3278,-158"/>
<polygon fill="#000000" stroke="#000000" points="2298.3279,-154.5001 2288.3278,-158 2298.3278,-161.5001 2298.3279,-154.5001"/>
</g>
<!-- StrategyAddComponent -->
<g id="node14" class="node">
<title>StrategyAddComponent</title>
<polygon fill="#ffffb3" stroke="#000000" points="2623.0926,-122 2470.9074,-122 2470.9074,-86 2623.0926,-86 2623.0926,-122"/>
<text text-anchor="middle" x="2547" y="-99.8" font-family="Times,serif" font-size="14.00" fill="#000000">StrategyAddComponent</text>
</g>
<!-- StrategyAddComponent&#45;&gt;DashboardModule -->
<g id="edge14" class="edge">
<title>StrategyAddComponent&#45;&gt;DashboardModule</title>
<path fill="none" stroke="#000000" d="M2547,-122.1871C2547,-137.1824 2547,-156 2547,-156 2547,-156 2298.3765,-156 2298.3765,-156"/>
<polygon fill="#000000" stroke="#000000" points="2298.3765,-152.5001 2288.3765,-156 2298.3765,-159.5001 2298.3765,-152.5001"/>
</g>
<!-- StrategyComponent -->
<g id="node15" class="node">
<title>StrategyComponent</title>
<polygon fill="#ffffb3" stroke="#000000" points="2452.986,-122 2325.014,-122 2325.014,-86 2452.986,-86 2452.986,-122"/>
<text text-anchor="middle" x="2389" y="-99.8" font-family="Times,serif" font-size="14.00" fill="#000000">StrategyComponent</text>
</g>
<!-- StrategyComponent&#45;&gt;DashboardModule -->
<g id="edge15" class="edge">
<title>StrategyComponent&#45;&gt;DashboardModule</title>
<path fill="none" stroke="#000000" d="M2389,-122.0511C2389,-136.373 2389,-154 2389,-154 2389,-154 2298.4085,-154 2298.4085,-154"/>
<polygon fill="#000000" stroke="#000000" points="2298.4086,-150.5001 2288.4085,-154 2298.4085,-157.5001 2298.4086,-150.5001"/>
</g>
<!-- StrategyCopyComponent -->
<g id="node16" class="node">
<title>StrategyCopyComponent</title>
<polygon fill="#ffffb3" stroke="#000000" points="2307.3229,-122 2148.6771,-122 2148.6771,-86 2307.3229,-86 2307.3229,-122"/>
<text text-anchor="middle" x="2228" y="-99.8" font-family="Times,serif" font-size="14.00" fill="#000000">StrategyCopyComponent</text>
</g>
<!-- StrategyCopyComponent&#45;&gt;DashboardModule -->
<g id="edge16" class="edge">
<title>StrategyCopyComponent&#45;&gt;DashboardModule</title>
<path fill="none" stroke="#000000" d="M2228,-122.1061C2228,-122.1061 2228,-140.991 2228,-140.991"/>
<polygon fill="#000000" stroke="#000000" points="2224.5001,-140.9909 2228,-150.991 2231.5001,-140.991 2224.5001,-140.9909"/>
</g>
<!-- StrategyCreateMetaComponent -->
<g id="node17" class="node">
<title>StrategyCreateMetaComponent</title>
<polygon fill="#ffffb3" stroke="#000000" points="2130.7822,-122 1937.2178,-122 1937.2178,-86 2130.7822,-86 2130.7822,-122"/>
<text text-anchor="middle" x="2034" y="-99.8" font-family="Times,serif" font-size="14.00" fill="#000000">StrategyCreateMetaComponent</text>
</g>
<!-- StrategyCreateMetaComponent&#45;&gt;DashboardModule -->
<g id="edge17" class="edge">
<title>StrategyCreateMetaComponent&#45;&gt;DashboardModule</title>
<path fill="none" stroke="#000000" d="M2034,-122.0511C2034,-136.373 2034,-154 2034,-154 2034,-154 2157.6806,-154 2157.6806,-154"/>
<polygon fill="#000000" stroke="#000000" points="2157.6807,-157.5001 2167.6806,-154 2157.6806,-150.5001 2157.6807,-157.5001"/>
</g>
<!-- StrategyEditComponent -->
<g id="node18" class="node">
<title>StrategyEditComponent</title>
<polygon fill="#ffffb3" stroke="#000000" points="1919.8201,-122 1768.1799,-122 1768.1799,-86 1919.8201,-86 1919.8201,-122"/>
<text text-anchor="middle" x="1844" y="-99.8" font-family="Times,serif" font-size="14.00" fill="#000000">StrategyEditComponent</text>
</g>
<!-- StrategyEditComponent&#45;&gt;DashboardModule -->
<g id="edge18" class="edge">
<title>StrategyEditComponent&#45;&gt;DashboardModule</title>
<path fill="none" stroke="#000000" d="M1844,-122.1871C1844,-137.1824 1844,-156 1844,-156 1844,-156 2157.5776,-156 2157.5776,-156"/>
<polygon fill="#000000" stroke="#000000" points="2157.5776,-159.5001 2167.5776,-156 2157.5775,-152.5001 2157.5776,-159.5001"/>
</g>
<!-- StrategyRentComponent -->
<g id="node19" class="node">
<title>StrategyRentComponent</title>
<polygon fill="#ffffb3" stroke="#000000" points="1750.4284,-122 1595.5716,-122 1595.5716,-86 1750.4284,-86 1750.4284,-122"/>
<text text-anchor="middle" x="1673" y="-99.8" font-family="Times,serif" font-size="14.00" fill="#000000">StrategyRentComponent</text>
</g>
<!-- StrategyRentComponent&#45;&gt;DashboardModule -->
<g id="edge19" class="edge">
<title>StrategyRentComponent&#45;&gt;DashboardModule</title>
<path fill="none" stroke="#000000" d="M1673,-122.2819C1673,-137.9478 1673,-158 1673,-158 1673,-158 2157.8136,-158 2157.8136,-158"/>
<polygon fill="#000000" stroke="#000000" points="2157.8136,-161.5001 2167.8136,-158 2157.8136,-154.5001 2157.8136,-161.5001"/>
</g>
<!-- StrategyVerifyCodeComponent -->
<g id="node20" class="node">
<title>StrategyVerifyCodeComponent</title>
<polygon fill="#ffffb3" stroke="#000000" points="1578.0702,-122 1383.9298,-122 1383.9298,-86 1578.0702,-86 1578.0702,-122"/>
<text text-anchor="middle" x="1481" y="-99.8" font-family="Times,serif" font-size="14.00" fill="#000000">StrategyVerifyCodeComponent</text>
</g>
<!-- StrategyVerifyCodeComponent&#45;&gt;DashboardModule -->
<g id="edge20" class="edge">
<title>StrategyVerifyCodeComponent&#45;&gt;DashboardModule</title>
<path fill="none" stroke="#000000" d="M1481,-122.027C1481,-138.3976 1481,-160 1481,-160 1481,-160 2157.8179,-160 2157.8179,-160"/>
<polygon fill="#000000" stroke="#000000" points="2157.818,-163.5001 2167.8179,-160 2157.8179,-156.5001 2157.818,-163.5001"/>
</g>
<!-- AgentModule -->
<g id="node22" class="node">
<title>AgentModule</title>
<polygon fill="#8dd3c7" stroke="#000000" points="1359.7619,-122 1356.7619,-126 1335.7619,-126 1332.7619,-122 1266.2381,-122 1266.2381,-86 1359.7619,-86 1359.7619,-122"/>
<text text-anchor="middle" x="1313" y="-99.8" font-family="Times,serif" font-size="14.00" fill="#000000">AgentModule</text>
</g>
<!-- AgentModule&#45;&gt;DashboardModule -->
<g id="edge21" class="edge">
<title>AgentModule&#45;&gt;DashboardModule</title>
<path fill="none" stroke="#000000" d="M1313,-122.0225C1313,-139.3734 1313,-163 1313,-163 1313,-163 2157.6104,-163 2157.6104,-163"/>
<polygon fill="#000000" stroke="#000000" points="2157.6105,-166.5001 2167.6104,-163 2157.6104,-159.5001 2157.6105,-166.5001"/>
</g>
<!-- BacktestModule -->
<g id="node23" class="node">
<title>BacktestModule</title>
<polygon fill="#8dd3c7" stroke="#000000" points="1247.7563,-122 1244.7563,-126 1223.7563,-126 1220.7563,-122 1140.2437,-122 1140.2437,-86 1247.7563,-86 1247.7563,-122"/>
<text text-anchor="middle" x="1194" y="-99.8" font-family="Times,serif" font-size="14.00" fill="#000000">BacktestModule</text>
</g>
<!-- BacktestModule&#45;&gt;DashboardModule -->
<g id="edge22" class="edge">
<title>BacktestModule&#45;&gt;DashboardModule</title>
<path fill="none" stroke="#000000" d="M1194,-122.302C1194,-140.2699 1194,-165 1194,-165 1194,-165 2157.5592,-165 2157.5592,-165"/>
<polygon fill="#000000" stroke="#000000" points="2157.5592,-168.5001 2167.5592,-165 2157.5592,-161.5001 2157.5592,-168.5001"/>
</g>
<!-- ChargeModule -->
<g id="node24" class="node">
<title>ChargeModule</title>
<polygon fill="#8dd3c7" stroke="#000000" points="1121.9762,-122 1118.9762,-126 1097.9762,-126 1094.9762,-122 1022.0238,-122 1022.0238,-86 1121.9762,-86 1121.9762,-122"/>
<text text-anchor="middle" x="1072" y="-99.8" font-family="Times,serif" font-size="14.00" fill="#000000">ChargeModule</text>
</g>
<!-- ChargeModule&#45;&gt;DashboardModule -->
<g id="edge23" class="edge">
<title>ChargeModule&#45;&gt;DashboardModule</title>
<path fill="none" stroke="#000000" d="M1072,-122.2222C1072,-140.8285 1072,-167 1072,-167 1072,-167 2157.8799,-167 2157.8799,-167"/>
<polygon fill="#000000" stroke="#000000" points="2157.88,-170.5001 2167.8799,-167 2157.8799,-163.5001 2157.88,-170.5001"/>
</g>
<!-- ExchangeModule -->
<g id="node25" class="node">
<title>ExchangeModule</title>
<polygon fill="#8dd3c7" stroke="#000000" points="1004.2465,-122 1001.2465,-126 980.2465,-126 977.2465,-122 889.7535,-122 889.7535,-86 1004.2465,-86 1004.2465,-122"/>
<text text-anchor="middle" x="947" y="-99.8" font-family="Times,serif" font-size="14.00" fill="#000000">ExchangeModule</text>
</g>
<!-- ExchangeModule&#45;&gt;DashboardModule -->
<g id="edge24" class="edge">
<title>ExchangeModule&#45;&gt;DashboardModule</title>
<path fill="none" stroke="#000000" d="M947,-122.1061C947,-141.3391 947,-169 947,-169 947,-169 2157.5054,-169 2157.5054,-169"/>
<polygon fill="#000000" stroke="#000000" points="2157.5054,-172.5001 2167.5054,-169 2157.5053,-165.5001 2157.5054,-172.5001"/>
</g>
<!-- RobotModule -->
<g id="node26" class="node">
<title>RobotModule</title>
<polygon fill="#8dd3c7" stroke="#000000" points="871.7773,-122 868.7773,-126 847.7773,-126 844.7773,-122 778.2227,-122 778.2227,-86 871.7773,-86 871.7773,-122"/>
<text text-anchor="middle" x="825" y="-99.8" font-family="Times,serif" font-size="14.00" fill="#000000">RobotModule</text>
</g>
<!-- RobotModule&#45;&gt;DashboardModule -->
<g id="edge25" class="edge">
<title>RobotModule&#45;&gt;DashboardModule</title>
<path fill="none" stroke="#000000" d="M825,-122.2228C825,-142.3652 825,-172 825,-172 825,-172 2157.7148,-172 2157.7148,-172"/>
<polygon fill="#000000" stroke="#000000" points="2157.7149,-175.5001 2167.7148,-172 2157.7148,-168.5001 2157.7149,-175.5001"/>
</g>
<!-- SharedModule -->
<g id="node27" class="node">
<title>SharedModule</title>
<polygon fill="#8dd3c7" stroke="#000000" points="760.4231,-122 757.4231,-126 736.4231,-126 733.4231,-122 661.5769,-122 661.5769,-86 760.4231,-86 760.4231,-122"/>
<text text-anchor="middle" x="711" y="-99.8" font-family="Times,serif" font-size="14.00" fill="#000000">SharedModule</text>
</g>
<!-- SharedModule&#45;&gt;DashboardModule -->
<g id="edge26" class="edge">
<title>SharedModule&#45;&gt;DashboardModule</title>
<path fill="none" stroke="#000000" d="M711,-122.0267C711,-142.7672 711,-174 711,-174 711,-174 2157.5957,-174 2157.5957,-174"/>
<polygon fill="#000000" stroke="#000000" points="2157.5957,-177.5001 2167.5957,-174 2157.5956,-170.5001 2157.5957,-177.5001"/>
</g>
<!-- SquareModule -->
<g id="node28" class="node">
<title>SquareModule</title>
<polygon fill="#8dd3c7" stroke="#000000" points="644.4231,-122 641.4231,-126 620.4231,-126 617.4231,-122 545.5769,-122 545.5769,-86 644.4231,-86 644.4231,-122"/>
<text text-anchor="middle" x="595" y="-99.8" font-family="Times,serif" font-size="14.00" fill="#000000">SquareModule</text>
</g>
<!-- SquareModule&#45;&gt;DashboardModule -->
<g id="edge27" class="edge">
<title>SquareModule&#45;&gt;DashboardModule</title>
<path fill="none" stroke="#000000" d="M595,-122.1686C595,-143.498 595,-176 595,-176 595,-176 2157.4553,-176 2157.4553,-176"/>
<polygon fill="#000000" stroke="#000000" points="2157.4553,-179.5001 2167.4553,-176 2157.4553,-172.5001 2157.4553,-179.5001"/>
</g>
<!-- StrategyModule -->
<g id="node29" class="node">
<title>StrategyModule</title>
<polygon fill="#8dd3c7" stroke="#000000" points="528.2036,-122 525.2036,-126 504.2036,-126 501.2036,-122 421.7964,-122 421.7964,-86 528.2036,-86 528.2036,-122"/>
<text text-anchor="middle" x="475" y="-99.8" font-family="Times,serif" font-size="14.00" fill="#000000">StrategyModule</text>
</g>
<!-- StrategyModule&#45;&gt;DashboardModule -->
<g id="edge28" class="edge">
<title>StrategyModule&#45;&gt;DashboardModule</title>
<path fill="none" stroke="#000000" d="M475,-122.2921C475,-144.2057 475,-178 475,-178 475,-178 2157.6578,-178 2157.6578,-178"/>
<polygon fill="#000000" stroke="#000000" points="2157.6578,-181.5001 2167.6578,-178 2157.6577,-174.5001 2157.6578,-181.5001"/>
</g>
<!-- ToolModule -->
<g id="node30" class="node">
<title>ToolModule</title>
<polygon fill="#8dd3c7" stroke="#000000" points="403.993,-122 400.993,-126 379.993,-126 376.993,-122 318.007,-122 318.007,-86 403.993,-86 403.993,-122"/>
<text text-anchor="middle" x="361" y="-99.8" font-family="Times,serif" font-size="14.00" fill="#000000">ToolModule</text>
</g>
<!-- ToolModule&#45;&gt;DashboardModule -->
<g id="edge29" class="edge">
<title>ToolModule&#45;&gt;DashboardModule</title>
<path fill="none" stroke="#000000" d="M361,-122.2479C361,-145.0179 361,-181 361,-181 361,-181 2157.7336,-181 2157.7336,-181"/>
<polygon fill="#000000" stroke="#000000" points="2157.7337,-184.5001 2167.7336,-181 2157.7336,-177.5001 2157.7337,-184.5001"/>
</g>
<!-- RobotGuard -->
<g id="node31" class="node">
<title>RobotGuard</title>
<ellipse fill="#fdb462" stroke="#000000" cx="235" cy="-104" rx="58.5521" ry="18"/>
<text text-anchor="middle" x="235" y="-99.8" font-family="Times,serif" font-size="14.00" fill="#000000">RobotGuard</text>
</g>
<!-- RobotGuard&#45;&gt;DashboardModule -->
<g id="edge30" class="edge">
<title>RobotGuard&#45;&gt;DashboardModule</title>
<path fill="none" stroke="#000000" d="M235,-122.3228C235,-145.6602 235,-183 235,-183 235,-183 2157.8105,-183 2157.8105,-183"/>
<polygon fill="#000000" stroke="#000000" points="2157.8105,-186.5001 2167.8105,-183 2157.8105,-179.5001 2157.8105,-186.5001"/>
</g>
<!-- StrategyGuard -->
<g id="node32" class="node">
<title>StrategyGuard</title>
<ellipse fill="#fdb462" stroke="#000000" cx="91" cy="-104" rx="67.1946" ry="18"/>
<text text-anchor="middle" x="91" y="-99.8" font-family="Times,serif" font-size="14.00" fill="#000000">StrategyGuard</text>
</g>
<!-- StrategyGuard&#45;&gt;DashboardModule -->
<g id="edge31" class="edge">
<title>StrategyGuard&#45;&gt;DashboardModule</title>
<path fill="none" stroke="#000000" d="M91,-122.3802C91,-146.2785 91,-185 91,-185 91,-185 2157.769,-185 2157.769,-185"/>
<polygon fill="#000000" stroke="#000000" points="2157.769,-188.5001 2167.769,-185 2157.7689,-181.5001 2157.769,-188.5001"/>
</g>
</g>
</svg>
