<?xml version="1.0" encoding="UTF-8" standalone="no"?>
<!DOCTYPE svg PUBLIC "-//W3C//DTD SVG 1.1//EN"
 "http://www.w3.org/Graphics/SVG/1.1/DTD/svg11.dtd">
<!-- Generated by graphviz version 2.40.1 (20161225.0304)
 -->
<!-- Title: dependencies Pages: 1 -->
<svg width="3945pt" height="211pt"
 viewBox="0.00 0.00 3945.00 211.00" xmlns="http://www.w3.org/2000/svg" xmlns:xlink="http://www.w3.org/1999/xlink">
<g id="graph0" class="graph" transform="scale(1 1) rotate(0) translate(4 207)">
<title>dependencies</title>
<polygon fill="#ffffff" stroke="transparent" points="-4,4 -4,-207 3941,-207 3941,4 -4,4"/>
<text text-anchor="start" x="1947.5091" y="-42.4" font-family="sans-serif" font-weight="bold" font-size="14.00" fill="#000000">Legend</text>
<polygon fill="#ffffb3" stroke="transparent" points="1734.5,-10 1734.5,-30 1754.5,-30 1754.5,-10 1734.5,-10"/>
<text text-anchor="start" x="1758.129" y="-15.4" font-family="sans-serif" font-size="14.00" fill="#000000"> &#160;Declarations</text>
<polygon fill="#8dd3c7" stroke="transparent" points="1847.5,-10 1847.5,-30 1867.5,-30 1867.5,-10 1847.5,-10"/>
<text text-anchor="start" x="1871.2251" y="-15.4" font-family="sans-serif" font-size="14.00" fill="#000000"> &#160;Module</text>
<polygon fill="#80b1d3" stroke="transparent" points="1933.5,-10 1933.5,-30 1953.5,-30 1953.5,-10 1933.5,-10"/>
<text text-anchor="start" x="1957.2812" y="-15.4" font-family="sans-serif" font-size="14.00" fill="#000000"> &#160;Bootstrap</text>
<polygon fill="#fdb462" stroke="transparent" points="2030.5,-10 2030.5,-30 2050.5,-30 2050.5,-10 2030.5,-10"/>
<text text-anchor="start" x="2054.1732" y="-15.4" font-family="sans-serif" font-size="14.00" fill="#000000"> &#160;Providers</text>
<polygon fill="#fb8072" stroke="transparent" points="2126.5,-10 2126.5,-30 2146.5,-30 2146.5,-10 2126.5,-10"/>
<text text-anchor="start" x="2150.2258" y="-15.4" font-family="sans-serif" font-size="14.00" fill="#000000"> &#160;Exports</text>
<g id="clust1" class="cluster">
<title>cluster_DashboardModule</title>
<polygon fill="none" stroke="#000000" stroke-dasharray="1,5" points="8,-70 8,-195 3929,-195 3929,-70 8,-70"/>
</g>
<g id="clust2" class="cluster">
<title>cluster_DashboardModule_declarations</title>
<polygon fill="none" stroke="#000000" points="1040,-78 1040,-130 3921,-130 3921,-78 1040,-78"/>
</g>
<g id="clust21" class="cluster">
<title>cluster_DashboardModule_imports</title>
<polygon fill="none" stroke="#000000" points="222,-78 222,-130 1032,-130 1032,-78 222,-78"/>
</g>
<g id="clust24" class="cluster">
<title>cluster_DashboardModule_providers</title>
<polygon fill="none" stroke="#000000" points="16,-78 16,-130 214,-130 214,-78 16,-78"/>
</g>
<!-- AgentAddComponent -->
<g id="node1" class="node">
<title>AgentAddComponent</title>
<polygon fill="#ffffb3" stroke="#000000" points="3912.6512,-122 3773.3488,-122 3773.3488,-86 3912.6512,-86 3912.6512,-122"/>
<text text-anchor="middle" x="3843" y="-99.8" font-family="Times,serif" font-size="14.00" fill="#000000">AgentAddComponent</text>
</g>
<!-- DashboardModule -->
<g id="node19" class="node">
<title>DashboardModule</title>
<polygon fill="#8dd3c7" stroke="#000000" points="2032.191,-187 2029.191,-191 2008.191,-191 2005.191,-187 1911.809,-187 1911.809,-151 2032.191,-151 2032.191,-187"/>
<text text-anchor="middle" x="1972" y="-164.8" font-family="Times,serif" font-size="14.00" fill="#000000">DashboardModule</text>
</g>
<!-- AgentAddComponent&#45;&gt;DashboardModule -->
<g id="edge1" class="edge">
<title>AgentAddComponent&#45;&gt;DashboardModule</title>
<path fill="none" stroke="#000000" d="M3843,-122.3802C3843,-146.2785 3843,-185 3843,-185 3843,-185 2042.1324,-185 2042.1324,-185"/>
<polygon fill="#000000" stroke="#000000" points="2042.1325,-181.5001 2032.1324,-185 2042.1324,-188.5001 2042.1325,-181.5001"/>
</g>
<!-- AgentComponent -->
<g id="node2" class="node">
<title>AgentComponent</title>
<polygon fill="#ffffb3" stroke="#000000" points="3754.5451,-122 3639.4549,-122 3639.4549,-86 3754.5451,-86 3754.5451,-122"/>
<text text-anchor="middle" x="3697" y="-99.8" font-family="Times,serif" font-size="14.00" fill="#000000">AgentComponent</text>
</g>
<!-- AgentComponent&#45;&gt;DashboardModule -->
<g id="edge2" class="edge">
<title>AgentComponent&#45;&gt;DashboardModule</title>
<path fill="none" stroke="#000000" d="M3697,-122.0908C3697,-145.1328 3697,-182 3697,-182 3697,-182 2042.1305,-182 2042.1305,-182"/>
<polygon fill="#000000" stroke="#000000" points="2042.1306,-178.5001 2032.1305,-182 2042.1305,-185.5001 2042.1306,-178.5001"/>
</g>
<!-- CommunityComponent -->
<g id="node3" class="node">
<title>CommunityComponent</title>
<polygon fill="#ffffb3" stroke="#000000" points="3621.2316,-122 3472.7684,-122 3472.7684,-86 3621.2316,-86 3621.2316,-122"/>
<text text-anchor="middle" x="3547" y="-99.8" font-family="Times,serif" font-size="14.00" fill="#000000">CommunityComponent</text>
</g>
<!-- CommunityComponent&#45;&gt;DashboardModule -->
<g id="edge3" class="edge">
<title>CommunityComponent&#45;&gt;DashboardModule</title>
<path fill="none" stroke="#000000" d="M3547,-122.1554C3547,-144.3519 3547,-179 3547,-179 3547,-179 2042.2969,-179 2042.2969,-179"/>
<polygon fill="#000000" stroke="#000000" points="2042.2969,-175.5001 2032.2969,-179 2042.2968,-182.5001 2042.2969,-175.5001"/>
</g>
<!-- DashboardComponent -->
<g id="node4" class="node">
<title>DashboardComponent</title>
<polygon fill="#ffffb3" stroke="#000000" points="3454.9734,-122 3313.0266,-122 3313.0266,-86 3454.9734,-86 3454.9734,-122"/>
<text text-anchor="middle" x="3384" y="-99.8" font-family="Times,serif" font-size="14.00" fill="#000000">DashboardComponent</text>
</g>
<!-- DashboardComponent&#45;&gt;DashboardModule -->
<g id="edge4" class="edge">
<title>DashboardComponent&#45;&gt;DashboardModule</title>
<path fill="none" stroke="#000000" d="M3384,-122.1686C3384,-143.498 3384,-176 3384,-176 3384,-176 2042.2202,-176 2042.2202,-176"/>
<polygon fill="#000000" stroke="#000000" points="2042.2202,-172.5001 2032.2202,-176 2042.2201,-179.5001 2042.2202,-172.5001"/>
</g>
<!-- DocComponent -->
<g id="node5" class="node">
<title>DocComponent</title>
<polygon fill="#ffffb3" stroke="#000000" points="3295.1542,-122 3190.8458,-122 3190.8458,-86 3295.1542,-86 3295.1542,-122"/>
<text text-anchor="middle" x="3243" y="-99.8" font-family="Times,serif" font-size="14.00" fill="#000000">DocComponent</text>
</g>
<!-- DocComponent&#45;&gt;DashboardModule -->
<g id="edge5" class="edge">
<title>DocComponent&#45;&gt;DashboardModule</title>
<path fill="none" stroke="#000000" d="M3243,-122.0267C3243,-142.7672 3243,-174 3243,-174 3243,-174 2042.4479,-174 2042.4479,-174"/>
<polygon fill="#000000" stroke="#000000" points="2042.448,-170.5001 2032.4479,-174 2042.4479,-177.5001 2042.448,-170.5001"/>
</g>
<!-- FactComponent -->
<g id="node6" class="node">
<title>FactComponent</title>
<polygon fill="#ffffb3" stroke="#000000" points="3172.9357,-122 3067.0643,-122 3067.0643,-86 3172.9357,-86 3172.9357,-122"/>
<text text-anchor="middle" x="3120" y="-99.8" font-family="Times,serif" font-size="14.00" fill="#000000">FactComponent</text>
</g>
<!-- FactComponent&#45;&gt;DashboardModule -->
<g id="edge6" class="edge">
<title>FactComponent&#45;&gt;DashboardModule</title>
<path fill="none" stroke="#000000" d="M3120,-122.308C3120,-142.1455 3120,-171 3120,-171 3120,-171 2042.1051,-171 2042.1051,-171"/>
<polygon fill="#000000" stroke="#000000" points="2042.1052,-167.5001 2032.1051,-171 2042.1051,-174.5001 2042.1052,-167.5001"/>
</g>
<!-- RechargeComponent -->
<g id="node7" class="node">
<title>RechargeComponent</title>
<polygon fill="#ffffb3" stroke="#000000" points="3049.1881,-122 2914.8119,-122 2914.8119,-86 3049.1881,-86 3049.1881,-122"/>
<text text-anchor="middle" x="2982" y="-99.8" font-family="Times,serif" font-size="14.00" fill="#000000">RechargeComponent</text>
</g>
<!-- RechargeComponent&#45;&gt;DashboardModule -->
<g id="edge7" class="edge">
<title>RechargeComponent&#45;&gt;DashboardModule</title>
<path fill="none" stroke="#000000" d="M2982,-122.1686C2982,-141.0898 2982,-168 2982,-168 2982,-168 2042.1554,-168 2042.1554,-168"/>
<polygon fill="#000000" stroke="#000000" points="2042.1555,-164.5001 2032.1554,-168 2042.1554,-171.5001 2042.1555,-164.5001"/>
</g>
<!-- RobotComponent -->
<g id="node8" class="node">
<title>RobotComponent</title>
<polygon fill="#ffffb3" stroke="#000000" points="2896.5604,-122 2781.4396,-122 2781.4396,-86 2896.5604,-86 2896.5604,-122"/>
<text text-anchor="middle" x="2839" y="-99.8" font-family="Times,serif" font-size="14.00" fill="#000000">RobotComponent</text>
</g>
<!-- RobotComponent&#45;&gt;DashboardModule -->
<g id="edge8" class="edge">
<title>RobotComponent&#45;&gt;DashboardModule</title>
<path fill="none" stroke="#000000" d="M2839,-122.302C2839,-140.2699 2839,-165 2839,-165 2839,-165 2042.2774,-165 2042.2774,-165"/>
<polygon fill="#000000" stroke="#000000" points="2042.2774,-161.5001 2032.2774,-165 2042.2774,-168.5001 2042.2774,-161.5001"/>
</g>
<!-- RobotDebugComponent -->
<g id="node9" class="node">
<title>RobotDebugComponent</title>
<polygon fill="#ffffb3" stroke="#000000" points="2763.3808,-122 2610.6192,-122 2610.6192,-86 2763.3808,-86 2763.3808,-122"/>
<text text-anchor="middle" x="2687" y="-99.8" font-family="Times,serif" font-size="14.00" fill="#000000">RobotDebugComponent</text>
</g>
<!-- RobotDebugComponent&#45;&gt;DashboardModule -->
<g id="edge9" class="edge">
<title>RobotDebugComponent&#45;&gt;DashboardModule</title>
<path fill="none" stroke="#000000" d="M2687,-122.0225C2687,-139.3734 2687,-163 2687,-163 2687,-163 2042.3443,-163 2042.3443,-163"/>
<polygon fill="#000000" stroke="#000000" points="2042.3443,-159.5001 2032.3443,-163 2042.3442,-166.5001 2042.3443,-159.5001"/>
</g>
<!-- RobotDetailComponent -->
<g id="node10" class="node">
<title>RobotDetailComponent</title>
<polygon fill="#ffffb3" stroke="#000000" points="2592.7674,-122 2443.2326,-122 2443.2326,-86 2592.7674,-86 2592.7674,-122"/>
<text text-anchor="middle" x="2518" y="-99.8" font-family="Times,serif" font-size="14.00" fill="#000000">RobotDetailComponent</text>
</g>
<!-- RobotDetailComponent&#45;&gt;DashboardModule -->
<g id="edge10" class="edge">
<title>RobotDetailComponent&#45;&gt;DashboardModule</title>
<path fill="none" stroke="#000000" d="M2518,-122.027C2518,-138.3976 2518,-160 2518,-160 2518,-160 2042.2553,-160 2042.2553,-160"/>
<polygon fill="#000000" stroke="#000000" points="2042.2554,-156.5001 2032.2553,-160 2042.2553,-163.5001 2042.2554,-156.5001"/>
</g>
<!-- SquareComponent -->
<g id="node11" class="node">
<title>SquareComponent</title>
<polygon fill="#ffffb3" stroke="#000000" points="2425.205,-122 2304.795,-122 2304.795,-86 2425.205,-86 2425.205,-122"/>
<text text-anchor="middle" x="2365" y="-99.8" font-family="Times,serif" font-size="14.00" fill="#000000">SquareComponent</text>
</g>
<!-- SquareComponent&#45;&gt;DashboardModule -->
<g id="edge11" class="edge">
<title>SquareComponent&#45;&gt;DashboardModule</title>
<path fill="none" stroke="#000000" d="M2365,-122.2396C2365,-137.5706 2365,-157 2365,-157 2365,-157 2042.116,-157 2042.116,-157"/>
<polygon fill="#000000" stroke="#000000" points="2042.1161,-153.5001 2032.116,-157 2042.116,-160.5001 2042.1161,-153.5001"/>
</g>
<!-- StrategyAddComponent -->
<g id="node12" class="node">
<title>StrategyAddComponent</title>
<polygon fill="#ffffb3" stroke="#000000" points="2287.0926,-122 2134.9074,-122 2134.9074,-86 2287.0926,-86 2287.0926,-122"/>
<text text-anchor="middle" x="2211" y="-99.8" font-family="Times,serif" font-size="14.00" fill="#000000">StrategyAddComponent</text>
</g>
<!-- StrategyAddComponent&#45;&gt;DashboardModule -->
<g id="edge12" class="edge">
<title>StrategyAddComponent&#45;&gt;DashboardModule</title>
<path fill="none" stroke="#000000" d="M2211,-122.0511C2211,-136.373 2211,-154 2211,-154 2211,-154 2042.3098,-154 2042.3098,-154"/>
<polygon fill="#000000" stroke="#000000" points="2042.3098,-150.5001 2032.3098,-154 2042.3098,-157.5001 2042.3098,-150.5001"/>
</g>
<!-- StrategyComponent -->
<g id="node13" class="node">
<title>StrategyComponent</title>
<polygon fill="#ffffb3" stroke="#000000" points="2116.986,-122 1989.014,-122 1989.014,-86 2116.986,-86 2116.986,-122"/>
<text text-anchor="middle" x="2053" y="-99.8" font-family="Times,serif" font-size="14.00" fill="#000000">StrategyComponent</text>
</g>
<!-- StrategyComponent&#45;&gt;DashboardModule -->
<g id="edge13" class="edge">
<title>StrategyComponent&#45;&gt;DashboardModule</title>
<path fill="none" stroke="#000000" d="M2010.5512,-122.1061C2010.5512,-122.1061 2010.5512,-140.991 2010.5512,-140.991"/>
<polygon fill="#000000" stroke="#000000" points="2007.0513,-140.9909 2010.5512,-150.991 2014.0513,-140.991 2007.0513,-140.9909"/>
</g>
<!-- StrategyCopyComponent -->
<g id="node14" class="node">
<title>StrategyCopyComponent</title>
<polygon fill="#ffffb3" stroke="#000000" points="1971.3229,-122 1812.6771,-122 1812.6771,-86 1971.3229,-86 1971.3229,-122"/>
<text text-anchor="middle" x="1892" y="-99.8" font-family="Times,serif" font-size="14.00" fill="#000000">StrategyCopyComponent</text>
</g>
<!-- StrategyCopyComponent&#45;&gt;DashboardModule -->
<g id="edge14" class="edge">
<title>StrategyCopyComponent&#45;&gt;DashboardModule</title>
<path fill="none" stroke="#000000" d="M1941.533,-122.1061C1941.533,-122.1061 1941.533,-140.991 1941.533,-140.991"/>
<polygon fill="#000000" stroke="#000000" points="1938.033,-140.9909 1941.533,-150.991 1945.033,-140.991 1938.033,-140.9909"/>
</g>
<!-- StrategyCreateMetaComponent -->
<g id="node15" class="node">
<title>StrategyCreateMetaComponent</title>
<polygon fill="#ffffb3" stroke="#000000" points="1794.7822,-122 1601.2178,-122 1601.2178,-86 1794.7822,-86 1794.7822,-122"/>
<text text-anchor="middle" x="1698" y="-99.8" font-family="Times,serif" font-size="14.00" fill="#000000">StrategyCreateMetaComponent</text>
</g>
<!-- StrategyCreateMetaComponent&#45;&gt;DashboardModule -->
<g id="edge15" class="edge">
<title>StrategyCreateMetaComponent&#45;&gt;DashboardModule</title>
<path fill="none" stroke="#000000" d="M1698,-122.0511C1698,-136.373 1698,-154 1698,-154 1698,-154 1901.8695,-154 1901.8695,-154"/>
<polygon fill="#000000" stroke="#000000" points="1901.8696,-157.5001 1911.8695,-154 1901.8695,-150.5001 1901.8696,-157.5001"/>
</g>
<!-- StrategyEditComponent -->
<g id="node16" class="node">
<title>StrategyEditComponent</title>
<polygon fill="#ffffb3" stroke="#000000" points="1583.8201,-122 1432.1799,-122 1432.1799,-86 1583.8201,-86 1583.8201,-122"/>
<text text-anchor="middle" x="1508" y="-99.8" font-family="Times,serif" font-size="14.00" fill="#000000">StrategyEditComponent</text>
</g>
<!-- StrategyEditComponent&#45;&gt;DashboardModule -->
<g id="edge16" class="edge">
<title>StrategyEditComponent&#45;&gt;DashboardModule</title>
<path fill="none" stroke="#000000" d="M1508,-122.2396C1508,-137.5706 1508,-157 1508,-157 1508,-157 1901.8158,-157 1901.8158,-157"/>
<polygon fill="#000000" stroke="#000000" points="1901.8158,-160.5001 1911.8158,-157 1901.8158,-153.5001 1901.8158,-160.5001"/>
</g>
<!-- StrategyRentComponent -->
<g id="node17" class="node">
<title>StrategyRentComponent</title>
<polygon fill="#ffffb3" stroke="#000000" points="1414.4284,-122 1259.5716,-122 1259.5716,-86 1414.4284,-86 1414.4284,-122"/>
<text text-anchor="middle" x="1337" y="-99.8" font-family="Times,serif" font-size="14.00" fill="#000000">StrategyRentComponent</text>
</g>
<!-- StrategyRentComponent&#45;&gt;DashboardModule -->
<g id="edge17" class="edge">
<title>StrategyRentComponent&#45;&gt;DashboardModule</title>
<path fill="none" stroke="#000000" d="M1337,-122.027C1337,-138.3976 1337,-160 1337,-160 1337,-160 1901.6883,-160 1901.6883,-160"/>
<polygon fill="#000000" stroke="#000000" points="1901.6883,-163.5001 1911.6883,-160 1901.6882,-156.5001 1901.6883,-163.5001"/>
</g>
<!-- StrategyVerifyCodeComponent -->
<g id="node18" class="node">
<title>StrategyVerifyCodeComponent</title>
<polygon fill="#ffffb3" stroke="#000000" points="1242.0702,-122 1047.9298,-122 1047.9298,-86 1242.0702,-86 1242.0702,-122"/>
<text text-anchor="middle" x="1145" y="-99.8" font-family="Times,serif" font-size="14.00" fill="#000000">StrategyVerifyCodeComponent</text>
</g>
<!-- StrategyVerifyCodeComponent&#45;&gt;DashboardModule -->
<g id="edge18" class="edge">
<title>StrategyVerifyCodeComponent&#45;&gt;DashboardModule</title>
<path fill="none" stroke="#000000" d="M1145,-122.0225C1145,-139.3734 1145,-163 1145,-163 1145,-163 1901.858,-163 1901.858,-163"/>
<polygon fill="#000000" stroke="#000000" points="1901.8581,-166.5001 1911.858,-163 1901.858,-159.5001 1901.8581,-166.5001"/>
</g>
<!-- AgentModule -->
<g id="node20" class="node">
<title>AgentModule</title>
<polygon fill="#8dd3c7" stroke="#000000" points="1023.7619,-122 1020.7619,-126 999.7619,-126 996.7619,-122 930.2381,-122 930.2381,-86 1023.7619,-86 1023.7619,-122"/>
<text text-anchor="middle" x="977" y="-99.8" font-family="Times,serif" font-size="14.00" fill="#000000">AgentModule</text>
</g>
<!-- AgentModule&#45;&gt;DashboardModule -->
<g id="edge19" class="edge">
<title>AgentModule&#45;&gt;DashboardModule</title>
<path fill="none" stroke="#000000" d="M977,-122.302C977,-140.2699 977,-165 977,-165 977,-165 1901.6281,-165 1901.6281,-165"/>
<polygon fill="#000000" stroke="#000000" points="1901.6281,-168.5001 1911.6281,-165 1901.628,-161.5001 1901.6281,-168.5001"/>
</g>
<!-- BacktestModule -->
<g id="node21" class="node">
<title>BacktestModule</title>
<polygon fill="#8dd3c7" stroke="#000000" points="911.7563,-122 908.7563,-126 887.7563,-126 884.7563,-122 804.2437,-122 804.2437,-86 911.7563,-86 911.7563,-122"/>
<text text-anchor="middle" x="858" y="-99.8" font-family="Times,serif" font-size="14.00" fill="#000000">BacktestModule</text>
</g>
<!-- BacktestModule&#45;&gt;DashboardModule -->
<g id="edge20" class="edge">
<title>BacktestModule&#45;&gt;DashboardModule</title>
<path fill="none" stroke="#000000" d="M858,-122.1686C858,-141.0898 858,-168 858,-168 858,-168 1901.7115,-168 1901.7115,-168"/>
<polygon fill="#000000" stroke="#000000" points="1901.7116,-171.5001 1911.7115,-168 1901.7115,-164.5001 1901.7116,-171.5001"/>
</g>
<!-- ChargeModule -->
<g id="node22" class="node">
<title>ChargeModule</title>
<polygon fill="#8dd3c7" stroke="#000000" points="785.9762,-122 782.9762,-126 761.9762,-126 758.9762,-122 686.0238,-122 686.0238,-86 785.9762,-86 785.9762,-122"/>
<text text-anchor="middle" x="736" y="-99.8" font-family="Times,serif" font-size="14.00" fill="#000000">ChargeModule</text>
</g>
<!-- ChargeModule&#45;&gt;DashboardModule -->
<g id="edge21" class="edge">
<title>ChargeModule&#45;&gt;DashboardModule</title>
<path fill="none" stroke="#000000" d="M736,-122.308C736,-142.1455 736,-171 736,-171 736,-171 1901.5484,-171 1901.5484,-171"/>
<polygon fill="#000000" stroke="#000000" points="1901.5485,-174.5001 1911.5484,-171 1901.5484,-167.5001 1901.5485,-174.5001"/>
</g>
<!-- RobotModule -->
<g id="node23" class="node">
<title>RobotModule</title>
<polygon fill="#8dd3c7" stroke="#000000" points="667.7773,-122 664.7773,-126 643.7773,-126 640.7773,-122 574.2227,-122 574.2227,-86 667.7773,-86 667.7773,-122"/>
<text text-anchor="middle" x="621" y="-99.8" font-family="Times,serif" font-size="14.00" fill="#000000">RobotModule</text>
</g>
<!-- RobotModule&#45;&gt;DashboardModule -->
<g id="edge22" class="edge">
<title>RobotModule&#45;&gt;DashboardModule</title>
<path fill="none" stroke="#000000" d="M621,-122.0267C621,-142.7672 621,-174 621,-174 621,-174 1901.7666,-174 1901.7666,-174"/>
<polygon fill="#000000" stroke="#000000" points="1901.7666,-177.5001 1911.7666,-174 1901.7666,-170.5001 1901.7666,-177.5001"/>
</g>
<!-- SharedModule -->
<g id="node24" class="node">
<title>SharedModule</title>
<polygon fill="#8dd3c7" stroke="#000000" points="556.4231,-122 553.4231,-126 532.4231,-126 529.4231,-122 457.5769,-122 457.5769,-86 556.4231,-86 556.4231,-122"/>
<text text-anchor="middle" x="507" y="-99.8" font-family="Times,serif" font-size="14.00" fill="#000000">SharedModule</text>
</g>
<!-- SharedModule&#45;&gt;DashboardModule -->
<g id="edge23" class="edge">
<title>SharedModule&#45;&gt;DashboardModule</title>
<path fill="none" stroke="#000000" d="M507,-122.1686C507,-143.498 507,-176 507,-176 507,-176 1901.839,-176 1901.839,-176"/>
<polygon fill="#000000" stroke="#000000" points="1901.8391,-179.5001 1911.839,-176 1901.839,-172.5001 1901.8391,-179.5001"/>
</g>
<!-- StrategyModule -->
<g id="node25" class="node">
<title>StrategyModule</title>
<polygon fill="#8dd3c7" stroke="#000000" points="440.2036,-122 437.2036,-126 416.2036,-126 413.2036,-122 333.7964,-122 333.7964,-86 440.2036,-86 440.2036,-122"/>
<text text-anchor="middle" x="387" y="-99.8" font-family="Times,serif" font-size="14.00" fill="#000000">StrategyModule</text>
</g>
<!-- StrategyModule&#45;&gt;DashboardModule -->
<g id="edge24" class="edge">
<title>StrategyModule&#45;&gt;DashboardModule</title>
<path fill="none" stroke="#000000" d="M387,-122.1554C387,-144.3519 387,-179 387,-179 387,-179 1901.8016,-179 1901.8016,-179"/>
<polygon fill="#000000" stroke="#000000" points="1901.8016,-182.5001 1911.8016,-179 1901.8015,-175.5001 1901.8016,-182.5001"/>
</g>
<!-- ToolModule -->
<g id="node26" class="node">
<title>ToolModule</title>
<polygon fill="#8dd3c7" stroke="#000000" points="315.993,-122 312.993,-126 291.993,-126 288.993,-122 230.007,-122 230.007,-86 315.993,-86 315.993,-122"/>
<text text-anchor="middle" x="273" y="-99.8" font-family="Times,serif" font-size="14.00" fill="#000000">ToolModule</text>
</g>
<!-- ToolModule&#45;&gt;DashboardModule -->
<g id="edge25" class="edge">
<title>ToolModule&#45;&gt;DashboardModule</title>
<path fill="none" stroke="#000000" d="M273,-122.0908C273,-145.1328 273,-182 273,-182 273,-182 1901.5317,-182 1901.5317,-182"/>
<polygon fill="#000000" stroke="#000000" points="1901.5317,-185.5001 1911.5317,-182 1901.5317,-178.5001 1901.5317,-185.5001"/>
</g>
<!-- StrategyDetailGuard -->
<g id="node27" class="node">
<title>StrategyDetailGuard</title>
<ellipse fill="#fdb462" stroke="#000000" cx="115" cy="-104" rx="90.8858" ry="18"/>
<text text-anchor="middle" x="115" y="-99.8" font-family="Times,serif" font-size="14.00" fill="#000000">StrategyDetailGuard</text>
</g>
<!-- StrategyDetailGuard&#45;&gt;DashboardModule -->
<g id="edge26" class="edge">
<title>StrategyDetailGuard&#45;&gt;DashboardModule</title>
<path fill="none" stroke="#000000" d="M115,-122.3802C115,-146.2785 115,-185 115,-185 115,-185 1901.7948,-185 1901.7948,-185"/>
<polygon fill="#000000" stroke="#000000" points="1901.7949,-188.5001 1911.7948,-185 1901.7948,-181.5001 1901.7949,-188.5001"/>
</g>
</g>
</svg>
