<?xml version="1.0" encoding="UTF-8" standalone="no"?>
<!DOCTYPE svg PUBLIC "-//W3C//DTD SVG 1.1//EN"
 "http://www.w3.org/Graphics/SVG/1.1/DTD/svg11.dtd">
<!-- Generated by graphviz version 2.40.1 (20161225.0304)
 -->
<!-- Title: dependencies Pages: 1 -->
<svg width="3762pt" height="211pt"
 viewBox="0.00 0.00 3762.00 211.00" xmlns="http://www.w3.org/2000/svg" xmlns:xlink="http://www.w3.org/1999/xlink">
<g id="graph0" class="graph" transform="scale(1 1) rotate(0) translate(4 207)">
<title>dependencies</title>
<polygon fill="#ffffff" stroke="transparent" points="-4,4 -4,-207 3758,-207 3758,4 -4,4"/>
<text text-anchor="start" x="1856.0091" y="-42.4" font-family="sans-serif" font-weight="bold" font-size="14.00" fill="#000000">Legend</text>
<polygon fill="#ffffb3" stroke="transparent" points="1643,-10 1643,-30 1663,-30 1663,-10 1643,-10"/>
<text text-anchor="start" x="1666.629" y="-15.4" font-family="sans-serif" font-size="14.00" fill="#000000"> &#160;Declarations</text>
<polygon fill="#8dd3c7" stroke="transparent" points="1756,-10 1756,-30 1776,-30 1776,-10 1756,-10"/>
<text text-anchor="start" x="1779.7251" y="-15.4" font-family="sans-serif" font-size="14.00" fill="#000000"> &#160;Module</text>
<polygon fill="#80b1d3" stroke="transparent" points="1842,-10 1842,-30 1862,-30 1862,-10 1842,-10"/>
<text text-anchor="start" x="1865.7812" y="-15.4" font-family="sans-serif" font-size="14.00" fill="#000000"> &#160;Bootstrap</text>
<polygon fill="#fdb462" stroke="transparent" points="1939,-10 1939,-30 1959,-30 1959,-10 1939,-10"/>
<text text-anchor="start" x="1962.6732" y="-15.4" font-family="sans-serif" font-size="14.00" fill="#000000"> &#160;Providers</text>
<polygon fill="#fb8072" stroke="transparent" points="2035,-10 2035,-30 2055,-30 2055,-10 2035,-10"/>
<text text-anchor="start" x="2058.7258" y="-15.4" font-family="sans-serif" font-size="14.00" fill="#000000"> &#160;Exports</text>
<g id="clust1" class="cluster">
<title>cluster_DashboardModule</title>
<polygon fill="none" stroke="#000000" stroke-dasharray="1,5" points="8,-70 8,-195 3746,-195 3746,-70 8,-70"/>
</g>
<g id="clust2" class="cluster">
<title>cluster_DashboardModule_declarations</title>
<polygon fill="none" stroke="#000000" points="928,-78 928,-130 3738,-130 3738,-78 928,-78"/>
</g>
<g id="clust20" class="cluster">
<title>cluster_DashboardModule_imports</title>
<polygon fill="none" stroke="#000000" points="222,-78 222,-130 920,-130 920,-78 222,-78"/>
</g>
<g id="clust23" class="cluster">
<title>cluster_DashboardModule_providers</title>
<polygon fill="none" stroke="#000000" points="16,-78 16,-130 214,-130 214,-78 16,-78"/>
</g>
<!-- BacktestSimulationComponent -->
<g id="node1" class="node">
<title>BacktestSimulationComponent</title>
<polygon fill="#ffffb3" stroke="#000000" points="3730.4888,-122 3539.5112,-122 3539.5112,-86 3730.4888,-86 3730.4888,-122"/>
<text text-anchor="middle" x="3635" y="-99.8" font-family="Times,serif" font-size="14.00" fill="#000000">BacktestSimulationComponent</text>
</g>
<!-- DashboardModule -->
<g id="node18" class="node">
<title>DashboardModule</title>
<polygon fill="#8dd3c7" stroke="#000000" points="1920.191,-187 1917.191,-191 1896.191,-191 1893.191,-187 1799.809,-187 1799.809,-151 1920.191,-151 1920.191,-187"/>
<text text-anchor="middle" x="1860" y="-164.8" font-family="Times,serif" font-size="14.00" fill="#000000">DashboardModule</text>
</g>
<!-- BacktestSimulationComponent&#45;&gt;DashboardModule -->
<g id="edge1" class="edge">
<title>BacktestSimulationComponent&#45;&gt;DashboardModule</title>
<path fill="none" stroke="#000000" d="M3635,-122.1532C3635,-145.7566 3635,-184 3635,-184 3635,-184 1930.33,-184 1930.33,-184"/>
<polygon fill="#000000" stroke="#000000" points="1930.3301,-180.5001 1920.33,-184 1930.33,-187.5001 1930.3301,-180.5001"/>
</g>
<!-- CommunityComponent -->
<g id="node2" class="node">
<title>CommunityComponent</title>
<polygon fill="#ffffb3" stroke="#000000" points="3521.2316,-122 3372.7684,-122 3372.7684,-86 3521.2316,-86 3521.2316,-122"/>
<text text-anchor="middle" x="3447" y="-99.8" font-family="Times,serif" font-size="14.00" fill="#000000">CommunityComponent</text>
</g>
<!-- CommunityComponent&#45;&gt;DashboardModule -->
<g id="edge2" class="edge">
<title>CommunityComponent&#45;&gt;DashboardModule</title>
<path fill="none" stroke="#000000" d="M3447,-122.0908C3447,-145.1328 3447,-182 3447,-182 3447,-182 1930.2744,-182 1930.2744,-182"/>
<polygon fill="#000000" stroke="#000000" points="1930.2744,-178.5001 1920.2744,-182 1930.2744,-185.5001 1930.2744,-178.5001"/>
</g>
<!-- DashboardComponent -->
<g id="node3" class="node">
<title>DashboardComponent</title>
<polygon fill="#ffffb3" stroke="#000000" points="3354.9734,-122 3213.0266,-122 3213.0266,-86 3354.9734,-86 3354.9734,-122"/>
<text text-anchor="middle" x="3284" y="-99.8" font-family="Times,serif" font-size="14.00" fill="#000000">DashboardComponent</text>
</g>
<!-- DashboardComponent&#45;&gt;DashboardModule -->
<g id="edge3" class="edge">
<title>DashboardComponent&#45;&gt;DashboardModule</title>
<path fill="none" stroke="#000000" d="M3284,-122.2921C3284,-144.2057 3284,-178 3284,-178 3284,-178 1930.278,-178 1930.278,-178"/>
<polygon fill="#000000" stroke="#000000" points="1930.278,-174.5001 1920.278,-178 1930.2779,-181.5001 1930.278,-174.5001"/>
</g>
<!-- DocComponent -->
<g id="node4" class="node">
<title>DocComponent</title>
<polygon fill="#ffffb3" stroke="#000000" points="3195.1542,-122 3090.8458,-122 3090.8458,-86 3195.1542,-86 3195.1542,-122"/>
<text text-anchor="middle" x="3143" y="-99.8" font-family="Times,serif" font-size="14.00" fill="#000000">DocComponent</text>
</g>
<!-- DocComponent&#45;&gt;DashboardModule -->
<g id="edge4" class="edge">
<title>DocComponent&#45;&gt;DashboardModule</title>
<path fill="none" stroke="#000000" d="M3143,-122.2843C3143,-143.3211 3143,-175 3143,-175 3143,-175 1930.1609,-175 1930.1609,-175"/>
<polygon fill="#000000" stroke="#000000" points="1930.1609,-171.5001 1920.1609,-175 1930.1609,-178.5001 1930.1609,-171.5001"/>
</g>
<!-- FactComponent -->
<g id="node5" class="node">
<title>FactComponent</title>
<polygon fill="#ffffb3" stroke="#000000" points="3072.9357,-122 2967.0643,-122 2967.0643,-86 3072.9357,-86 3072.9357,-122"/>
<text text-anchor="middle" x="3020" y="-99.8" font-family="Times,serif" font-size="14.00" fill="#000000">FactComponent</text>
</g>
<!-- FactComponent&#45;&gt;DashboardModule -->
<g id="edge5" class="edge">
<title>FactComponent&#45;&gt;DashboardModule</title>
<path fill="none" stroke="#000000" d="M3020,-122.2228C3020,-142.3652 3020,-172 3020,-172 3020,-172 1930.3281,-172 1930.3281,-172"/>
<polygon fill="#000000" stroke="#000000" points="1930.3281,-168.5001 1920.3281,-172 1930.328,-175.5001 1930.3281,-168.5001"/>
</g>
<!-- RechargeComponent -->
<g id="node6" class="node">
<title>RechargeComponent</title>
<polygon fill="#ffffb3" stroke="#000000" points="2949.1881,-122 2814.8119,-122 2814.8119,-86 2949.1881,-86 2949.1881,-122"/>
<text text-anchor="middle" x="2882" y="-99.8" font-family="Times,serif" font-size="14.00" fill="#000000">RechargeComponent</text>
</g>
<!-- RechargeComponent&#45;&gt;DashboardModule -->
<g id="edge6" class="edge">
<title>RechargeComponent&#45;&gt;DashboardModule</title>
<path fill="none" stroke="#000000" d="M2882,-122.1061C2882,-141.3391 2882,-169 2882,-169 2882,-169 1930.1153,-169 1930.1153,-169"/>
<polygon fill="#000000" stroke="#000000" points="1930.1153,-165.5001 1920.1153,-169 1930.1152,-172.5001 1930.1153,-165.5001"/>
</g>
<!-- RobotComponent -->
<g id="node7" class="node">
<title>RobotComponent</title>
<polygon fill="#ffffb3" stroke="#000000" points="2796.5604,-122 2681.4396,-122 2681.4396,-86 2796.5604,-86 2796.5604,-122"/>
<text text-anchor="middle" x="2739" y="-99.8" font-family="Times,serif" font-size="14.00" fill="#000000">RobotComponent</text>
</g>
<!-- RobotComponent&#45;&gt;DashboardModule -->
<g id="edge7" class="edge">
<title>RobotComponent&#45;&gt;DashboardModule</title>
<path fill="none" stroke="#000000" d="M2739,-122.2222C2739,-140.8285 2739,-167 2739,-167 2739,-167 1930.4172,-167 1930.4172,-167"/>
<polygon fill="#000000" stroke="#000000" points="1930.4173,-163.5001 1920.4172,-167 1930.4172,-170.5001 1930.4173,-163.5001"/>
</g>
<!-- RobotCreationComponent -->
<g id="node8" class="node">
<title>RobotCreationComponent</title>
<polygon fill="#ffffb3" stroke="#000000" points="2662.7674,-122 2499.2326,-122 2499.2326,-86 2662.7674,-86 2662.7674,-122"/>
<text text-anchor="middle" x="2581" y="-99.8" font-family="Times,serif" font-size="14.00" fill="#000000">RobotCreationComponent</text>
</g>
<!-- RobotCreationComponent&#45;&gt;DashboardModule -->
<g id="edge8" class="edge">
<title>RobotCreationComponent&#45;&gt;DashboardModule</title>
<path fill="none" stroke="#000000" d="M2581,-122.0225C2581,-139.3734 2581,-163 2581,-163 2581,-163 1930.2319,-163 1930.2319,-163"/>
<polygon fill="#000000" stroke="#000000" points="1930.232,-159.5001 1920.2319,-163 1930.2319,-166.5001 1930.232,-159.5001"/>
</g>
<!-- RobotDebugComponent -->
<g id="node9" class="node">
<title>RobotDebugComponent</title>
<polygon fill="#ffffb3" stroke="#000000" points="2481.3808,-122 2328.6192,-122 2328.6192,-86 2481.3808,-86 2481.3808,-122"/>
<text text-anchor="middle" x="2405" y="-99.8" font-family="Times,serif" font-size="14.00" fill="#000000">RobotDebugComponent</text>
</g>
<!-- RobotDebugComponent&#45;&gt;DashboardModule -->
<g id="edge9" class="edge">
<title>RobotDebugComponent&#45;&gt;DashboardModule</title>
<path fill="none" stroke="#000000" d="M2405,-122.027C2405,-138.3976 2405,-160 2405,-160 2405,-160 1930.145,-160 1930.145,-160"/>
<polygon fill="#000000" stroke="#000000" points="1930.145,-156.5001 1920.145,-160 1930.1449,-163.5001 1930.145,-156.5001"/>
</g>
<!-- RobotDetailComponent -->
<g id="node10" class="node">
<title>RobotDetailComponent</title>
<polygon fill="#ffffb3" stroke="#000000" points="2310.7674,-122 2161.2326,-122 2161.2326,-86 2310.7674,-86 2310.7674,-122"/>
<text text-anchor="middle" x="2236" y="-99.8" font-family="Times,serif" font-size="14.00" fill="#000000">RobotDetailComponent</text>
</g>
<!-- RobotDetailComponent&#45;&gt;DashboardModule -->
<g id="edge10" class="edge">
<title>RobotDetailComponent&#45;&gt;DashboardModule</title>
<path fill="none" stroke="#000000" d="M2236,-122.2396C2236,-137.5706 2236,-157 2236,-157 2236,-157 1930.4109,-157 1930.4109,-157"/>
<polygon fill="#000000" stroke="#000000" points="1930.4109,-153.5001 1920.4109,-157 1930.4109,-160.5001 1930.4109,-153.5001"/>
</g>
<!-- SquareComponent -->
<g id="node11" class="node">
<title>SquareComponent</title>
<polygon fill="#ffffb3" stroke="#000000" points="2143.205,-122 2022.795,-122 2022.795,-86 2143.205,-86 2143.205,-122"/>
<text text-anchor="middle" x="2083" y="-99.8" font-family="Times,serif" font-size="14.00" fill="#000000">SquareComponent</text>
</g>
<!-- SquareComponent&#45;&gt;DashboardModule -->
<g id="edge11" class="edge">
<title>SquareComponent&#45;&gt;DashboardModule</title>
<path fill="none" stroke="#000000" d="M2083,-122.0511C2083,-136.373 2083,-154 2083,-154 2083,-154 1930.347,-154 1930.347,-154"/>
<polygon fill="#000000" stroke="#000000" points="1930.347,-150.5001 1920.347,-154 1930.347,-157.5001 1930.347,-150.5001"/>
</g>
<!-- StrategyComponent -->
<g id="node12" class="node">
<title>StrategyComponent</title>
<polygon fill="#ffffb3" stroke="#000000" points="2004.986,-122 1877.014,-122 1877.014,-86 2004.986,-86 2004.986,-122"/>
<text text-anchor="middle" x="1941" y="-99.8" font-family="Times,serif" font-size="14.00" fill="#000000">StrategyComponent</text>
</g>
<!-- StrategyComponent&#45;&gt;DashboardModule -->
<g id="edge12" class="edge">
<title>StrategyComponent&#45;&gt;DashboardModule</title>
<path fill="none" stroke="#000000" d="M1898.5512,-122.1061C1898.5512,-122.1061 1898.5512,-140.991 1898.5512,-140.991"/>
<polygon fill="#000000" stroke="#000000" points="1895.0513,-140.9909 1898.5512,-150.991 1902.0513,-140.991 1895.0513,-140.9909"/>
</g>
<!-- StrategyCopyComponent -->
<g id="node13" class="node">
<title>StrategyCopyComponent</title>
<polygon fill="#ffffb3" stroke="#000000" points="1859.3229,-122 1700.6771,-122 1700.6771,-86 1859.3229,-86 1859.3229,-122"/>
<text text-anchor="middle" x="1780" y="-99.8" font-family="Times,serif" font-size="14.00" fill="#000000">StrategyCopyComponent</text>
</g>
<!-- StrategyCopyComponent&#45;&gt;DashboardModule -->
<g id="edge13" class="edge">
<title>StrategyCopyComponent&#45;&gt;DashboardModule</title>
<path fill="none" stroke="#000000" d="M1829.533,-122.1061C1829.533,-122.1061 1829.533,-140.991 1829.533,-140.991"/>
<polygon fill="#000000" stroke="#000000" points="1826.033,-140.9909 1829.533,-150.991 1833.033,-140.991 1826.033,-140.9909"/>
</g>
<!-- StrategyCreateMetaComponent -->
<g id="node14" class="node">
<title>StrategyCreateMetaComponent</title>
<polygon fill="#ffffb3" stroke="#000000" points="1682.7822,-122 1489.2178,-122 1489.2178,-86 1682.7822,-86 1682.7822,-122"/>
<text text-anchor="middle" x="1586" y="-99.8" font-family="Times,serif" font-size="14.00" fill="#000000">StrategyCreateMetaComponent</text>
</g>
<!-- StrategyCreateMetaComponent&#45;&gt;DashboardModule -->
<g id="edge14" class="edge">
<title>StrategyCreateMetaComponent&#45;&gt;DashboardModule</title>
<path fill="none" stroke="#000000" d="M1586,-122.0511C1586,-136.373 1586,-154 1586,-154 1586,-154 1789.8695,-154 1789.8695,-154"/>
<polygon fill="#000000" stroke="#000000" points="1789.8696,-157.5001 1799.8695,-154 1789.8695,-150.5001 1789.8696,-157.5001"/>
</g>
<!-- StrategyEditComponent -->
<g id="node15" class="node">
<title>StrategyEditComponent</title>
<polygon fill="#ffffb3" stroke="#000000" points="1471.8201,-122 1320.1799,-122 1320.1799,-86 1471.8201,-86 1471.8201,-122"/>
<text text-anchor="middle" x="1396" y="-99.8" font-family="Times,serif" font-size="14.00" fill="#000000">StrategyEditComponent</text>
</g>
<!-- StrategyEditComponent&#45;&gt;DashboardModule -->
<g id="edge15" class="edge">
<title>StrategyEditComponent&#45;&gt;DashboardModule</title>
<path fill="none" stroke="#000000" d="M1396,-122.2396C1396,-137.5706 1396,-157 1396,-157 1396,-157 1789.8158,-157 1789.8158,-157"/>
<polygon fill="#000000" stroke="#000000" points="1789.8158,-160.5001 1799.8158,-157 1789.8158,-153.5001 1789.8158,-160.5001"/>
</g>
<!-- StrategyRentComponent -->
<g id="node16" class="node">
<title>StrategyRentComponent</title>
<polygon fill="#ffffb3" stroke="#000000" points="1302.4284,-122 1147.5716,-122 1147.5716,-86 1302.4284,-86 1302.4284,-122"/>
<text text-anchor="middle" x="1225" y="-99.8" font-family="Times,serif" font-size="14.00" fill="#000000">StrategyRentComponent</text>
</g>
<!-- StrategyRentComponent&#45;&gt;DashboardModule -->
<g id="edge16" class="edge">
<title>StrategyRentComponent&#45;&gt;DashboardModule</title>
<path fill="none" stroke="#000000" d="M1225,-122.027C1225,-138.3976 1225,-160 1225,-160 1225,-160 1789.6883,-160 1789.6883,-160"/>
<polygon fill="#000000" stroke="#000000" points="1789.6883,-163.5001 1799.6883,-160 1789.6882,-156.5001 1789.6883,-163.5001"/>
</g>
<!-- StrategyVerifyCodeComponent -->
<g id="node17" class="node">
<title>StrategyVerifyCodeComponent</title>
<polygon fill="#ffffb3" stroke="#000000" points="1130.0702,-122 935.9298,-122 935.9298,-86 1130.0702,-86 1130.0702,-122"/>
<text text-anchor="middle" x="1033" y="-99.8" font-family="Times,serif" font-size="14.00" fill="#000000">StrategyVerifyCodeComponent</text>
</g>
<!-- StrategyVerifyCodeComponent&#45;&gt;DashboardModule -->
<g id="edge17" class="edge">
<title>StrategyVerifyCodeComponent&#45;&gt;DashboardModule</title>
<path fill="none" stroke="#000000" d="M1033,-122.0225C1033,-139.3734 1033,-163 1033,-163 1033,-163 1789.858,-163 1789.858,-163"/>
<polygon fill="#000000" stroke="#000000" points="1789.8581,-166.5001 1799.858,-163 1789.858,-159.5001 1789.8581,-166.5001"/>
</g>
<!-- BacktestModule -->
<g id="node19" class="node">
<title>BacktestModule</title>
<polygon fill="#8dd3c7" stroke="#000000" points="911.7563,-122 908.7563,-126 887.7563,-126 884.7563,-122 804.2437,-122 804.2437,-86 911.7563,-86 911.7563,-122"/>
<text text-anchor="middle" x="858" y="-99.8" font-family="Times,serif" font-size="14.00" fill="#000000">BacktestModule</text>
</g>
<!-- BacktestModule&#45;&gt;DashboardModule -->
<g id="edge18" class="edge">
<title>BacktestModule&#45;&gt;DashboardModule</title>
<path fill="none" stroke="#000000" d="M858,-122.2222C858,-140.8285 858,-167 858,-167 858,-167 1789.5769,-167 1789.5769,-167"/>
<polygon fill="#000000" stroke="#000000" points="1789.577,-170.5001 1799.5769,-167 1789.5769,-163.5001 1789.577,-170.5001"/>
</g>
<!-- ChargeModule -->
<g id="node20" class="node">
<title>ChargeModule</title>
<polygon fill="#8dd3c7" stroke="#000000" points="785.9762,-122 782.9762,-126 761.9762,-126 758.9762,-122 686.0238,-122 686.0238,-86 785.9762,-86 785.9762,-122"/>
<text text-anchor="middle" x="736" y="-99.8" font-family="Times,serif" font-size="14.00" fill="#000000">ChargeModule</text>
</g>
<!-- ChargeModule&#45;&gt;DashboardModule -->
<g id="edge19" class="edge">
<title>ChargeModule&#45;&gt;DashboardModule</title>
<path fill="none" stroke="#000000" d="M736,-122.1061C736,-141.3391 736,-169 736,-169 736,-169 1789.5689,-169 1789.5689,-169"/>
<polygon fill="#000000" stroke="#000000" points="1789.5689,-172.5001 1799.5689,-169 1789.5688,-165.5001 1789.5689,-172.5001"/>
</g>
<!-- RobotModule -->
<g id="node21" class="node">
<title>RobotModule</title>
<polygon fill="#8dd3c7" stroke="#000000" points="667.7773,-122 664.7773,-126 643.7773,-126 640.7773,-122 574.2227,-122 574.2227,-86 667.7773,-86 667.7773,-122"/>
<text text-anchor="middle" x="621" y="-99.8" font-family="Times,serif" font-size="14.00" fill="#000000">RobotModule</text>
</g>
<!-- RobotModule&#45;&gt;DashboardModule -->
<g id="edge20" class="edge">
<title>RobotModule&#45;&gt;DashboardModule</title>
<path fill="none" stroke="#000000" d="M621,-122.2228C621,-142.3652 621,-172 621,-172 621,-172 1789.8217,-172 1789.8217,-172"/>
<polygon fill="#000000" stroke="#000000" points="1789.8218,-175.5001 1799.8217,-172 1789.8217,-168.5001 1789.8218,-175.5001"/>
</g>
<!-- SharedModule -->
<g id="node22" class="node">
<title>SharedModule</title>
<polygon fill="#8dd3c7" stroke="#000000" points="556.4231,-122 553.4231,-126 532.4231,-126 529.4231,-122 457.5769,-122 457.5769,-86 556.4231,-86 556.4231,-122"/>
<text text-anchor="middle" x="507" y="-99.8" font-family="Times,serif" font-size="14.00" fill="#000000">SharedModule</text>
</g>
<!-- SharedModule&#45;&gt;DashboardModule -->
<g id="edge21" class="edge">
<title>SharedModule&#45;&gt;DashboardModule</title>
<path fill="none" stroke="#000000" d="M507,-122.2843C507,-143.3211 507,-175 507,-175 507,-175 1789.6774,-175 1789.6774,-175"/>
<polygon fill="#000000" stroke="#000000" points="1789.6775,-178.5001 1799.6774,-175 1789.6774,-171.5001 1789.6775,-178.5001"/>
</g>
<!-- StrategyModule -->
<g id="node23" class="node">
<title>StrategyModule</title>
<polygon fill="#8dd3c7" stroke="#000000" points="440.2036,-122 437.2036,-126 416.2036,-126 413.2036,-122 333.7964,-122 333.7964,-86 440.2036,-86 440.2036,-122"/>
<text text-anchor="middle" x="387" y="-99.8" font-family="Times,serif" font-size="14.00" fill="#000000">StrategyModule</text>
</g>
<!-- StrategyModule&#45;&gt;DashboardModule -->
<g id="edge22" class="edge">
<title>StrategyModule&#45;&gt;DashboardModule</title>
<path fill="none" stroke="#000000" d="M387,-122.2921C387,-144.2057 387,-178 387,-178 387,-178 1789.5105,-178 1789.5105,-178"/>
<polygon fill="#000000" stroke="#000000" points="1789.5105,-181.5001 1799.5105,-178 1789.5105,-174.5001 1789.5105,-181.5001"/>
</g>
<!-- ToolModule -->
<g id="node24" class="node">
<title>ToolModule</title>
<polygon fill="#8dd3c7" stroke="#000000" points="315.993,-122 312.993,-126 291.993,-126 288.993,-122 230.007,-122 230.007,-86 315.993,-86 315.993,-122"/>
<text text-anchor="middle" x="273" y="-99.8" font-family="Times,serif" font-size="14.00" fill="#000000">ToolModule</text>
</g>
<!-- ToolModule&#45;&gt;DashboardModule -->
<g id="edge23" class="edge">
<title>ToolModule&#45;&gt;DashboardModule</title>
<path fill="none" stroke="#000000" d="M273,-122.0908C273,-145.1328 273,-182 273,-182 273,-182 1789.7256,-182 1789.7256,-182"/>
<polygon fill="#000000" stroke="#000000" points="1789.7256,-185.5001 1799.7256,-182 1789.7256,-178.5001 1789.7256,-185.5001"/>
</g>
<!-- StrategyDetailGuard -->
<g id="node25" class="node">
<title>StrategyDetailGuard</title>
<ellipse fill="#fdb462" stroke="#000000" cx="115" cy="-104" rx="90.8858" ry="18"/>
<text text-anchor="middle" x="115" y="-99.8" font-family="Times,serif" font-size="14.00" fill="#000000">StrategyDetailGuard</text>
</g>
<!-- StrategyDetailGuard&#45;&gt;DashboardModule -->
<g id="edge24" class="edge">
<title>StrategyDetailGuard&#45;&gt;DashboardModule</title>
<path fill="none" stroke="#000000" d="M115,-122.1532C115,-145.7566 115,-184 115,-184 115,-184 1789.68,-184 1789.68,-184"/>
<polygon fill="#000000" stroke="#000000" points="1789.6801,-187.5001 1799.68,-184 1789.68,-180.5001 1789.6801,-187.5001"/>
</g>
</g>
</svg>
