<?xml version="1.0" encoding="UTF-8" standalone="no"?>
<!DOCTYPE svg PUBLIC "-//W3C//DTD SVG 1.1//EN"
 "http://www.w3.org/Graphics/SVG/1.1/DTD/svg11.dtd">
<!-- Generated by graphviz version 2.40.1 (20161225.0304)
 -->
<!-- Title: dependencies Pages: 1 -->
<svg width="4738pt" height="284pt"
 viewBox="0.00 0.00 4738.00 284.00" xmlns="http://www.w3.org/2000/svg" xmlns:xlink="http://www.w3.org/1999/xlink">
<g id="graph0" class="graph" transform="scale(1 1) rotate(0) translate(4 280)">
<title>dependencies</title>
<polygon fill="#ffffff" stroke="transparent" points="-4,4 -4,-280 4734,-280 4734,4 -4,4"/>
<text text-anchor="start" x="2344.0091" y="-42.4" font-family="sans-serif" font-weight="bold" font-size="14.00" fill="#000000">Legend</text>
<polygon fill="#ffffb3" stroke="transparent" points="2131,-10 2131,-30 2151,-30 2151,-10 2131,-10"/>
<text text-anchor="start" x="2154.629" y="-15.4" font-family="sans-serif" font-size="14.00" fill="#000000"> &#160;Declarations</text>
<polygon fill="#8dd3c7" stroke="transparent" points="2244,-10 2244,-30 2264,-30 2264,-10 2244,-10"/>
<text text-anchor="start" x="2267.7251" y="-15.4" font-family="sans-serif" font-size="14.00" fill="#000000"> &#160;Module</text>
<polygon fill="#80b1d3" stroke="transparent" points="2330,-10 2330,-30 2350,-30 2350,-10 2330,-10"/>
<text text-anchor="start" x="2353.7812" y="-15.4" font-family="sans-serif" font-size="14.00" fill="#000000"> &#160;Bootstrap</text>
<polygon fill="#fdb462" stroke="transparent" points="2427,-10 2427,-30 2447,-30 2447,-10 2427,-10"/>
<text text-anchor="start" x="2450.6732" y="-15.4" font-family="sans-serif" font-size="14.00" fill="#000000"> &#160;Providers</text>
<polygon fill="#fb8072" stroke="transparent" points="2523,-10 2523,-30 2543,-30 2543,-10 2523,-10"/>
<text text-anchor="start" x="2546.7258" y="-15.4" font-family="sans-serif" font-size="14.00" fill="#000000"> &#160;Exports</text>
<g id="clust1" class="cluster">
<title>cluster_StrategyModule</title>
<polygon fill="none" stroke="#000000" stroke-dasharray="1,5" points="8,-70 8,-268 4722,-268 4722,-70 8,-70"/>
</g>
<g id="clust2" class="cluster">
<title>cluster_StrategyModule_declarations</title>
<polygon fill="none" stroke="#000000" points="865,-78 865,-130 4714,-130 4714,-78 865,-78"/>
</g>
<g id="clust24" class="cluster">
<title>cluster_StrategyModule_imports</title>
<polygon fill="none" stroke="#000000" points="639,-78 639,-130 857,-130 857,-78 639,-78"/>
</g>
<g id="clust25" class="cluster">
<title>cluster_StrategyModule_exports</title>
<polygon fill="none" stroke="#000000" points="721,-208 721,-260 3869,-260 3869,-208 721,-208"/>
</g>
<g id="clust27" class="cluster">
<title>cluster_StrategyModule_providers</title>
<polygon fill="none" stroke="#000000" points="16,-78 16,-130 631,-130 631,-78 16,-78"/>
</g>
<!-- AddArgComponent -->
<g id="node1" class="node">
<title>AddArgComponent</title>
<polygon fill="#ffffb3" stroke="#000000" points="4705.7064,-122 4578.2936,-122 4578.2936,-86 4705.7064,-86 4705.7064,-122"/>
<text text-anchor="middle" x="4642" y="-99.8" font-family="Times,serif" font-size="14.00" fill="#000000">AddArgComponent</text>
</g>
<!-- StrategyModule -->
<g id="node22" class="node">
<title>StrategyModule</title>
<polygon fill="#8dd3c7" stroke="#000000" points="2457.2036,-187 2454.2036,-191 2433.2036,-191 2430.2036,-187 2350.7964,-187 2350.7964,-151 2457.2036,-151 2457.2036,-187"/>
<text text-anchor="middle" x="2404" y="-164.8" font-family="Times,serif" font-size="14.00" fill="#000000">StrategyModule</text>
</g>
<!-- AddArgComponent&#45;&gt;StrategyModule -->
<g id="edge1" class="edge">
<title>AddArgComponent&#45;&gt;StrategyModule</title>
<path fill="none" stroke="#000000" d="M4642,-122.2228C4642,-142.3652 4642,-172 4642,-172 4642,-172 2467.1143,-172 2467.1143,-172"/>
<polygon fill="#000000" stroke="#000000" points="2467.1143,-168.5001 2457.1143,-172 2467.1142,-175.5001 2467.1143,-168.5001"/>
</g>
<!-- AgentRegionPipe -->
<g id="node2" class="node">
<title>AgentRegionPipe</title>
<polygon fill="#ffffb3" stroke="#000000" points="4560.5423,-122 4445.4577,-122 4445.4577,-86 4560.5423,-86 4560.5423,-122"/>
<text text-anchor="middle" x="4503" y="-99.8" font-family="Times,serif" font-size="14.00" fill="#000000">AgentRegionPipe</text>
</g>
<!-- AgentRegionPipe&#45;&gt;StrategyModule -->
<g id="edge2" class="edge">
<title>AgentRegionPipe&#45;&gt;StrategyModule</title>
<path fill="none" stroke="#000000" d="M4503,-122.0348C4503,-141.5762 4503,-170 4503,-170 4503,-170 2467.1994,-170 2467.1994,-170"/>
<polygon fill="#000000" stroke="#000000" points="2467.1995,-166.5001 2457.1994,-170 2467.1994,-173.5001 2467.1995,-166.5001"/>
</g>
<!-- AlternationPreviewComponent -->
<g id="node3" class="node">
<title>AlternationPreviewComponent</title>
<polygon fill="#ffffb3" stroke="#000000" points="4427.4608,-122 4236.5392,-122 4236.5392,-86 4427.4608,-86 4427.4608,-122"/>
<text text-anchor="middle" x="4332" y="-99.8" font-family="Times,serif" font-size="14.00" fill="#000000">AlternationPreviewComponent</text>
</g>
<!-- AlternationPreviewComponent&#45;&gt;StrategyModule -->
<g id="edge3" class="edge">
<title>AlternationPreviewComponent&#45;&gt;StrategyModule</title>
<path fill="none" stroke="#000000" d="M4332,-122.1061C4332,-141.3391 4332,-169 4332,-169 4332,-169 2467.325,-169 2467.325,-169"/>
<polygon fill="#000000" stroke="#000000" points="2467.325,-165.5001 2457.325,-169 2467.325,-172.5001 2467.325,-165.5001"/>
</g>
<!-- ArgListComponent -->
<g id="node4" class="node">
<title>ArgListComponent</title>
<polygon fill="#ffffb3" stroke="#000000" points="4218.3781,-122 4093.6219,-122 4093.6219,-86 4218.3781,-86 4218.3781,-122"/>
<text text-anchor="middle" x="4156" y="-99.8" font-family="Times,serif" font-size="14.00" fill="#000000">ArgListComponent</text>
</g>
<!-- ArgListComponent&#45;&gt;StrategyModule -->
<g id="edge4" class="edge">
<title>ArgListComponent&#45;&gt;StrategyModule</title>
<path fill="none" stroke="#000000" d="M4156,-122.2222C4156,-140.8285 4156,-167 4156,-167 4156,-167 2467.3905,-167 2467.3905,-167"/>
<polygon fill="#000000" stroke="#000000" points="2467.3905,-163.5001 2457.3905,-167 2467.3905,-170.5001 2467.3905,-163.5001"/>
</g>
<!-- GenKeyPanelComponent -->
<g id="node5" class="node">
<title>GenKeyPanelComponent</title>
<polygon fill="#ffffb3" stroke="#000000" points="4075.5772,-122 3916.4228,-122 3916.4228,-86 4075.5772,-86 4075.5772,-122"/>
<text text-anchor="middle" x="3996" y="-99.8" font-family="Times,serif" font-size="14.00" fill="#000000">GenKeyPanelComponent</text>
</g>
<!-- GenKeyPanelComponent&#45;&gt;StrategyModule -->
<g id="edge5" class="edge">
<title>GenKeyPanelComponent&#45;&gt;StrategyModule</title>
<path fill="none" stroke="#000000" d="M3996,-122.302C3996,-140.2699 3996,-165 3996,-165 3996,-165 2467.4239,-165 2467.4239,-165"/>
<polygon fill="#000000" stroke="#000000" points="2467.4239,-161.5001 2457.4239,-165 2467.4239,-168.5001 2467.4239,-161.5001"/>
</g>
<!-- InnerShareConfirmComponent -->
<g id="node6" class="node">
<title>InnerShareConfirmComponent</title>
<polygon fill="#ffffb3" stroke="#000000" points="3898.1797,-122 3707.8203,-122 3707.8203,-86 3898.1797,-86 3898.1797,-122"/>
<text text-anchor="middle" x="3803" y="-99.8" font-family="Times,serif" font-size="14.00" fill="#000000">InnerShareConfirmComponent</text>
</g>
<!-- InnerShareConfirmComponent&#45;&gt;StrategyModule -->
<g id="edge6" class="edge">
<title>InnerShareConfirmComponent&#45;&gt;StrategyModule</title>
<path fill="none" stroke="#000000" d="M3721.5838,-122.0225C3721.5838,-139.3734 3721.5838,-163 3721.5838,-163 3721.5838,-163 2467.2827,-163 2467.2827,-163"/>
<polygon fill="#000000" stroke="#000000" points="2467.2828,-159.5001 2457.2827,-163 2467.2827,-166.5001 2467.2828,-159.5001"/>
</g>
<!-- IsOldVersionPipe -->
<g id="node7" class="node">
<title>IsOldVersionPipe</title>
<polygon fill="#ffffb3" stroke="#000000" points="3690.3076,-122 3573.6924,-122 3573.6924,-86 3690.3076,-86 3690.3076,-122"/>
<text text-anchor="middle" x="3632" y="-99.8" font-family="Times,serif" font-size="14.00" fill="#000000">IsOldVersionPipe</text>
</g>
<!-- IsOldVersionPipe&#45;&gt;StrategyModule -->
<g id="edge7" class="edge">
<title>IsOldVersionPipe&#45;&gt;StrategyModule</title>
<path fill="none" stroke="#000000" d="M3584.3549,-122.0336C3584.3549,-139.0597 3584.3549,-162 3584.3549,-162 3584.3549,-162 2467.3969,-162 2467.3969,-162"/>
<polygon fill="#000000" stroke="#000000" points="2467.3969,-158.5001 2457.3969,-162 2467.3969,-165.5001 2467.3969,-158.5001"/>
</g>
<!-- PublicDetailComponent -->
<g id="node8" class="node">
<title>PublicDetailComponent</title>
<polygon fill="#ffffb3" stroke="#000000" points="3555.8187,-122 3404.1813,-122 3404.1813,-86 3555.8187,-86 3555.8187,-122"/>
<text text-anchor="middle" x="3480" y="-99.8" font-family="Times,serif" font-size="14.00" fill="#000000">PublicDetailComponent</text>
</g>
<!-- PublicDetailComponent&#45;&gt;StrategyModule -->
<g id="edge8" class="edge">
<title>PublicDetailComponent&#45;&gt;StrategyModule</title>
<path fill="none" stroke="#000000" d="M3480,-122.027C3480,-138.3976 3480,-160 3480,-160 3480,-160 2467.359,-160 2467.359,-160"/>
<polygon fill="#000000" stroke="#000000" points="2467.359,-156.5001 2457.359,-160 2467.359,-163.5001 2467.359,-156.5001"/>
</g>
<!-- SelectTypeValueValidateDirective -->
<g id="node9" class="node">
<title>SelectTypeValueValidateDirective</title>
<polygon fill="#ffffb3" stroke="#000000" points="3385.9062,-122 3174.0938,-122 3174.0938,-86 3385.9062,-86 3385.9062,-122"/>
<text text-anchor="middle" x="3280" y="-99.8" font-family="Times,serif" font-size="14.00" fill="#000000">SelectTypeValueValidateDirective</text>
</g>
<!-- SelectTypeValueValidateDirective&#45;&gt;StrategyModule -->
<g id="edge9" class="edge">
<title>SelectTypeValueValidateDirective&#45;&gt;StrategyModule</title>
<path fill="none" stroke="#000000" d="M3195.4753,-122.2819C3195.4753,-137.9478 3195.4753,-158 3195.4753,-158 3195.4753,-158 2467.1599,-158 2467.1599,-158"/>
<polygon fill="#000000" stroke="#000000" points="2467.1599,-154.5001 2457.1599,-158 2467.1599,-161.5001 2467.1599,-154.5001"/>
</g>
<!-- ShareConfirmComponent -->
<g id="node10" class="node">
<title>ShareConfirmComponent</title>
<polygon fill="#ffffb3" stroke="#000000" points="3156.1442,-122 2995.8558,-122 2995.8558,-86 3156.1442,-86 3156.1442,-122"/>
<text text-anchor="middle" x="3076" y="-99.8" font-family="Times,serif" font-size="14.00" fill="#000000">ShareConfirmComponent</text>
</g>
<!-- ShareConfirmComponent&#45;&gt;StrategyModule -->
<g id="edge10" class="edge">
<title>ShareConfirmComponent&#45;&gt;StrategyModule</title>
<path fill="none" stroke="#000000" d="M3037.5437,-122.2396C3037.5437,-137.5706 3037.5437,-157 3037.5437,-157 3037.5437,-157 2467.1974,-157 2467.1974,-157"/>
<polygon fill="#000000" stroke="#000000" points="2467.1975,-153.5001 2457.1974,-157 2467.1974,-160.5001 2467.1975,-153.5001"/>
</g>
<!-- StrategyArgComponent -->
<g id="node11" class="node">
<title>StrategyArgComponent</title>
<polygon fill="#ffffb3" stroke="#000000" points="2977.7534,-122 2828.2466,-122 2828.2466,-86 2977.7534,-86 2977.7534,-122"/>
<text text-anchor="middle" x="2903" y="-99.8" font-family="Times,serif" font-size="14.00" fill="#000000">StrategyArgComponent</text>
</g>
<!-- StrategyArgComponent&#45;&gt;StrategyModule -->
<g id="edge11" class="edge">
<title>StrategyArgComponent&#45;&gt;StrategyModule</title>
<path fill="none" stroke="#000000" d="M2867.4133,-122.1243C2867.4133,-136.7832 2867.4133,-155 2867.4133,-155 2867.4133,-155 2467.1594,-155 2467.1594,-155"/>
<polygon fill="#000000" stroke="#000000" points="2467.1594,-151.5001 2457.1594,-155 2467.1594,-158.5001 2467.1594,-151.5001"/>
</g>
<!-- StrategyCodemirrorComponent -->
<g id="node12" class="node">
<title>StrategyCodemirrorComponent</title>
<polygon fill="#ffffb3" stroke="#000000" points="2809.8004,-122 2616.1996,-122 2616.1996,-86 2809.8004,-86 2809.8004,-122"/>
<text text-anchor="middle" x="2713" y="-99.8" font-family="Times,serif" font-size="14.00" fill="#000000">StrategyCodemirrorComponent</text>
</g>
<!-- StrategyCodemirrorComponent&#45;&gt;StrategyModule -->
<g id="edge12" class="edge">
<title>StrategyCodemirrorComponent&#45;&gt;StrategyModule</title>
<path fill="none" stroke="#000000" d="M2644.9883,-122.2458C2644.9883,-136.1772 2644.9883,-153 2644.9883,-153 2644.9883,-153 2467.1842,-153 2467.1842,-153"/>
<polygon fill="#000000" stroke="#000000" points="2467.1843,-149.5001 2457.1842,-153 2467.1842,-156.5001 2467.1843,-149.5001"/>
</g>
<!-- StrategyDependanceComponent -->
<g id="node13" class="node">
<title>StrategyDependanceComponent</title>
<polygon fill="#ffffb3" stroke="#000000" points="2598.6657,-122 2401.3343,-122 2401.3343,-86 2598.6657,-86 2598.6657,-122"/>
<text text-anchor="middle" x="2500" y="-99.8" font-family="Times,serif" font-size="14.00" fill="#000000">StrategyDependanceComponent</text>
</g>
<!-- StrategyDependanceComponent&#45;&gt;StrategyModule -->
<g id="edge13" class="edge">
<title>StrategyDependanceComponent&#45;&gt;StrategyModule</title>
<path fill="none" stroke="#000000" d="M2429.2595,-122.1061C2429.2595,-122.1061 2429.2595,-140.991 2429.2595,-140.991"/>
<polygon fill="#000000" stroke="#000000" points="2425.7595,-140.9909 2429.2595,-150.991 2432.7595,-140.991 2425.7595,-140.9909"/>
</g>
<!-- StrategyDesComponent -->
<g id="node14" class="node">
<title>StrategyDesComponent</title>
<polygon fill="#ffffb3" stroke="#000000" points="2383.752,-122 2234.248,-122 2234.248,-86 2383.752,-86 2383.752,-122"/>
<text text-anchor="middle" x="2309" y="-99.8" font-family="Times,serif" font-size="14.00" fill="#000000">StrategyDesComponent</text>
</g>
<!-- StrategyDesComponent&#45;&gt;StrategyModule -->
<g id="edge14" class="edge">
<title>StrategyDesComponent&#45;&gt;StrategyModule</title>
<path fill="none" stroke="#000000" d="M2367.3871,-122.1061C2367.3871,-122.1061 2367.3871,-140.991 2367.3871,-140.991"/>
<polygon fill="#000000" stroke="#000000" points="2363.8872,-140.9909 2367.3871,-150.991 2370.8872,-140.991 2363.8872,-140.9909"/>
</g>
<!-- StrategyListComponent -->
<g id="node15" class="node">
<title>StrategyListComponent</title>
<polygon fill="#ffffb3" stroke="#000000" points="2215.7646,-122 2066.2354,-122 2066.2354,-86 2215.7646,-86 2215.7646,-122"/>
<text text-anchor="middle" x="2141" y="-99.8" font-family="Times,serif" font-size="14.00" fill="#000000">StrategyListComponent</text>
</g>
<!-- StrategyListComponent&#45;&gt;StrategyModule -->
<g id="edge15" class="edge">
<title>StrategyListComponent&#45;&gt;StrategyModule</title>
<path fill="none" stroke="#000000" d="M2151.2747,-122.2458C2151.2747,-136.1772 2151.2747,-153 2151.2747,-153 2151.2747,-153 2340.7123,-153 2340.7123,-153"/>
<polygon fill="#000000" stroke="#000000" points="2340.7123,-156.5001 2350.7123,-153 2340.7122,-149.5001 2340.7123,-156.5001"/>
</g>
<!-- StrategyMarketComponent -->
<g id="node16" class="node">
<title>StrategyMarketComponent</title>
<polygon fill="#ffffb3" stroke="#000000" points="2048.4115,-122 1879.5885,-122 1879.5885,-86 2048.4115,-86 2048.4115,-122"/>
<text text-anchor="middle" x="1964" y="-99.8" font-family="Times,serif" font-size="14.00" fill="#000000">StrategyMarketComponent</text>
</g>
<!-- StrategyMarketComponent&#45;&gt;StrategyModule -->
<g id="edge16" class="edge">
<title>StrategyMarketComponent&#45;&gt;StrategyModule</title>
<path fill="none" stroke="#000000" d="M1981.7898,-122.1243C1981.7898,-136.7832 1981.7898,-155 1981.7898,-155 1981.7898,-155 2340.5268,-155 2340.5268,-155"/>
<polygon fill="#000000" stroke="#000000" points="2340.5268,-158.5001 2350.5268,-155 2340.5268,-151.5001 2340.5268,-158.5001"/>
</g>
<!-- StrategyOverviewComponent -->
<g id="node17" class="node">
<title>StrategyOverviewComponent</title>
<polygon fill="#ffffb3" stroke="#000000" points="1861.6797,-122 1678.3203,-122 1678.3203,-86 1861.6797,-86 1861.6797,-122"/>
<text text-anchor="middle" x="1770" y="-99.8" font-family="Times,serif" font-size="14.00" fill="#000000">StrategyOverviewComponent</text>
</g>
<!-- StrategyOverviewComponent&#45;&gt;StrategyModule -->
<g id="edge17" class="edge">
<title>StrategyOverviewComponent&#45;&gt;StrategyModule</title>
<path fill="none" stroke="#000000" d="M1802.9788,-122.2396C1802.9788,-137.5706 1802.9788,-157 1802.9788,-157 1802.9788,-157 2340.6634,-157 2340.6634,-157"/>
<polygon fill="#000000" stroke="#000000" points="2340.6634,-160.5001 2350.6634,-157 2340.6633,-153.5001 2340.6634,-160.5001"/>
</g>
<!-- StrategyRemoteEditComponent -->
<g id="node18" class="node">
<title>StrategyRemoteEditComponent</title>
<polygon fill="#ffffb3" stroke="#000000" points="1660.3668,-122 1465.6332,-122 1465.6332,-86 1660.3668,-86 1660.3668,-122"/>
<text text-anchor="middle" x="1563" y="-99.8" font-family="Times,serif" font-size="14.00" fill="#000000">StrategyRemoteEditComponent</text>
</g>
<!-- StrategyRemoteEditComponent&#45;&gt;StrategyModule -->
<g id="edge18" class="edge">
<title>StrategyRemoteEditComponent&#45;&gt;StrategyModule</title>
<path fill="none" stroke="#000000" d="M1607.239,-122.2819C1607.239,-137.9478 1607.239,-158 1607.239,-158 1607.239,-158 2340.7955,-158 2340.7955,-158"/>
<polygon fill="#000000" stroke="#000000" points="2340.7956,-161.5001 2350.7955,-158 2340.7955,-154.5001 2340.7956,-161.5001"/>
</g>
<!-- StrategyRenewalComponent -->
<g id="node19" class="node">
<title>StrategyRenewalComponent</title>
<polygon fill="#ffffb3" stroke="#000000" points="1447.4636,-122 1270.5364,-122 1270.5364,-86 1447.4636,-86 1447.4636,-122"/>
<text text-anchor="middle" x="1359" y="-99.8" font-family="Times,serif" font-size="14.00" fill="#000000">StrategyRenewalComponent</text>
</g>
<!-- StrategyRenewalComponent&#45;&gt;StrategyModule -->
<g id="edge19" class="edge">
<title>StrategyRenewalComponent&#45;&gt;StrategyModule</title>
<path fill="none" stroke="#000000" d="M1398.571,-122.027C1398.571,-138.3976 1398.571,-160 1398.571,-160 1398.571,-160 2340.6536,-160 2340.6536,-160"/>
<polygon fill="#000000" stroke="#000000" points="2340.6537,-163.5001 2350.6536,-160 2340.6536,-156.5001 2340.6537,-163.5001"/>
</g>
<!-- VariableNameValidateDirective -->
<g id="node20" class="node">
<title>VariableNameValidateDirective</title>
<polygon fill="#ffffb3" stroke="#000000" points="1252.6236,-122 1055.3764,-122 1055.3764,-86 1252.6236,-86 1252.6236,-122"/>
<text text-anchor="middle" x="1154" y="-99.8" font-family="Times,serif" font-size="14.00" fill="#000000">VariableNameValidateDirective</text>
</g>
<!-- VariableNameValidateDirective&#45;&gt;StrategyModule -->
<g id="edge20" class="edge">
<title>VariableNameValidateDirective&#45;&gt;StrategyModule</title>
<path fill="none" stroke="#000000" d="M1192.6892,-122.0336C1192.6892,-139.0597 1192.6892,-162 1192.6892,-162 1192.6892,-162 2340.7812,-162 2340.7812,-162"/>
<polygon fill="#000000" stroke="#000000" points="2340.7812,-165.5001 2350.7812,-162 2340.7812,-158.5001 2340.7812,-165.5001"/>
</g>
<!-- VerifyGenKeyComponent -->
<g id="node21" class="node">
<title>VerifyGenKeyComponent</title>
<polygon fill="#ffffb3" stroke="#000000" points="1037.0085,-122 872.9915,-122 872.9915,-86 1037.0085,-86 1037.0085,-122"/>
<text text-anchor="middle" x="955" y="-99.8" font-family="Times,serif" font-size="14.00" fill="#000000">VerifyGenKeyComponent</text>
</g>
<!-- VerifyGenKeyComponent&#45;&gt;StrategyModule -->
<g id="edge21" class="edge">
<title>VerifyGenKeyComponent&#45;&gt;StrategyModule</title>
<path fill="none" stroke="#000000" d="M975.9711,-122.0225C975.9711,-139.3734 975.9711,-163 975.9711,-163 975.9711,-163 2340.6259,-163 2340.6259,-163"/>
<polygon fill="#000000" stroke="#000000" points="2340.6259,-166.5001 2350.6259,-163 2340.6258,-159.5001 2340.6259,-166.5001"/>
</g>
<!-- AddArgComponent  -->
<g id="node25" class="node">
<title>AddArgComponent </title>
<polygon fill="#fb8072" stroke="#000000" points="3861.2065,-252 3730.7935,-252 3730.7935,-216 3861.2065,-216 3861.2065,-252"/>
<text text-anchor="middle" x="3796" y="-229.8" font-family="Times,serif" font-size="14.00" fill="#000000">AddArgComponent </text>
</g>
<!-- StrategyModule&#45;&gt;AddArgComponent  -->
<g id="edge24" class="edge">
<title>StrategyModule&#45;&gt;AddArgComponent </title>
<path fill="none" stroke="#000000" stroke-dasharray="5,2" d="M2457.2909,-174C2712.3335,-174 3796,-174 3796,-174 3796,-174 3796,-205.998 3796,-205.998"/>
<polygon fill="#000000" stroke="#000000" points="3792.5001,-205.998 3796,-215.998 3799.5001,-205.9981 3792.5001,-205.998"/>
</g>
<!-- AgentRegionPipe  -->
<g id="node26" class="node">
<title>AgentRegionPipe </title>
<polygon fill="#fb8072" stroke="#000000" points="3712.5414,-252 3593.4586,-252 3593.4586,-216 3712.5414,-216 3712.5414,-252"/>
<text text-anchor="middle" x="3653" y="-229.8" font-family="Times,serif" font-size="14.00" fill="#000000">AgentRegionPipe </text>
</g>
<!-- StrategyModule&#45;&gt;AgentRegionPipe  -->
<g id="edge25" class="edge">
<title>StrategyModule&#45;&gt;AgentRegionPipe </title>
<path fill="none" stroke="#000000" stroke-dasharray="5,2" d="M2457.1874,-175C2694.1132,-175 3641.8165,-175 3641.8165,-175 3641.8165,-175 3641.8165,-205.9775 3641.8165,-205.9775"/>
<polygon fill="#000000" stroke="#000000" points="3638.3165,-205.9774 3641.8165,-215.9775 3645.3165,-205.9775 3638.3165,-205.9774"/>
</g>
<!-- AlternationPreviewComponent  -->
<g id="node27" class="node">
<title>AlternationPreviewComponent </title>
<polygon fill="#fb8072" stroke="#000000" points="3575.4613,-252 3380.5387,-252 3380.5387,-216 3575.4613,-216 3575.4613,-252"/>
<text text-anchor="middle" x="3478" y="-229.8" font-family="Times,serif" font-size="14.00" fill="#000000">AlternationPreviewComponent </text>
</g>
<!-- StrategyModule&#45;&gt;AlternationPreviewComponent  -->
<g id="edge26" class="edge">
<title>StrategyModule&#45;&gt;AlternationPreviewComponent </title>
<path fill="none" stroke="#000000" stroke-dasharray="5,2" d="M2457.2884,-177C2663.1598,-177 3395.147,-177 3395.147,-177 3395.147,-177 3395.147,-205.9648 3395.147,-205.9648"/>
<polygon fill="#000000" stroke="#000000" points="3391.647,-205.9648 3395.147,-215.9648 3398.647,-205.9649 3391.647,-205.9648"/>
</g>
<!-- ArgListComponent  -->
<g id="node28" class="node">
<title>ArgListComponent </title>
<polygon fill="#fb8072" stroke="#000000" points="3363.3786,-252 3234.6214,-252 3234.6214,-216 3363.3786,-216 3363.3786,-252"/>
<text text-anchor="middle" x="3299" y="-229.8" font-family="Times,serif" font-size="14.00" fill="#000000">ArgListComponent </text>
</g>
<!-- StrategyModule&#45;&gt;ArgListComponent  -->
<g id="edge27" class="edge">
<title>StrategyModule&#45;&gt;ArgListComponent </title>
<path fill="none" stroke="#000000" stroke-dasharray="5,2" d="M2457.306,-179C2649.983,-179 3299,-179 3299,-179 3299,-179 3299,-205.9909 3299,-205.9909"/>
<polygon fill="#000000" stroke="#000000" points="3295.5001,-205.9909 3299,-215.9909 3302.5001,-205.991 3295.5001,-205.9909"/>
</g>
<!-- IsOldVersionPipe  -->
<g id="node29" class="node">
<title>IsOldVersionPipe </title>
<polygon fill="#fb8072" stroke="#000000" points="3216.8074,-252 3097.1926,-252 3097.1926,-216 3216.8074,-216 3216.8074,-252"/>
<text text-anchor="middle" x="3157" y="-229.8" font-family="Times,serif" font-size="14.00" fill="#000000">IsOldVersionPipe </text>
</g>
<!-- StrategyModule&#45;&gt;IsOldVersionPipe  -->
<g id="edge28" class="edge">
<title>StrategyModule&#45;&gt;IsOldVersionPipe </title>
<path fill="none" stroke="#000000" stroke-dasharray="5,2" d="M2457.1425,-181C2624.0433,-181 3126.7091,-181 3126.7091,-181 3126.7091,-181 3126.7091,-205.7604 3126.7091,-205.7604"/>
<polygon fill="#000000" stroke="#000000" points="3123.2092,-205.7604 3126.7091,-215.7604 3130.2092,-205.7604 3123.2092,-205.7604"/>
</g>
<!-- PublicDetailComponent  -->
<g id="node30" class="node">
<title>PublicDetailComponent </title>
<polygon fill="#fb8072" stroke="#000000" points="3079.3185,-252 2924.6815,-252 2924.6815,-216 3079.3185,-216 3079.3185,-252"/>
<text text-anchor="middle" x="3002" y="-229.8" font-family="Times,serif" font-size="14.00" fill="#000000">PublicDetailComponent </text>
</g>
<!-- StrategyModule&#45;&gt;PublicDetailComponent  -->
<g id="edge29" class="edge">
<title>StrategyModule&#45;&gt;PublicDetailComponent </title>
<path fill="none" stroke="#000000" stroke-dasharray="5,2" d="M2457.4674,-182C2595.1656,-182 2951.2337,-182 2951.2337,-182 2951.2337,-182 2951.2337,-205.8129 2951.2337,-205.8129"/>
<polygon fill="#000000" stroke="#000000" points="2947.7338,-205.8129 2951.2337,-215.8129 2954.7338,-205.813 2947.7338,-205.8129"/>
</g>
<!-- SelectTypeValueValidateDirective  -->
<g id="node31" class="node">
<title>SelectTypeValueValidateDirective </title>
<polygon fill="#fb8072" stroke="#000000" points="2906.9066,-252 2691.0934,-252 2691.0934,-216 2906.9066,-216 2906.9066,-252"/>
<text text-anchor="middle" x="2799" y="-229.8" font-family="Times,serif" font-size="14.00" fill="#000000">SelectTypeValueValidateDirective </text>
</g>
<!-- StrategyModule&#45;&gt;SelectTypeValueValidateDirective  -->
<g id="edge30" class="edge">
<title>StrategyModule&#45;&gt;SelectTypeValueValidateDirective </title>
<path fill="none" stroke="#000000" stroke-dasharray="5,2" d="M2457.3772,-184C2554.5658,-184 2750.4735,-184 2750.4735,-184 2750.4735,-184 2750.4735,-205.9489 2750.4735,-205.9489"/>
<polygon fill="#000000" stroke="#000000" points="2746.9736,-205.9488 2750.4735,-215.9489 2753.9736,-205.9489 2746.9736,-205.9488"/>
</g>
<!-- StrategyArgComponent  -->
<g id="node32" class="node">
<title>StrategyArgComponent </title>
<polygon fill="#fb8072" stroke="#000000" points="2673.7534,-252 2520.2466,-252 2520.2466,-216 2673.7534,-216 2673.7534,-252"/>
<text text-anchor="middle" x="2597" y="-229.8" font-family="Times,serif" font-size="14.00" fill="#000000">StrategyArgComponent </text>
</g>
<!-- StrategyModule&#45;&gt;StrategyArgComponent  -->
<g id="edge31" class="edge">
<title>StrategyModule&#45;&gt;StrategyArgComponent </title>
<path fill="none" stroke="#000000" stroke-dasharray="5,2" d="M2457.5067,-186C2502.481,-186 2559.4781,-186 2559.4781,-186 2559.4781,-186 2559.4781,-205.8533 2559.4781,-205.8533"/>
<polygon fill="#000000" stroke="#000000" points="2555.9782,-205.8532 2559.4781,-215.8533 2562.9782,-205.8533 2555.9782,-205.8532"/>
</g>
<!-- StrategyCodemirrorComponent  -->
<g id="node33" class="node">
<title>StrategyCodemirrorComponent </title>
<polygon fill="#fb8072" stroke="#000000" points="2502.3003,-252 2305.6997,-252 2305.6997,-216 2502.3003,-216 2502.3003,-252"/>
<text text-anchor="middle" x="2404" y="-229.8" font-family="Times,serif" font-size="14.00" fill="#000000">StrategyCodemirrorComponent </text>
</g>
<!-- StrategyModule&#45;&gt;StrategyCodemirrorComponent  -->
<g id="edge32" class="edge">
<title>StrategyModule&#45;&gt;StrategyCodemirrorComponent </title>
<path fill="none" stroke="#000000" stroke-dasharray="5,2" d="M2404,-187.1061C2404,-187.1061 2404,-205.991 2404,-205.991"/>
<polygon fill="#000000" stroke="#000000" points="2400.5001,-205.9909 2404,-215.991 2407.5001,-205.991 2400.5001,-205.9909"/>
</g>
<!-- StrategyDependanceComponent  -->
<g id="node34" class="node">
<title>StrategyDependanceComponent </title>
<polygon fill="#fb8072" stroke="#000000" points="2287.1659,-252 2086.8341,-252 2086.8341,-216 2287.1659,-216 2287.1659,-252"/>
<text text-anchor="middle" x="2187" y="-229.8" font-family="Times,serif" font-size="14.00" fill="#000000">StrategyDependanceComponent </text>
</g>
<!-- StrategyModule&#45;&gt;StrategyDependanceComponent  -->
<g id="edge33" class="edge">
<title>StrategyModule&#45;&gt;StrategyDependanceComponent </title>
<path fill="none" stroke="#000000" stroke-dasharray="5,2" d="M2350.651,-186C2309.9168,-186 2260.7285,-186 2260.7285,-186 2260.7285,-186 2260.7285,-205.8533 2260.7285,-205.8533"/>
<polygon fill="#000000" stroke="#000000" points="2257.2285,-205.8532 2260.7285,-215.8533 2264.2285,-205.8533 2257.2285,-205.8532"/>
</g>
<!-- StrategyDesComponent  -->
<g id="node35" class="node">
<title>StrategyDesComponent </title>
<polygon fill="#fb8072" stroke="#000000" points="2068.752,-252 1915.248,-252 1915.248,-216 2068.752,-216 2068.752,-252"/>
<text text-anchor="middle" x="1992" y="-229.8" font-family="Times,serif" font-size="14.00" fill="#000000">StrategyDesComponent </text>
</g>
<!-- StrategyModule&#45;&gt;StrategyDesComponent  -->
<g id="edge34" class="edge">
<title>StrategyModule&#45;&gt;StrategyDesComponent </title>
<path fill="none" stroke="#000000" stroke-dasharray="5,2" d="M2350.5666,-184C2253.2757,-184 2057.1617,-184 2057.1617,-184 2057.1617,-184 2057.1617,-205.9489 2057.1617,-205.9489"/>
<polygon fill="#000000" stroke="#000000" points="2053.6617,-205.9488 2057.1617,-215.9489 2060.6617,-205.9489 2053.6617,-205.9488"/>
</g>
<!-- StrategyListComponent  -->
<g id="node36" class="node">
<title>StrategyListComponent </title>
<polygon fill="#fb8072" stroke="#000000" points="1897.7646,-252 1744.2354,-252 1744.2354,-216 1897.7646,-216 1897.7646,-252"/>
<text text-anchor="middle" x="1821" y="-229.8" font-family="Times,serif" font-size="14.00" fill="#000000">StrategyListComponent </text>
</g>
<!-- StrategyModule&#45;&gt;StrategyListComponent  -->
<g id="edge35" class="edge">
<title>StrategyModule&#45;&gt;StrategyListComponent </title>
<path fill="none" stroke="#000000" stroke-dasharray="5,2" d="M2350.7961,-182C2219.1412,-182 1888.7134,-182 1888.7134,-182 1888.7134,-182 1888.7134,-205.8129 1888.7134,-205.8129"/>
<polygon fill="#000000" stroke="#000000" points="1885.2134,-205.8129 1888.7134,-215.8129 1892.2134,-205.813 1885.2134,-205.8129"/>
</g>
<!-- StrategyMarketComponent  -->
<g id="node37" class="node">
<title>StrategyMarketComponent </title>
<polygon fill="#fb8072" stroke="#000000" points="1725.911,-252 1554.089,-252 1554.089,-216 1725.911,-216 1725.911,-252"/>
<text text-anchor="middle" x="1640" y="-229.8" font-family="Times,serif" font-size="14.00" fill="#000000">StrategyMarketComponent </text>
</g>
<!-- StrategyModule&#45;&gt;StrategyMarketComponent  -->
<g id="edge36" class="edge">
<title>StrategyModule&#45;&gt;StrategyMarketComponent </title>
<path fill="none" stroke="#000000" stroke-dasharray="5,2" d="M2350.6736,-181C2186.8942,-181 1702.1829,-181 1702.1829,-181 1702.1829,-181 1702.1829,-205.7604 1702.1829,-205.7604"/>
<polygon fill="#000000" stroke="#000000" points="1698.6829,-205.7604 1702.1829,-215.7604 1705.6829,-205.7604 1698.6829,-205.7604"/>
</g>
<!-- StrategyOverviewComponent  -->
<g id="node38" class="node">
<title>StrategyOverviewComponent </title>
<polygon fill="#fb8072" stroke="#000000" points="1536.1799,-252 1349.8201,-252 1349.8201,-216 1536.1799,-216 1536.1799,-252"/>
<text text-anchor="middle" x="1443" y="-229.8" font-family="Times,serif" font-size="14.00" fill="#000000">StrategyOverviewComponent </text>
</g>
<!-- StrategyModule&#45;&gt;StrategyOverviewComponent  -->
<g id="edge37" class="edge">
<title>StrategyModule&#45;&gt;StrategyOverviewComponent </title>
<path fill="none" stroke="#000000" stroke-dasharray="5,2" d="M2350.8817,-179C2157.3083,-179 1500.9532,-179 1500.9532,-179 1500.9532,-179 1500.9532,-205.9909 1500.9532,-205.9909"/>
<polygon fill="#000000" stroke="#000000" points="1497.4533,-205.9909 1500.9532,-215.9909 1504.4533,-205.991 1497.4533,-205.9909"/>
</g>
<!-- StrategyRemoteEditComponent  -->
<g id="node39" class="node">
<title>StrategyRemoteEditComponent </title>
<polygon fill="#fb8072" stroke="#000000" points="1331.3671,-252 1132.6329,-252 1132.6329,-216 1331.3671,-216 1331.3671,-252"/>
<text text-anchor="middle" x="1232" y="-229.8" font-family="Times,serif" font-size="14.00" fill="#000000">StrategyRemoteEditComponent </text>
</g>
<!-- StrategyModule&#45;&gt;StrategyRemoteEditComponent  -->
<g id="edge38" class="edge">
<title>StrategyModule&#45;&gt;StrategyRemoteEditComponent </title>
<path fill="none" stroke="#000000" stroke-dasharray="5,2" d="M2350.7928,-177C2130.4346,-177 1300.8508,-177 1300.8508,-177 1300.8508,-177 1300.8508,-205.9648 1300.8508,-205.9648"/>
<polygon fill="#000000" stroke="#000000" points="1297.3509,-205.9648 1300.8508,-215.9648 1304.3509,-205.9649 1297.3509,-205.9648"/>
</g>
<!-- VariableNameValidateDirective  -->
<g id="node40" class="node">
<title>VariableNameValidateDirective </title>
<polygon fill="#fb8072" stroke="#000000" points="1115.124,-252 914.876,-252 914.876,-216 1115.124,-216 1115.124,-252"/>
<text text-anchor="middle" x="1015" y="-229.8" font-family="Times,serif" font-size="14.00" fill="#000000">VariableNameValidateDirective </text>
</g>
<!-- StrategyModule&#45;&gt;VariableNameValidateDirective  -->
<g id="edge39" class="edge">
<title>StrategyModule&#45;&gt;VariableNameValidateDirective </title>
<path fill="none" stroke="#000000" stroke-dasharray="5,2" d="M2350.6752,-175C2103.9814,-175 1085.375,-175 1085.375,-175 1085.375,-175 1085.375,-205.9775 1085.375,-205.9775"/>
<polygon fill="#000000" stroke="#000000" points="1081.8751,-205.9774 1085.375,-215.9775 1088.8751,-205.9775 1081.8751,-205.9774"/>
</g>
<!-- VerifyGenKeyComponent  -->
<g id="node41" class="node">
<title>VerifyGenKeyComponent </title>
<polygon fill="#fb8072" stroke="#000000" points="897.0078,-252 728.9922,-252 728.9922,-216 897.0078,-216 897.0078,-252"/>
<text text-anchor="middle" x="813" y="-229.8" font-family="Times,serif" font-size="14.00" fill="#000000">VerifyGenKeyComponent </text>
</g>
<!-- StrategyModule&#45;&gt;VerifyGenKeyComponent  -->
<g id="edge40" class="edge">
<title>StrategyModule&#45;&gt;VerifyGenKeyComponent </title>
<path fill="none" stroke="#000000" stroke-dasharray="5,2" d="M2350.8243,-174C2081.95,-174 884.875,-174 884.875,-174 884.875,-174 884.875,-205.998 884.875,-205.998"/>
<polygon fill="#000000" stroke="#000000" points="881.3751,-205.998 884.875,-215.998 888.3751,-205.9981 881.3751,-205.998"/>
</g>
<!-- SharedModule -->
<g id="node23" class="node">
<title>SharedModule</title>
<polygon fill="#8dd3c7" stroke="#000000" points="849.4231,-122 846.4231,-126 825.4231,-126 822.4231,-122 750.5769,-122 750.5769,-86 849.4231,-86 849.4231,-122"/>
<text text-anchor="middle" x="800" y="-99.8" font-family="Times,serif" font-size="14.00" fill="#000000">SharedModule</text>
</g>
<!-- SharedModule&#45;&gt;StrategyModule -->
<g id="edge22" class="edge">
<title>SharedModule&#45;&gt;StrategyModule</title>
<path fill="none" stroke="#000000" d="M800,-122.302C800,-140.2699 800,-165 800,-165 800,-165 2340.632,-165 2340.632,-165"/>
<polygon fill="#000000" stroke="#000000" points="2340.6321,-168.5001 2350.632,-165 2340.632,-161.5001 2340.6321,-168.5001"/>
</g>
<!-- ToolModule -->
<g id="node24" class="node">
<title>ToolModule</title>
<polygon fill="#8dd3c7" stroke="#000000" points="732.993,-122 729.993,-126 708.993,-126 705.993,-122 647.007,-122 647.007,-86 732.993,-86 732.993,-122"/>
<text text-anchor="middle" x="690" y="-99.8" font-family="Times,serif" font-size="14.00" fill="#000000">ToolModule</text>
</g>
<!-- ToolModule&#45;&gt;StrategyModule -->
<g id="edge23" class="edge">
<title>ToolModule&#45;&gt;StrategyModule</title>
<path fill="none" stroke="#000000" d="M687.9998,-122.2222C687.9998,-140.8285 687.9998,-167 687.9998,-167 687.9998,-167 2340.7618,-167 2340.7618,-167"/>
<polygon fill="#000000" stroke="#000000" points="2340.7619,-170.5001 2350.7618,-167 2340.7618,-163.5001 2340.7619,-170.5001"/>
</g>
<!-- StrategyConstantService -->
<g id="node42" class="node">
<title>StrategyConstantService</title>
<ellipse fill="#fdb462" stroke="#000000" cx="516" cy="-104" rx="106.5159" ry="18"/>
<text text-anchor="middle" x="516" y="-99.8" font-family="Times,serif" font-size="14.00" fill="#000000">StrategyConstantService</text>
</g>
<!-- StrategyConstantService&#45;&gt;StrategyModule -->
<g id="edge41" class="edge">
<title>StrategyConstantService&#45;&gt;StrategyModule</title>
<path fill="none" stroke="#000000" d="M516,-122.1061C516,-141.3391 516,-169 516,-169 516,-169 2340.5371,-169 2340.5371,-169"/>
<polygon fill="#000000" stroke="#000000" points="2340.5371,-172.5001 2350.5371,-169 2340.537,-165.5001 2340.5371,-172.5001"/>
</g>
<!-- StrategyOperateService -->
<g id="node43" class="node">
<title>StrategyOperateService</title>
<ellipse fill="#fdb462" stroke="#000000" cx="289" cy="-104" rx="102.9628" ry="18"/>
<text text-anchor="middle" x="289" y="-99.8" font-family="Times,serif" font-size="14.00" fill="#000000">StrategyOperateService</text>
</g>
<!-- StrategyOperateService&#45;&gt;StrategyModule -->
<g id="edge42" class="edge">
<title>StrategyOperateService&#45;&gt;StrategyModule</title>
<path fill="none" stroke="#000000" d="M289,-122.0348C289,-141.5762 289,-170 289,-170 289,-170 2340.661,-170 2340.661,-170"/>
<polygon fill="#000000" stroke="#000000" points="2340.661,-173.5001 2350.661,-170 2340.661,-166.5001 2340.661,-173.5001"/>
</g>
<!-- StrategyService -->
<g id="node44" class="node">
<title>StrategyService</title>
<ellipse fill="#fdb462" stroke="#000000" cx="96" cy="-104" rx="72.3458" ry="18"/>
<text text-anchor="middle" x="96" y="-99.8" font-family="Times,serif" font-size="14.00" fill="#000000">StrategyService</text>
</g>
<!-- StrategyService&#45;&gt;StrategyModule -->
<g id="edge43" class="edge">
<title>StrategyService&#45;&gt;StrategyModule</title>
<path fill="none" stroke="#000000" d="M96,-122.2228C96,-142.3652 96,-172 96,-172 96,-172 2340.6253,-172 2340.6253,-172"/>
<polygon fill="#000000" stroke="#000000" points="2340.6253,-175.5001 2350.6253,-172 2340.6253,-168.5001 2340.6253,-175.5001"/>
</g>
</g>
</svg>
