<?xml version="1.0" encoding="UTF-8" standalone="no"?>
<!DOCTYPE svg PUBLIC "-//W3C//DTD SVG 1.1//EN"
 "http://www.w3.org/Graphics/SVG/1.1/DTD/svg11.dtd">
<!-- Generated by graphviz version 2.40.1 (20161225.0304)
 -->
<!-- Title: dependencies Pages: 1 -->
<svg width="4381pt" height="284pt"
 viewBox="0.00 0.00 4381.00 284.00" xmlns="http://www.w3.org/2000/svg" xmlns:xlink="http://www.w3.org/1999/xlink">
<g id="graph0" class="graph" transform="scale(1 1) rotate(0) translate(4 280)">
<title>dependencies</title>
<polygon fill="#ffffff" stroke="transparent" points="-4,4 -4,-280 4377,-280 4377,4 -4,4"/>
<text text-anchor="start" x="2165.5091" y="-42.4" font-family="sans-serif" font-weight="bold" font-size="14.00" fill="#000000">Legend</text>
<polygon fill="#ffffb3" stroke="transparent" points="1952.5,-10 1952.5,-30 1972.5,-30 1972.5,-10 1952.5,-10"/>
<text text-anchor="start" x="1976.129" y="-15.4" font-family="sans-serif" font-size="14.00" fill="#000000"> &#160;Declarations</text>
<polygon fill="#8dd3c7" stroke="transparent" points="2065.5,-10 2065.5,-30 2085.5,-30 2085.5,-10 2065.5,-10"/>
<text text-anchor="start" x="2089.2251" y="-15.4" font-family="sans-serif" font-size="14.00" fill="#000000"> &#160;Module</text>
<polygon fill="#80b1d3" stroke="transparent" points="2151.5,-10 2151.5,-30 2171.5,-30 2171.5,-10 2151.5,-10"/>
<text text-anchor="start" x="2175.2812" y="-15.4" font-family="sans-serif" font-size="14.00" fill="#000000"> &#160;Bootstrap</text>
<polygon fill="#fdb462" stroke="transparent" points="2248.5,-10 2248.5,-30 2268.5,-30 2268.5,-10 2248.5,-10"/>
<text text-anchor="start" x="2272.1732" y="-15.4" font-family="sans-serif" font-size="14.00" fill="#000000"> &#160;Providers</text>
<polygon fill="#fb8072" stroke="transparent" points="2344.5,-10 2344.5,-30 2364.5,-30 2364.5,-10 2344.5,-10"/>
<text text-anchor="start" x="2368.2258" y="-15.4" font-family="sans-serif" font-size="14.00" fill="#000000"> &#160;Exports</text>
<g id="clust1" class="cluster">
<title>cluster_StrategyModule</title>
<polygon fill="none" stroke="#000000" stroke-dasharray="1,5" points="8,-70 8,-268 4365,-268 4365,-70 8,-70"/>
</g>
<g id="clust2" class="cluster">
<title>cluster_StrategyModule_declarations</title>
<polygon fill="none" stroke="#000000" points="865,-78 865,-130 4357,-130 4357,-78 865,-78"/>
</g>
<g id="clust22" class="cluster">
<title>cluster_StrategyModule_imports</title>
<polygon fill="none" stroke="#000000" points="639,-78 639,-130 857,-130 857,-78 639,-78"/>
</g>
<g id="clust23" class="cluster">
<title>cluster_StrategyModule_exports</title>
<polygon fill="none" stroke="#000000" points="724,-208 724,-260 3510,-260 3510,-208 724,-208"/>
</g>
<g id="clust25" class="cluster">
<title>cluster_StrategyModule_providers</title>
<polygon fill="none" stroke="#000000" points="16,-78 16,-130 631,-130 631,-78 16,-78"/>
</g>
<!-- AddArgComponent -->
<g id="node1" class="node">
<title>AddArgComponent</title>
<polygon fill="#ffffb3" stroke="#000000" points="4348.7064,-122 4221.2936,-122 4221.2936,-86 4348.7064,-86 4348.7064,-122"/>
<text text-anchor="middle" x="4285" y="-99.8" font-family="Times,serif" font-size="14.00" fill="#000000">AddArgComponent</text>
</g>
<!-- StrategyModule -->
<g id="node20" class="node">
<title>StrategyModule</title>
<polygon fill="#8dd3c7" stroke="#000000" points="2270.2036,-187 2267.2036,-191 2246.2036,-191 2243.2036,-187 2163.7964,-187 2163.7964,-151 2270.2036,-151 2270.2036,-187"/>
<text text-anchor="middle" x="2217" y="-164.8" font-family="Times,serif" font-size="14.00" fill="#000000">StrategyModule</text>
</g>
<!-- AddArgComponent&#45;&gt;StrategyModule -->
<g id="edge1" class="edge">
<title>AddArgComponent&#45;&gt;StrategyModule</title>
<path fill="none" stroke="#000000" d="M4285,-122.2228C4285,-142.3652 4285,-172 4285,-172 4285,-172 2280.1976,-172 2280.1976,-172"/>
<polygon fill="#000000" stroke="#000000" points="2280.1976,-168.5001 2270.1976,-172 2280.1975,-175.5001 2280.1976,-168.5001"/>
</g>
<!-- AgentRegionPipe -->
<g id="node2" class="node">
<title>AgentRegionPipe</title>
<polygon fill="#ffffb3" stroke="#000000" points="4203.5423,-122 4088.4577,-122 4088.4577,-86 4203.5423,-86 4203.5423,-122"/>
<text text-anchor="middle" x="4146" y="-99.8" font-family="Times,serif" font-size="14.00" fill="#000000">AgentRegionPipe</text>
</g>
<!-- AgentRegionPipe&#45;&gt;StrategyModule -->
<g id="edge2" class="edge">
<title>AgentRegionPipe&#45;&gt;StrategyModule</title>
<path fill="none" stroke="#000000" d="M4146,-122.0348C4146,-141.5762 4146,-170 4146,-170 4146,-170 2280.3527,-170 2280.3527,-170"/>
<polygon fill="#000000" stroke="#000000" points="2280.3527,-166.5001 2270.3527,-170 2280.3526,-173.5001 2280.3527,-166.5001"/>
</g>
<!-- AlternationPreviewComponent -->
<g id="node3" class="node">
<title>AlternationPreviewComponent</title>
<polygon fill="#ffffb3" stroke="#000000" points="4070.4608,-122 3879.5392,-122 3879.5392,-86 4070.4608,-86 4070.4608,-122"/>
<text text-anchor="middle" x="3975" y="-99.8" font-family="Times,serif" font-size="14.00" fill="#000000">AlternationPreviewComponent</text>
</g>
<!-- AlternationPreviewComponent&#45;&gt;StrategyModule -->
<g id="edge3" class="edge">
<title>AlternationPreviewComponent&#45;&gt;StrategyModule</title>
<path fill="none" stroke="#000000" d="M3975,-122.1061C3975,-141.3391 3975,-169 3975,-169 3975,-169 2280.5733,-169 2280.5733,-169"/>
<polygon fill="#000000" stroke="#000000" points="2280.5734,-165.5001 2270.5733,-169 2280.5733,-172.5001 2280.5734,-165.5001"/>
</g>
<!-- ArgListComponent -->
<g id="node4" class="node">
<title>ArgListComponent</title>
<polygon fill="#ffffb3" stroke="#000000" points="3861.3781,-122 3736.6219,-122 3736.6219,-86 3861.3781,-86 3861.3781,-122"/>
<text text-anchor="middle" x="3799" y="-99.8" font-family="Times,serif" font-size="14.00" fill="#000000">ArgListComponent</text>
</g>
<!-- ArgListComponent&#45;&gt;StrategyModule -->
<g id="edge4" class="edge">
<title>ArgListComponent&#45;&gt;StrategyModule</title>
<path fill="none" stroke="#000000" d="M3799,-122.2222C3799,-140.8285 3799,-167 3799,-167 3799,-167 2280.5425,-167 2280.5425,-167"/>
<polygon fill="#000000" stroke="#000000" points="2280.5425,-163.5001 2270.5425,-167 2280.5424,-170.5001 2280.5425,-163.5001"/>
</g>
<!-- GenKeyPanelComponent -->
<g id="node5" class="node">
<title>GenKeyPanelComponent</title>
<polygon fill="#ffffb3" stroke="#000000" points="3718.5772,-122 3559.4228,-122 3559.4228,-86 3718.5772,-86 3718.5772,-122"/>
<text text-anchor="middle" x="3639" y="-99.8" font-family="Times,serif" font-size="14.00" fill="#000000">GenKeyPanelComponent</text>
</g>
<!-- GenKeyPanelComponent&#45;&gt;StrategyModule -->
<g id="edge5" class="edge">
<title>GenKeyPanelComponent&#45;&gt;StrategyModule</title>
<path fill="none" stroke="#000000" d="M3639,-122.302C3639,-140.2699 3639,-165 3639,-165 3639,-165 2280.1488,-165 2280.1488,-165"/>
<polygon fill="#000000" stroke="#000000" points="2280.1488,-161.5001 2270.1488,-165 2280.1488,-168.5001 2280.1488,-161.5001"/>
</g>
<!-- InnerShareConfirmComponent -->
<g id="node6" class="node">
<title>InnerShareConfirmComponent</title>
<polygon fill="#ffffb3" stroke="#000000" points="3541.1797,-122 3350.8203,-122 3350.8203,-86 3541.1797,-86 3541.1797,-122"/>
<text text-anchor="middle" x="3446" y="-99.8" font-family="Times,serif" font-size="14.00" fill="#000000">InnerShareConfirmComponent</text>
</g>
<!-- InnerShareConfirmComponent&#45;&gt;StrategyModule -->
<g id="edge6" class="edge">
<title>InnerShareConfirmComponent&#45;&gt;StrategyModule</title>
<path fill="none" stroke="#000000" d="M3362.5838,-122.0225C3362.5838,-139.3734 3362.5838,-163 3362.5838,-163 3362.5838,-163 2280.3362,-163 2280.3362,-163"/>
<polygon fill="#000000" stroke="#000000" points="2280.3363,-159.5001 2270.3362,-163 2280.3362,-166.5001 2280.3363,-159.5001"/>
</g>
<!-- IsOldVersionPipe -->
<g id="node7" class="node">
<title>IsOldVersionPipe</title>
<polygon fill="#ffffb3" stroke="#000000" points="3333.3076,-122 3216.6924,-122 3216.6924,-86 3333.3076,-86 3333.3076,-122"/>
<text text-anchor="middle" x="3275" y="-99.8" font-family="Times,serif" font-size="14.00" fill="#000000">IsOldVersionPipe</text>
</g>
<!-- IsOldVersionPipe&#45;&gt;StrategyModule -->
<g id="edge7" class="edge">
<title>IsOldVersionPipe&#45;&gt;StrategyModule</title>
<path fill="none" stroke="#000000" d="M3225.6628,-122.0352C3225.6628,-138.7344 3225.6628,-161 3225.6628,-161 3225.6628,-161 2280.1634,-161 2280.1634,-161"/>
<polygon fill="#000000" stroke="#000000" points="2280.1634,-157.5001 2270.1634,-161 2280.1634,-164.5001 2280.1634,-157.5001"/>
</g>
<!-- SelectTypeValueValidateDirective -->
<g id="node8" class="node">
<title>SelectTypeValueValidateDirective</title>
<polygon fill="#ffffb3" stroke="#000000" points="3198.9062,-122 2987.0938,-122 2987.0938,-86 3198.9062,-86 3198.9062,-122"/>
<text text-anchor="middle" x="3093" y="-99.8" font-family="Times,serif" font-size="14.00" fill="#000000">SelectTypeValueValidateDirective</text>
</g>
<!-- SelectTypeValueValidateDirective&#45;&gt;StrategyModule -->
<g id="edge8" class="edge">
<title>SelectTypeValueValidateDirective&#45;&gt;StrategyModule</title>
<path fill="none" stroke="#000000" d="M2995.618,-122.0091C2995.618,-138.0494 2995.618,-159 2995.618,-159 2995.618,-159 2280.2111,-159 2280.2111,-159"/>
<polygon fill="#000000" stroke="#000000" points="2280.2112,-155.5001 2270.2111,-159 2280.2111,-162.5001 2280.2112,-155.5001"/>
</g>
<!-- ShareConfirmComponent -->
<g id="node9" class="node">
<title>ShareConfirmComponent</title>
<polygon fill="#ffffb3" stroke="#000000" points="2969.1442,-122 2808.8558,-122 2808.8558,-86 2969.1442,-86 2969.1442,-122"/>
<text text-anchor="middle" x="2889" y="-99.8" font-family="Times,serif" font-size="14.00" fill="#000000">ShareConfirmComponent</text>
</g>
<!-- ShareConfirmComponent&#45;&gt;StrategyModule -->
<g id="edge9" class="edge">
<title>ShareConfirmComponent&#45;&gt;StrategyModule</title>
<path fill="none" stroke="#000000" d="M2833.2909,-122.2396C2833.2909,-137.5706 2833.2909,-157 2833.2909,-157 2833.2909,-157 2280.3456,-157 2280.3456,-157"/>
<polygon fill="#000000" stroke="#000000" points="2280.3456,-153.5001 2270.3456,-157 2280.3455,-160.5001 2280.3456,-153.5001"/>
</g>
<!-- StrategyArgComponent -->
<g id="node10" class="node">
<title>StrategyArgComponent</title>
<polygon fill="#ffffb3" stroke="#000000" points="2790.7534,-122 2641.2466,-122 2641.2466,-86 2790.7534,-86 2790.7534,-122"/>
<text text-anchor="middle" x="2716" y="-99.8" font-family="Times,serif" font-size="14.00" fill="#000000">StrategyArgComponent</text>
</g>
<!-- StrategyArgComponent&#45;&gt;StrategyModule -->
<g id="edge10" class="edge">
<title>StrategyArgComponent&#45;&gt;StrategyModule</title>
<path fill="none" stroke="#000000" d="M2680.4133,-122.1243C2680.4133,-136.7832 2680.4133,-155 2680.4133,-155 2680.4133,-155 2280.1594,-155 2280.1594,-155"/>
<polygon fill="#000000" stroke="#000000" points="2280.1594,-151.5001 2270.1594,-155 2280.1594,-158.5001 2280.1594,-151.5001"/>
</g>
<!-- StrategyCodemirrorComponent -->
<g id="node11" class="node">
<title>StrategyCodemirrorComponent</title>
<polygon fill="#ffffb3" stroke="#000000" points="2622.8004,-122 2429.1996,-122 2429.1996,-86 2622.8004,-86 2622.8004,-122"/>
<text text-anchor="middle" x="2526" y="-99.8" font-family="Times,serif" font-size="14.00" fill="#000000">StrategyCodemirrorComponent</text>
</g>
<!-- StrategyCodemirrorComponent&#45;&gt;StrategyModule -->
<g id="edge11" class="edge">
<title>StrategyCodemirrorComponent&#45;&gt;StrategyModule</title>
<path fill="none" stroke="#000000" d="M2457.9883,-122.2458C2457.9883,-136.1772 2457.9883,-153 2457.9883,-153 2457.9883,-153 2280.1842,-153 2280.1842,-153"/>
<polygon fill="#000000" stroke="#000000" points="2280.1843,-149.5001 2270.1842,-153 2280.1842,-156.5001 2280.1843,-149.5001"/>
</g>
<!-- StrategyDependanceComponent -->
<g id="node12" class="node">
<title>StrategyDependanceComponent</title>
<polygon fill="#ffffb3" stroke="#000000" points="2411.6657,-122 2214.3343,-122 2214.3343,-86 2411.6657,-86 2411.6657,-122"/>
<text text-anchor="middle" x="2313" y="-99.8" font-family="Times,serif" font-size="14.00" fill="#000000">StrategyDependanceComponent</text>
</g>
<!-- StrategyDependanceComponent&#45;&gt;StrategyModule -->
<g id="edge12" class="edge">
<title>StrategyDependanceComponent&#45;&gt;StrategyModule</title>
<path fill="none" stroke="#000000" d="M2242.2595,-122.1061C2242.2595,-122.1061 2242.2595,-140.991 2242.2595,-140.991"/>
<polygon fill="#000000" stroke="#000000" points="2238.7595,-140.9909 2242.2595,-150.991 2245.7595,-140.991 2238.7595,-140.9909"/>
</g>
<!-- StrategyDesComponent -->
<g id="node13" class="node">
<title>StrategyDesComponent</title>
<polygon fill="#ffffb3" stroke="#000000" points="2196.752,-122 2047.248,-122 2047.248,-86 2196.752,-86 2196.752,-122"/>
<text text-anchor="middle" x="2122" y="-99.8" font-family="Times,serif" font-size="14.00" fill="#000000">StrategyDesComponent</text>
</g>
<!-- StrategyDesComponent&#45;&gt;StrategyModule -->
<g id="edge13" class="edge">
<title>StrategyDesComponent&#45;&gt;StrategyModule</title>
<path fill="none" stroke="#000000" d="M2180.3871,-122.1061C2180.3871,-122.1061 2180.3871,-140.991 2180.3871,-140.991"/>
<polygon fill="#000000" stroke="#000000" points="2176.8872,-140.9909 2180.3871,-150.991 2183.8872,-140.991 2176.8872,-140.9909"/>
</g>
<!-- StrategyListComponent -->
<g id="node14" class="node">
<title>StrategyListComponent</title>
<polygon fill="#ffffb3" stroke="#000000" points="2028.7646,-122 1879.2354,-122 1879.2354,-86 2028.7646,-86 2028.7646,-122"/>
<text text-anchor="middle" x="1954" y="-99.8" font-family="Times,serif" font-size="14.00" fill="#000000">StrategyListComponent</text>
</g>
<!-- StrategyListComponent&#45;&gt;StrategyModule -->
<g id="edge14" class="edge">
<title>StrategyListComponent&#45;&gt;StrategyModule</title>
<path fill="none" stroke="#000000" d="M1964.2747,-122.2458C1964.2747,-136.1772 1964.2747,-153 1964.2747,-153 1964.2747,-153 2153.7123,-153 2153.7123,-153"/>
<polygon fill="#000000" stroke="#000000" points="2153.7123,-156.5001 2163.7123,-153 2153.7122,-149.5001 2153.7123,-156.5001"/>
</g>
<!-- StrategyOverviewComponent -->
<g id="node15" class="node">
<title>StrategyOverviewComponent</title>
<polygon fill="#ffffb3" stroke="#000000" points="1861.6797,-122 1678.3203,-122 1678.3203,-86 1861.6797,-86 1861.6797,-122"/>
<text text-anchor="middle" x="1770" y="-99.8" font-family="Times,serif" font-size="14.00" fill="#000000">StrategyOverviewComponent</text>
</g>
<!-- StrategyOverviewComponent&#45;&gt;StrategyModule -->
<g id="edge15" class="edge">
<title>StrategyOverviewComponent&#45;&gt;StrategyModule</title>
<path fill="none" stroke="#000000" d="M1794.982,-122.1243C1794.982,-136.7832 1794.982,-155 1794.982,-155 1794.982,-155 2153.5511,-155 2153.5511,-155"/>
<polygon fill="#000000" stroke="#000000" points="2153.5512,-158.5001 2163.5511,-155 2153.5511,-151.5001 2153.5512,-158.5001"/>
</g>
<!-- StrategyRemoteEditComponent -->
<g id="node16" class="node">
<title>StrategyRemoteEditComponent</title>
<polygon fill="#ffffb3" stroke="#000000" points="1660.3668,-122 1465.6332,-122 1465.6332,-86 1660.3668,-86 1660.3668,-122"/>
<text text-anchor="middle" x="1563" y="-99.8" font-family="Times,serif" font-size="14.00" fill="#000000">StrategyRemoteEditComponent</text>
</g>
<!-- StrategyRemoteEditComponent&#45;&gt;StrategyModule -->
<g id="edge16" class="edge">
<title>StrategyRemoteEditComponent&#45;&gt;StrategyModule</title>
<path fill="none" stroke="#000000" d="M1608.9006,-122.2396C1608.9006,-137.5706 1608.9006,-157 1608.9006,-157 1608.9006,-157 2153.8338,-157 2153.8338,-157"/>
<polygon fill="#000000" stroke="#000000" points="2153.8339,-160.5001 2163.8338,-157 2153.8338,-153.5001 2153.8339,-160.5001"/>
</g>
<!-- StrategyRenewalComponent -->
<g id="node17" class="node">
<title>StrategyRenewalComponent</title>
<polygon fill="#ffffb3" stroke="#000000" points="1447.4636,-122 1270.5364,-122 1270.5364,-86 1447.4636,-86 1447.4636,-122"/>
<text text-anchor="middle" x="1359" y="-99.8" font-family="Times,serif" font-size="14.00" fill="#000000">StrategyRenewalComponent</text>
</g>
<!-- StrategyRenewalComponent&#45;&gt;StrategyModule -->
<g id="edge17" class="edge">
<title>StrategyRenewalComponent&#45;&gt;StrategyModule</title>
<path fill="none" stroke="#000000" d="M1400.071,-122.0091C1400.071,-138.0494 1400.071,-159 1400.071,-159 1400.071,-159 2153.7141,-159 2153.7141,-159"/>
<polygon fill="#000000" stroke="#000000" points="2153.7142,-162.5001 2163.7141,-159 2153.7141,-155.5001 2153.7142,-162.5001"/>
</g>
<!-- VariableNameValidateDirective -->
<g id="node18" class="node">
<title>VariableNameValidateDirective</title>
<polygon fill="#ffffb3" stroke="#000000" points="1252.6236,-122 1055.3764,-122 1055.3764,-86 1252.6236,-86 1252.6236,-122"/>
<text text-anchor="middle" x="1154" y="-99.8" font-family="Times,serif" font-size="14.00" fill="#000000">VariableNameValidateDirective</text>
</g>
<!-- VariableNameValidateDirective&#45;&gt;StrategyModule -->
<g id="edge18" class="edge">
<title>VariableNameValidateDirective&#45;&gt;StrategyModule</title>
<path fill="none" stroke="#000000" d="M1194.1892,-122.0352C1194.1892,-138.7344 1194.1892,-161 1194.1892,-161 1194.1892,-161 2153.8067,-161 2153.8067,-161"/>
<polygon fill="#000000" stroke="#000000" points="2153.8067,-164.5001 2163.8067,-161 2153.8067,-157.5001 2153.8067,-164.5001"/>
</g>
<!-- VerifyGenKeyComponent -->
<g id="node19" class="node">
<title>VerifyGenKeyComponent</title>
<polygon fill="#ffffb3" stroke="#000000" points="1037.0085,-122 872.9915,-122 872.9915,-86 1037.0085,-86 1037.0085,-122"/>
<text text-anchor="middle" x="955" y="-99.8" font-family="Times,serif" font-size="14.00" fill="#000000">VerifyGenKeyComponent</text>
</g>
<!-- VerifyGenKeyComponent&#45;&gt;StrategyModule -->
<g id="edge19" class="edge">
<title>VerifyGenKeyComponent&#45;&gt;StrategyModule</title>
<path fill="none" stroke="#000000" d="M977.4711,-122.0225C977.4711,-139.3734 977.4711,-163 977.4711,-163 977.4711,-163 2153.739,-163 2153.739,-163"/>
<polygon fill="#000000" stroke="#000000" points="2153.739,-166.5001 2163.739,-163 2153.739,-159.5001 2153.739,-166.5001"/>
</g>
<!-- AddArgComponent  -->
<g id="node23" class="node">
<title>AddArgComponent </title>
<polygon fill="#fb8072" stroke="#000000" points="3502.2065,-252 3371.7935,-252 3371.7935,-216 3502.2065,-216 3502.2065,-252"/>
<text text-anchor="middle" x="3437" y="-229.8" font-family="Times,serif" font-size="14.00" fill="#000000">AddArgComponent </text>
</g>
<!-- StrategyModule&#45;&gt;AddArgComponent  -->
<g id="edge22" class="edge">
<title>StrategyModule&#45;&gt;AddArgComponent </title>
<path fill="none" stroke="#000000" stroke-dasharray="5,2" d="M2270.2064,-174C2505.0213,-174 3437,-174 3437,-174 3437,-174 3437,-205.998 3437,-205.998"/>
<polygon fill="#000000" stroke="#000000" points="3433.5001,-205.998 3437,-215.998 3440.5001,-205.9981 3433.5001,-205.998"/>
</g>
<!-- AgentRegionPipe  -->
<g id="node24" class="node">
<title>AgentRegionPipe </title>
<polygon fill="#fb8072" stroke="#000000" points="3353.5414,-252 3234.4586,-252 3234.4586,-216 3353.5414,-216 3353.5414,-252"/>
<text text-anchor="middle" x="3294" y="-229.8" font-family="Times,serif" font-size="14.00" fill="#000000">AgentRegionPipe </text>
</g>
<!-- StrategyModule&#45;&gt;AgentRegionPipe  -->
<g id="edge23" class="edge">
<title>StrategyModule&#45;&gt;AgentRegionPipe </title>
<path fill="none" stroke="#000000" stroke-dasharray="5,2" d="M2270.2686,-176C2486.0663,-176 3283.8165,-176 3283.8165,-176 3283.8165,-176 3283.8165,-205.9664 3283.8165,-205.9664"/>
<polygon fill="#000000" stroke="#000000" points="3280.3165,-205.9663 3283.8165,-215.9664 3287.3165,-205.9664 3280.3165,-205.9663"/>
</g>
<!-- AlternationPreviewComponent  -->
<g id="node25" class="node">
<title>AlternationPreviewComponent </title>
<polygon fill="#fb8072" stroke="#000000" points="3216.4613,-252 3021.5387,-252 3021.5387,-216 3216.4613,-216 3216.4613,-252"/>
<text text-anchor="middle" x="3119" y="-229.8" font-family="Times,serif" font-size="14.00" fill="#000000">AlternationPreviewComponent </text>
</g>
<!-- StrategyModule&#45;&gt;AlternationPreviewComponent  -->
<g id="edge24" class="edge">
<title>StrategyModule&#45;&gt;AlternationPreviewComponent </title>
<path fill="none" stroke="#000000" stroke-dasharray="5,2" d="M2270.2084,-178C2462.5326,-178 3110.3614,-178 3110.3614,-178 3110.3614,-178 3110.3614,-205.973 3110.3614,-205.973"/>
<polygon fill="#000000" stroke="#000000" points="3106.8614,-205.973 3110.3614,-215.973 3113.8614,-205.973 3106.8614,-205.973"/>
</g>
<!-- ArgListComponent  -->
<g id="node26" class="node">
<title>ArgListComponent </title>
<polygon fill="#fb8072" stroke="#000000" points="3004.3786,-252 2875.6214,-252 2875.6214,-216 3004.3786,-216 3004.3786,-252"/>
<text text-anchor="middle" x="2940" y="-229.8" font-family="Times,serif" font-size="14.00" fill="#000000">ArgListComponent </text>
</g>
<!-- StrategyModule&#45;&gt;ArgListComponent  -->
<g id="edge25" class="edge">
<title>StrategyModule&#45;&gt;ArgListComponent </title>
<path fill="none" stroke="#000000" stroke-dasharray="5,2" d="M2270.3214,-180C2434.6929,-180 2922.5665,-180 2922.5665,-180 2922.5665,-180 2922.5665,-205.7181 2922.5665,-205.7181"/>
<polygon fill="#000000" stroke="#000000" points="2919.0665,-205.718 2922.5665,-215.7181 2926.0665,-205.7181 2919.0665,-205.718"/>
</g>
<!-- IsOldVersionPipe  -->
<g id="node27" class="node">
<title>IsOldVersionPipe </title>
<polygon fill="#fb8072" stroke="#000000" points="2857.8074,-252 2738.1926,-252 2738.1926,-216 2857.8074,-216 2857.8074,-252"/>
<text text-anchor="middle" x="2798" y="-229.8" font-family="Times,serif" font-size="14.00" fill="#000000">IsOldVersionPipe </text>
</g>
<!-- StrategyModule&#45;&gt;IsOldVersionPipe  -->
<g id="edge26" class="edge">
<title>StrategyModule&#45;&gt;IsOldVersionPipe </title>
<path fill="none" stroke="#000000" stroke-dasharray="5,2" d="M2270.4921,-182C2408.254,-182 2764.4865,-182 2764.4865,-182 2764.4865,-182 2764.4865,-205.8129 2764.4865,-205.8129"/>
<polygon fill="#000000" stroke="#000000" points="2760.9866,-205.8129 2764.4865,-215.8129 2767.9866,-205.813 2760.9866,-205.8129"/>
</g>
<!-- SelectTypeValueValidateDirective  -->
<g id="node28" class="node">
<title>SelectTypeValueValidateDirective </title>
<polygon fill="#fb8072" stroke="#000000" points="2719.9066,-252 2504.0934,-252 2504.0934,-216 2719.9066,-216 2719.9066,-252"/>
<text text-anchor="middle" x="2612" y="-229.8" font-family="Times,serif" font-size="14.00" fill="#000000">SelectTypeValueValidateDirective </text>
</g>
<!-- StrategyModule&#45;&gt;SelectTypeValueValidateDirective  -->
<g id="edge27" class="edge">
<title>StrategyModule&#45;&gt;SelectTypeValueValidateDirective </title>
<path fill="none" stroke="#000000" stroke-dasharray="5,2" d="M2270.3772,-184C2367.5658,-184 2563.4735,-184 2563.4735,-184 2563.4735,-184 2563.4735,-205.9489 2563.4735,-205.9489"/>
<polygon fill="#000000" stroke="#000000" points="2559.9736,-205.9488 2563.4735,-215.9489 2566.9736,-205.9489 2559.9736,-205.9488"/>
</g>
<!-- StrategyArgComponent  -->
<g id="node29" class="node">
<title>StrategyArgComponent </title>
<polygon fill="#fb8072" stroke="#000000" points="2486.7534,-252 2333.2466,-252 2333.2466,-216 2486.7534,-216 2486.7534,-252"/>
<text text-anchor="middle" x="2410" y="-229.8" font-family="Times,serif" font-size="14.00" fill="#000000">StrategyArgComponent </text>
</g>
<!-- StrategyModule&#45;&gt;StrategyArgComponent  -->
<g id="edge28" class="edge">
<title>StrategyModule&#45;&gt;StrategyArgComponent </title>
<path fill="none" stroke="#000000" stroke-dasharray="5,2" d="M2270.5067,-186C2315.481,-186 2372.4781,-186 2372.4781,-186 2372.4781,-186 2372.4781,-205.8533 2372.4781,-205.8533"/>
<polygon fill="#000000" stroke="#000000" points="2368.9782,-205.8532 2372.4781,-215.8533 2375.9782,-205.8533 2368.9782,-205.8532"/>
</g>
<!-- StrategyCodemirrorComponent  -->
<g id="node30" class="node">
<title>StrategyCodemirrorComponent </title>
<polygon fill="#fb8072" stroke="#000000" points="2315.3003,-252 2118.6997,-252 2118.6997,-216 2315.3003,-216 2315.3003,-252"/>
<text text-anchor="middle" x="2217" y="-229.8" font-family="Times,serif" font-size="14.00" fill="#000000">StrategyCodemirrorComponent </text>
</g>
<!-- StrategyModule&#45;&gt;StrategyCodemirrorComponent  -->
<g id="edge29" class="edge">
<title>StrategyModule&#45;&gt;StrategyCodemirrorComponent </title>
<path fill="none" stroke="#000000" stroke-dasharray="5,2" d="M2217,-187.1061C2217,-187.1061 2217,-205.991 2217,-205.991"/>
<polygon fill="#000000" stroke="#000000" points="2213.5001,-205.9909 2217,-215.991 2220.5001,-205.991 2213.5001,-205.9909"/>
</g>
<!-- StrategyDependanceComponent  -->
<g id="node31" class="node">
<title>StrategyDependanceComponent </title>
<polygon fill="#fb8072" stroke="#000000" points="2100.1659,-252 1899.8341,-252 1899.8341,-216 2100.1659,-216 2100.1659,-252"/>
<text text-anchor="middle" x="2000" y="-229.8" font-family="Times,serif" font-size="14.00" fill="#000000">StrategyDependanceComponent </text>
</g>
<!-- StrategyModule&#45;&gt;StrategyDependanceComponent  -->
<g id="edge30" class="edge">
<title>StrategyModule&#45;&gt;StrategyDependanceComponent </title>
<path fill="none" stroke="#000000" stroke-dasharray="5,2" d="M2163.651,-186C2122.9168,-186 2073.7285,-186 2073.7285,-186 2073.7285,-186 2073.7285,-205.8533 2073.7285,-205.8533"/>
<polygon fill="#000000" stroke="#000000" points="2070.2285,-205.8532 2073.7285,-215.8533 2077.2285,-205.8533 2070.2285,-205.8532"/>
</g>
<!-- StrategyDesComponent  -->
<g id="node32" class="node">
<title>StrategyDesComponent </title>
<polygon fill="#fb8072" stroke="#000000" points="1881.752,-252 1728.248,-252 1728.248,-216 1881.752,-216 1881.752,-252"/>
<text text-anchor="middle" x="1805" y="-229.8" font-family="Times,serif" font-size="14.00" fill="#000000">StrategyDesComponent </text>
</g>
<!-- StrategyModule&#45;&gt;StrategyDesComponent  -->
<g id="edge31" class="edge">
<title>StrategyModule&#45;&gt;StrategyDesComponent </title>
<path fill="none" stroke="#000000" stroke-dasharray="5,2" d="M2163.5962,-184C2066.3592,-184 1870.3538,-184 1870.3538,-184 1870.3538,-184 1870.3538,-205.9489 1870.3538,-205.9489"/>
<polygon fill="#000000" stroke="#000000" points="1866.8539,-205.9488 1870.3538,-215.9489 1873.8539,-205.9489 1866.8539,-205.9488"/>
</g>
<!-- StrategyListComponent  -->
<g id="node33" class="node">
<title>StrategyListComponent </title>
<polygon fill="#fb8072" stroke="#000000" points="1710.7646,-252 1557.2354,-252 1557.2354,-216 1710.7646,-216 1710.7646,-252"/>
<text text-anchor="middle" x="1634" y="-229.8" font-family="Times,serif" font-size="14.00" fill="#000000">StrategyListComponent </text>
</g>
<!-- StrategyModule&#45;&gt;StrategyListComponent  -->
<g id="edge32" class="edge">
<title>StrategyModule&#45;&gt;StrategyListComponent </title>
<path fill="none" stroke="#000000" stroke-dasharray="5,2" d="M2163.541,-182C2030.3787,-182 1694.5212,-182 1694.5212,-182 1694.5212,-182 1694.5212,-205.8129 1694.5212,-205.8129"/>
<polygon fill="#000000" stroke="#000000" points="1691.0213,-205.8129 1694.5212,-215.8129 1698.0213,-205.813 1691.0213,-205.8129"/>
</g>
<!-- StrategyOverviewComponent  -->
<g id="node34" class="node">
<title>StrategyOverviewComponent </title>
<polygon fill="#fb8072" stroke="#000000" points="1539.1799,-252 1352.8201,-252 1352.8201,-216 1539.1799,-216 1539.1799,-252"/>
<text text-anchor="middle" x="1446" y="-229.8" font-family="Times,serif" font-size="14.00" fill="#000000">StrategyOverviewComponent </text>
</g>
<!-- StrategyModule&#45;&gt;StrategyOverviewComponent  -->
<g id="edge33" class="edge">
<title>StrategyModule&#45;&gt;StrategyOverviewComponent </title>
<path fill="none" stroke="#000000" stroke-dasharray="5,2" d="M2163.8766,-180C1998.2787,-180 1502.4532,-180 1502.4532,-180 1502.4532,-180 1502.4532,-205.7181 1502.4532,-205.7181"/>
<polygon fill="#000000" stroke="#000000" points="1498.9533,-205.718 1502.4532,-215.7181 1505.9533,-205.7181 1498.9533,-205.718"/>
</g>
<!-- StrategyRemoteEditComponent  -->
<g id="node35" class="node">
<title>StrategyRemoteEditComponent </title>
<polygon fill="#fb8072" stroke="#000000" points="1334.3671,-252 1135.6329,-252 1135.6329,-216 1334.3671,-216 1334.3671,-252"/>
<text text-anchor="middle" x="1235" y="-229.8" font-family="Times,serif" font-size="14.00" fill="#000000">StrategyRemoteEditComponent </text>
</g>
<!-- StrategyModule&#45;&gt;StrategyRemoteEditComponent  -->
<g id="edge34" class="edge">
<title>StrategyModule&#45;&gt;StrategyRemoteEditComponent </title>
<path fill="none" stroke="#000000" stroke-dasharray="5,2" d="M2163.8711,-178C1968.6626,-178 1302.3508,-178 1302.3508,-178 1302.3508,-178 1302.3508,-205.973 1302.3508,-205.973"/>
<polygon fill="#000000" stroke="#000000" points="1298.8509,-205.973 1302.3508,-215.973 1305.8509,-205.973 1298.8509,-205.973"/>
</g>
<!-- VariableNameValidateDirective  -->
<g id="node36" class="node">
<title>VariableNameValidateDirective </title>
<polygon fill="#fb8072" stroke="#000000" points="1118.124,-252 917.876,-252 917.876,-216 1118.124,-216 1118.124,-252"/>
<text text-anchor="middle" x="1018" y="-229.8" font-family="Times,serif" font-size="14.00" fill="#000000">VariableNameValidateDirective </text>
</g>
<!-- StrategyModule&#45;&gt;VariableNameValidateDirective  -->
<g id="edge35" class="edge">
<title>StrategyModule&#45;&gt;VariableNameValidateDirective </title>
<path fill="none" stroke="#000000" stroke-dasharray="5,2" d="M2163.6304,-176C1939.6186,-176 1086.875,-176 1086.875,-176 1086.875,-176 1086.875,-205.9664 1086.875,-205.9664"/>
<polygon fill="#000000" stroke="#000000" points="1083.3751,-205.9663 1086.875,-215.9664 1090.3751,-205.9664 1083.3751,-205.9663"/>
</g>
<!-- VerifyGenKeyComponent  -->
<g id="node37" class="node">
<title>VerifyGenKeyComponent </title>
<polygon fill="#fb8072" stroke="#000000" points="900.0078,-252 731.9922,-252 731.9922,-216 900.0078,-216 900.0078,-252"/>
<text text-anchor="middle" x="816" y="-229.8" font-family="Times,serif" font-size="14.00" fill="#000000">VerifyGenKeyComponent </text>
</g>
<!-- StrategyModule&#45;&gt;VerifyGenKeyComponent  -->
<g id="edge36" class="edge">
<title>StrategyModule&#45;&gt;VerifyGenKeyComponent </title>
<path fill="none" stroke="#000000" stroke-dasharray="5,2" d="M2163.6041,-174C1915.3935,-174 886.375,-174 886.375,-174 886.375,-174 886.375,-205.998 886.375,-205.998"/>
<polygon fill="#000000" stroke="#000000" points="882.8751,-205.998 886.375,-215.998 889.8751,-205.9981 882.8751,-205.998"/>
</g>
<!-- SharedModule -->
<g id="node21" class="node">
<title>SharedModule</title>
<polygon fill="#8dd3c7" stroke="#000000" points="849.4231,-122 846.4231,-126 825.4231,-126 822.4231,-122 750.5769,-122 750.5769,-86 849.4231,-86 849.4231,-122"/>
<text text-anchor="middle" x="800" y="-99.8" font-family="Times,serif" font-size="14.00" fill="#000000">SharedModule</text>
</g>
<!-- SharedModule&#45;&gt;StrategyModule -->
<g id="edge20" class="edge">
<title>SharedModule&#45;&gt;StrategyModule</title>
<path fill="none" stroke="#000000" d="M800,-122.302C800,-140.2699 800,-165 800,-165 800,-165 2153.6109,-165 2153.6109,-165"/>
<polygon fill="#000000" stroke="#000000" points="2153.611,-168.5001 2163.6109,-165 2153.6109,-161.5001 2153.611,-168.5001"/>
</g>
<!-- ToolModule -->
<g id="node22" class="node">
<title>ToolModule</title>
<polygon fill="#8dd3c7" stroke="#000000" points="732.993,-122 729.993,-126 708.993,-126 705.993,-122 647.007,-122 647.007,-86 732.993,-86 732.993,-122"/>
<text text-anchor="middle" x="690" y="-99.8" font-family="Times,serif" font-size="14.00" fill="#000000">ToolModule</text>
</g>
<!-- ToolModule&#45;&gt;StrategyModule -->
<g id="edge21" class="edge">
<title>ToolModule&#45;&gt;StrategyModule</title>
<path fill="none" stroke="#000000" d="M689.4998,-122.2222C689.4998,-140.8285 689.4998,-167 689.4998,-167 689.4998,-167 2153.5311,-167 2153.5311,-167"/>
<polygon fill="#000000" stroke="#000000" points="2153.5311,-170.5001 2163.5311,-167 2153.5311,-163.5001 2153.5311,-170.5001"/>
</g>
<!-- StrategyConstantService -->
<g id="node38" class="node">
<title>StrategyConstantService</title>
<ellipse fill="#fdb462" stroke="#000000" cx="516" cy="-104" rx="106.5159" ry="18"/>
<text text-anchor="middle" x="516" y="-99.8" font-family="Times,serif" font-size="14.00" fill="#000000">StrategyConstantService</text>
</g>
<!-- StrategyConstantService&#45;&gt;StrategyModule -->
<g id="edge37" class="edge">
<title>StrategyConstantService&#45;&gt;StrategyModule</title>
<path fill="none" stroke="#000000" d="M516,-122.1061C516,-141.3391 516,-169 516,-169 516,-169 2153.7561,-169 2153.7561,-169"/>
<polygon fill="#000000" stroke="#000000" points="2153.7561,-172.5001 2163.7561,-169 2153.756,-165.5001 2153.7561,-172.5001"/>
</g>
<!-- StrategyOperateService -->
<g id="node39" class="node">
<title>StrategyOperateService</title>
<ellipse fill="#fdb462" stroke="#000000" cx="289" cy="-104" rx="102.9628" ry="18"/>
<text text-anchor="middle" x="289" y="-99.8" font-family="Times,serif" font-size="14.00" fill="#000000">StrategyOperateService</text>
</g>
<!-- StrategyOperateService&#45;&gt;StrategyModule -->
<g id="edge38" class="edge">
<title>StrategyOperateService&#45;&gt;StrategyModule</title>
<path fill="none" stroke="#000000" d="M289,-122.0348C289,-141.5762 289,-170 289,-170 289,-170 2153.675,-170 2153.675,-170"/>
<polygon fill="#000000" stroke="#000000" points="2153.675,-173.5001 2163.675,-170 2153.675,-166.5001 2153.675,-173.5001"/>
</g>
<!-- StrategyService -->
<g id="node40" class="node">
<title>StrategyService</title>
<ellipse fill="#fdb462" stroke="#000000" cx="96" cy="-104" rx="72.3458" ry="18"/>
<text text-anchor="middle" x="96" y="-99.8" font-family="Times,serif" font-size="14.00" fill="#000000">StrategyService</text>
</g>
<!-- StrategyService&#45;&gt;StrategyModule -->
<g id="edge39" class="edge">
<title>StrategyService&#45;&gt;StrategyModule</title>
<path fill="none" stroke="#000000" d="M96,-122.2228C96,-142.3652 96,-172 96,-172 96,-172 2153.7758,-172 2153.7758,-172"/>
<polygon fill="#000000" stroke="#000000" points="2153.7759,-175.5001 2163.7758,-172 2153.7758,-168.5001 2153.7759,-175.5001"/>
</g>
</g>
</svg>
