<?xml version="1.0" encoding="UTF-8" standalone="no"?>
<!DOCTYPE svg PUBLIC "-//W3C//DTD SVG 1.1//EN"
 "http://www.w3.org/Graphics/SVG/1.1/DTD/svg11.dtd">
<!-- Generated by graphviz version 2.40.1 (20161225.0304)
 -->
<!-- Title: dependencies Pages: 1 -->
<svg width="4566pt" height="284pt"
 viewBox="0.00 0.00 4566.00 284.00" xmlns="http://www.w3.org/2000/svg" xmlns:xlink="http://www.w3.org/1999/xlink">
<g id="graph0" class="graph" transform="scale(1 1) rotate(0) translate(4 280)">
<title>dependencies</title>
<polygon fill="#ffffff" stroke="transparent" points="-4,4 -4,-280 4562,-280 4562,4 -4,4"/>
<text text-anchor="start" x="2258.0091" y="-42.4" font-family="sans-serif" font-weight="bold" font-size="14.00" fill="#000000">Legend</text>
<polygon fill="#ffffb3" stroke="transparent" points="2045,-10 2045,-30 2065,-30 2065,-10 2045,-10"/>
<text text-anchor="start" x="2068.629" y="-15.4" font-family="sans-serif" font-size="14.00" fill="#000000"> &#160;Declarations</text>
<polygon fill="#8dd3c7" stroke="transparent" points="2158,-10 2158,-30 2178,-30 2178,-10 2158,-10"/>
<text text-anchor="start" x="2181.7251" y="-15.4" font-family="sans-serif" font-size="14.00" fill="#000000"> &#160;Module</text>
<polygon fill="#80b1d3" stroke="transparent" points="2244,-10 2244,-30 2264,-30 2264,-10 2244,-10"/>
<text text-anchor="start" x="2267.7812" y="-15.4" font-family="sans-serif" font-size="14.00" fill="#000000"> &#160;Bootstrap</text>
<polygon fill="#fdb462" stroke="transparent" points="2341,-10 2341,-30 2361,-30 2361,-10 2341,-10"/>
<text text-anchor="start" x="2364.6732" y="-15.4" font-family="sans-serif" font-size="14.00" fill="#000000"> &#160;Providers</text>
<polygon fill="#fb8072" stroke="transparent" points="2437,-10 2437,-30 2457,-30 2457,-10 2437,-10"/>
<text text-anchor="start" x="2460.7258" y="-15.4" font-family="sans-serif" font-size="14.00" fill="#000000"> &#160;Exports</text>
<g id="clust1" class="cluster">
<title>cluster_StrategyModule</title>
<polygon fill="none" stroke="#000000" stroke-dasharray="1,5" points="8,-70 8,-268 4550,-268 4550,-70 8,-70"/>
</g>
<g id="clust2" class="cluster">
<title>cluster_StrategyModule_declarations</title>
<polygon fill="none" stroke="#000000" points="865,-78 865,-130 4542,-130 4542,-78 865,-78"/>
</g>
<g id="clust23" class="cluster">
<title>cluster_StrategyModule_imports</title>
<polygon fill="none" stroke="#000000" points="639,-78 639,-130 857,-130 857,-78 639,-78"/>
</g>
<g id="clust24" class="cluster">
<title>cluster_StrategyModule_exports</title>
<polygon fill="none" stroke="#000000" points="725,-208 725,-260 3697,-260 3697,-208 725,-208"/>
</g>
<g id="clust26" class="cluster">
<title>cluster_StrategyModule_providers</title>
<polygon fill="none" stroke="#000000" points="16,-78 16,-130 631,-130 631,-78 16,-78"/>
</g>
<!-- AddArgComponent -->
<g id="node1" class="node">
<title>AddArgComponent</title>
<polygon fill="#ffffb3" stroke="#000000" points="4533.7064,-122 4406.2936,-122 4406.2936,-86 4533.7064,-86 4533.7064,-122"/>
<text text-anchor="middle" x="4470" y="-99.8" font-family="Times,serif" font-size="14.00" fill="#000000">AddArgComponent</text>
</g>
<!-- StrategyModule -->
<g id="node21" class="node">
<title>StrategyModule</title>
<polygon fill="#8dd3c7" stroke="#000000" points="2331.2036,-187 2328.2036,-191 2307.2036,-191 2304.2036,-187 2224.7964,-187 2224.7964,-151 2331.2036,-151 2331.2036,-187"/>
<text text-anchor="middle" x="2278" y="-164.8" font-family="Times,serif" font-size="14.00" fill="#000000">StrategyModule</text>
</g>
<!-- AddArgComponent&#45;&gt;StrategyModule -->
<g id="edge1" class="edge">
<title>AddArgComponent&#45;&gt;StrategyModule</title>
<path fill="none" stroke="#000000" d="M4470,-122.1289C4470,-142.5724 4470,-173 4470,-173 4470,-173 2341.369,-173 2341.369,-173"/>
<polygon fill="#000000" stroke="#000000" points="2341.3691,-169.5001 2331.369,-173 2341.369,-176.5001 2341.3691,-169.5001"/>
</g>
<!-- AlternationPreviewComponent -->
<g id="node2" class="node">
<title>AlternationPreviewComponent</title>
<polygon fill="#ffffb3" stroke="#000000" points="4388.4608,-122 4197.5392,-122 4197.5392,-86 4388.4608,-86 4388.4608,-122"/>
<text text-anchor="middle" x="4293" y="-99.8" font-family="Times,serif" font-size="14.00" fill="#000000">AlternationPreviewComponent</text>
</g>
<!-- AlternationPreviewComponent&#45;&gt;StrategyModule -->
<g id="edge2" class="edge">
<title>AlternationPreviewComponent&#45;&gt;StrategyModule</title>
<path fill="none" stroke="#000000" d="M4293,-122.308C4293,-142.1455 4293,-171 4293,-171 4293,-171 2341.1187,-171 2341.1187,-171"/>
<polygon fill="#000000" stroke="#000000" points="2341.1187,-167.5001 2331.1187,-171 2341.1187,-174.5001 2341.1187,-167.5001"/>
</g>
<!-- ArgListComponent -->
<g id="node3" class="node">
<title>ArgListComponent</title>
<polygon fill="#ffffb3" stroke="#000000" points="4179.3781,-122 4054.6219,-122 4054.6219,-86 4179.3781,-86 4179.3781,-122"/>
<text text-anchor="middle" x="4117" y="-99.8" font-family="Times,serif" font-size="14.00" fill="#000000">ArgListComponent</text>
</g>
<!-- ArgListComponent&#45;&gt;StrategyModule -->
<g id="edge3" class="edge">
<title>ArgListComponent&#45;&gt;StrategyModule</title>
<path fill="none" stroke="#000000" d="M4117,-122.1061C4117,-141.3391 4117,-169 4117,-169 4117,-169 2341.5471,-169 2341.5471,-169"/>
<polygon fill="#000000" stroke="#000000" points="2341.5471,-165.5001 2331.5471,-169 2341.547,-172.5001 2341.5471,-165.5001"/>
</g>
<!-- FuturesResultPipe -->
<g id="node4" class="node">
<title>FuturesResultPipe</title>
<polygon fill="#ffffb3" stroke="#000000" points="4036.1583,-122 3917.8417,-122 3917.8417,-86 4036.1583,-86 4036.1583,-122"/>
<text text-anchor="middle" x="3977" y="-99.8" font-family="Times,serif" font-size="14.00" fill="#000000">FuturesResultPipe</text>
</g>
<!-- FuturesResultPipe&#45;&gt;StrategyModule -->
<g id="edge4" class="edge">
<title>FuturesResultPipe&#45;&gt;StrategyModule</title>
<path fill="none" stroke="#000000" d="M3977,-122.1686C3977,-141.0898 3977,-168 3977,-168 3977,-168 2341.1813,-168 2341.1813,-168"/>
<polygon fill="#000000" stroke="#000000" points="2341.1814,-164.5001 2331.1813,-168 2341.1813,-171.5001 2341.1814,-164.5001"/>
</g>
<!-- GenKeyPanelComponent -->
<g id="node5" class="node">
<title>GenKeyPanelComponent</title>
<polygon fill="#ffffb3" stroke="#000000" points="3899.5772,-122 3740.4228,-122 3740.4228,-86 3899.5772,-86 3899.5772,-122"/>
<text text-anchor="middle" x="3820" y="-99.8" font-family="Times,serif" font-size="14.00" fill="#000000">GenKeyPanelComponent</text>
</g>
<!-- GenKeyPanelComponent&#45;&gt;StrategyModule -->
<g id="edge5" class="edge">
<title>GenKeyPanelComponent&#45;&gt;StrategyModule</title>
<path fill="none" stroke="#000000" d="M3820,-122.2667C3820,-140.5552 3820,-166 3820,-166 3820,-166 2341.5269,-166 2341.5269,-166"/>
<polygon fill="#000000" stroke="#000000" points="2341.527,-162.5001 2331.5269,-166 2341.5269,-169.5001 2341.527,-162.5001"/>
</g>
<!-- InnerShareConfirmComponent -->
<g id="node6" class="node">
<title>InnerShareConfirmComponent</title>
<polygon fill="#ffffb3" stroke="#000000" points="3722.1797,-122 3531.8203,-122 3531.8203,-86 3722.1797,-86 3722.1797,-122"/>
<text text-anchor="middle" x="3627" y="-99.8" font-family="Times,serif" font-size="14.00" fill="#000000">InnerShareConfirmComponent</text>
</g>
<!-- InnerShareConfirmComponent&#45;&gt;StrategyModule -->
<g id="edge6" class="edge">
<title>InnerShareConfirmComponent&#45;&gt;StrategyModule</title>
<path fill="none" stroke="#000000" d="M3536.0703,-122.002C3536.0703,-139.6754 3536.0703,-164 3536.0703,-164 3536.0703,-164 2341.2542,-164 2341.2542,-164"/>
<polygon fill="#000000" stroke="#000000" points="2341.2542,-160.5001 2331.2542,-164 2341.2541,-167.5001 2341.2542,-160.5001"/>
</g>
<!-- OptimizeFilterDesPipe -->
<g id="node7" class="node">
<title>OptimizeFilterDesPipe</title>
<polygon fill="#ffffb3" stroke="#000000" points="3513.5814,-122 3368.4186,-122 3368.4186,-86 3513.5814,-86 3513.5814,-122"/>
<text text-anchor="middle" x="3441" y="-99.8" font-family="Times,serif" font-size="14.00" fill="#000000">OptimizeFilterDesPipe</text>
</g>
<!-- OptimizeFilterDesPipe&#45;&gt;StrategyModule -->
<g id="edge7" class="edge">
<title>OptimizeFilterDesPipe&#45;&gt;StrategyModule</title>
<path fill="none" stroke="#000000" d="M3441,-122.0336C3441,-139.0597 3441,-162 3441,-162 3441,-162 2341.377,-162 2341.377,-162"/>
<polygon fill="#000000" stroke="#000000" points="2341.377,-158.5001 2331.377,-162 2341.3769,-165.5001 2341.377,-158.5001"/>
</g>
<!-- SelectTypeValueValidateDirective -->
<g id="node8" class="node">
<title>SelectTypeValueValidateDirective</title>
<polygon fill="#ffffb3" stroke="#000000" points="3350.9062,-122 3139.0938,-122 3139.0938,-86 3350.9062,-86 3350.9062,-122"/>
<text text-anchor="middle" x="3245" y="-99.8" font-family="Times,serif" font-size="14.00" fill="#000000">SelectTypeValueValidateDirective</text>
</g>
<!-- SelectTypeValueValidateDirective&#45;&gt;StrategyModule -->
<g id="edge8" class="edge">
<title>SelectTypeValueValidateDirective&#45;&gt;StrategyModule</title>
<path fill="none" stroke="#000000" d="M3160.5629,-122.027C3160.5629,-138.3976 3160.5629,-160 3160.5629,-160 3160.5629,-160 2341.2207,-160 2341.2207,-160"/>
<polygon fill="#000000" stroke="#000000" points="2341.2208,-156.5001 2331.2207,-160 2341.2207,-163.5001 2341.2208,-156.5001"/>
</g>
<!-- ShareConfirmComponent -->
<g id="node9" class="node">
<title>ShareConfirmComponent</title>
<polygon fill="#ffffb3" stroke="#000000" points="3121.1442,-122 2960.8558,-122 2960.8558,-86 3121.1442,-86 3121.1442,-122"/>
<text text-anchor="middle" x="3041" y="-99.8" font-family="Times,serif" font-size="14.00" fill="#000000">ShareConfirmComponent</text>
</g>
<!-- ShareConfirmComponent&#45;&gt;StrategyModule -->
<g id="edge9" class="edge">
<title>ShareConfirmComponent&#45;&gt;StrategyModule</title>
<path fill="none" stroke="#000000" d="M3001.4844,-122.0091C3001.4844,-138.0494 3001.4844,-159 3001.4844,-159 3001.4844,-159 2341.1995,-159 2341.1995,-159"/>
<polygon fill="#000000" stroke="#000000" points="2341.1996,-155.5001 2331.1995,-159 2341.1995,-162.5001 2341.1996,-155.5001"/>
</g>
<!-- StrateOverviewComponent -->
<g id="node10" class="node">
<title>StrateOverviewComponent</title>
<polygon fill="#ffffb3" stroke="#000000" points="2942.6797,-122 2773.3203,-122 2773.3203,-86 2942.6797,-86 2942.6797,-122"/>
<text text-anchor="middle" x="2858" y="-99.8" font-family="Times,serif" font-size="14.00" fill="#000000">StrateOverviewComponent</text>
</g>
<!-- StrateOverviewComponent&#45;&gt;StrategyModule -->
<g id="edge10" class="edge">
<title>StrateOverviewComponent&#45;&gt;StrategyModule</title>
<path fill="none" stroke="#000000" d="M2824.5567,-122.2396C2824.5567,-137.5706 2824.5567,-157 2824.5567,-157 2824.5567,-157 2341.4013,-157 2341.4013,-157"/>
<polygon fill="#000000" stroke="#000000" points="2341.4013,-153.5001 2331.4013,-157 2341.4013,-160.5001 2341.4013,-153.5001"/>
</g>
<!-- StrategyArgComponent -->
<g id="node11" class="node">
<title>StrategyArgComponent</title>
<polygon fill="#ffffb3" stroke="#000000" points="2755.7534,-122 2606.2466,-122 2606.2466,-86 2755.7534,-86 2755.7534,-122"/>
<text text-anchor="middle" x="2681" y="-99.8" font-family="Times,serif" font-size="14.00" fill="#000000">StrategyArgComponent</text>
</g>
<!-- StrategyArgComponent&#45;&gt;StrategyModule -->
<g id="edge11" class="edge">
<title>StrategyArgComponent&#45;&gt;StrategyModule</title>
<path fill="none" stroke="#000000" d="M2624.2316,-122.1243C2624.2316,-136.7832 2624.2316,-155 2624.2316,-155 2624.2316,-155 2341.3399,-155 2341.3399,-155"/>
<polygon fill="#000000" stroke="#000000" points="2341.3399,-151.5001 2331.3399,-155 2341.3399,-158.5001 2341.3399,-151.5001"/>
</g>
<!-- StrategyCodemirrorComponent -->
<g id="node12" class="node">
<title>StrategyCodemirrorComponent</title>
<polygon fill="#ffffb3" stroke="#000000" points="2587.8004,-122 2394.1996,-122 2394.1996,-86 2587.8004,-86 2587.8004,-122"/>
<text text-anchor="middle" x="2491" y="-99.8" font-family="Times,serif" font-size="14.00" fill="#000000">StrategyCodemirrorComponent</text>
</g>
<!-- StrategyCodemirrorComponent&#45;&gt;StrategyModule -->
<g id="edge12" class="edge">
<title>StrategyCodemirrorComponent&#45;&gt;StrategyModule</title>
<path fill="none" stroke="#000000" d="M2422.9883,-122.2458C2422.9883,-136.1772 2422.9883,-153 2422.9883,-153 2422.9883,-153 2341.165,-153 2341.165,-153"/>
<polygon fill="#000000" stroke="#000000" points="2341.165,-149.5001 2331.165,-153 2341.165,-156.5001 2341.165,-149.5001"/>
</g>
<!-- StrategyDependanceComponent -->
<g id="node13" class="node">
<title>StrategyDependanceComponent</title>
<polygon fill="#ffffb3" stroke="#000000" points="2376.6657,-122 2179.3343,-122 2179.3343,-86 2376.6657,-86 2376.6657,-122"/>
<text text-anchor="middle" x="2278" y="-99.8" font-family="Times,serif" font-size="14.00" fill="#000000">StrategyDependanceComponent</text>
</g>
<!-- StrategyDependanceComponent&#45;&gt;StrategyModule -->
<g id="edge13" class="edge">
<title>StrategyDependanceComponent&#45;&gt;StrategyModule</title>
<path fill="none" stroke="#000000" d="M2278,-122.1061C2278,-122.1061 2278,-140.991 2278,-140.991"/>
<polygon fill="#000000" stroke="#000000" points="2274.5001,-140.9909 2278,-150.991 2281.5001,-140.991 2274.5001,-140.9909"/>
</g>
<!-- StrategyDesComponent -->
<g id="node14" class="node">
<title>StrategyDesComponent</title>
<polygon fill="#ffffb3" stroke="#000000" points="2161.752,-122 2012.248,-122 2012.248,-86 2161.752,-86 2161.752,-122"/>
<text text-anchor="middle" x="2087" y="-99.8" font-family="Times,serif" font-size="14.00" fill="#000000">StrategyDesComponent</text>
</g>
<!-- StrategyDesComponent&#45;&gt;StrategyModule -->
<g id="edge14" class="edge">
<title>StrategyDesComponent&#45;&gt;StrategyModule</title>
<path fill="none" stroke="#000000" d="M2122.7379,-122.2458C2122.7379,-136.1772 2122.7379,-153 2122.7379,-153 2122.7379,-153 2214.5676,-153 2214.5676,-153"/>
<polygon fill="#000000" stroke="#000000" points="2214.5676,-156.5001 2224.5676,-153 2214.5676,-149.5001 2214.5676,-156.5001"/>
</g>
<!-- StrategyLibComponent -->
<g id="node15" class="node">
<title>StrategyLibComponent</title>
<polygon fill="#ffffb3" stroke="#000000" points="1993.9298,-122 1846.0702,-122 1846.0702,-86 1993.9298,-86 1993.9298,-122"/>
<text text-anchor="middle" x="1920" y="-99.8" font-family="Times,serif" font-size="14.00" fill="#000000">StrategyLibComponent</text>
</g>
<!-- StrategyLibComponent&#45;&gt;StrategyModule -->
<g id="edge15" class="edge">
<title>StrategyLibComponent&#45;&gt;StrategyModule</title>
<path fill="none" stroke="#000000" d="M1929.1909,-122.1243C1929.1909,-136.7832 1929.1909,-155 1929.1909,-155 1929.1909,-155 2214.6437,-155 2214.6437,-155"/>
<polygon fill="#000000" stroke="#000000" points="2214.6437,-158.5001 2224.6437,-155 2214.6437,-151.5001 2214.6437,-158.5001"/>
</g>
<!-- StrategyListComponent -->
<g id="node16" class="node">
<title>StrategyListComponent</title>
<polygon fill="#ffffb3" stroke="#000000" points="1827.7646,-122 1678.2354,-122 1678.2354,-86 1827.7646,-86 1827.7646,-122"/>
<text text-anchor="middle" x="1753" y="-99.8" font-family="Times,serif" font-size="14.00" fill="#000000">StrategyListComponent</text>
</g>
<!-- StrategyListComponent&#45;&gt;StrategyModule -->
<g id="edge16" class="edge">
<title>StrategyListComponent&#45;&gt;StrategyModule</title>
<path fill="none" stroke="#000000" d="M1760.6282,-122.2396C1760.6282,-137.5706 1760.6282,-157 1760.6282,-157 1760.6282,-157 2214.5808,-157 2214.5808,-157"/>
<polygon fill="#000000" stroke="#000000" points="2214.5808,-160.5001 2224.5808,-157 2214.5808,-153.5001 2214.5808,-160.5001"/>
</g>
<!-- StrategyRemoteEditComponent -->
<g id="node17" class="node">
<title>StrategyRemoteEditComponent</title>
<polygon fill="#ffffb3" stroke="#000000" points="1660.3668,-122 1465.6332,-122 1465.6332,-86 1660.3668,-86 1660.3668,-122"/>
<text text-anchor="middle" x="1563" y="-99.8" font-family="Times,serif" font-size="14.00" fill="#000000">StrategyRemoteEditComponent</text>
</g>
<!-- StrategyRemoteEditComponent&#45;&gt;StrategyModule -->
<g id="edge17" class="edge">
<title>StrategyRemoteEditComponent&#45;&gt;StrategyModule</title>
<path fill="none" stroke="#000000" d="M1592.4844,-122.0091C1592.4844,-138.0494 1592.4844,-159 1592.4844,-159 1592.4844,-159 2214.7792,-159 2214.7792,-159"/>
<polygon fill="#000000" stroke="#000000" points="2214.7792,-162.5001 2224.7792,-159 2214.7791,-155.5001 2214.7792,-162.5001"/>
</g>
<!-- StrategyRenewalComponent -->
<g id="node18" class="node">
<title>StrategyRenewalComponent</title>
<polygon fill="#ffffb3" stroke="#000000" points="1447.4636,-122 1270.5364,-122 1270.5364,-86 1447.4636,-86 1447.4636,-122"/>
<text text-anchor="middle" x="1359" y="-99.8" font-family="Times,serif" font-size="14.00" fill="#000000">StrategyRenewalComponent</text>
</g>
<!-- StrategyRenewalComponent&#45;&gt;StrategyModule -->
<g id="edge18" class="edge">
<title>StrategyRenewalComponent&#45;&gt;StrategyModule</title>
<path fill="none" stroke="#000000" d="M1400.4248,-122.027C1400.4248,-138.3976 1400.4248,-160 1400.4248,-160 1400.4248,-160 2214.7529,-160 2214.7529,-160"/>
<polygon fill="#000000" stroke="#000000" points="2214.7529,-163.5001 2224.7529,-160 2214.7528,-156.5001 2214.7529,-163.5001"/>
</g>
<!-- VariableNameValidateDirective -->
<g id="node19" class="node">
<title>VariableNameValidateDirective</title>
<polygon fill="#ffffb3" stroke="#000000" points="1252.6236,-122 1055.3764,-122 1055.3764,-86 1252.6236,-86 1252.6236,-122"/>
<text text-anchor="middle" x="1154" y="-99.8" font-family="Times,serif" font-size="14.00" fill="#000000">VariableNameValidateDirective</text>
</g>
<!-- VariableNameValidateDirective&#45;&gt;StrategyModule -->
<g id="edge19" class="edge">
<title>VariableNameValidateDirective&#45;&gt;StrategyModule</title>
<path fill="none" stroke="#000000" d="M1194.6892,-122.0336C1194.6892,-139.0597 1194.6892,-162 1194.6892,-162 1194.6892,-162 2214.648,-162 2214.648,-162"/>
<polygon fill="#000000" stroke="#000000" points="2214.648,-165.5001 2224.648,-162 2214.6479,-158.5001 2214.648,-165.5001"/>
</g>
<!-- VerifyGenKeyComponent -->
<g id="node20" class="node">
<title>VerifyGenKeyComponent</title>
<polygon fill="#ffffb3" stroke="#000000" points="1037.0085,-122 872.9915,-122 872.9915,-86 1037.0085,-86 1037.0085,-122"/>
<text text-anchor="middle" x="955" y="-99.8" font-family="Times,serif" font-size="14.00" fill="#000000">VerifyGenKeyComponent</text>
</g>
<!-- VerifyGenKeyComponent&#45;&gt;StrategyModule -->
<g id="edge20" class="edge">
<title>VerifyGenKeyComponent&#45;&gt;StrategyModule</title>
<path fill="none" stroke="#000000" d="M977.9711,-122.002C977.9711,-139.6754 977.9711,-164 977.9711,-164 977.9711,-164 2214.6137,-164 2214.6137,-164"/>
<polygon fill="#000000" stroke="#000000" points="2214.6137,-167.5001 2224.6137,-164 2214.6136,-160.5001 2214.6137,-167.5001"/>
</g>
<!-- AddArgComponent  -->
<g id="node24" class="node">
<title>AddArgComponent </title>
<polygon fill="#fb8072" stroke="#000000" points="3689.2065,-252 3558.7935,-252 3558.7935,-216 3689.2065,-216 3689.2065,-252"/>
<text text-anchor="middle" x="3624" y="-229.8" font-family="Times,serif" font-size="14.00" fill="#000000">AddArgComponent </text>
</g>
<!-- StrategyModule&#45;&gt;AddArgComponent  -->
<g id="edge23" class="edge">
<title>StrategyModule&#45;&gt;AddArgComponent </title>
<path fill="none" stroke="#000000" stroke-dasharray="5,2" d="M2331.1794,-175C2580.7783,-175 3624,-175 3624,-175 3624,-175 3624,-205.9775 3624,-205.9775"/>
<polygon fill="#000000" stroke="#000000" points="3620.5001,-205.9774 3624,-215.9775 3627.5001,-205.9775 3620.5001,-205.9774"/>
</g>
<!-- AlternationPreviewComponent  -->
<g id="node25" class="node">
<title>AlternationPreviewComponent </title>
<polygon fill="#fb8072" stroke="#000000" points="3540.4613,-252 3345.5387,-252 3345.5387,-216 3540.4613,-216 3540.4613,-252"/>
<text text-anchor="middle" x="3443" y="-229.8" font-family="Times,serif" font-size="14.00" fill="#000000">AlternationPreviewComponent </text>
</g>
<!-- StrategyModule&#45;&gt;AlternationPreviewComponent  -->
<g id="edge24" class="edge">
<title>StrategyModule&#45;&gt;AlternationPreviewComponent </title>
<path fill="none" stroke="#000000" stroke-dasharray="5,2" d="M2331.273,-177C2548.9937,-177 3359.7062,-177 3359.7062,-177 3359.7062,-177 3359.7062,-205.9648 3359.7062,-205.9648"/>
<polygon fill="#000000" stroke="#000000" points="3356.2063,-205.9648 3359.7062,-215.9648 3363.2063,-205.9649 3356.2063,-205.9648"/>
</g>
<!-- ArgListComponent  -->
<g id="node26" class="node">
<title>ArgListComponent </title>
<polygon fill="#fb8072" stroke="#000000" points="3328.3786,-252 3199.6214,-252 3199.6214,-216 3328.3786,-216 3328.3786,-252"/>
<text text-anchor="middle" x="3264" y="-229.8" font-family="Times,serif" font-size="14.00" fill="#000000">ArgListComponent </text>
</g>
<!-- StrategyModule&#45;&gt;ArgListComponent  -->
<g id="edge25" class="edge">
<title>StrategyModule&#45;&gt;ArgListComponent </title>
<path fill="none" stroke="#000000" stroke-dasharray="5,2" d="M2331.3612,-178C2536.6412,-178 3264,-178 3264,-178 3264,-178 3264,-205.973 3264,-205.973"/>
<polygon fill="#000000" stroke="#000000" points="3260.5001,-205.973 3264,-215.973 3267.5001,-205.973 3260.5001,-205.973"/>
</g>
<!-- FuturesResultPipe  -->
<g id="node27" class="node">
<title>FuturesResultPipe </title>
<polygon fill="#fb8072" stroke="#000000" points="3182.1579,-252 3059.8421,-252 3059.8421,-216 3182.1579,-216 3182.1579,-252"/>
<text text-anchor="middle" x="3121" y="-229.8" font-family="Times,serif" font-size="14.00" fill="#000000">FuturesResultPipe </text>
</g>
<!-- StrategyModule&#45;&gt;FuturesResultPipe  -->
<g id="edge26" class="edge">
<title>StrategyModule&#45;&gt;FuturesResultPipe </title>
<path fill="none" stroke="#000000" stroke-dasharray="5,2" d="M2331.3184,-180C2512.1048,-180 3090.6215,-180 3090.6215,-180 3090.6215,-180 3090.6215,-205.7181 3090.6215,-205.7181"/>
<polygon fill="#000000" stroke="#000000" points="3087.1216,-205.718 3090.6215,-215.7181 3094.1216,-205.7181 3087.1216,-205.718"/>
</g>
<!-- OptimizeFilterDesPipe  -->
<g id="node28" class="node">
<title>OptimizeFilterDesPipe </title>
<polygon fill="#fb8072" stroke="#000000" points="3042.082,-252 2893.918,-252 2893.918,-216 3042.082,-216 3042.082,-252"/>
<text text-anchor="middle" x="2968" y="-229.8" font-family="Times,serif" font-size="14.00" fill="#000000">OptimizeFilterDesPipe </text>
</g>
<!-- StrategyModule&#45;&gt;OptimizeFilterDesPipe  -->
<g id="edge27" class="edge">
<title>StrategyModule&#45;&gt;OptimizeFilterDesPipe </title>
<path fill="none" stroke="#000000" stroke-dasharray="5,2" d="M2331.2039,-182C2484.817,-182 2918.1496,-182 2918.1496,-182 2918.1496,-182 2918.1496,-205.8129 2918.1496,-205.8129"/>
<polygon fill="#000000" stroke="#000000" points="2914.6496,-205.8129 2918.1496,-215.8129 2921.6496,-205.813 2914.6496,-205.8129"/>
</g>
<!-- SelectTypeValueValidateDirective  -->
<g id="node29" class="node">
<title>SelectTypeValueValidateDirective </title>
<polygon fill="#fb8072" stroke="#000000" points="2875.9066,-252 2660.0934,-252 2660.0934,-216 2875.9066,-216 2875.9066,-252"/>
<text text-anchor="middle" x="2768" y="-229.8" font-family="Times,serif" font-size="14.00" fill="#000000">SelectTypeValueValidateDirective </text>
</g>
<!-- StrategyModule&#45;&gt;SelectTypeValueValidateDirective  -->
<g id="edge28" class="edge">
<title>StrategyModule&#45;&gt;SelectTypeValueValidateDirective </title>
<path fill="none" stroke="#000000" stroke-dasharray="5,2" d="M2331.1684,-184C2446.2385,-184 2708.0868,-184 2708.0868,-184 2708.0868,-184 2708.0868,-205.9489 2708.0868,-205.9489"/>
<polygon fill="#000000" stroke="#000000" points="2704.5868,-205.9488 2708.0868,-215.9489 2711.5868,-205.9489 2704.5868,-205.9488"/>
</g>
<!-- StrateOverviewComponent  -->
<g id="node30" class="node">
<title>StrateOverviewComponent </title>
<polygon fill="#fb8072" stroke="#000000" points="2642.1799,-252 2469.8201,-252 2469.8201,-216 2642.1799,-216 2642.1799,-252"/>
<text text-anchor="middle" x="2556" y="-229.8" font-family="Times,serif" font-size="14.00" fill="#000000">StrateOverviewComponent </text>
</g>
<!-- StrategyModule&#45;&gt;StrateOverviewComponent  -->
<g id="edge29" class="edge">
<title>StrategyModule&#45;&gt;StrateOverviewComponent </title>
<path fill="none" stroke="#000000" stroke-dasharray="5,2" d="M2331.1575,-186C2404.7351,-186 2528.6551,-186 2528.6551,-186 2528.6551,-186 2528.6551,-205.8533 2528.6551,-205.8533"/>
<polygon fill="#000000" stroke="#000000" points="2525.1552,-205.8532 2528.6551,-215.8533 2532.1552,-205.8533 2525.1552,-205.8532"/>
</g>
<!-- StrategyArgComponent  -->
<g id="node31" class="node">
<title>StrategyArgComponent </title>
<polygon fill="#fb8072" stroke="#000000" points="2451.7534,-252 2298.2466,-252 2298.2466,-216 2451.7534,-216 2451.7534,-252"/>
<text text-anchor="middle" x="2375" y="-229.8" font-family="Times,serif" font-size="14.00" fill="#000000">StrategyArgComponent </text>
</g>
<!-- StrategyModule&#45;&gt;StrategyArgComponent  -->
<g id="edge30" class="edge">
<title>StrategyModule&#45;&gt;StrategyArgComponent </title>
<path fill="none" stroke="#000000" stroke-dasharray="5,2" d="M2314.7376,-187.1061C2314.7376,-187.1061 2314.7376,-205.991 2314.7376,-205.991"/>
<polygon fill="#000000" stroke="#000000" points="2311.2376,-205.9909 2314.7376,-215.991 2318.2376,-205.991 2311.2376,-205.9909"/>
</g>
<!-- StrategyCodemirrorComponent  -->
<g id="node32" class="node">
<title>StrategyCodemirrorComponent </title>
<polygon fill="#fb8072" stroke="#000000" points="2280.3003,-252 2083.6997,-252 2083.6997,-216 2280.3003,-216 2280.3003,-252"/>
<text text-anchor="middle" x="2182" y="-229.8" font-family="Times,serif" font-size="14.00" fill="#000000">StrategyCodemirrorComponent </text>
</g>
<!-- StrategyModule&#45;&gt;StrategyCodemirrorComponent  -->
<g id="edge31" class="edge">
<title>StrategyModule&#45;&gt;StrategyCodemirrorComponent </title>
<path fill="none" stroke="#000000" stroke-dasharray="5,2" d="M2252.6492,-187.1061C2252.6492,-187.1061 2252.6492,-205.991 2252.6492,-205.991"/>
<polygon fill="#000000" stroke="#000000" points="2249.1493,-205.9909 2252.6492,-215.991 2256.1493,-205.991 2249.1493,-205.9909"/>
</g>
<!-- StrategyDependanceComponent  -->
<g id="node33" class="node">
<title>StrategyDependanceComponent </title>
<polygon fill="#fb8072" stroke="#000000" points="2065.1659,-252 1864.8341,-252 1864.8341,-216 2065.1659,-216 2065.1659,-252"/>
<text text-anchor="middle" x="1965" y="-229.8" font-family="Times,serif" font-size="14.00" fill="#000000">StrategyDependanceComponent </text>
</g>
<!-- StrategyModule&#45;&gt;StrategyDependanceComponent  -->
<g id="edge32" class="edge">
<title>StrategyModule&#45;&gt;StrategyDependanceComponent </title>
<path fill="none" stroke="#000000" stroke-dasharray="5,2" d="M2224.8979,-186C2154.4065,-186 2038.7285,-186 2038.7285,-186 2038.7285,-186 2038.7285,-205.8533 2038.7285,-205.8533"/>
<polygon fill="#000000" stroke="#000000" points="2035.2285,-205.8532 2038.7285,-215.8533 2042.2285,-205.8533 2035.2285,-205.8532"/>
</g>
<!-- StrategyDesComponent  -->
<g id="node34" class="node">
<title>StrategyDesComponent </title>
<polygon fill="#fb8072" stroke="#000000" points="1846.752,-252 1693.248,-252 1693.248,-216 1846.752,-216 1846.752,-252"/>
<text text-anchor="middle" x="1770" y="-229.8" font-family="Times,serif" font-size="14.00" fill="#000000">StrategyDesComponent </text>
</g>
<!-- StrategyModule&#45;&gt;StrategyDesComponent  -->
<g id="edge33" class="edge">
<title>StrategyModule&#45;&gt;StrategyDesComponent </title>
<path fill="none" stroke="#000000" stroke-dasharray="5,2" d="M2224.8152,-184C2107.5449,-184 1837.0838,-184 1837.0838,-184 1837.0838,-184 1837.0838,-205.9489 1837.0838,-205.9489"/>
<polygon fill="#000000" stroke="#000000" points="1833.5839,-205.9488 1837.0838,-215.9489 1840.5839,-205.9489 1833.5839,-205.9488"/>
</g>
<!-- StrategyLibComponent  -->
<g id="node35" class="node">
<title>StrategyLibComponent </title>
<polygon fill="#fb8072" stroke="#000000" points="1675.4292,-252 1524.5708,-252 1524.5708,-216 1675.4292,-216 1675.4292,-252"/>
<text text-anchor="middle" x="1600" y="-229.8" font-family="Times,serif" font-size="14.00" fill="#000000">StrategyLibComponent </text>
</g>
<!-- StrategyModule&#45;&gt;StrategyLibComponent  -->
<g id="edge34" class="edge">
<title>StrategyModule&#45;&gt;StrategyLibComponent </title>
<path fill="none" stroke="#000000" stroke-dasharray="5,2" d="M2224.6632,-182C2076.0201,-182 1667.949,-182 1667.949,-182 1667.949,-182 1667.949,-205.8129 1667.949,-205.8129"/>
<polygon fill="#000000" stroke="#000000" points="1664.4491,-205.8129 1667.949,-215.8129 1671.4491,-205.813 1664.4491,-205.8129"/>
</g>
<!-- StrategyListComponent  -->
<g id="node36" class="node">
<title>StrategyListComponent </title>
<polygon fill="#fb8072" stroke="#000000" points="1506.7646,-252 1353.2354,-252 1353.2354,-216 1506.7646,-216 1506.7646,-252"/>
<text text-anchor="middle" x="1430" y="-229.8" font-family="Times,serif" font-size="14.00" fill="#000000">StrategyListComponent </text>
</g>
<!-- StrategyModule&#45;&gt;StrategyListComponent  -->
<g id="edge35" class="edge">
<title>StrategyModule&#45;&gt;StrategyListComponent </title>
<path fill="none" stroke="#000000" stroke-dasharray="5,2" d="M2224.8115,-180C2047.2576,-180 1486.0994,-180 1486.0994,-180 1486.0994,-180 1486.0994,-205.7181 1486.0994,-205.7181"/>
<polygon fill="#000000" stroke="#000000" points="1482.5995,-205.718 1486.0994,-215.7181 1489.5995,-205.7181 1482.5995,-205.718"/>
</g>
<!-- StrategyRemoteEditComponent  -->
<g id="node37" class="node">
<title>StrategyRemoteEditComponent </title>
<polygon fill="#fb8072" stroke="#000000" points="1335.3671,-252 1136.6329,-252 1136.6329,-216 1335.3671,-216 1335.3671,-252"/>
<text text-anchor="middle" x="1236" y="-229.8" font-family="Times,serif" font-size="14.00" fill="#000000">StrategyRemoteEditComponent </text>
</g>
<!-- StrategyModule&#45;&gt;StrategyRemoteEditComponent  -->
<g id="edge36" class="edge">
<title>StrategyModule&#45;&gt;StrategyRemoteEditComponent </title>
<path fill="none" stroke="#000000" stroke-dasharray="5,2" d="M2224.8792,-178C2021.3874,-178 1302.8508,-178 1302.8508,-178 1302.8508,-178 1302.8508,-205.973 1302.8508,-205.973"/>
<polygon fill="#000000" stroke="#000000" points="1299.3509,-205.973 1302.8508,-215.973 1306.3509,-205.973 1299.3509,-205.973"/>
</g>
<!-- VariableNameValidateDirective  -->
<g id="node38" class="node">
<title>VariableNameValidateDirective </title>
<polygon fill="#fb8072" stroke="#000000" points="1119.124,-252 918.876,-252 918.876,-216 1119.124,-216 1119.124,-252"/>
<text text-anchor="middle" x="1019" y="-229.8" font-family="Times,serif" font-size="14.00" fill="#000000">VariableNameValidateDirective </text>
</g>
<!-- StrategyModule&#45;&gt;VariableNameValidateDirective  -->
<g id="edge37" class="edge">
<title>StrategyModule&#45;&gt;VariableNameValidateDirective </title>
<path fill="none" stroke="#000000" stroke-dasharray="5,2" d="M2224.5283,-177C1992.8532,-177 1087.375,-177 1087.375,-177 1087.375,-177 1087.375,-205.9648 1087.375,-205.9648"/>
<polygon fill="#000000" stroke="#000000" points="1083.8751,-205.9648 1087.375,-215.9648 1090.8751,-205.9649 1083.8751,-205.9648"/>
</g>
<!-- VerifyGenKeyComponent  -->
<g id="node39" class="node">
<title>VerifyGenKeyComponent </title>
<polygon fill="#fb8072" stroke="#000000" points="901.0078,-252 732.9922,-252 732.9922,-216 901.0078,-216 901.0078,-252"/>
<text text-anchor="middle" x="817" y="-229.8" font-family="Times,serif" font-size="14.00" fill="#000000">VerifyGenKeyComponent </text>
</g>
<!-- StrategyModule&#45;&gt;VerifyGenKeyComponent  -->
<g id="edge38" class="edge">
<title>StrategyModule&#45;&gt;VerifyGenKeyComponent </title>
<path fill="none" stroke="#000000" stroke-dasharray="5,2" d="M2224.7426,-175C1969.8603,-175 886.875,-175 886.875,-175 886.875,-175 886.875,-205.9775 886.875,-205.9775"/>
<polygon fill="#000000" stroke="#000000" points="883.3751,-205.9774 886.875,-215.9775 890.3751,-205.9775 883.3751,-205.9774"/>
</g>
<!-- SharedModule -->
<g id="node22" class="node">
<title>SharedModule</title>
<polygon fill="#8dd3c7" stroke="#000000" points="849.4231,-122 846.4231,-126 825.4231,-126 822.4231,-122 750.5769,-122 750.5769,-86 849.4231,-86 849.4231,-122"/>
<text text-anchor="middle" x="800" y="-99.8" font-family="Times,serif" font-size="14.00" fill="#000000">SharedModule</text>
</g>
<!-- SharedModule&#45;&gt;StrategyModule -->
<g id="edge21" class="edge">
<title>SharedModule&#45;&gt;StrategyModule</title>
<path fill="none" stroke="#000000" d="M800,-122.2667C800,-140.5552 800,-166 800,-166 800,-166 2214.524,-166 2214.524,-166"/>
<polygon fill="#000000" stroke="#000000" points="2214.5241,-169.5001 2224.524,-166 2214.524,-162.5001 2214.5241,-169.5001"/>
</g>
<!-- ToolModule -->
<g id="node23" class="node">
<title>ToolModule</title>
<polygon fill="#8dd3c7" stroke="#000000" points="732.993,-122 729.993,-126 708.993,-126 705.993,-122 647.007,-122 647.007,-86 732.993,-86 732.993,-122"/>
<text text-anchor="middle" x="690" y="-99.8" font-family="Times,serif" font-size="14.00" fill="#000000">ToolModule</text>
</g>
<!-- ToolModule&#45;&gt;StrategyModule -->
<g id="edge22" class="edge">
<title>ToolModule&#45;&gt;StrategyModule</title>
<path fill="none" stroke="#000000" d="M689.9998,-122.1686C689.9998,-141.0898 689.9998,-168 689.9998,-168 689.9998,-168 2214.7103,-168 2214.7103,-168"/>
<polygon fill="#000000" stroke="#000000" points="2214.7103,-171.5001 2224.7103,-168 2214.7103,-164.5001 2214.7103,-171.5001"/>
</g>
<!-- StrategyConstantService -->
<g id="node40" class="node">
<title>StrategyConstantService</title>
<ellipse fill="#fdb462" stroke="#000000" cx="516" cy="-104" rx="106.5159" ry="18"/>
<text text-anchor="middle" x="516" y="-99.8" font-family="Times,serif" font-size="14.00" fill="#000000">StrategyConstantService</text>
</g>
<!-- StrategyConstantService&#45;&gt;StrategyModule -->
<g id="edge39" class="edge">
<title>StrategyConstantService&#45;&gt;StrategyModule</title>
<path fill="none" stroke="#000000" d="M516,-122.1061C516,-141.3391 516,-169 516,-169 516,-169 2214.7868,-169 2214.7868,-169"/>
<polygon fill="#000000" stroke="#000000" points="2214.7868,-172.5001 2224.7868,-169 2214.7868,-165.5001 2214.7868,-172.5001"/>
</g>
<!-- StrategyOperateService -->
<g id="node41" class="node">
<title>StrategyOperateService</title>
<ellipse fill="#fdb462" stroke="#000000" cx="289" cy="-104" rx="102.9628" ry="18"/>
<text text-anchor="middle" x="289" y="-99.8" font-family="Times,serif" font-size="14.00" fill="#000000">StrategyOperateService</text>
</g>
<!-- StrategyOperateService&#45;&gt;StrategyModule -->
<g id="edge40" class="edge">
<title>StrategyOperateService&#45;&gt;StrategyModule</title>
<path fill="none" stroke="#000000" d="M289,-122.308C289,-142.1455 289,-171 289,-171 289,-171 2214.7991,-171 2214.7991,-171"/>
<polygon fill="#000000" stroke="#000000" points="2214.7991,-174.5001 2224.7991,-171 2214.799,-167.5001 2214.7991,-174.5001"/>
</g>
<!-- StrategyService -->
<g id="node42" class="node">
<title>StrategyService</title>
<ellipse fill="#fdb462" stroke="#000000" cx="96" cy="-104" rx="72.3458" ry="18"/>
<text text-anchor="middle" x="96" y="-99.8" font-family="Times,serif" font-size="14.00" fill="#000000">StrategyService</text>
</g>
<!-- StrategyService&#45;&gt;StrategyModule -->
<g id="edge41" class="edge">
<title>StrategyService&#45;&gt;StrategyModule</title>
<path fill="none" stroke="#000000" d="M96,-122.1289C96,-142.5724 96,-173 96,-173 96,-173 2214.8744,-173 2214.8744,-173"/>
<polygon fill="#000000" stroke="#000000" points="2214.8745,-176.5001 2224.8744,-173 2214.8744,-169.5001 2214.8745,-176.5001"/>
</g>
</g>
</svg>
