<?xml version="1.0" encoding="UTF-8" standalone="no"?>
<!DOCTYPE svg PUBLIC "-//W3C//DTD SVG 1.1//EN"
 "http://www.w3.org/Graphics/SVG/1.1/DTD/svg11.dtd">
<!-- Generated by graphviz version 2.40.1 (20161225.0304)
 -->
<!-- Title: dependencies Pages: 1 -->
<svg width="1109pt" height="211pt"
 viewBox="0.00 0.00 1109.00 211.00" xmlns="http://www.w3.org/2000/svg" xmlns:xlink="http://www.w3.org/1999/xlink">
<g id="graph0" class="graph" transform="scale(1 1) rotate(0) translate(4 207)">
<title>dependencies</title>
<polygon fill="#ffffff" stroke="transparent" points="-4,4 -4,-207 1105,-207 1105,4 -4,4"/>
<text text-anchor="start" x="529.5091" y="-42.4" font-family="sans-serif" font-weight="bold" font-size="14.00" fill="#000000">Legend</text>
<polygon fill="#ffffb3" stroke="transparent" points="316.5,-10 316.5,-30 336.5,-30 336.5,-10 316.5,-10"/>
<text text-anchor="start" x="340.129" y="-15.4" font-family="sans-serif" font-size="14.00" fill="#000000"> &#160;Declarations</text>
<polygon fill="#8dd3c7" stroke="transparent" points="429.5,-10 429.5,-30 449.5,-30 449.5,-10 429.5,-10"/>
<text text-anchor="start" x="453.2251" y="-15.4" font-family="sans-serif" font-size="14.00" fill="#000000"> &#160;Module</text>
<polygon fill="#80b1d3" stroke="transparent" points="515.5,-10 515.5,-30 535.5,-30 535.5,-10 515.5,-10"/>
<text text-anchor="start" x="539.2812" y="-15.4" font-family="sans-serif" font-size="14.00" fill="#000000"> &#160;Bootstrap</text>
<polygon fill="#fdb462" stroke="transparent" points="612.5,-10 612.5,-30 632.5,-30 632.5,-10 612.5,-10"/>
<text text-anchor="start" x="636.1732" y="-15.4" font-family="sans-serif" font-size="14.00" fill="#000000"> &#160;Providers</text>
<polygon fill="#fb8072" stroke="transparent" points="708.5,-10 708.5,-30 728.5,-30 728.5,-10 708.5,-10"/>
<text text-anchor="start" x="732.2258" y="-15.4" font-family="sans-serif" font-size="14.00" fill="#000000"> &#160;Exports</text>
<g id="clust1" class="cluster">
<title>cluster_AuthModule</title>
<polygon fill="none" stroke="#000000" stroke-dasharray="1,5" points="8,-70 8,-195 1093,-195 1093,-70 8,-70"/>
</g>
<g id="clust2" class="cluster">
<title>cluster_AuthModule_declarations</title>
<polygon fill="none" stroke="#000000" points="242,-78 242,-130 1085,-130 1085,-78 242,-78"/>
</g>
<g id="clust9" class="cluster">
<title>cluster_AuthModule_imports</title>
<polygon fill="none" stroke="#000000" points="16,-78 16,-130 234,-130 234,-78 16,-78"/>
</g>
<!-- AgreementComponent -->
<g id="node1" class="node">
<title>AgreementComponent</title>
<polygon fill="#ffffb3" stroke="#000000" points="1076.5254,-122 933.4746,-122 933.4746,-86 1076.5254,-86 1076.5254,-122"/>
<text text-anchor="middle" x="1005" y="-99.8" font-family="Times,serif" font-size="14.00" fill="#000000">AgreementComponent</text>
</g>
<!-- AuthModule -->
<g id="node7" class="node">
<title>AuthModule</title>
<polygon fill="#8dd3c7" stroke="#000000" points="560.5482,-187 557.5482,-191 536.5482,-191 533.5482,-187 473.4518,-187 473.4518,-151 560.5482,-151 560.5482,-187"/>
<text text-anchor="middle" x="517" y="-164.8" font-family="Times,serif" font-size="14.00" fill="#000000">AuthModule</text>
</g>
<!-- AgreementComponent&#45;&gt;AuthModule -->
<g id="edge1" class="edge">
<title>AgreementComponent&#45;&gt;AuthModule</title>
<path fill="none" stroke="#000000" d="M1005,-122.2921C1005,-144.2057 1005,-178 1005,-178 1005,-178 570.7362,-178 570.7362,-178"/>
<polygon fill="#000000" stroke="#000000" points="570.7362,-174.5001 560.7362,-178 570.7362,-181.5001 570.7362,-174.5001"/>
</g>
<!-- AuthComponent -->
<g id="node2" class="node">
<title>AuthComponent</title>
<polygon fill="#ffffb3" stroke="#000000" points="915.8301,-122 806.1699,-122 806.1699,-86 915.8301,-86 915.8301,-122"/>
<text text-anchor="middle" x="861" y="-99.8" font-family="Times,serif" font-size="14.00" fill="#000000">AuthComponent</text>
</g>
<!-- AuthComponent&#45;&gt;AuthModule -->
<g id="edge2" class="edge">
<title>AuthComponent&#45;&gt;AuthModule</title>
<path fill="none" stroke="#000000" d="M861,-122.1061C861,-141.3391 861,-169 861,-169 861,-169 570.5678,-169 570.5678,-169"/>
<polygon fill="#000000" stroke="#000000" points="570.5679,-165.5001 560.5678,-169 570.5678,-172.5001 570.5679,-165.5001"/>
</g>
<!-- LoginComponent -->
<g id="node3" class="node">
<title>LoginComponent</title>
<polygon fill="#ffffb3" stroke="#000000" points="788.2758,-122 673.7242,-122 673.7242,-86 788.2758,-86 788.2758,-122"/>
<text text-anchor="middle" x="731" y="-99.8" font-family="Times,serif" font-size="14.00" fill="#000000">LoginComponent</text>
</g>
<!-- LoginComponent&#45;&gt;AuthModule -->
<g id="edge3" class="edge">
<title>LoginComponent&#45;&gt;AuthModule</title>
<path fill="none" stroke="#000000" d="M731,-122.027C731,-138.3976 731,-160 731,-160 731,-160 570.564,-160 570.564,-160"/>
<polygon fill="#000000" stroke="#000000" points="570.5641,-156.5001 560.564,-160 570.564,-163.5001 570.5641,-156.5001"/>
</g>
<!-- PasswordComponent -->
<g id="node4" class="node">
<title>PasswordComponent</title>
<polygon fill="#ffffb3" stroke="#000000" points="655.486,-122 520.514,-122 520.514,-86 655.486,-86 655.486,-122"/>
<text text-anchor="middle" x="588" y="-99.8" font-family="Times,serif" font-size="14.00" fill="#000000">PasswordComponent</text>
</g>
<!-- PasswordComponent&#45;&gt;AuthModule -->
<g id="edge4" class="edge">
<title>PasswordComponent&#45;&gt;AuthModule</title>
<path fill="none" stroke="#000000" d="M540.6403,-122.1061C540.6403,-122.1061 540.6403,-140.991 540.6403,-140.991"/>
<polygon fill="#000000" stroke="#000000" points="537.1403,-140.9909 540.6403,-150.991 544.1403,-140.991 537.1403,-140.9909"/>
</g>
<!-- ResetComponent -->
<g id="node5" class="node">
<title>ResetComponent</title>
<polygon fill="#ffffb3" stroke="#000000" points="502.4342,-122 389.5658,-122 389.5658,-86 502.4342,-86 502.4342,-122"/>
<text text-anchor="middle" x="446" y="-99.8" font-family="Times,serif" font-size="14.00" fill="#000000">ResetComponent</text>
</g>
<!-- ResetComponent&#45;&gt;AuthModule -->
<g id="edge5" class="edge">
<title>ResetComponent&#45;&gt;AuthModule</title>
<path fill="none" stroke="#000000" d="M487.7216,-122.1061C487.7216,-122.1061 487.7216,-140.991 487.7216,-140.991"/>
<polygon fill="#000000" stroke="#000000" points="484.2217,-140.9909 487.7216,-150.991 491.2217,-140.991 484.2217,-140.9909"/>
</g>
<!-- SignupComponent -->
<g id="node6" class="node">
<title>SignupComponent</title>
<polygon fill="#ffffb3" stroke="#000000" points="371.5056,-122 250.4944,-122 250.4944,-86 371.5056,-86 371.5056,-122"/>
<text text-anchor="middle" x="311" y="-99.8" font-family="Times,serif" font-size="14.00" fill="#000000">SignupComponent</text>
</g>
<!-- SignupComponent&#45;&gt;AuthModule -->
<g id="edge6" class="edge">
<title>SignupComponent&#45;&gt;AuthModule</title>
<path fill="none" stroke="#000000" d="M311,-122.027C311,-138.3976 311,-160 311,-160 311,-160 463.3127,-160 463.3127,-160"/>
<polygon fill="#000000" stroke="#000000" points="463.3127,-163.5001 473.3127,-160 463.3127,-156.5001 463.3127,-163.5001"/>
</g>
<!-- SharedModule -->
<g id="node8" class="node">
<title>SharedModule</title>
<polygon fill="#8dd3c7" stroke="#000000" points="226.4231,-122 223.4231,-126 202.4231,-126 199.4231,-122 127.5769,-122 127.5769,-86 226.4231,-86 226.4231,-122"/>
<text text-anchor="middle" x="177" y="-99.8" font-family="Times,serif" font-size="14.00" fill="#000000">SharedModule</text>
</g>
<!-- SharedModule&#45;&gt;AuthModule -->
<g id="edge7" class="edge">
<title>SharedModule&#45;&gt;AuthModule</title>
<path fill="none" stroke="#000000" d="M177,-122.1061C177,-141.3391 177,-169 177,-169 177,-169 463.247,-169 463.247,-169"/>
<polygon fill="#000000" stroke="#000000" points="463.247,-172.5001 473.247,-169 463.247,-165.5001 463.247,-172.5001"/>
</g>
<!-- ToolModule -->
<g id="node9" class="node">
<title>ToolModule</title>
<polygon fill="#8dd3c7" stroke="#000000" points="109.993,-122 106.993,-126 85.993,-126 82.993,-122 24.007,-122 24.007,-86 109.993,-86 109.993,-122"/>
<text text-anchor="middle" x="67" y="-99.8" font-family="Times,serif" font-size="14.00" fill="#000000">ToolModule</text>
</g>
<!-- ToolModule&#45;&gt;AuthModule -->
<g id="edge8" class="edge">
<title>ToolModule&#45;&gt;AuthModule</title>
<path fill="none" stroke="#000000" d="M67,-122.2921C67,-144.2057 67,-178 67,-178 67,-178 463.4432,-178 463.4432,-178"/>
<polygon fill="#000000" stroke="#000000" points="463.4433,-181.5001 473.4432,-178 463.4432,-174.5001 463.4433,-181.5001"/>
</g>
</g>
</svg>
