<?xml version="1.0" encoding="UTF-8" standalone="no"?>
<!DOCTYPE svg PUBLIC "-//W3C//DTD SVG 1.1//EN"
 "http://www.w3.org/Graphics/SVG/1.1/DTD/svg11.dtd">
<!-- Generated by graphviz version 2.40.1 (20161225.0304)
 -->
<!-- Title: dependencies Pages: 1 -->
<svg width="788pt" height="211pt"
 viewBox="0.00 0.00 788.00 211.00" xmlns="http://www.w3.org/2000/svg" xmlns:xlink="http://www.w3.org/1999/xlink">
<g id="graph0" class="graph" transform="scale(1 1) rotate(0) translate(4 207)">
<title>dependencies</title>
<polygon fill="#ffffff" stroke="transparent" points="-4,4 -4,-207 784,-207 784,4 -4,4"/>
<text text-anchor="start" x="369.0091" y="-42.4" font-family="sans-serif" font-weight="bold" font-size="14.00" fill="#000000">Legend</text>
<polygon fill="#ffffb3" stroke="transparent" points="156,-10 156,-30 176,-30 176,-10 156,-10"/>
<text text-anchor="start" x="179.629" y="-15.4" font-family="sans-serif" font-size="14.00" fill="#000000"> &#160;Declarations</text>
<polygon fill="#8dd3c7" stroke="transparent" points="269,-10 269,-30 289,-30 289,-10 269,-10"/>
<text text-anchor="start" x="292.7251" y="-15.4" font-family="sans-serif" font-size="14.00" fill="#000000"> &#160;Module</text>
<polygon fill="#80b1d3" stroke="transparent" points="355,-10 355,-30 375,-30 375,-10 355,-10"/>
<text text-anchor="start" x="378.7812" y="-15.4" font-family="sans-serif" font-size="14.00" fill="#000000"> &#160;Bootstrap</text>
<polygon fill="#fdb462" stroke="transparent" points="452,-10 452,-30 472,-30 472,-10 452,-10"/>
<text text-anchor="start" x="475.6732" y="-15.4" font-family="sans-serif" font-size="14.00" fill="#000000"> &#160;Providers</text>
<polygon fill="#fb8072" stroke="transparent" points="548,-10 548,-30 568,-30 568,-10 548,-10"/>
<text text-anchor="start" x="571.7258" y="-15.4" font-family="sans-serif" font-size="14.00" fill="#000000"> &#160;Exports</text>
<g id="clust1" class="cluster">
<title>cluster_SquareModule</title>
<polygon fill="none" stroke="#000000" stroke-dasharray="1,5" points="8,-70 8,-195 772,-195 772,-70 8,-70"/>
</g>
<g id="clust2" class="cluster">
<title>cluster_SquareModule_declarations</title>
<polygon fill="none" stroke="#000000" points="300,-78 300,-130 764,-130 764,-78 300,-78"/>
</g>
<g id="clust6" class="cluster">
<title>cluster_SquareModule_imports</title>
<polygon fill="none" stroke="#000000" points="16,-78 16,-130 292,-130 292,-78 16,-78"/>
</g>
<!-- ContainerComponent -->
<g id="node1" class="node">
<title>ContainerComponent</title>
<polygon fill="#ffffb3" stroke="#000000" points="756.0408,-122 619.9592,-122 619.9592,-86 756.0408,-86 756.0408,-122"/>
<text text-anchor="middle" x="688" y="-99.8" font-family="Times,serif" font-size="14.00" fill="#000000">ContainerComponent</text>
</g>
<!-- SquareModule -->
<g id="node4" class="node">
<title>SquareModule</title>
<polygon fill="#8dd3c7" stroke="#000000" points="435.4231,-187 432.4231,-191 411.4231,-191 408.4231,-187 336.5769,-187 336.5769,-151 435.4231,-151 435.4231,-187"/>
<text text-anchor="middle" x="386" y="-164.8" font-family="Times,serif" font-size="14.00" fill="#000000">SquareModule</text>
</g>
<!-- ContainerComponent&#45;&gt;SquareModule -->
<g id="edge1" class="edge">
<title>ContainerComponent&#45;&gt;SquareModule</title>
<path fill="none" stroke="#000000" d="M688,-122.2843C688,-143.3211 688,-175 688,-175 688,-175 445.531,-175 445.531,-175"/>
<polygon fill="#000000" stroke="#000000" points="445.531,-171.5001 435.531,-175 445.531,-178.5001 445.531,-171.5001"/>
</g>
<!-- SquareComponent -->
<g id="node2" class="node">
<title>SquareComponent</title>
<polygon fill="#ffffb3" stroke="#000000" points="602.205,-122 481.795,-122 481.795,-86 602.205,-86 602.205,-122"/>
<text text-anchor="middle" x="542" y="-99.8" font-family="Times,serif" font-size="14.00" fill="#000000">SquareComponent</text>
</g>
<!-- SquareComponent&#45;&gt;SquareModule -->
<g id="edge2" class="edge">
<title>SquareComponent&#45;&gt;SquareModule</title>
<path fill="none" stroke="#000000" d="M542,-122.0225C542,-139.3734 542,-163 542,-163 542,-163 445.3594,-163 445.3594,-163"/>
<polygon fill="#000000" stroke="#000000" points="445.3594,-159.5001 435.3594,-163 445.3593,-166.5001 445.3594,-159.5001"/>
</g>
<!-- StrategyTypeComponent -->
<g id="node3" class="node">
<title>StrategyTypeComponent</title>
<polygon fill="#ffffb3" stroke="#000000" points="464.2534,-122 307.7466,-122 307.7466,-86 464.2534,-86 464.2534,-122"/>
<text text-anchor="middle" x="386" y="-99.8" font-family="Times,serif" font-size="14.00" fill="#000000">StrategyTypeComponent</text>
</g>
<!-- StrategyTypeComponent&#45;&gt;SquareModule -->
<g id="edge3" class="edge">
<title>StrategyTypeComponent&#45;&gt;SquareModule</title>
<path fill="none" stroke="#000000" d="M386,-122.1061C386,-122.1061 386,-140.991 386,-140.991"/>
<polygon fill="#000000" stroke="#000000" points="382.5001,-140.9909 386,-150.991 389.5001,-140.991 382.5001,-140.9909"/>
</g>
<!-- SharedModule -->
<g id="node5" class="node">
<title>SharedModule</title>
<polygon fill="#8dd3c7" stroke="#000000" points="284.4231,-122 281.4231,-126 260.4231,-126 257.4231,-122 185.5769,-122 185.5769,-86 284.4231,-86 284.4231,-122"/>
<text text-anchor="middle" x="235" y="-99.8" font-family="Times,serif" font-size="14.00" fill="#000000">SharedModule</text>
</g>
<!-- SharedModule&#45;&gt;SquareModule -->
<g id="edge4" class="edge">
<title>SharedModule&#45;&gt;SquareModule</title>
<path fill="none" stroke="#000000" d="M235,-122.0225C235,-139.3734 235,-163 235,-163 235,-163 326.557,-163 326.557,-163"/>
<polygon fill="#000000" stroke="#000000" points="326.557,-166.5001 336.557,-163 326.5569,-159.5001 326.557,-166.5001"/>
</g>
<!-- SquareRoutingModule -->
<g id="node6" class="node">
<title>SquareRoutingModule</title>
<polygon fill="#8dd3c7" stroke="#000000" points="167.5407,-122 164.5407,-126 143.5407,-126 140.5407,-122 24.4593,-122 24.4593,-86 167.5407,-86 167.5407,-122"/>
<text text-anchor="middle" x="96" y="-99.8" font-family="Times,serif" font-size="14.00" fill="#000000">SquareRoutingModule</text>
</g>
<!-- SquareRoutingModule&#45;&gt;SquareModule -->
<g id="edge5" class="edge">
<title>SquareRoutingModule&#45;&gt;SquareModule</title>
<path fill="none" stroke="#000000" d="M96,-122.2843C96,-143.3211 96,-175 96,-175 96,-175 326.4767,-175 326.4767,-175"/>
<polygon fill="#000000" stroke="#000000" points="326.4768,-178.5001 336.4767,-175 326.4767,-171.5001 326.4768,-178.5001"/>
</g>
</g>
</svg>
