<?xml version="1.0" encoding="UTF-8" standalone="no"?>
<!DOCTYPE svg PUBLIC "-//W3C//DTD SVG 1.1//EN"
 "http://www.w3.org/Graphics/SVG/1.1/DTD/svg11.dtd">
<!-- Generated by graphviz version 2.40.1 (20161225.0304)
 -->
<!-- Title: dependencies Pages: 1 -->
<svg width="706pt" height="284pt"
 viewBox="0.00 0.00 706.00 284.00" xmlns="http://www.w3.org/2000/svg" xmlns:xlink="http://www.w3.org/1999/xlink">
<g id="graph0" class="graph" transform="scale(1 1) rotate(0) translate(4 280)">
<title>dependencies</title>
<polygon fill="#ffffff" stroke="transparent" points="-4,4 -4,-280 702,-280 702,4 -4,4"/>
<text text-anchor="start" x="328.0091" y="-42.4" font-family="sans-serif" font-weight="bold" font-size="14.00" fill="#000000">Legend</text>
<polygon fill="#ffffb3" stroke="transparent" points="115,-10 115,-30 135,-30 135,-10 115,-10"/>
<text text-anchor="start" x="138.629" y="-15.4" font-family="sans-serif" font-size="14.00" fill="#000000"> &#160;Declarations</text>
<polygon fill="#8dd3c7" stroke="transparent" points="228,-10 228,-30 248,-30 248,-10 228,-10"/>
<text text-anchor="start" x="251.7251" y="-15.4" font-family="sans-serif" font-size="14.00" fill="#000000"> &#160;Module</text>
<polygon fill="#80b1d3" stroke="transparent" points="314,-10 314,-30 334,-30 334,-10 314,-10"/>
<text text-anchor="start" x="337.7812" y="-15.4" font-family="sans-serif" font-size="14.00" fill="#000000"> &#160;Bootstrap</text>
<polygon fill="#fdb462" stroke="transparent" points="411,-10 411,-30 431,-30 431,-10 411,-10"/>
<text text-anchor="start" x="434.6732" y="-15.4" font-family="sans-serif" font-size="14.00" fill="#000000"> &#160;Providers</text>
<polygon fill="#fb8072" stroke="transparent" points="507,-10 507,-30 527,-30 527,-10 507,-10"/>
<text text-anchor="start" x="530.7258" y="-15.4" font-family="sans-serif" font-size="14.00" fill="#000000"> &#160;Exports</text>
<g id="clust1" class="cluster">
<title>cluster_SquareModule</title>
<polygon fill="none" stroke="#000000" stroke-dasharray="1,5" points="8,-70 8,-268 690,-268 690,-70 8,-70"/>
</g>
<g id="clust2" class="cluster">
<title>cluster_SquareModule_declarations</title>
<polygon fill="none" stroke="#000000" points="366,-78 366,-130 682,-130 682,-78 366,-78"/>
</g>
<g id="clust5" class="cluster">
<title>cluster_SquareModule_imports</title>
<polygon fill="none" stroke="#000000" points="16,-78 16,-130 358,-130 358,-78 16,-78"/>
</g>
<g id="clust6" class="cluster">
<title>cluster_SquareModule_exports</title>
<polygon fill="none" stroke="#000000" points="129,-208 129,-260 453,-260 453,-208 129,-208"/>
</g>
<!-- SquareComponent -->
<g id="node1" class="node">
<title>SquareComponent</title>
<polygon fill="#ffffb3" stroke="#000000" points="674.205,-122 553.795,-122 553.795,-86 674.205,-86 674.205,-122"/>
<text text-anchor="middle" x="614" y="-99.8" font-family="Times,serif" font-size="14.00" fill="#000000">SquareComponent</text>
</g>
<!-- SquareModule -->
<g id="node3" class="node">
<title>SquareModule</title>
<polygon fill="#8dd3c7" stroke="#000000" points="350.4231,-187 347.4231,-191 326.4231,-191 323.4231,-187 251.5769,-187 251.5769,-151 350.4231,-151 350.4231,-187"/>
<text text-anchor="middle" x="301" y="-164.8" font-family="Times,serif" font-size="14.00" fill="#000000">SquareModule</text>
</g>
<!-- SquareComponent&#45;&gt;SquareModule -->
<g id="edge1" class="edge">
<title>SquareComponent&#45;&gt;SquareModule</title>
<path fill="none" stroke="#000000" d="M614,-122.2843C614,-143.3211 614,-175 614,-175 614,-175 360.2506,-175 360.2506,-175"/>
<polygon fill="#000000" stroke="#000000" points="360.2506,-171.5001 350.2506,-175 360.2505,-178.5001 360.2506,-171.5001"/>
</g>
<!-- StrategyDetailComponent -->
<g id="node2" class="node">
<title>StrategyDetailComponent</title>
<polygon fill="#ffffb3" stroke="#000000" points="536.1937,-122 373.8063,-122 373.8063,-86 536.1937,-86 536.1937,-122"/>
<text text-anchor="middle" x="455" y="-99.8" font-family="Times,serif" font-size="14.00" fill="#000000">StrategyDetailComponent</text>
</g>
<!-- StrategyDetailComponent&#45;&gt;SquareModule -->
<g id="edge2" class="edge">
<title>StrategyDetailComponent&#45;&gt;SquareModule</title>
<path fill="none" stroke="#000000" d="M409.3778,-122.0225C409.3778,-139.3734 409.3778,-163 409.3778,-163 409.3778,-163 360.4317,-163 360.4317,-163"/>
<polygon fill="#000000" stroke="#000000" points="360.4317,-159.5001 350.4317,-163 360.4316,-166.5001 360.4317,-159.5001"/>
</g>
<!-- SquareComponent  -->
<g id="node7" class="node">
<title>SquareComponent </title>
<polygon fill="#fb8072" stroke="#000000" points="444.7052,-252 321.2948,-252 321.2948,-216 444.7052,-216 444.7052,-252"/>
<text text-anchor="middle" x="383" y="-229.8" font-family="Times,serif" font-size="14.00" fill="#000000">SquareComponent </text>
</g>
<!-- SquareModule&#45;&gt;SquareComponent  -->
<g id="edge6" class="edge">
<title>SquareModule&#45;&gt;SquareComponent </title>
<path fill="none" stroke="#000000" stroke-dasharray="5,2" d="M335.6794,-187.1061C335.6794,-187.1061 335.6794,-205.991 335.6794,-205.991"/>
<polygon fill="#000000" stroke="#000000" points="332.1794,-205.9909 335.6794,-215.991 339.1794,-205.991 332.1794,-205.9909"/>
</g>
<!-- StrategyDetailComponent  -->
<g id="node8" class="node">
<title>StrategyDetailComponent </title>
<polygon fill="#fb8072" stroke="#000000" points="302.6939,-252 137.3061,-252 137.3061,-216 302.6939,-216 302.6939,-252"/>
<text text-anchor="middle" x="220" y="-229.8" font-family="Times,serif" font-size="14.00" fill="#000000">StrategyDetailComponent </text>
</g>
<!-- SquareModule&#45;&gt;StrategyDetailComponent  -->
<g id="edge7" class="edge">
<title>SquareModule&#45;&gt;StrategyDetailComponent </title>
<path fill="none" stroke="#000000" stroke-dasharray="5,2" d="M277.3179,-187.1061C277.3179,-187.1061 277.3179,-205.991 277.3179,-205.991"/>
<polygon fill="#000000" stroke="#000000" points="273.8179,-205.9909 277.3179,-215.991 280.8179,-205.991 273.8179,-205.9909"/>
</g>
<!-- SharedModule -->
<g id="node4" class="node">
<title>SharedModule</title>
<polygon fill="#8dd3c7" stroke="#000000" points="350.4231,-122 347.4231,-126 326.4231,-126 323.4231,-122 251.5769,-122 251.5769,-86 350.4231,-86 350.4231,-122"/>
<text text-anchor="middle" x="301" y="-99.8" font-family="Times,serif" font-size="14.00" fill="#000000">SharedModule</text>
</g>
<!-- SharedModule&#45;&gt;SquareModule -->
<g id="edge3" class="edge">
<title>SharedModule&#45;&gt;SquareModule</title>
<path fill="none" stroke="#000000" d="M301,-122.1061C301,-122.1061 301,-140.991 301,-140.991"/>
<polygon fill="#000000" stroke="#000000" points="297.5001,-140.9909 301,-150.991 304.5001,-140.991 297.5001,-140.9909"/>
</g>
<!-- StrategyModule -->
<g id="node5" class="node">
<title>StrategyModule</title>
<polygon fill="#8dd3c7" stroke="#000000" points="234.2036,-122 231.2036,-126 210.2036,-126 207.2036,-122 127.7964,-122 127.7964,-86 234.2036,-86 234.2036,-122"/>
<text text-anchor="middle" x="181" y="-99.8" font-family="Times,serif" font-size="14.00" fill="#000000">StrategyModule</text>
</g>
<!-- StrategyModule&#45;&gt;SquareModule -->
<g id="edge4" class="edge">
<title>StrategyModule&#45;&gt;SquareModule</title>
<path fill="none" stroke="#000000" d="M185.6275,-122.0225C185.6275,-139.3734 185.6275,-163 185.6275,-163 185.6275,-163 241.737,-163 241.737,-163"/>
<polygon fill="#000000" stroke="#000000" points="241.737,-166.5001 251.737,-163 241.737,-159.5001 241.737,-166.5001"/>
</g>
<!-- ToolModule -->
<g id="node6" class="node">
<title>ToolModule</title>
<polygon fill="#8dd3c7" stroke="#000000" points="109.993,-122 106.993,-126 85.993,-126 82.993,-122 24.007,-122 24.007,-86 109.993,-86 109.993,-122"/>
<text text-anchor="middle" x="67" y="-99.8" font-family="Times,serif" font-size="14.00" fill="#000000">ToolModule</text>
</g>
<!-- ToolModule&#45;&gt;SquareModule -->
<g id="edge5" class="edge">
<title>ToolModule&#45;&gt;SquareModule</title>
<path fill="none" stroke="#000000" d="M67,-122.2843C67,-143.3211 67,-175 67,-175 67,-175 241.6605,-175 241.6605,-175"/>
<polygon fill="#000000" stroke="#000000" points="241.6606,-178.5001 251.6605,-175 241.6605,-171.5001 241.6606,-178.5001"/>
</g>
</g>
</svg>
