<?xml version="1.0" encoding="UTF-8" standalone="no"?>
<!DOCTYPE svg PUBLIC "-//W3C//DTD SVG 1.1//EN"
 "http://www.w3.org/Graphics/SVG/1.1/DTD/svg11.dtd">
<!-- Generated by graphviz version 2.40.1 (20161225.0304)
 -->
<!-- Title: dependencies Pages: 1 -->
<svg width="3853pt" height="284pt"
 viewBox="0.00 0.00 3853.00 284.00" xmlns="http://www.w3.org/2000/svg" xmlns:xlink="http://www.w3.org/1999/xlink">
<g id="graph0" class="graph" transform="scale(1 1) rotate(0) translate(4 280)">
<title>dependencies</title>
<polygon fill="#ffffff" stroke="transparent" points="-4,4 -4,-280 3849,-280 3849,4 -4,4"/>
<text text-anchor="start" x="1901.5091" y="-42.4" font-family="sans-serif" font-weight="bold" font-size="14.00" fill="#000000">Legend</text>
<polygon fill="#ffffb3" stroke="transparent" points="1688.5,-10 1688.5,-30 1708.5,-30 1708.5,-10 1688.5,-10"/>
<text text-anchor="start" x="1712.129" y="-15.4" font-family="sans-serif" font-size="14.00" fill="#000000"> &#160;Declarations</text>
<polygon fill="#8dd3c7" stroke="transparent" points="1801.5,-10 1801.5,-30 1821.5,-30 1821.5,-10 1801.5,-10"/>
<text text-anchor="start" x="1825.2251" y="-15.4" font-family="sans-serif" font-size="14.00" fill="#000000"> &#160;Module</text>
<polygon fill="#80b1d3" stroke="transparent" points="1887.5,-10 1887.5,-30 1907.5,-30 1907.5,-10 1887.5,-10"/>
<text text-anchor="start" x="1911.2812" y="-15.4" font-family="sans-serif" font-size="14.00" fill="#000000"> &#160;Bootstrap</text>
<polygon fill="#fdb462" stroke="transparent" points="1984.5,-10 1984.5,-30 2004.5,-30 2004.5,-10 1984.5,-10"/>
<text text-anchor="start" x="2008.1732" y="-15.4" font-family="sans-serif" font-size="14.00" fill="#000000"> &#160;Providers</text>
<polygon fill="#fb8072" stroke="transparent" points="2080.5,-10 2080.5,-30 2100.5,-30 2100.5,-10 2080.5,-10"/>
<text text-anchor="start" x="2104.2258" y="-15.4" font-family="sans-serif" font-size="14.00" fill="#000000"> &#160;Exports</text>
<g id="clust1" class="cluster">
<title>cluster_RobotModule</title>
<polygon fill="none" stroke="#000000" stroke-dasharray="1,5" points="8,-70 8,-268 3837,-268 3837,-70 8,-70"/>
</g>
<g id="clust2" class="cluster">
<title>cluster_RobotModule_declarations</title>
<polygon fill="none" stroke="#000000" points="1232,-78 1232,-130 3829,-130 3829,-78 1232,-78"/>
</g>
<g id="clust18" class="cluster">
<title>cluster_RobotModule_imports</title>
<polygon fill="none" stroke="#000000" points="764,-78 764,-130 1224,-130 1224,-78 764,-78"/>
</g>
<g id="clust19" class="cluster">
<title>cluster_RobotModule_exports</title>
<polygon fill="none" stroke="#000000" points="523,-208 523,-260 3172,-260 3172,-208 523,-208"/>
</g>
<g id="clust21" class="cluster">
<title>cluster_RobotModule_providers</title>
<polygon fill="none" stroke="#000000" points="16,-78 16,-130 756,-130 756,-78 16,-78"/>
</g>
<!-- AgentRegionPipe -->
<g id="node1" class="node">
<title>AgentRegionPipe</title>
<polygon fill="#ffffb3" stroke="#000000" points="3820.5423,-122 3705.4577,-122 3705.4577,-86 3820.5423,-86 3820.5423,-122"/>
<text text-anchor="middle" x="3763" y="-99.8" font-family="Times,serif" font-size="14.00" fill="#000000">AgentRegionPipe</text>
</g>
<!-- RobotModule -->
<g id="node16" class="node">
<title>RobotModule</title>
<polygon fill="#8dd3c7" stroke="#000000" points="1948.7773,-187 1945.7773,-191 1924.7773,-191 1921.7773,-187 1855.2227,-187 1855.2227,-151 1948.7773,-151 1948.7773,-187"/>
<text text-anchor="middle" x="1902" y="-164.8" font-family="Times,serif" font-size="14.00" fill="#000000">RobotModule</text>
</g>
<!-- AgentRegionPipe&#45;&gt;RobotModule -->
<g id="edge1" class="edge">
<title>AgentRegionPipe&#45;&gt;RobotModule</title>
<path fill="none" stroke="#000000" d="M3763,-122.2228C3763,-142.3652 3763,-172 3763,-172 3763,-172 1958.9333,-172 1958.9333,-172"/>
<polygon fill="#000000" stroke="#000000" points="1958.9333,-168.5001 1948.9333,-172 1958.9332,-175.5001 1958.9333,-168.5001"/>
</g>
<!-- CreateRobotComponent -->
<g id="node2" class="node">
<title>CreateRobotComponent</title>
<polygon fill="#ffffb3" stroke="#000000" points="3687.0912,-122 3534.9088,-122 3534.9088,-86 3687.0912,-86 3687.0912,-122"/>
<text text-anchor="middle" x="3611" y="-99.8" font-family="Times,serif" font-size="14.00" fill="#000000">CreateRobotComponent</text>
</g>
<!-- CreateRobotComponent&#45;&gt;RobotModule -->
<g id="edge2" class="edge">
<title>CreateRobotComponent&#45;&gt;RobotModule</title>
<path fill="none" stroke="#000000" d="M3611,-122.0348C3611,-141.5762 3611,-170 3611,-170 3611,-170 1959.0441,-170 1959.0441,-170"/>
<polygon fill="#000000" stroke="#000000" points="1959.0441,-166.5001 1949.0441,-170 1959.044,-173.5001 1959.0441,-166.5001"/>
</g>
<!-- DeleteRobotComponent -->
<g id="node3" class="node">
<title>DeleteRobotComponent</title>
<polygon fill="#ffffb3" stroke="#000000" points="3517.0912,-122 3364.9088,-122 3364.9088,-86 3517.0912,-86 3517.0912,-122"/>
<text text-anchor="middle" x="3441" y="-99.8" font-family="Times,serif" font-size="14.00" fill="#000000">DeleteRobotComponent</text>
</g>
<!-- DeleteRobotComponent&#45;&gt;RobotModule -->
<g id="edge3" class="edge">
<title>DeleteRobotComponent&#45;&gt;RobotModule</title>
<path fill="none" stroke="#000000" d="M3441,-122.1061C3441,-141.3391 3441,-169 3441,-169 3441,-169 1958.8995,-169 1958.8995,-169"/>
<polygon fill="#000000" stroke="#000000" points="1958.8996,-165.5001 1948.8995,-169 1958.8995,-172.5001 1958.8996,-165.5001"/>
</g>
<!-- ExchangePairComponent -->
<g id="node4" class="node">
<title>ExchangePairComponent</title>
<polygon fill="#ffffb3" stroke="#000000" points="3346.5772,-122 3187.4228,-122 3187.4228,-86 3346.5772,-86 3346.5772,-122"/>
<text text-anchor="middle" x="3267" y="-99.8" font-family="Times,serif" font-size="14.00" fill="#000000">ExchangePairComponent</text>
</g>
<!-- ExchangePairComponent&#45;&gt;RobotModule -->
<g id="edge4" class="edge">
<title>ExchangePairComponent&#45;&gt;RobotModule</title>
<path fill="none" stroke="#000000" d="M3267,-122.2222C3267,-140.8285 3267,-167 3267,-167 3267,-167 1958.9864,-167 1958.9864,-167"/>
<polygon fill="#000000" stroke="#000000" points="1958.9864,-163.5001 1948.9864,-167 1958.9864,-170.5001 1958.9864,-163.5001"/>
</g>
<!-- IsOldVersionPipe -->
<g id="node5" class="node">
<title>IsOldVersionPipe</title>
<polygon fill="#ffffb3" stroke="#000000" points="3169.3076,-122 3052.6924,-122 3052.6924,-86 3169.3076,-86 3169.3076,-122"/>
<text text-anchor="middle" x="3111" y="-99.8" font-family="Times,serif" font-size="14.00" fill="#000000">IsOldVersionPipe</text>
</g>
<!-- IsOldVersionPipe&#45;&gt;RobotModule -->
<g id="edge5" class="edge">
<title>IsOldVersionPipe&#45;&gt;RobotModule</title>
<path fill="none" stroke="#000000" d="M3108.1835,-122.302C3108.1835,-140.2699 3108.1835,-165 3108.1835,-165 3108.1835,-165 1958.9136,-165 1958.9136,-165"/>
<polygon fill="#000000" stroke="#000000" points="1958.9137,-161.5001 1948.9136,-165 1958.9136,-168.5001 1958.9137,-161.5001"/>
</g>
<!-- RobotCommandComponent -->
<g id="node6" class="node">
<title>RobotCommandComponent</title>
<polygon fill="#ffffb3" stroke="#000000" points="3034.892,-122 2861.108,-122 2861.108,-86 3034.892,-86 3034.892,-122"/>
<text text-anchor="middle" x="2948" y="-99.8" font-family="Times,serif" font-size="14.00" fill="#000000">RobotCommandComponent</text>
</g>
<!-- RobotCommandComponent&#45;&gt;RobotModule -->
<g id="edge6" class="edge">
<title>RobotCommandComponent&#45;&gt;RobotModule</title>
<path fill="none" stroke="#000000" d="M2866.1292,-122.0225C2866.1292,-139.3734 2866.1292,-163 2866.1292,-163 2866.1292,-163 1958.8278,-163 1958.8278,-163"/>
<polygon fill="#000000" stroke="#000000" points="1958.8278,-159.5001 1948.8278,-163 1958.8277,-166.5001 1958.8278,-159.5001"/>
</g>
<!-- RobotConfigComponent -->
<g id="node7" class="node">
<title>RobotConfigComponent</title>
<polygon fill="#ffffb3" stroke="#000000" points="2843.448,-122 2688.552,-122 2688.552,-86 2843.448,-86 2843.448,-122"/>
<text text-anchor="middle" x="2766" y="-99.8" font-family="Times,serif" font-size="14.00" fill="#000000">RobotConfigComponent</text>
</g>
<!-- RobotConfigComponent&#45;&gt;RobotModule -->
<g id="edge7" class="edge">
<title>RobotConfigComponent&#45;&gt;RobotModule</title>
<path fill="none" stroke="#000000" d="M2692.9904,-122.0352C2692.9904,-138.7344 2692.9904,-161 2692.9904,-161 2692.9904,-161 1958.8187,-161 1958.8187,-161"/>
<polygon fill="#000000" stroke="#000000" points="1958.8188,-157.5001 1948.8187,-161 1958.8187,-164.5001 1958.8188,-157.5001"/>
</g>
<!-- RobotDebuggerComponent -->
<g id="node8" class="node">
<title>RobotDebuggerComponent</title>
<polygon fill="#ffffb3" stroke="#000000" points="2670.2562,-122 2499.7438,-122 2499.7438,-86 2670.2562,-86 2670.2562,-122"/>
<text text-anchor="middle" x="2585" y="-99.8" font-family="Times,serif" font-size="14.00" fill="#000000">RobotDebuggerComponent</text>
</g>
<!-- RobotDebuggerComponent&#45;&gt;RobotModule -->
<g id="edge8" class="edge">
<title>RobotDebuggerComponent&#45;&gt;RobotModule</title>
<path fill="none" stroke="#000000" d="M2508.1667,-122.0091C2508.1667,-138.0494 2508.1667,-159 2508.1667,-159 2508.1667,-159 1958.8091,-159 1958.8091,-159"/>
<polygon fill="#000000" stroke="#000000" points="1958.8092,-155.5001 1948.8091,-159 1958.8091,-162.5001 1958.8092,-155.5001"/>
</g>
<!-- RobotDurationComponent -->
<g id="node9" class="node">
<title>RobotDurationComponent</title>
<polygon fill="#ffffb3" stroke="#000000" points="2481.8229,-122 2316.1771,-122 2316.1771,-86 2481.8229,-86 2481.8229,-122"/>
<text text-anchor="middle" x="2399" y="-99.8" font-family="Times,serif" font-size="14.00" fill="#000000">RobotDurationComponent</text>
</g>
<!-- RobotDurationComponent&#45;&gt;RobotModule -->
<g id="edge9" class="edge">
<title>RobotDurationComponent&#45;&gt;RobotModule</title>
<path fill="none" stroke="#000000" d="M2338.5174,-122.2396C2338.5174,-137.5706 2338.5174,-157 2338.5174,-157 2338.5174,-157 1959.1297,-157 1959.1297,-157"/>
<polygon fill="#000000" stroke="#000000" points="1959.1298,-153.5001 1949.1297,-157 1959.1297,-160.5001 1959.1298,-153.5001"/>
</g>
<!-- RobotListComponent -->
<g id="node10" class="node">
<title>RobotListComponent</title>
<polygon fill="#ffffb3" stroke="#000000" points="2298.8384,-122 2161.1616,-122 2161.1616,-86 2298.8384,-86 2298.8384,-122"/>
<text text-anchor="middle" x="2230" y="-99.8" font-family="Times,serif" font-size="14.00" fill="#000000">RobotListComponent</text>
</g>
<!-- RobotListComponent&#45;&gt;RobotModule -->
<g id="edge10" class="edge">
<title>RobotListComponent&#45;&gt;RobotModule</title>
<path fill="none" stroke="#000000" d="M2174.1389,-122.1243C2174.1389,-136.7832 2174.1389,-155 2174.1389,-155 2174.1389,-155 1958.7823,-155 1958.7823,-155"/>
<polygon fill="#000000" stroke="#000000" points="1958.7824,-151.5001 1948.7823,-155 1958.7823,-158.5001 1958.7824,-151.5001"/>
</g>
<!-- RobotLogComponent -->
<g id="node11" class="node">
<title>RobotLogComponent</title>
<polygon fill="#ffffb3" stroke="#000000" points="2143.1122,-122 2004.8878,-122 2004.8878,-86 2143.1122,-86 2143.1122,-122"/>
<text text-anchor="middle" x="2074" y="-99.8" font-family="Times,serif" font-size="14.00" fill="#000000">RobotLogComponent</text>
</g>
<!-- RobotLogComponent&#45;&gt;RobotModule -->
<g id="edge11" class="edge">
<title>RobotLogComponent&#45;&gt;RobotModule</title>
<path fill="none" stroke="#000000" d="M2097.7128,-122.2458C2097.7128,-136.1772 2097.7128,-153 2097.7128,-153 2097.7128,-153 1958.8781,-153 1958.8781,-153"/>
<polygon fill="#000000" stroke="#000000" points="1958.8781,-149.5001 1948.8781,-153 1958.8781,-156.5001 1958.8781,-149.5001"/>
</g>
<!-- RobotOverviewComponent -->
<g id="node12" class="node">
<title>RobotOverviewComponent</title>
<polygon fill="#ffffb3" stroke="#000000" points="1987.2534,-122 1816.7466,-122 1816.7466,-86 1987.2534,-86 1987.2534,-122"/>
<text text-anchor="middle" x="1902" y="-99.8" font-family="Times,serif" font-size="14.00" fill="#000000">RobotOverviewComponent</text>
</g>
<!-- RobotOverviewComponent&#45;&gt;RobotModule -->
<g id="edge12" class="edge">
<title>RobotOverviewComponent&#45;&gt;RobotModule</title>
<path fill="none" stroke="#000000" d="M1902,-122.1061C1902,-122.1061 1902,-140.991 1902,-140.991"/>
<polygon fill="#000000" stroke="#000000" points="1898.5001,-140.9909 1902,-150.991 1905.5001,-140.991 1898.5001,-140.9909"/>
</g>
<!-- RobotProfitChartComponent -->
<g id="node13" class="node">
<title>RobotProfitChartComponent</title>
<polygon fill="#ffffb3" stroke="#000000" points="1798.0476,-122 1619.9524,-122 1619.9524,-86 1798.0476,-86 1798.0476,-122"/>
<text text-anchor="middle" x="1709" y="-99.8" font-family="Times,serif" font-size="14.00" fill="#000000">RobotProfitChartComponent</text>
</g>
<!-- RobotProfitChartComponent&#45;&gt;RobotModule -->
<g id="edge13" class="edge">
<title>RobotProfitChartComponent&#45;&gt;RobotModule</title>
<path fill="none" stroke="#000000" d="M1683.8629,-122.2458C1683.8629,-136.1772 1683.8629,-153 1683.8629,-153 1683.8629,-153 1845.2041,-153 1845.2041,-153"/>
<polygon fill="#000000" stroke="#000000" points="1845.2042,-156.5001 1855.2041,-153 1845.2041,-149.5001 1845.2042,-156.5001"/>
</g>
<!-- RobotStatusComponent -->
<g id="node14" class="node">
<title>RobotStatusComponent</title>
<polygon fill="#ffffb3" stroke="#000000" points="1601.7828,-122 1452.2172,-122 1452.2172,-86 1601.7828,-86 1601.7828,-122"/>
<text text-anchor="middle" x="1527" y="-99.8" font-family="Times,serif" font-size="14.00" fill="#000000">RobotStatusComponent</text>
</g>
<!-- RobotStatusComponent&#45;&gt;RobotModule -->
<g id="edge14" class="edge">
<title>RobotStatusComponent&#45;&gt;RobotModule</title>
<path fill="none" stroke="#000000" d="M1535.2362,-122.1243C1535.2362,-136.7832 1535.2362,-155 1535.2362,-155 1535.2362,-155 1845.1766,-155 1845.1766,-155"/>
<polygon fill="#000000" stroke="#000000" points="1845.1766,-158.5001 1855.1766,-155 1845.1765,-151.5001 1845.1766,-158.5001"/>
</g>
<!-- RobotStrategyChartComponent -->
<g id="node15" class="node">
<title>RobotStrategyChartComponent</title>
<polygon fill="#ffffb3" stroke="#000000" points="1433.8159,-122 1240.1841,-122 1240.1841,-86 1433.8159,-86 1433.8159,-122"/>
<text text-anchor="middle" x="1337" y="-99.8" font-family="Times,serif" font-size="14.00" fill="#000000">RobotStrategyChartComponent</text>
</g>
<!-- RobotStrategyChartComponent&#45;&gt;RobotModule -->
<g id="edge15" class="edge">
<title>RobotStrategyChartComponent&#45;&gt;RobotModule</title>
<path fill="none" stroke="#000000" d="M1371.4259,-122.2396C1371.4259,-137.5706 1371.4259,-157 1371.4259,-157 1371.4259,-157 1844.9151,-157 1844.9151,-157"/>
<polygon fill="#000000" stroke="#000000" points="1844.9151,-160.5001 1854.9151,-157 1844.915,-153.5001 1844.9151,-160.5001"/>
</g>
<!-- AgentRegionPipe  -->
<g id="node21" class="node">
<title>AgentRegionPipe </title>
<polygon fill="#fb8072" stroke="#000000" points="3163.5414,-252 3044.4586,-252 3044.4586,-216 3163.5414,-216 3163.5414,-252"/>
<text text-anchor="middle" x="3104" y="-229.8" font-family="Times,serif" font-size="14.00" fill="#000000">AgentRegionPipe </text>
</g>
<!-- RobotModule&#45;&gt;AgentRegionPipe  -->
<g id="edge20" class="edge">
<title>RobotModule&#45;&gt;AgentRegionPipe </title>
<path fill="none" stroke="#000000" stroke-dasharray="5,2" d="M1949.0883,-174C2164.8604,-174 3048.6628,-174 3048.6628,-174 3048.6628,-174 3048.6628,-205.998 3048.6628,-205.998"/>
<polygon fill="#000000" stroke="#000000" points="3045.1629,-205.998 3048.6628,-215.998 3052.1629,-205.9981 3045.1629,-205.998"/>
</g>
<!-- CreateRobotComponent  -->
<g id="node22" class="node">
<title>CreateRobotComponent </title>
<polygon fill="#fb8072" stroke="#000000" points="3026.5917,-252 2871.4083,-252 2871.4083,-216 3026.5917,-216 3026.5917,-252"/>
<text text-anchor="middle" x="2949" y="-229.8" font-family="Times,serif" font-size="14.00" fill="#000000">CreateRobotComponent </text>
</g>
<!-- RobotModule&#45;&gt;CreateRobotComponent  -->
<g id="edge21" class="edge">
<title>RobotModule&#45;&gt;CreateRobotComponent </title>
<path fill="none" stroke="#000000" stroke-dasharray="5,2" d="M1949.0214,-176C2152.7496,-176 2949,-176 2949,-176 2949,-176 2949,-205.9664 2949,-205.9664"/>
<polygon fill="#000000" stroke="#000000" points="2945.5001,-205.9663 2949,-215.9664 2952.5001,-205.9664 2945.5001,-205.9663"/>
</g>
<!-- DeleteRobotComponent  -->
<g id="node23" class="node">
<title>DeleteRobotComponent </title>
<polygon fill="#fb8072" stroke="#000000" points="2852.5917,-252 2697.4083,-252 2697.4083,-216 2852.5917,-216 2852.5917,-252"/>
<text text-anchor="middle" x="2775" y="-229.8" font-family="Times,serif" font-size="14.00" fill="#000000">DeleteRobotComponent </text>
</g>
<!-- RobotModule&#45;&gt;DeleteRobotComponent  -->
<g id="edge22" class="edge">
<title>RobotModule&#45;&gt;DeleteRobotComponent </title>
<path fill="none" stroke="#000000" stroke-dasharray="5,2" d="M1948.9868,-178C2129.7444,-178 2770.2141,-178 2770.2141,-178 2770.2141,-178 2770.2141,-205.973 2770.2141,-205.973"/>
<polygon fill="#000000" stroke="#000000" points="2766.7141,-205.973 2770.2141,-215.973 2773.7141,-205.973 2766.7141,-205.973"/>
</g>
<!-- ExchangePairComponent  -->
<g id="node24" class="node">
<title>ExchangePairComponent </title>
<polygon fill="#fb8072" stroke="#000000" points="2679.0777,-252 2516.9223,-252 2516.9223,-216 2679.0777,-216 2679.0777,-252"/>
<text text-anchor="middle" x="2598" y="-229.8" font-family="Times,serif" font-size="14.00" fill="#000000">ExchangePairComponent </text>
</g>
<!-- RobotModule&#45;&gt;ExchangePairComponent  -->
<g id="edge23" class="edge">
<title>RobotModule&#45;&gt;ExchangePairComponent </title>
<path fill="none" stroke="#000000" stroke-dasharray="5,2" d="M1948.989,-180C2104.6373,-180 2593.5447,-180 2593.5447,-180 2593.5447,-180 2593.5447,-205.7181 2593.5447,-205.7181"/>
<polygon fill="#000000" stroke="#000000" points="2590.0448,-205.718 2593.5447,-215.7181 2597.0448,-205.7181 2590.0448,-205.718"/>
</g>
<!-- IsOldVersionPipe  -->
<g id="node25" class="node">
<title>IsOldVersionPipe </title>
<polygon fill="#fb8072" stroke="#000000" points="2498.8074,-252 2379.1926,-252 2379.1926,-216 2498.8074,-216 2498.8074,-252"/>
<text text-anchor="middle" x="2439" y="-229.8" font-family="Times,serif" font-size="14.00" fill="#000000">IsOldVersionPipe </text>
</g>
<!-- RobotModule&#45;&gt;IsOldVersionPipe  -->
<g id="edge24" class="edge">
<title>RobotModule&#45;&gt;IsOldVersionPipe </title>
<path fill="none" stroke="#000000" stroke-dasharray="5,2" d="M1948.8901,-182C2078.2042,-182 2430.3789,-182 2430.3789,-182 2430.3789,-182 2430.3789,-205.8129 2430.3789,-205.8129"/>
<polygon fill="#000000" stroke="#000000" points="2426.8789,-205.8129 2430.3789,-215.8129 2433.8789,-205.813 2426.8789,-205.8129"/>
</g>
<!-- RobotCommandComponent  -->
<g id="node26" class="node">
<title>RobotCommandComponent </title>
<polygon fill="#fb8072" stroke="#000000" points="2360.8924,-252 2183.1076,-252 2183.1076,-216 2360.8924,-216 2360.8924,-252"/>
<text text-anchor="middle" x="2272" y="-229.8" font-family="Times,serif" font-size="14.00" fill="#000000">RobotCommandComponent </text>
</g>
<!-- RobotModule&#45;&gt;RobotCommandComponent  -->
<g id="edge25" class="edge">
<title>RobotModule&#45;&gt;RobotCommandComponent </title>
<path fill="none" stroke="#000000" stroke-dasharray="5,2" d="M1948.7787,-184C2041.7716,-184 2240.9865,-184 2240.9865,-184 2240.9865,-184 2240.9865,-205.9489 2240.9865,-205.9489"/>
<polygon fill="#000000" stroke="#000000" points="2237.4866,-205.9488 2240.9865,-215.9489 2244.4866,-205.9489 2237.4866,-205.9488"/>
</g>
<!-- RobotConfigComponent  -->
<g id="node27" class="node">
<title>RobotConfigComponent </title>
<polygon fill="#fb8072" stroke="#000000" points="2164.9474,-252 2007.0526,-252 2007.0526,-216 2164.9474,-216 2164.9474,-252"/>
<text text-anchor="middle" x="2086" y="-229.8" font-family="Times,serif" font-size="14.00" fill="#000000">RobotConfigComponent </text>
</g>
<!-- RobotModule&#45;&gt;RobotConfigComponent  -->
<g id="edge26" class="edge">
<title>RobotModule&#45;&gt;RobotConfigComponent </title>
<path fill="none" stroke="#000000" stroke-dasharray="5,2" d="M1949.1653,-186C1993.2638,-186 2052.3696,-186 2052.3696,-186 2052.3696,-186 2052.3696,-205.8533 2052.3696,-205.8533"/>
<polygon fill="#000000" stroke="#000000" points="2048.8697,-205.8532 2052.3696,-215.8533 2055.8697,-205.8533 2048.8697,-205.8532"/>
</g>
<!-- RobotDebuggerComponent  -->
<g id="node28" class="node">
<title>RobotDebuggerComponent </title>
<polygon fill="#fb8072" stroke="#000000" points="1989.2562,-252 1814.7438,-252 1814.7438,-216 1989.2562,-216 1989.2562,-252"/>
<text text-anchor="middle" x="1902" y="-229.8" font-family="Times,serif" font-size="14.00" fill="#000000">RobotDebuggerComponent </text>
</g>
<!-- RobotModule&#45;&gt;RobotDebuggerComponent  -->
<g id="edge27" class="edge">
<title>RobotModule&#45;&gt;RobotDebuggerComponent </title>
<path fill="none" stroke="#000000" stroke-dasharray="5,2" d="M1902,-187.1061C1902,-187.1061 1902,-205.991 1902,-205.991"/>
<polygon fill="#000000" stroke="#000000" points="1898.5001,-205.9909 1902,-215.991 1905.5001,-205.991 1898.5001,-205.9909"/>
</g>
<!-- RobotDurationComponent  -->
<g id="node29" class="node">
<title>RobotDurationComponent </title>
<polygon fill="#fb8072" stroke="#000000" points="1796.3227,-252 1627.6773,-252 1627.6773,-216 1796.3227,-216 1796.3227,-252"/>
<text text-anchor="middle" x="1712" y="-229.8" font-family="Times,serif" font-size="14.00" fill="#000000">RobotDurationComponent </text>
</g>
<!-- RobotModule&#45;&gt;RobotDurationComponent  -->
<g id="edge28" class="edge">
<title>RobotModule&#45;&gt;RobotDurationComponent </title>
<path fill="none" stroke="#000000" stroke-dasharray="5,2" d="M1855.1825,-186C1807.3783,-186 1740.1371,-186 1740.1371,-186 1740.1371,-186 1740.1371,-205.8533 1740.1371,-205.8533"/>
<polygon fill="#000000" stroke="#000000" points="1736.6372,-205.8532 1740.1371,-215.8533 1743.6372,-205.8533 1736.6372,-205.8532"/>
</g>
<!-- RobotListComponent  -->
<g id="node30" class="node">
<title>RobotListComponent </title>
<polygon fill="#fb8072" stroke="#000000" points="1609.3381,-252 1468.6619,-252 1468.6619,-216 1609.3381,-216 1609.3381,-252"/>
<text text-anchor="middle" x="1539" y="-229.8" font-family="Times,serif" font-size="14.00" fill="#000000">RobotListComponent </text>
</g>
<!-- RobotModule&#45;&gt;RobotListComponent  -->
<g id="edge29" class="edge">
<title>RobotModule&#45;&gt;RobotListComponent </title>
<path fill="none" stroke="#000000" stroke-dasharray="5,2" d="M1855.0433,-184C1771.4821,-184 1605.6552,-184 1605.6552,-184 1605.6552,-184 1605.6552,-205.9489 1605.6552,-205.9489"/>
<polygon fill="#000000" stroke="#000000" points="1602.1552,-205.9488 1605.6552,-215.9489 1609.1552,-205.9489 1602.1552,-205.9488"/>
</g>
<!-- RobotLogComponent  -->
<g id="node31" class="node">
<title>RobotLogComponent </title>
<polygon fill="#fb8072" stroke="#000000" points="1450.6127,-252 1309.3873,-252 1309.3873,-216 1450.6127,-216 1450.6127,-252"/>
<text text-anchor="middle" x="1380" y="-229.8" font-family="Times,serif" font-size="14.00" fill="#000000">RobotLogComponent </text>
</g>
<!-- RobotModule&#45;&gt;RobotLogComponent  -->
<g id="edge30" class="edge">
<title>RobotModule&#45;&gt;RobotLogComponent </title>
<path fill="none" stroke="#000000" stroke-dasharray="5,2" d="M1854.9574,-182C1737.778,-182 1442.2319,-182 1442.2319,-182 1442.2319,-182 1442.2319,-205.8129 1442.2319,-205.8129"/>
<polygon fill="#000000" stroke="#000000" points="1438.732,-205.8129 1442.2319,-215.8129 1445.732,-205.813 1438.732,-205.8129"/>
</g>
<!-- RobotOverviewComponent  -->
<g id="node32" class="node">
<title>RobotOverviewComponent </title>
<polygon fill="#fb8072" stroke="#000000" points="1291.2534,-252 1116.7466,-252 1116.7466,-216 1291.2534,-216 1291.2534,-252"/>
<text text-anchor="middle" x="1204" y="-229.8" font-family="Times,serif" font-size="14.00" fill="#000000">RobotOverviewComponent </text>
</g>
<!-- RobotModule&#45;&gt;RobotOverviewComponent  -->
<g id="edge31" class="edge">
<title>RobotModule&#45;&gt;RobotOverviewComponent </title>
<path fill="none" stroke="#000000" stroke-dasharray="5,2" d="M1855.2139,-180C1708.2762,-180 1265.7344,-180 1265.7344,-180 1265.7344,-180 1265.7344,-205.7181 1265.7344,-205.7181"/>
<polygon fill="#000000" stroke="#000000" points="1262.2345,-205.718 1265.7344,-215.7181 1269.2345,-205.7181 1262.2345,-205.718"/>
</g>
<!-- RobotProfitChartComponent  -->
<g id="node33" class="node">
<title>RobotProfitChartComponent </title>
<polygon fill="#fb8072" stroke="#000000" points="1099.047,-252 916.953,-252 916.953,-216 1099.047,-216 1099.047,-252"/>
<text text-anchor="middle" x="1008" y="-229.8" font-family="Times,serif" font-size="14.00" fill="#000000">RobotProfitChartComponent </text>
</g>
<!-- RobotModule&#45;&gt;RobotProfitChartComponent  -->
<g id="edge32" class="edge">
<title>RobotModule&#45;&gt;RobotProfitChartComponent </title>
<path fill="none" stroke="#000000" stroke-dasharray="5,2" d="M1854.9488,-178C1673.9436,-178 1032.5963,-178 1032.5963,-178 1032.5963,-178 1032.5963,-205.973 1032.5963,-205.973"/>
<polygon fill="#000000" stroke="#000000" points="1029.0964,-205.973 1032.5963,-215.973 1036.0964,-205.973 1029.0964,-205.973"/>
</g>
<!-- RobotStatusComponent  -->
<g id="node34" class="node">
<title>RobotStatusComponent </title>
<polygon fill="#fb8072" stroke="#000000" points="898.7829,-252 745.2171,-252 745.2171,-216 898.7829,-216 898.7829,-252"/>
<text text-anchor="middle" x="822" y="-229.8" font-family="Times,serif" font-size="14.00" fill="#000000">RobotStatusComponent </text>
</g>
<!-- RobotModule&#45;&gt;RobotStatusComponent  -->
<g id="edge33" class="edge">
<title>RobotModule&#45;&gt;RobotStatusComponent </title>
<path fill="none" stroke="#000000" stroke-dasharray="5,2" d="M1855.0926,-176C1655.526,-176 887.2698,-176 887.2698,-176 887.2698,-176 887.2698,-205.9664 887.2698,-205.9664"/>
<polygon fill="#000000" stroke="#000000" points="883.7699,-205.9663 887.2698,-215.9664 890.7699,-205.9664 883.7699,-205.9663"/>
</g>
<!-- RobotStrategyChartComponent  -->
<g id="node35" class="node">
<title>RobotStrategyChartComponent </title>
<polygon fill="#fb8072" stroke="#000000" points="727.3157,-252 530.6843,-252 530.6843,-216 727.3157,-216 727.3157,-252"/>
<text text-anchor="middle" x="629" y="-229.8" font-family="Times,serif" font-size="14.00" fill="#000000">RobotStrategyChartComponent </text>
</g>
<!-- RobotModule&#45;&gt;RobotStrategyChartComponent  -->
<g id="edge34" class="edge">
<title>RobotModule&#45;&gt;RobotStrategyChartComponent </title>
<path fill="none" stroke="#000000" stroke-dasharray="5,2" d="M1855.2006,-174C1626.7587,-174 639.7357,-174 639.7357,-174 639.7357,-174 639.7357,-205.998 639.7357,-205.998"/>
<polygon fill="#000000" stroke="#000000" points="636.2358,-205.998 639.7357,-215.998 643.2358,-205.9981 636.2358,-205.998"/>
</g>
<!-- ChargeModule -->
<g id="node17" class="node">
<title>ChargeModule</title>
<polygon fill="#8dd3c7" stroke="#000000" points="1215.9762,-122 1212.9762,-126 1191.9762,-126 1188.9762,-122 1116.0238,-122 1116.0238,-86 1215.9762,-86 1215.9762,-122"/>
<text text-anchor="middle" x="1166" y="-99.8" font-family="Times,serif" font-size="14.00" fill="#000000">ChargeModule</text>
</g>
<!-- ChargeModule&#45;&gt;RobotModule -->
<g id="edge16" class="edge">
<title>ChargeModule&#45;&gt;RobotModule</title>
<path fill="none" stroke="#000000" d="M1166.4308,-122.0091C1166.4308,-138.0494 1166.4308,-159 1166.4308,-159 1166.4308,-159 1845.1487,-159 1845.1487,-159"/>
<polygon fill="#000000" stroke="#000000" points="1845.1487,-162.5001 1855.1487,-159 1845.1487,-155.5001 1845.1487,-162.5001"/>
</g>
<!-- SharedModule -->
<g id="node18" class="node">
<title>SharedModule</title>
<polygon fill="#8dd3c7" stroke="#000000" points="1098.4231,-122 1095.4231,-126 1074.4231,-126 1071.4231,-122 999.5769,-122 999.5769,-86 1098.4231,-86 1098.4231,-122"/>
<text text-anchor="middle" x="1049" y="-99.8" font-family="Times,serif" font-size="14.00" fill="#000000">SharedModule</text>
</g>
<!-- SharedModule&#45;&gt;RobotModule -->
<g id="edge17" class="edge">
<title>SharedModule&#45;&gt;RobotModule</title>
<path fill="none" stroke="#000000" d="M1065.4037,-122.0352C1065.4037,-138.7344 1065.4037,-161 1065.4037,-161 1065.4037,-161 1844.9266,-161 1844.9266,-161"/>
<polygon fill="#000000" stroke="#000000" points="1844.9266,-164.5001 1854.9266,-161 1844.9265,-157.5001 1844.9266,-164.5001"/>
</g>
<!-- StrategyModule -->
<g id="node19" class="node">
<title>StrategyModule</title>
<polygon fill="#8dd3c7" stroke="#000000" points="982.2036,-122 979.2036,-126 958.2036,-126 955.2036,-122 875.7964,-122 875.7964,-86 982.2036,-86 982.2036,-122"/>
<text text-anchor="middle" x="929" y="-99.8" font-family="Times,serif" font-size="14.00" fill="#000000">StrategyModule</text>
</g>
<!-- StrategyModule&#45;&gt;RobotModule -->
<g id="edge18" class="edge">
<title>StrategyModule&#45;&gt;RobotModule</title>
<path fill="none" stroke="#000000" d="M949.5391,-122.0225C949.5391,-139.3734 949.5391,-163 949.5391,-163 949.5391,-163 1845.0922,-163 1845.0922,-163"/>
<polygon fill="#000000" stroke="#000000" points="1845.0922,-166.5001 1855.0922,-163 1845.0922,-159.5001 1845.0922,-166.5001"/>
</g>
<!-- ToolModule -->
<g id="node20" class="node">
<title>ToolModule</title>
<polygon fill="#8dd3c7" stroke="#000000" points="857.993,-122 854.993,-126 833.993,-126 830.993,-122 772.007,-122 772.007,-86 857.993,-86 857.993,-122"/>
<text text-anchor="middle" x="815" y="-99.8" font-family="Times,serif" font-size="14.00" fill="#000000">ToolModule</text>
</g>
<!-- ToolModule&#45;&gt;RobotModule -->
<g id="edge19" class="edge">
<title>ToolModule&#45;&gt;RobotModule</title>
<path fill="none" stroke="#000000" d="M815,-122.302C815,-140.2699 815,-165 815,-165 815,-165 1844.9441,-165 1844.9441,-165"/>
<polygon fill="#000000" stroke="#000000" points="1844.9441,-168.5001 1854.9441,-165 1844.944,-161.5001 1844.9441,-168.5001"/>
</g>
<!-- RobotConstantService -->
<g id="node36" class="node">
<title>RobotConstantService</title>
<ellipse fill="#fdb462" stroke="#000000" cx="650" cy="-104" rx="97.873" ry="18"/>
<text text-anchor="middle" x="650" y="-99.8" font-family="Times,serif" font-size="14.00" fill="#000000">RobotConstantService</text>
</g>
<!-- RobotConstantService&#45;&gt;RobotModule -->
<g id="edge35" class="edge">
<title>RobotConstantService&#45;&gt;RobotModule</title>
<path fill="none" stroke="#000000" d="M736.3833,-112.4965C736.3833,-129.6928 736.3833,-167 736.3832,-167 736.3832,-167 1844.8628,-167 1844.8628,-167"/>
<polygon fill="#000000" stroke="#000000" points="1844.8628,-170.5001 1854.8628,-167 1844.8627,-163.5001 1844.8628,-170.5001"/>
</g>
<!-- RobotLogService -->
<g id="node37" class="node">
<title>RobotLogService</title>
<ellipse fill="#fdb462" stroke="#000000" cx="455" cy="-104" rx="79.3154" ry="18"/>
<text text-anchor="middle" x="455" y="-99.8" font-family="Times,serif" font-size="14.00" fill="#000000">RobotLogService</text>
</g>
<!-- RobotLogService&#45;&gt;RobotModule -->
<g id="edge36" class="edge">
<title>RobotLogService&#45;&gt;RobotModule</title>
<path fill="none" stroke="#000000" d="M453.2173,-122.1061C453.2173,-141.3391 453.2173,-169 453.2173,-169 453.2173,-169 1845.0295,-169 1845.0295,-169"/>
<polygon fill="#000000" stroke="#000000" points="1845.0295,-172.5001 1855.0295,-169 1845.0295,-165.5001 1845.0295,-172.5001"/>
</g>
<!-- RobotOperateService -->
<g id="node38" class="node">
<title>RobotOperateService</title>
<ellipse fill="#fdb462" stroke="#000000" cx="264" cy="-104" rx="94.3195" ry="18"/>
<text text-anchor="middle" x="264" y="-99.8" font-family="Times,serif" font-size="14.00" fill="#000000">RobotOperateService</text>
</g>
<!-- RobotOperateService&#45;&gt;RobotModule -->
<g id="edge37" class="edge">
<title>RobotOperateService&#45;&gt;RobotModule</title>
<path fill="none" stroke="#000000" d="M264,-122.0348C264,-141.5762 264,-170 264,-170 264,-170 1845.1813,-170 1845.1813,-170"/>
<polygon fill="#000000" stroke="#000000" points="1845.1813,-173.5001 1855.1813,-170 1845.1813,-166.5001 1845.1813,-173.5001"/>
</g>
<!-- RobotService -->
<g id="node39" class="node">
<title>RobotService</title>
<ellipse fill="#fdb462" stroke="#000000" cx="88" cy="-104" rx="63.7025" ry="18"/>
<text text-anchor="middle" x="88" y="-99.8" font-family="Times,serif" font-size="14.00" fill="#000000">RobotService</text>
</g>
<!-- RobotService&#45;&gt;RobotModule -->
<g id="edge38" class="edge">
<title>RobotService&#45;&gt;RobotModule</title>
<path fill="none" stroke="#000000" d="M88,-122.2228C88,-142.3652 88,-172 88,-172 88,-172 1844.8754,-172 1844.8754,-172"/>
<polygon fill="#000000" stroke="#000000" points="1844.8754,-175.5001 1854.8754,-172 1844.8754,-168.5001 1844.8754,-175.5001"/>
</g>
</g>
</svg>
