<?xml version="1.0" encoding="UTF-8" standalone="no"?>
<!DOCTYPE svg PUBLIC "-//W3C//DTD SVG 1.1//EN"
 "http://www.w3.org/Graphics/SVG/1.1/DTD/svg11.dtd">
<!-- Generated by graphviz version 2.40.1 (20161225.0304)
 -->
<!-- Title: dependencies Pages: 1 -->
<svg width="4072pt" height="284pt"
 viewBox="0.00 0.00 4072.00 284.00" xmlns="http://www.w3.org/2000/svg" xmlns:xlink="http://www.w3.org/1999/xlink">
<g id="graph0" class="graph" transform="scale(1 1) rotate(0) translate(4 280)">
<title>dependencies</title>
<polygon fill="#ffffff" stroke="transparent" points="-4,4 -4,-280 4068,-280 4068,4 -4,4"/>
<text text-anchor="start" x="2011.0091" y="-42.4" font-family="sans-serif" font-weight="bold" font-size="14.00" fill="#000000">Legend</text>
<polygon fill="#ffffb3" stroke="transparent" points="1798,-10 1798,-30 1818,-30 1818,-10 1798,-10"/>
<text text-anchor="start" x="1821.629" y="-15.4" font-family="sans-serif" font-size="14.00" fill="#000000"> &#160;Declarations</text>
<polygon fill="#8dd3c7" stroke="transparent" points="1911,-10 1911,-30 1931,-30 1931,-10 1911,-10"/>
<text text-anchor="start" x="1934.7251" y="-15.4" font-family="sans-serif" font-size="14.00" fill="#000000"> &#160;Module</text>
<polygon fill="#80b1d3" stroke="transparent" points="1997,-10 1997,-30 2017,-30 2017,-10 1997,-10"/>
<text text-anchor="start" x="2020.7812" y="-15.4" font-family="sans-serif" font-size="14.00" fill="#000000"> &#160;Bootstrap</text>
<polygon fill="#fdb462" stroke="transparent" points="2094,-10 2094,-30 2114,-30 2114,-10 2094,-10"/>
<text text-anchor="start" x="2117.6732" y="-15.4" font-family="sans-serif" font-size="14.00" fill="#000000"> &#160;Providers</text>
<polygon fill="#fb8072" stroke="transparent" points="2190,-10 2190,-30 2210,-30 2210,-10 2190,-10"/>
<text text-anchor="start" x="2213.7258" y="-15.4" font-family="sans-serif" font-size="14.00" fill="#000000"> &#160;Exports</text>
<g id="clust1" class="cluster">
<title>cluster_RobotModule</title>
<polygon fill="none" stroke="#000000" stroke-dasharray="1,5" points="8,-70 8,-268 4056,-268 4056,-70 8,-70"/>
</g>
<g id="clust2" class="cluster">
<title>cluster_RobotModule_declarations</title>
<polygon fill="none" stroke="#000000" points="1232,-78 1232,-130 4048,-130 4048,-78 1232,-78"/>
</g>
<g id="clust19" class="cluster">
<title>cluster_RobotModule_imports</title>
<polygon fill="none" stroke="#000000" points="764,-78 764,-130 1224,-130 1224,-78 764,-78"/>
</g>
<g id="clust20" class="cluster">
<title>cluster_RobotModule_exports</title>
<polygon fill="none" stroke="#000000" points="520,-208 520,-260 3392,-260 3392,-208 520,-208"/>
</g>
<g id="clust22" class="cluster">
<title>cluster_RobotModule_providers</title>
<polygon fill="none" stroke="#000000" points="16,-78 16,-130 756,-130 756,-78 16,-78"/>
</g>
<!-- CreateRobotComponent -->
<g id="node1" class="node">
<title>CreateRobotComponent</title>
<polygon fill="#ffffb3" stroke="#000000" points="4040.0912,-122 3887.9088,-122 3887.9088,-86 4040.0912,-86 4040.0912,-122"/>
<text text-anchor="middle" x="3964" y="-99.8" font-family="Times,serif" font-size="14.00" fill="#000000">CreateRobotComponent</text>
</g>
<!-- RobotModule -->
<g id="node17" class="node">
<title>RobotModule</title>
<polygon fill="#8dd3c7" stroke="#000000" points="2042.7773,-187 2039.7773,-191 2018.7773,-191 2015.7773,-187 1949.2227,-187 1949.2227,-151 2042.7773,-151 2042.7773,-187"/>
<text text-anchor="middle" x="1996" y="-164.8" font-family="Times,serif" font-size="14.00" fill="#000000">RobotModule</text>
</g>
<!-- CreateRobotComponent&#45;&gt;RobotModule -->
<g id="edge1" class="edge">
<title>CreateRobotComponent&#45;&gt;RobotModule</title>
<path fill="none" stroke="#000000" d="M3964,-122.2228C3964,-142.3652 3964,-172 3964,-172 3964,-172 2053.1882,-172 2053.1882,-172"/>
<polygon fill="#000000" stroke="#000000" points="2053.1882,-168.5001 2043.1882,-172 2053.1882,-175.5001 2053.1882,-168.5001"/>
</g>
<!-- DeleteRobotComponent -->
<g id="node2" class="node">
<title>DeleteRobotComponent</title>
<polygon fill="#ffffb3" stroke="#000000" points="3870.0912,-122 3717.9088,-122 3717.9088,-86 3870.0912,-86 3870.0912,-122"/>
<text text-anchor="middle" x="3794" y="-99.8" font-family="Times,serif" font-size="14.00" fill="#000000">DeleteRobotComponent</text>
</g>
<!-- DeleteRobotComponent&#45;&gt;RobotModule -->
<g id="edge2" class="edge">
<title>DeleteRobotComponent&#45;&gt;RobotModule</title>
<path fill="none" stroke="#000000" d="M3794,-122.0348C3794,-141.5762 3794,-170 3794,-170 3794,-170 2053.1679,-170 2053.1679,-170"/>
<polygon fill="#000000" stroke="#000000" points="2053.168,-166.5001 2043.1679,-170 2053.1679,-173.5001 2053.168,-166.5001"/>
</g>
<!-- ExchangePairComponent -->
<g id="node3" class="node">
<title>ExchangePairComponent</title>
<polygon fill="#ffffb3" stroke="#000000" points="3699.5772,-122 3540.4228,-122 3540.4228,-86 3699.5772,-86 3699.5772,-122"/>
<text text-anchor="middle" x="3620" y="-99.8" font-family="Times,serif" font-size="14.00" fill="#000000">ExchangePairComponent</text>
</g>
<!-- ExchangePairComponent&#45;&gt;RobotModule -->
<g id="edge3" class="edge">
<title>ExchangePairComponent&#45;&gt;RobotModule</title>
<path fill="none" stroke="#000000" d="M3620,-122.1061C3620,-141.3391 3620,-169 3620,-169 3620,-169 2052.8518,-169 2052.8518,-169"/>
<polygon fill="#000000" stroke="#000000" points="2052.8518,-165.5001 2042.8518,-169 2052.8517,-172.5001 2052.8518,-165.5001"/>
</g>
<!-- FuturesResultPipe -->
<g id="node4" class="node">
<title>FuturesResultPipe</title>
<polygon fill="#ffffb3" stroke="#000000" points="3522.1583,-122 3403.8417,-122 3403.8417,-86 3522.1583,-86 3522.1583,-122"/>
<text text-anchor="middle" x="3463" y="-99.8" font-family="Times,serif" font-size="14.00" fill="#000000">FuturesResultPipe</text>
</g>
<!-- FuturesResultPipe&#45;&gt;RobotModule -->
<g id="edge4" class="edge">
<title>FuturesResultPipe&#45;&gt;RobotModule</title>
<path fill="none" stroke="#000000" d="M3463,-122.2222C3463,-140.8285 3463,-167 3463,-167 3463,-167 2053.1482,-167 2053.1482,-167"/>
<polygon fill="#000000" stroke="#000000" points="2053.1482,-163.5001 2043.1482,-167 2053.1482,-170.5001 2053.1482,-163.5001"/>
</g>
<!-- OptimizeFilterDesPipe -->
<g id="node5" class="node">
<title>OptimizeFilterDesPipe</title>
<polygon fill="#ffffb3" stroke="#000000" points="3385.5814,-122 3240.4186,-122 3240.4186,-86 3385.5814,-86 3385.5814,-122"/>
<text text-anchor="middle" x="3313" y="-99.8" font-family="Times,serif" font-size="14.00" fill="#000000">OptimizeFilterDesPipe</text>
</g>
<!-- OptimizeFilterDesPipe&#45;&gt;RobotModule -->
<g id="edge5" class="edge">
<title>OptimizeFilterDesPipe&#45;&gt;RobotModule</title>
<path fill="none" stroke="#000000" d="M3312.1275,-122.302C3312.1275,-140.2699 3312.1275,-165 3312.1275,-165 3312.1275,-165 2052.8417,-165 2052.8417,-165"/>
<polygon fill="#000000" stroke="#000000" points="2052.8417,-161.5001 2042.8417,-165 2052.8416,-168.5001 2052.8417,-161.5001"/>
</g>
<!-- RobotCommandComponent -->
<g id="node6" class="node">
<title>RobotCommandComponent</title>
<polygon fill="#ffffb3" stroke="#000000" points="3222.892,-122 3049.108,-122 3049.108,-86 3222.892,-86 3222.892,-122"/>
<text text-anchor="middle" x="3136" y="-99.8" font-family="Times,serif" font-size="14.00" fill="#000000">RobotCommandComponent</text>
</g>
<!-- RobotCommandComponent&#45;&gt;RobotModule -->
<g id="edge6" class="edge">
<title>RobotCommandComponent&#45;&gt;RobotModule</title>
<path fill="none" stroke="#000000" d="M3106.0681,-122.0225C3106.0681,-139.3734 3106.0681,-163 3106.0681,-163 3106.0681,-163 2052.9892,-163 2052.9892,-163"/>
<polygon fill="#000000" stroke="#000000" points="2052.9893,-159.5001 2042.9892,-163 2052.9892,-166.5001 2052.9893,-159.5001"/>
</g>
<!-- RobotConfigComponent -->
<g id="node7" class="node">
<title>RobotConfigComponent</title>
<polygon fill="#ffffb3" stroke="#000000" points="3031.448,-122 2876.552,-122 2876.552,-86 3031.448,-86 3031.448,-122"/>
<text text-anchor="middle" x="2954" y="-99.8" font-family="Times,serif" font-size="14.00" fill="#000000">RobotConfigComponent</text>
</g>
<!-- RobotConfigComponent&#45;&gt;RobotModule -->
<g id="edge7" class="edge">
<title>RobotConfigComponent&#45;&gt;RobotModule</title>
<path fill="none" stroke="#000000" d="M2979.7412,-122.0352C2979.7412,-138.7344 2979.7412,-161 2979.7412,-161 2979.7412,-161 2052.7861,-161 2052.7861,-161"/>
<polygon fill="#000000" stroke="#000000" points="2052.7861,-157.5001 2042.7861,-161 2052.786,-164.5001 2052.7861,-157.5001"/>
</g>
<!-- RobotDebuggerComponent -->
<g id="node8" class="node">
<title>RobotDebuggerComponent</title>
<polygon fill="#ffffb3" stroke="#000000" points="2858.2562,-122 2687.7438,-122 2687.7438,-86 2858.2562,-86 2858.2562,-122"/>
<text text-anchor="middle" x="2773" y="-99.8" font-family="Times,serif" font-size="14.00" fill="#000000">RobotDebuggerComponent</text>
</g>
<!-- RobotDebuggerComponent&#45;&gt;RobotModule -->
<g id="edge8" class="edge">
<title>RobotDebuggerComponent&#45;&gt;RobotModule</title>
<path fill="none" stroke="#000000" d="M2701.9564,-122.0091C2701.9564,-138.0494 2701.9564,-159 2701.9564,-159 2701.9564,-159 2052.8665,-159 2052.8665,-159"/>
<polygon fill="#000000" stroke="#000000" points="2052.8665,-155.5001 2042.8665,-159 2052.8665,-162.5001 2052.8665,-155.5001"/>
</g>
<!-- RobotDurationComponent -->
<g id="node9" class="node">
<title>RobotDurationComponent</title>
<polygon fill="#ffffb3" stroke="#000000" points="2669.8229,-122 2504.1771,-122 2504.1771,-86 2669.8229,-86 2669.8229,-122"/>
<text text-anchor="middle" x="2587" y="-99.8" font-family="Times,serif" font-size="14.00" fill="#000000">RobotDurationComponent</text>
</g>
<!-- RobotDurationComponent&#45;&gt;RobotModule -->
<g id="edge9" class="edge">
<title>RobotDurationComponent&#45;&gt;RobotModule</title>
<path fill="none" stroke="#000000" d="M2527.0174,-122.2396C2527.0174,-137.5706 2527.0174,-157 2527.0174,-157 2527.0174,-157 2053.1242,-157 2053.1242,-157"/>
<polygon fill="#000000" stroke="#000000" points="2053.1243,-153.5001 2043.1242,-157 2053.1242,-160.5001 2053.1243,-153.5001"/>
</g>
<!-- RobotListComponent -->
<g id="node10" class="node">
<title>RobotListComponent</title>
<polygon fill="#ffffb3" stroke="#000000" points="2486.8384,-122 2349.1616,-122 2349.1616,-86 2486.8384,-86 2486.8384,-122"/>
<text text-anchor="middle" x="2418" y="-99.8" font-family="Times,serif" font-size="14.00" fill="#000000">RobotListComponent</text>
</g>
<!-- RobotListComponent&#45;&gt;RobotModule -->
<g id="edge10" class="edge">
<title>RobotListComponent&#45;&gt;RobotModule</title>
<path fill="none" stroke="#000000" d="M2363.1389,-122.1243C2363.1389,-136.7832 2363.1389,-155 2363.1389,-155 2363.1389,-155 2052.8713,-155 2052.8713,-155"/>
<polygon fill="#000000" stroke="#000000" points="2052.8713,-151.5001 2042.8713,-155 2052.8713,-158.5001 2052.8713,-151.5001"/>
</g>
<!-- RobotLogComponent -->
<g id="node11" class="node">
<title>RobotLogComponent</title>
<polygon fill="#ffffb3" stroke="#000000" points="2331.1122,-122 2192.8878,-122 2192.8878,-86 2331.1122,-86 2331.1122,-122"/>
<text text-anchor="middle" x="2262" y="-99.8" font-family="Times,serif" font-size="14.00" fill="#000000">RobotLogComponent</text>
</g>
<!-- RobotLogComponent&#45;&gt;RobotModule -->
<g id="edge11" class="edge">
<title>RobotLogComponent&#45;&gt;RobotModule</title>
<path fill="none" stroke="#000000" d="M2286.0462,-122.2458C2286.0462,-136.1772 2286.0462,-153 2286.0462,-153 2286.0462,-153 2052.9233,-153 2052.9233,-153"/>
<polygon fill="#000000" stroke="#000000" points="2052.9233,-149.5001 2042.9233,-153 2052.9233,-156.5001 2052.9233,-149.5001"/>
</g>
<!-- RobotLogTableComponent -->
<g id="node12" class="node">
<title>RobotLogTableComponent</title>
<polygon fill="#ffffb3" stroke="#000000" points="2174.9846,-122 2005.0154,-122 2005.0154,-86 2174.9846,-86 2174.9846,-122"/>
<text text-anchor="middle" x="2090" y="-99.8" font-family="Times,serif" font-size="14.00" fill="#000000">RobotLogTableComponent</text>
</g>
<!-- RobotLogTableComponent&#45;&gt;RobotModule -->
<g id="edge12" class="edge">
<title>RobotLogTableComponent&#45;&gt;RobotModule</title>
<path fill="none" stroke="#000000" d="M2023.9481,-122.1061C2023.9481,-122.1061 2023.9481,-140.991 2023.9481,-140.991"/>
<polygon fill="#000000" stroke="#000000" points="2020.4482,-140.9909 2023.9481,-150.991 2027.4482,-140.991 2020.4482,-140.9909"/>
</g>
<!-- RobotOverviewComponent -->
<g id="node13" class="node">
<title>RobotOverviewComponent</title>
<polygon fill="#ffffb3" stroke="#000000" points="1987.2534,-122 1816.7466,-122 1816.7466,-86 1987.2534,-86 1987.2534,-122"/>
<text text-anchor="middle" x="1902" y="-99.8" font-family="Times,serif" font-size="14.00" fill="#000000">RobotOverviewComponent</text>
</g>
<!-- RobotOverviewComponent&#45;&gt;RobotModule -->
<g id="edge13" class="edge">
<title>RobotOverviewComponent&#45;&gt;RobotModule</title>
<path fill="none" stroke="#000000" d="M1968.2441,-122.1061C1968.2441,-122.1061 1968.2441,-140.991 1968.2441,-140.991"/>
<polygon fill="#000000" stroke="#000000" points="1964.7441,-140.9909 1968.2441,-150.991 1971.7441,-140.991 1964.7441,-140.9909"/>
</g>
<!-- RobotProfitChartComponent -->
<g id="node14" class="node">
<title>RobotProfitChartComponent</title>
<polygon fill="#ffffb3" stroke="#000000" points="1798.0476,-122 1619.9524,-122 1619.9524,-86 1798.0476,-86 1798.0476,-122"/>
<text text-anchor="middle" x="1709" y="-99.8" font-family="Times,serif" font-size="14.00" fill="#000000">RobotProfitChartComponent</text>
</g>
<!-- RobotProfitChartComponent&#45;&gt;RobotModule -->
<g id="edge14" class="edge">
<title>RobotProfitChartComponent&#45;&gt;RobotModule</title>
<path fill="none" stroke="#000000" d="M1704.4785,-122.2458C1704.4785,-136.1772 1704.4785,-153 1704.4785,-153 1704.4785,-153 1939.162,-153 1939.162,-153"/>
<polygon fill="#000000" stroke="#000000" points="1939.1621,-156.5001 1949.162,-153 1939.162,-149.5001 1939.1621,-156.5001"/>
</g>
<!-- RobotStatusComponent -->
<g id="node15" class="node">
<title>RobotStatusComponent</title>
<polygon fill="#ffffb3" stroke="#000000" points="1601.7828,-122 1452.2172,-122 1452.2172,-86 1601.7828,-86 1601.7828,-122"/>
<text text-anchor="middle" x="1527" y="-99.8" font-family="Times,serif" font-size="14.00" fill="#000000">RobotStatusComponent</text>
</g>
<!-- RobotStatusComponent&#45;&gt;RobotModule -->
<g id="edge15" class="edge">
<title>RobotStatusComponent&#45;&gt;RobotModule</title>
<path fill="none" stroke="#000000" d="M1550.0426,-122.1243C1550.0426,-136.7832 1550.0426,-155 1550.0426,-155 1550.0426,-155 1939.1176,-155 1939.1176,-155"/>
<polygon fill="#000000" stroke="#000000" points="1939.1177,-158.5001 1949.1176,-155 1939.1176,-151.5001 1939.1177,-158.5001"/>
</g>
<!-- RobotStrategyChartComponent -->
<g id="node16" class="node">
<title>RobotStrategyChartComponent</title>
<polygon fill="#ffffb3" stroke="#000000" points="1433.8159,-122 1240.1841,-122 1240.1841,-86 1433.8159,-86 1433.8159,-122"/>
<text text-anchor="middle" x="1337" y="-99.8" font-family="Times,serif" font-size="14.00" fill="#000000">RobotStrategyChartComponent</text>
</g>
<!-- RobotStrategyChartComponent&#45;&gt;RobotModule -->
<g id="edge16" class="edge">
<title>RobotStrategyChartComponent&#45;&gt;RobotModule</title>
<path fill="none" stroke="#000000" d="M1369.9578,-122.2396C1369.9578,-137.5706 1369.9578,-157 1369.9578,-157 1369.9578,-157 1939.2011,-157 1939.2011,-157"/>
<polygon fill="#000000" stroke="#000000" points="1939.2011,-160.5001 1949.2011,-157 1939.2011,-153.5001 1939.2011,-160.5001"/>
</g>
<!-- CreateRobotComponent  -->
<g id="node22" class="node">
<title>CreateRobotComponent </title>
<polygon fill="#fb8072" stroke="#000000" points="3383.5917,-252 3228.4083,-252 3228.4083,-216 3383.5917,-216 3383.5917,-252"/>
<text text-anchor="middle" x="3306" y="-229.8" font-family="Times,serif" font-size="14.00" fill="#000000">CreateRobotComponent </text>
</g>
<!-- RobotModule&#45;&gt;CreateRobotComponent  -->
<g id="edge21" class="edge">
<title>RobotModule&#45;&gt;CreateRobotComponent </title>
<path fill="none" stroke="#000000" stroke-dasharray="5,2" d="M2043.0319,-174C2269.2281,-174 3234.3319,-174 3234.3319,-174 3234.3319,-174 3234.3319,-205.998 3234.3319,-205.998"/>
<polygon fill="#000000" stroke="#000000" points="3230.8319,-205.998 3234.3319,-215.998 3237.8319,-205.9981 3230.8319,-205.998"/>
</g>
<!-- DeleteRobotComponent  -->
<g id="node23" class="node">
<title>DeleteRobotComponent </title>
<polygon fill="#fb8072" stroke="#000000" points="3209.5917,-252 3054.4083,-252 3054.4083,-216 3209.5917,-216 3209.5917,-252"/>
<text text-anchor="middle" x="3132" y="-229.8" font-family="Times,serif" font-size="14.00" fill="#000000">DeleteRobotComponent </text>
</g>
<!-- RobotModule&#45;&gt;DeleteRobotComponent  -->
<g id="edge22" class="edge">
<title>RobotModule&#45;&gt;DeleteRobotComponent </title>
<path fill="none" stroke="#000000" stroke-dasharray="5,2" d="M2042.9882,-176C2260.3672,-176 3157.9319,-176 3157.9319,-176 3157.9319,-176 3157.9319,-205.9664 3157.9319,-205.9664"/>
<polygon fill="#000000" stroke="#000000" points="3154.432,-205.9663 3157.9319,-215.9664 3161.432,-205.9664 3154.432,-205.9663"/>
</g>
<!-- ExchangePairComponent  -->
<g id="node24" class="node">
<title>ExchangePairComponent </title>
<polygon fill="#fb8072" stroke="#000000" points="3036.0777,-252 2873.9223,-252 2873.9223,-216 3036.0777,-216 3036.0777,-252"/>
<text text-anchor="middle" x="2955" y="-229.8" font-family="Times,serif" font-size="14.00" fill="#000000">ExchangePairComponent </text>
</g>
<!-- RobotModule&#45;&gt;ExchangePairComponent  -->
<g id="edge23" class="edge">
<title>RobotModule&#45;&gt;ExchangePairComponent </title>
<path fill="none" stroke="#000000" stroke-dasharray="5,2" d="M2042.8697,-178C2231.9159,-178 2928.2588,-178 2928.2588,-178 2928.2588,-178 2928.2588,-205.973 2928.2588,-205.973"/>
<polygon fill="#000000" stroke="#000000" points="2924.7589,-205.973 2928.2588,-215.973 2931.7589,-205.973 2924.7589,-205.973"/>
</g>
<!-- FuturesResultPipe  -->
<g id="node25" class="node">
<title>FuturesResultPipe </title>
<polygon fill="#fb8072" stroke="#000000" points="2856.1579,-252 2733.8421,-252 2733.8421,-216 2856.1579,-216 2856.1579,-252"/>
<text text-anchor="middle" x="2795" y="-229.8" font-family="Times,serif" font-size="14.00" fill="#000000">FuturesResultPipe </text>
</g>
<!-- RobotModule&#45;&gt;FuturesResultPipe  -->
<g id="edge24" class="edge">
<title>RobotModule&#45;&gt;FuturesResultPipe </title>
<path fill="none" stroke="#000000" stroke-dasharray="5,2" d="M2042.9981,-180C2214.2685,-180 2795,-180 2795,-180 2795,-180 2795,-205.7181 2795,-205.7181"/>
<polygon fill="#000000" stroke="#000000" points="2791.5001,-205.718 2795,-215.7181 2798.5001,-205.7181 2791.5001,-205.718"/>
</g>
<!-- OptimizeFilterDesPipe  -->
<g id="node26" class="node">
<title>OptimizeFilterDesPipe </title>
<polygon fill="#fb8072" stroke="#000000" points="2716.082,-252 2567.918,-252 2567.918,-216 2716.082,-216 2716.082,-252"/>
<text text-anchor="middle" x="2642" y="-229.8" font-family="Times,serif" font-size="14.00" fill="#000000">OptimizeFilterDesPipe </text>
</g>
<!-- RobotModule&#45;&gt;OptimizeFilterDesPipe  -->
<g id="edge25" class="edge">
<title>RobotModule&#45;&gt;OptimizeFilterDesPipe </title>
<path fill="none" stroke="#000000" stroke-dasharray="5,2" d="M2042.8026,-182C2187.6152,-182 2618.6853,-182 2618.6853,-182 2618.6853,-182 2618.6853,-205.8129 2618.6853,-205.8129"/>
<polygon fill="#000000" stroke="#000000" points="2615.1854,-205.8129 2618.6853,-215.8129 2622.1854,-205.813 2615.1854,-205.8129"/>
</g>
<!-- RobotCommandComponent  -->
<g id="node27" class="node">
<title>RobotCommandComponent </title>
<polygon fill="#fb8072" stroke="#000000" points="2549.8924,-252 2372.1076,-252 2372.1076,-216 2549.8924,-216 2549.8924,-252"/>
<text text-anchor="middle" x="2461" y="-229.8" font-family="Times,serif" font-size="14.00" fill="#000000">RobotCommandComponent </text>
</g>
<!-- RobotModule&#45;&gt;RobotCommandComponent  -->
<g id="edge26" class="edge">
<title>RobotModule&#45;&gt;RobotCommandComponent </title>
<path fill="none" stroke="#000000" stroke-dasharray="5,2" d="M2042.8025,-184C2154.8926,-184 2429.4865,-184 2429.4865,-184 2429.4865,-184 2429.4865,-205.9489 2429.4865,-205.9489"/>
<polygon fill="#000000" stroke="#000000" points="2425.9866,-205.9488 2429.4865,-215.9489 2432.9866,-205.9489 2425.9866,-205.9488"/>
</g>
<!-- RobotConfigComponent  -->
<g id="node28" class="node">
<title>RobotConfigComponent </title>
<polygon fill="#fb8072" stroke="#000000" points="2353.9474,-252 2196.0526,-252 2196.0526,-216 2353.9474,-216 2353.9474,-252"/>
<text text-anchor="middle" x="2275" y="-229.8" font-family="Times,serif" font-size="14.00" fill="#000000">RobotConfigComponent </text>
</g>
<!-- RobotModule&#45;&gt;RobotConfigComponent  -->
<g id="edge27" class="edge">
<title>RobotModule&#45;&gt;RobotConfigComponent </title>
<path fill="none" stroke="#000000" stroke-dasharray="5,2" d="M2042.9555,-186C2114.1059,-186 2241.0362,-186 2241.0362,-186 2241.0362,-186 2241.0362,-205.8533 2241.0362,-205.8533"/>
<polygon fill="#000000" stroke="#000000" points="2237.5363,-205.8532 2241.0362,-215.8533 2244.5363,-205.8533 2237.5363,-205.8532"/>
</g>
<!-- RobotDebuggerComponent  -->
<g id="node29" class="node">
<title>RobotDebuggerComponent </title>
<polygon fill="#fb8072" stroke="#000000" points="2178.2562,-252 2003.7438,-252 2003.7438,-216 2178.2562,-216 2178.2562,-252"/>
<text text-anchor="middle" x="2091" y="-229.8" font-family="Times,serif" font-size="14.00" fill="#000000">RobotDebuggerComponent </text>
</g>
<!-- RobotModule&#45;&gt;RobotDebuggerComponent  -->
<g id="edge28" class="edge">
<title>RobotModule&#45;&gt;RobotDebuggerComponent </title>
<path fill="none" stroke="#000000" stroke-dasharray="5,2" d="M2023.3803,-187.1061C2023.3803,-187.1061 2023.3803,-205.991 2023.3803,-205.991"/>
<polygon fill="#000000" stroke="#000000" points="2019.8803,-205.9909 2023.3803,-215.991 2026.8803,-205.991 2019.8803,-205.9909"/>
</g>
<!-- RobotDurationComponent  -->
<g id="node30" class="node">
<title>RobotDurationComponent </title>
<polygon fill="#fb8072" stroke="#000000" points="1985.3227,-252 1816.6773,-252 1816.6773,-216 1985.3227,-216 1985.3227,-252"/>
<text text-anchor="middle" x="1901" y="-229.8" font-family="Times,serif" font-size="14.00" fill="#000000">RobotDurationComponent </text>
</g>
<!-- RobotModule&#45;&gt;RobotDurationComponent  -->
<g id="edge29" class="edge">
<title>RobotModule&#45;&gt;RobotDurationComponent </title>
<path fill="none" stroke="#000000" stroke-dasharray="5,2" d="M1967.2614,-187.1061C1967.2614,-187.1061 1967.2614,-205.991 1967.2614,-205.991"/>
<polygon fill="#000000" stroke="#000000" points="1963.7615,-205.9909 1967.2614,-215.991 1970.7615,-205.991 1963.7615,-205.9909"/>
</g>
<!-- RobotListComponent  -->
<g id="node31" class="node">
<title>RobotListComponent </title>
<polygon fill="#fb8072" stroke="#000000" points="1798.3381,-252 1657.6619,-252 1657.6619,-216 1798.3381,-216 1798.3381,-252"/>
<text text-anchor="middle" x="1728" y="-229.8" font-family="Times,serif" font-size="14.00" fill="#000000">RobotListComponent </text>
</g>
<!-- RobotModule&#45;&gt;RobotListComponent  -->
<g id="edge30" class="edge">
<title>RobotModule&#45;&gt;RobotListComponent </title>
<path fill="none" stroke="#000000" stroke-dasharray="5,2" d="M1949.1235,-186C1878.0928,-186 1751.376,-186 1751.376,-186 1751.376,-186 1751.376,-205.8533 1751.376,-205.8533"/>
<polygon fill="#000000" stroke="#000000" points="1747.8761,-205.8532 1751.376,-215.8533 1754.8761,-205.8533 1747.8761,-205.8532"/>
</g>
<!-- RobotLogComponent  -->
<g id="node32" class="node">
<title>RobotLogComponent </title>
<polygon fill="#fb8072" stroke="#000000" points="1639.6127,-252 1498.3873,-252 1498.3873,-216 1639.6127,-216 1639.6127,-252"/>
<text text-anchor="middle" x="1569" y="-229.8" font-family="Times,serif" font-size="14.00" fill="#000000">RobotLogComponent </text>
</g>
<!-- RobotModule&#45;&gt;RobotLogComponent  -->
<g id="edge31" class="edge">
<title>RobotModule&#45;&gt;RobotLogComponent </title>
<path fill="none" stroke="#000000" stroke-dasharray="5,2" d="M1948.8711,-184C1849.9572,-184 1629.7663,-184 1629.7663,-184 1629.7663,-184 1629.7663,-205.9489 1629.7663,-205.9489"/>
<polygon fill="#000000" stroke="#000000" points="1626.2664,-205.9488 1629.7663,-215.9489 1633.2664,-205.9489 1626.2664,-205.9488"/>
</g>
<!-- RobotLogTableComponent  -->
<g id="node33" class="node">
<title>RobotLogTableComponent </title>
<polygon fill="#fb8072" stroke="#000000" points="1479.9853,-252 1306.0147,-252 1306.0147,-216 1479.9853,-216 1479.9853,-252"/>
<text text-anchor="middle" x="1393" y="-229.8" font-family="Times,serif" font-size="14.00" fill="#000000">RobotLogTableComponent </text>
</g>
<!-- RobotModule&#45;&gt;RobotLogTableComponent  -->
<g id="edge32" class="edge">
<title>RobotModule&#45;&gt;RobotLogTableComponent </title>
<path fill="none" stroke="#000000" stroke-dasharray="5,2" d="M1948.9594,-182C1819.2303,-182 1465.9255,-182 1465.9255,-182 1465.9255,-182 1465.9255,-205.8129 1465.9255,-205.8129"/>
<polygon fill="#000000" stroke="#000000" points="1462.4256,-205.8129 1465.9255,-215.8129 1469.4256,-205.813 1462.4256,-205.8129"/>
</g>
<!-- RobotOverviewComponent  -->
<g id="node34" class="node">
<title>RobotOverviewComponent </title>
<polygon fill="#fb8072" stroke="#000000" points="1288.2534,-252 1113.7466,-252 1113.7466,-216 1288.2534,-216 1288.2534,-252"/>
<text text-anchor="middle" x="1201" y="-229.8" font-family="Times,serif" font-size="14.00" fill="#000000">RobotOverviewComponent </text>
</g>
<!-- RobotModule&#45;&gt;RobotOverviewComponent  -->
<g id="edge33" class="edge">
<title>RobotModule&#45;&gt;RobotOverviewComponent </title>
<path fill="none" stroke="#000000" stroke-dasharray="5,2" d="M1949.1116,-180C1787.6032,-180 1264.2344,-180 1264.2344,-180 1264.2344,-180 1264.2344,-205.7181 1264.2344,-205.7181"/>
<polygon fill="#000000" stroke="#000000" points="1260.7345,-205.718 1264.2344,-215.7181 1267.7345,-205.7181 1260.7345,-205.718"/>
</g>
<!-- RobotProfitChartComponent  -->
<g id="node35" class="node">
<title>RobotProfitChartComponent </title>
<polygon fill="#fb8072" stroke="#000000" points="1096.047,-252 913.953,-252 913.953,-216 1096.047,-216 1096.047,-252"/>
<text text-anchor="middle" x="1005" y="-229.8" font-family="Times,serif" font-size="14.00" fill="#000000">RobotProfitChartComponent </text>
</g>
<!-- RobotModule&#45;&gt;RobotProfitChartComponent  -->
<g id="edge34" class="edge">
<title>RobotModule&#45;&gt;RobotProfitChartComponent </title>
<path fill="none" stroke="#000000" stroke-dasharray="5,2" d="M1949.172,-178C1756.0924,-178 1031.8671,-178 1031.8671,-178 1031.8671,-178 1031.8671,-205.973 1031.8671,-205.973"/>
<polygon fill="#000000" stroke="#000000" points="1028.3672,-205.973 1031.8671,-215.973 1035.3672,-205.973 1028.3672,-205.973"/>
</g>
<!-- RobotStatusComponent  -->
<g id="node36" class="node">
<title>RobotStatusComponent </title>
<polygon fill="#fb8072" stroke="#000000" points="895.7829,-252 742.2171,-252 742.2171,-216 895.7829,-216 895.7829,-252"/>
<text text-anchor="middle" x="819" y="-229.8" font-family="Times,serif" font-size="14.00" fill="#000000">RobotStatusComponent </text>
</g>
<!-- RobotModule&#45;&gt;RobotStatusComponent  -->
<g id="edge35" class="edge">
<title>RobotModule&#45;&gt;RobotStatusComponent </title>
<path fill="none" stroke="#000000" stroke-dasharray="5,2" d="M1949.0039,-176C1737.6882,-176 885.7698,-176 885.7698,-176 885.7698,-176 885.7698,-205.9664 885.7698,-205.9664"/>
<polygon fill="#000000" stroke="#000000" points="882.2699,-205.9663 885.7698,-215.9664 889.2699,-205.9664 882.2699,-205.9663"/>
</g>
<!-- RobotStrategyChartComponent  -->
<g id="node37" class="node">
<title>RobotStrategyChartComponent </title>
<polygon fill="#fb8072" stroke="#000000" points="724.3157,-252 527.6843,-252 527.6843,-216 724.3157,-216 724.3157,-252"/>
<text text-anchor="middle" x="626" y="-229.8" font-family="Times,serif" font-size="14.00" fill="#000000">RobotStrategyChartComponent </text>
</g>
<!-- RobotModule&#45;&gt;RobotStrategyChartComponent  -->
<g id="edge36" class="edge">
<title>RobotModule&#45;&gt;RobotStrategyChartComponent </title>
<path fill="none" stroke="#000000" stroke-dasharray="5,2" d="M1948.8684,-174C1709.3353,-174 638.2357,-174 638.2357,-174 638.2357,-174 638.2357,-205.998 638.2357,-205.998"/>
<polygon fill="#000000" stroke="#000000" points="634.7358,-205.998 638.2357,-215.998 641.7358,-205.9981 634.7358,-205.998"/>
</g>
<!-- ChargeModule -->
<g id="node18" class="node">
<title>ChargeModule</title>
<polygon fill="#8dd3c7" stroke="#000000" points="1215.9762,-122 1212.9762,-126 1191.9762,-126 1188.9762,-122 1116.0238,-122 1116.0238,-86 1215.9762,-86 1215.9762,-122"/>
<text text-anchor="middle" x="1166" y="-99.8" font-family="Times,serif" font-size="14.00" fill="#000000">ChargeModule</text>
</g>
<!-- ChargeModule&#45;&gt;RobotModule -->
<g id="edge17" class="edge">
<title>ChargeModule&#45;&gt;RobotModule</title>
<path fill="none" stroke="#000000" d="M1166,-122.0091C1166,-138.0494 1166,-159 1166,-159 1166,-159 1938.9975,-159 1938.9975,-159"/>
<polygon fill="#000000" stroke="#000000" points="1938.9975,-162.5001 1948.9975,-159 1938.9974,-155.5001 1938.9975,-162.5001"/>
</g>
<!-- SharedModule -->
<g id="node19" class="node">
<title>SharedModule</title>
<polygon fill="#8dd3c7" stroke="#000000" points="1098.4231,-122 1095.4231,-126 1074.4231,-126 1071.4231,-122 999.5769,-122 999.5769,-86 1098.4231,-86 1098.4231,-122"/>
<text text-anchor="middle" x="1049" y="-99.8" font-family="Times,serif" font-size="14.00" fill="#000000">SharedModule</text>
</g>
<!-- SharedModule&#45;&gt;RobotModule -->
<g id="edge18" class="edge">
<title>SharedModule&#45;&gt;RobotModule</title>
<path fill="none" stroke="#000000" d="M1063.9453,-122.0352C1063.9453,-138.7344 1063.9453,-161 1063.9453,-161 1063.9453,-161 1939.1405,-161 1939.1405,-161"/>
<polygon fill="#000000" stroke="#000000" points="1939.1405,-164.5001 1949.1405,-161 1939.1405,-157.5001 1939.1405,-164.5001"/>
</g>
<!-- StrategyModule -->
<g id="node20" class="node">
<title>StrategyModule</title>
<polygon fill="#8dd3c7" stroke="#000000" points="982.2036,-122 979.2036,-126 958.2036,-126 955.2036,-122 875.7964,-122 875.7964,-86 982.2036,-86 982.2036,-122"/>
<text text-anchor="middle" x="929" y="-99.8" font-family="Times,serif" font-size="14.00" fill="#000000">StrategyModule</text>
</g>
<!-- StrategyModule&#45;&gt;RobotModule -->
<g id="edge19" class="edge">
<title>StrategyModule&#45;&gt;RobotModule</title>
<path fill="none" stroke="#000000" d="M948.0391,-122.0225C948.0391,-139.3734 948.0391,-163 948.0391,-163 948.0391,-163 1938.9354,-163 1938.9354,-163"/>
<polygon fill="#000000" stroke="#000000" points="1938.9355,-166.5001 1948.9354,-163 1938.9354,-159.5001 1938.9355,-166.5001"/>
</g>
<!-- ToolModule -->
<g id="node21" class="node">
<title>ToolModule</title>
<polygon fill="#8dd3c7" stroke="#000000" points="857.993,-122 854.993,-126 833.993,-126 830.993,-122 772.007,-122 772.007,-86 857.993,-86 857.993,-122"/>
<text text-anchor="middle" x="815" y="-99.8" font-family="Times,serif" font-size="14.00" fill="#000000">ToolModule</text>
</g>
<!-- ToolModule&#45;&gt;RobotModule -->
<g id="edge20" class="edge">
<title>ToolModule&#45;&gt;RobotModule</title>
<path fill="none" stroke="#000000" d="M815,-122.302C815,-140.2699 815,-165 815,-165 815,-165 1938.9746,-165 1938.9746,-165"/>
<polygon fill="#000000" stroke="#000000" points="1938.9746,-168.5001 1948.9746,-165 1938.9746,-161.5001 1938.9746,-168.5001"/>
</g>
<!-- RobotConstantService -->
<g id="node38" class="node">
<title>RobotConstantService</title>
<ellipse fill="#fdb462" stroke="#000000" cx="650" cy="-104" rx="97.873" ry="18"/>
<text text-anchor="middle" x="650" y="-99.8" font-family="Times,serif" font-size="14.00" fill="#000000">RobotConstantService</text>
</g>
<!-- RobotConstantService&#45;&gt;RobotModule -->
<g id="edge37" class="edge">
<title>RobotConstantService&#45;&gt;RobotModule</title>
<path fill="none" stroke="#000000" d="M733.3833,-113.5683C733.3833,-131.1924 733.3833,-167 733.3832,-167 733.3832,-167 1939.1875,-167 1939.1875,-167"/>
<polygon fill="#000000" stroke="#000000" points="1939.1876,-170.5001 1949.1875,-167 1939.1875,-163.5001 1939.1876,-170.5001"/>
</g>
<!-- RobotLogService -->
<g id="node39" class="node">
<title>RobotLogService</title>
<ellipse fill="#fdb462" stroke="#000000" cx="455" cy="-104" rx="79.3154" ry="18"/>
<text text-anchor="middle" x="455" y="-99.8" font-family="Times,serif" font-size="14.00" fill="#000000">RobotLogService</text>
</g>
<!-- RobotLogService&#45;&gt;RobotModule -->
<g id="edge38" class="edge">
<title>RobotLogService&#45;&gt;RobotModule</title>
<path fill="none" stroke="#000000" d="M451.7173,-122.1061C451.7173,-141.3391 451.7173,-169 451.7173,-169 451.7173,-169 1938.9395,-169 1938.9395,-169"/>
<polygon fill="#000000" stroke="#000000" points="1938.9395,-172.5001 1948.9395,-169 1938.9394,-165.5001 1938.9395,-172.5001"/>
</g>
<!-- RobotOperateService -->
<g id="node40" class="node">
<title>RobotOperateService</title>
<ellipse fill="#fdb462" stroke="#000000" cx="264" cy="-104" rx="94.3195" ry="18"/>
<text text-anchor="middle" x="264" y="-99.8" font-family="Times,serif" font-size="14.00" fill="#000000">RobotOperateService</text>
</g>
<!-- RobotOperateService&#45;&gt;RobotModule -->
<g id="edge39" class="edge">
<title>RobotOperateService&#45;&gt;RobotModule</title>
<path fill="none" stroke="#000000" d="M264,-122.0348C264,-141.5762 264,-170 264,-170 264,-170 1938.7749,-170 1938.7749,-170"/>
<polygon fill="#000000" stroke="#000000" points="1938.775,-173.5001 1948.7749,-170 1938.7749,-166.5001 1938.775,-173.5001"/>
</g>
<!-- RobotService -->
<g id="node41" class="node">
<title>RobotService</title>
<ellipse fill="#fdb462" stroke="#000000" cx="88" cy="-104" rx="63.7025" ry="18"/>
<text text-anchor="middle" x="88" y="-99.8" font-family="Times,serif" font-size="14.00" fill="#000000">RobotService</text>
</g>
<!-- RobotService&#45;&gt;RobotModule -->
<g id="edge40" class="edge">
<title>RobotService&#45;&gt;RobotModule</title>
<path fill="none" stroke="#000000" d="M88,-122.2228C88,-142.3652 88,-172 88,-172 88,-172 1938.8357,-172 1938.8357,-172"/>
<polygon fill="#000000" stroke="#000000" points="1938.8357,-175.5001 1948.8357,-172 1938.8357,-168.5001 1938.8357,-175.5001"/>
</g>
</g>
</svg>
