<?xml version="1.0" encoding="UTF-8" standalone="no"?>
<!DOCTYPE svg PUBLIC "-//W3C//DTD SVG 1.1//EN"
 "http://www.w3.org/Graphics/SVG/1.1/DTD/svg11.dtd">
<!-- Generated by graphviz version 2.40.1 (20161225.0304)
 -->
<!-- Title: dependencies Pages: 1 -->
<svg width="1644pt" height="284pt"
 viewBox="0.00 0.00 1644.00 284.00" xmlns="http://www.w3.org/2000/svg" xmlns:xlink="http://www.w3.org/1999/xlink">
<g id="graph0" class="graph" transform="scale(1 1) rotate(0) translate(4 280)">
<title>dependencies</title>
<polygon fill="#ffffff" stroke="transparent" points="-4,4 -4,-280 1640,-280 1640,4 -4,4"/>
<text text-anchor="start" x="797.0091" y="-42.4" font-family="sans-serif" font-weight="bold" font-size="14.00" fill="#000000">Legend</text>
<polygon fill="#ffffb3" stroke="transparent" points="584,-10 584,-30 604,-30 604,-10 584,-10"/>
<text text-anchor="start" x="607.629" y="-15.4" font-family="sans-serif" font-size="14.00" fill="#000000"> &#160;Declarations</text>
<polygon fill="#8dd3c7" stroke="transparent" points="697,-10 697,-30 717,-30 717,-10 697,-10"/>
<text text-anchor="start" x="720.7251" y="-15.4" font-family="sans-serif" font-size="14.00" fill="#000000"> &#160;Module</text>
<polygon fill="#80b1d3" stroke="transparent" points="783,-10 783,-30 803,-30 803,-10 783,-10"/>
<text text-anchor="start" x="806.7812" y="-15.4" font-family="sans-serif" font-size="14.00" fill="#000000"> &#160;Bootstrap</text>
<polygon fill="#fdb462" stroke="transparent" points="880,-10 880,-30 900,-30 900,-10 880,-10"/>
<text text-anchor="start" x="903.6732" y="-15.4" font-family="sans-serif" font-size="14.00" fill="#000000"> &#160;Providers</text>
<polygon fill="#fb8072" stroke="transparent" points="976,-10 976,-30 996,-30 996,-10 976,-10"/>
<text text-anchor="start" x="999.7258" y="-15.4" font-family="sans-serif" font-size="14.00" fill="#000000"> &#160;Exports</text>
<g id="clust1" class="cluster">
<title>cluster_ExchangeModule</title>
<polygon fill="none" stroke="#000000" stroke-dasharray="1,5" points="8,-70 8,-268 1628,-268 1628,-70 8,-70"/>
</g>
<g id="clust2" class="cluster">
<title>cluster_ExchangeModule_declarations</title>
<polygon fill="none" stroke="#000000" points="880,-78 880,-130 1620,-130 1620,-78 880,-78"/>
</g>
<g id="clust7" class="cluster">
<title>cluster_ExchangeModule_imports</title>
<polygon fill="none" stroke="#000000" points="654,-78 654,-130 872,-130 872,-78 654,-78"/>
</g>
<g id="clust8" class="cluster">
<title>cluster_ExchangeModule_exports</title>
<polygon fill="none" stroke="#000000" points="633,-208 633,-260 1005,-260 1005,-208 633,-208"/>
</g>
<g id="clust10" class="cluster">
<title>cluster_ExchangeModule_providers</title>
<polygon fill="none" stroke="#000000" points="16,-78 16,-130 646,-130 646,-78 16,-78"/>
</g>
<!-- CreateExchangeComponent -->
<g id="node1" class="node">
<title>CreateExchangeComponent</title>
<polygon fill="#ffffb3" stroke="#000000" points="1611.5604,-122 1438.4396,-122 1438.4396,-86 1611.5604,-86 1611.5604,-122"/>
<text text-anchor="middle" x="1525" y="-99.8" font-family="Times,serif" font-size="14.00" fill="#000000">CreateExchangeComponent</text>
</g>
<!-- ExchangeModule -->
<g id="node5" class="node">
<title>ExchangeModule</title>
<polygon fill="#8dd3c7" stroke="#000000" points="872.2465,-187 869.2465,-191 848.2465,-191 845.2465,-187 757.7535,-187 757.7535,-151 872.2465,-151 872.2465,-187"/>
<text text-anchor="middle" x="815" y="-164.8" font-family="Times,serif" font-size="14.00" fill="#000000">ExchangeModule</text>
</g>
<!-- CreateExchangeComponent&#45;&gt;ExchangeModule -->
<g id="edge1" class="edge">
<title>CreateExchangeComponent&#45;&gt;ExchangeModule</title>
<path fill="none" stroke="#000000" d="M1525,-122.2921C1525,-144.2057 1525,-178 1525,-178 1525,-178 882.5009,-178 882.5009,-178"/>
<polygon fill="#000000" stroke="#000000" points="882.5009,-174.5001 872.5009,-178 882.5008,-181.5001 882.5009,-174.5001"/>
</g>
<!-- ExchangeFormComponent -->
<g id="node2" class="node">
<title>ExchangeFormComponent</title>
<polygon fill="#ffffb3" stroke="#000000" points="1420.3627,-122 1253.6373,-122 1253.6373,-86 1420.3627,-86 1420.3627,-122"/>
<text text-anchor="middle" x="1337" y="-99.8" font-family="Times,serif" font-size="14.00" fill="#000000">ExchangeFormComponent</text>
</g>
<!-- ExchangeFormComponent&#45;&gt;ExchangeModule -->
<g id="edge2" class="edge">
<title>ExchangeFormComponent&#45;&gt;ExchangeModule</title>
<path fill="none" stroke="#000000" d="M1337,-122.1061C1337,-141.3391 1337,-169 1337,-169 1337,-169 882.3563,-169 882.3563,-169"/>
<polygon fill="#000000" stroke="#000000" points="882.3564,-165.5001 872.3563,-169 882.3563,-172.5001 882.3564,-165.5001"/>
</g>
<!-- ExchangeListComponent -->
<g id="node3" class="node">
<title>ExchangeListComponent</title>
<polygon fill="#ffffb3" stroke="#000000" points="1235.3075,-122 1076.6925,-122 1076.6925,-86 1235.3075,-86 1235.3075,-122"/>
<text text-anchor="middle" x="1156" y="-99.8" font-family="Times,serif" font-size="14.00" fill="#000000">ExchangeListComponent</text>
</g>
<!-- ExchangeListComponent&#45;&gt;ExchangeModule -->
<g id="edge3" class="edge">
<title>ExchangeListComponent&#45;&gt;ExchangeModule</title>
<path fill="none" stroke="#000000" d="M1156,-122.027C1156,-138.3976 1156,-160 1156,-160 1156,-160 882.4604,-160 882.4604,-160"/>
<polygon fill="#000000" stroke="#000000" points="882.4604,-156.5001 872.4604,-160 882.4604,-163.5001 882.4604,-156.5001"/>
</g>
<!-- ExchangeSelectComponent -->
<g id="node4" class="node">
<title>ExchangeSelectComponent</title>
<polygon fill="#ffffb3" stroke="#000000" points="1058.2366,-122 887.7634,-122 887.7634,-86 1058.2366,-86 1058.2366,-122"/>
<text text-anchor="middle" x="973" y="-99.8" font-family="Times,serif" font-size="14.00" fill="#000000">ExchangeSelectComponent</text>
</g>
<!-- ExchangeSelectComponent&#45;&gt;ExchangeModule -->
<g id="edge4" class="edge">
<title>ExchangeSelectComponent&#45;&gt;ExchangeModule</title>
<path fill="none" stroke="#000000" d="M887.4971,-104C876.1209,-104 868.2921,-104 868.2921,-104 868.2921,-104 868.2921,-140.8939 868.2921,-140.8939"/>
<polygon fill="#000000" stroke="#000000" points="864.7922,-140.8938 868.2921,-150.8939 871.7922,-140.8939 864.7922,-140.8938"/>
</g>
<!-- CreateExchangeComponent  -->
<g id="node8" class="node">
<title>CreateExchangeComponent </title>
<polygon fill="#fb8072" stroke="#000000" points="997.0609,-252 820.9391,-252 820.9391,-216 997.0609,-216 997.0609,-252"/>
<text text-anchor="middle" x="909" y="-229.8" font-family="Times,serif" font-size="14.00" fill="#000000">CreateExchangeComponent </text>
</g>
<!-- ExchangeModule&#45;&gt;CreateExchangeComponent  -->
<g id="edge7" class="edge">
<title>ExchangeModule&#45;&gt;CreateExchangeComponent </title>
<path fill="none" stroke="#000000" stroke-dasharray="5,2" d="M846.5465,-187.1061C846.5465,-187.1061 846.5465,-205.991 846.5465,-205.991"/>
<polygon fill="#000000" stroke="#000000" points="843.0465,-205.9909 846.5465,-215.991 850.0465,-205.991 843.0465,-205.9909"/>
</g>
<!-- ExchangeListComponent  -->
<g id="node9" class="node">
<title>ExchangeListComponent </title>
<polygon fill="#fb8072" stroke="#000000" points="802.8073,-252 641.1927,-252 641.1927,-216 802.8073,-216 802.8073,-252"/>
<text text-anchor="middle" x="722" y="-229.8" font-family="Times,serif" font-size="14.00" fill="#000000">ExchangeListComponent </text>
</g>
<!-- ExchangeModule&#45;&gt;ExchangeListComponent  -->
<g id="edge8" class="edge">
<title>ExchangeModule&#45;&gt;ExchangeListComponent </title>
<path fill="none" stroke="#000000" stroke-dasharray="5,2" d="M780.2652,-187.1061C780.2652,-187.1061 780.2652,-205.991 780.2652,-205.991"/>
<polygon fill="#000000" stroke="#000000" points="776.7653,-205.9909 780.2652,-215.991 783.7653,-205.991 776.7653,-205.9909"/>
</g>
<!-- SharedModule -->
<g id="node6" class="node">
<title>SharedModule</title>
<polygon fill="#8dd3c7" stroke="#000000" points="864.4231,-122 861.4231,-126 840.4231,-126 837.4231,-122 765.5769,-122 765.5769,-86 864.4231,-86 864.4231,-122"/>
<text text-anchor="middle" x="815" y="-99.8" font-family="Times,serif" font-size="14.00" fill="#000000">SharedModule</text>
</g>
<!-- SharedModule&#45;&gt;ExchangeModule -->
<g id="edge5" class="edge">
<title>SharedModule&#45;&gt;ExchangeModule</title>
<path fill="none" stroke="#000000" d="M815,-122.1061C815,-122.1061 815,-140.991 815,-140.991"/>
<polygon fill="#000000" stroke="#000000" points="811.5001,-140.9909 815,-150.991 818.5001,-140.991 811.5001,-140.9909"/>
</g>
<!-- ToolModule -->
<g id="node7" class="node">
<title>ToolModule</title>
<polygon fill="#8dd3c7" stroke="#000000" points="747.993,-122 744.993,-126 723.993,-126 720.993,-122 662.007,-122 662.007,-86 747.993,-86 747.993,-122"/>
<text text-anchor="middle" x="705" y="-99.8" font-family="Times,serif" font-size="14.00" fill="#000000">ToolModule</text>
</g>
<!-- ToolModule&#45;&gt;ExchangeModule -->
<g id="edge6" class="edge">
<title>ToolModule&#45;&gt;ExchangeModule</title>
<path fill="none" stroke="#000000" d="M748.2689,-104C756.0307,-104 761.7079,-104 761.7079,-104 761.7079,-104 761.7079,-140.8939 761.7079,-140.8939"/>
<polygon fill="#000000" stroke="#000000" points="758.208,-140.8938 761.7079,-150.8939 765.208,-140.8939 758.208,-140.8938"/>
</g>
<!-- ExchangeConstantService -->
<g id="node10" class="node">
<title>ExchangeConstantService</title>
<ellipse fill="#fdb462" stroke="#000000" cx="526" cy="-104" rx="112.3013" ry="18"/>
<text text-anchor="middle" x="526" y="-99.8" font-family="Times,serif" font-size="14.00" fill="#000000">ExchangeConstantService</text>
</g>
<!-- ExchangeConstantService&#45;&gt;ExchangeModule -->
<g id="edge9" class="edge">
<title>ExchangeConstantService&#45;&gt;ExchangeModule</title>
<path fill="none" stroke="#000000" d="M526,-122.027C526,-138.3976 526,-160 526,-160 526,-160 747.5574,-160 747.5574,-160"/>
<polygon fill="#000000" stroke="#000000" points="747.5574,-163.5001 757.5574,-160 747.5573,-156.5001 747.5574,-163.5001"/>
</g>
<!-- ExchangeFormService -->
<g id="node11" class="node">
<title>ExchangeFormService</title>
<ellipse fill="#fdb462" stroke="#000000" cx="297" cy="-104" rx="98.9781" ry="18"/>
<text text-anchor="middle" x="297" y="-99.8" font-family="Times,serif" font-size="14.00" fill="#000000">ExchangeFormService</text>
</g>
<!-- ExchangeFormService&#45;&gt;ExchangeModule -->
<g id="edge10" class="edge">
<title>ExchangeFormService&#45;&gt;ExchangeModule</title>
<path fill="none" stroke="#000000" d="M297,-122.1061C297,-141.3391 297,-169 297,-169 297,-169 747.5858,-169 747.5858,-169"/>
<polygon fill="#000000" stroke="#000000" points="747.5858,-172.5001 757.5858,-169 747.5857,-165.5001 747.5858,-172.5001"/>
</g>
<!-- ExchangeService -->
<g id="node12" class="node">
<title>ExchangeService</title>
<ellipse fill="#fdb462" stroke="#000000" cx="102" cy="-104" rx="78.1308" ry="18"/>
<text text-anchor="middle" x="102" y="-99.8" font-family="Times,serif" font-size="14.00" fill="#000000">ExchangeService</text>
</g>
<!-- ExchangeService&#45;&gt;ExchangeModule -->
<g id="edge11" class="edge">
<title>ExchangeService&#45;&gt;ExchangeModule</title>
<path fill="none" stroke="#000000" d="M102,-122.2921C102,-144.2057 102,-178 102,-178 102,-178 747.5572,-178 747.5572,-178"/>
<polygon fill="#000000" stroke="#000000" points="747.5572,-181.5001 757.5572,-178 747.5571,-174.5001 747.5572,-181.5001"/>
</g>
</g>
</svg>
