<?xml version="1.0" encoding="UTF-8" standalone="no"?>
<!DOCTYPE svg PUBLIC "-//W3C//DTD SVG 1.1//EN"
 "http://www.w3.org/Graphics/SVG/1.1/DTD/svg11.dtd">
<!-- Generated by graphviz version 2.40.1 (20161225.0304)
 -->
<!-- Title: dependencies Pages: 1 -->
<svg width="2105pt" height="284pt"
 viewBox="0.00 0.00 2105.00 284.00" xmlns="http://www.w3.org/2000/svg" xmlns:xlink="http://www.w3.org/1999/xlink">
<g id="graph0" class="graph" transform="scale(1 1) rotate(0) translate(4 280)">
<title>dependencies</title>
<polygon fill="#ffffff" stroke="transparent" points="-4,4 -4,-280 2101,-280 2101,4 -4,4"/>
<text text-anchor="start" x="1027.5091" y="-42.4" font-family="sans-serif" font-weight="bold" font-size="14.00" fill="#000000">Legend</text>
<polygon fill="#ffffb3" stroke="transparent" points="814.5,-10 814.5,-30 834.5,-30 834.5,-10 814.5,-10"/>
<text text-anchor="start" x="838.129" y="-15.4" font-family="sans-serif" font-size="14.00" fill="#000000"> &#160;Declarations</text>
<polygon fill="#8dd3c7" stroke="transparent" points="927.5,-10 927.5,-30 947.5,-30 947.5,-10 927.5,-10"/>
<text text-anchor="start" x="951.2251" y="-15.4" font-family="sans-serif" font-size="14.00" fill="#000000"> &#160;Module</text>
<polygon fill="#80b1d3" stroke="transparent" points="1013.5,-10 1013.5,-30 1033.5,-30 1033.5,-10 1013.5,-10"/>
<text text-anchor="start" x="1037.2812" y="-15.4" font-family="sans-serif" font-size="14.00" fill="#000000"> &#160;Bootstrap</text>
<polygon fill="#fdb462" stroke="transparent" points="1110.5,-10 1110.5,-30 1130.5,-30 1130.5,-10 1110.5,-10"/>
<text text-anchor="start" x="1134.1732" y="-15.4" font-family="sans-serif" font-size="14.00" fill="#000000"> &#160;Providers</text>
<polygon fill="#fb8072" stroke="transparent" points="1206.5,-10 1206.5,-30 1226.5,-30 1226.5,-10 1206.5,-10"/>
<text text-anchor="start" x="1230.2258" y="-15.4" font-family="sans-serif" font-size="14.00" fill="#000000"> &#160;Exports</text>
<g id="clust1" class="cluster">
<title>cluster_ToolModule</title>
<polygon fill="none" stroke="#000000" stroke-dasharray="1,5" points="8,-70 8,-268 2089,-268 2089,-70 8,-70"/>
</g>
<g id="clust2" class="cluster">
<title>cluster_ToolModule_declarations</title>
<polygon fill="none" stroke="#000000" points="138,-78 138,-130 2081,-130 2081,-78 138,-78"/>
</g>
<g id="clust15" class="cluster">
<title>cluster_ToolModule_imports</title>
<polygon fill="none" stroke="#000000" points="16,-78 16,-130 130,-130 130,-78 16,-78"/>
</g>
<g id="clust16" class="cluster">
<title>cluster_ToolModule_exports</title>
<polygon fill="none" stroke="#000000" points="312,-208 312,-260 1753,-260 1753,-208 312,-208"/>
</g>
<!-- AgentRegionPipe -->
<g id="node1" class="node">
<title>AgentRegionPipe</title>
<polygon fill="#ffffb3" stroke="#000000" points="2072.5423,-122 1957.4577,-122 1957.4577,-86 2072.5423,-86 2072.5423,-122"/>
<text text-anchor="middle" x="2015" y="-99.8" font-family="Times,serif" font-size="14.00" fill="#000000">AgentRegionPipe</text>
</g>
<!-- ToolModule -->
<g id="node13" class="node">
<title>ToolModule</title>
<polygon fill="#8dd3c7" stroke="#000000" points="1156.993,-187 1153.993,-191 1132.993,-191 1129.993,-187 1071.007,-187 1071.007,-151 1156.993,-151 1156.993,-187"/>
<text text-anchor="middle" x="1114" y="-164.8" font-family="Times,serif" font-size="14.00" fill="#000000">ToolModule</text>
</g>
<!-- AgentRegionPipe&#45;&gt;ToolModule -->
<g id="edge1" class="edge">
<title>AgentRegionPipe&#45;&gt;ToolModule</title>
<path fill="none" stroke="#000000" d="M2015,-122.308C2015,-142.1455 2015,-171 2015,-171 2015,-171 1167.1536,-171 1167.1536,-171"/>
<polygon fill="#000000" stroke="#000000" points="1167.1536,-167.5001 1157.1536,-171 1167.1535,-174.5001 1167.1536,-167.5001"/>
</g>
<!-- ConfirmComponent -->
<g id="node2" class="node">
<title>ConfirmComponent</title>
<polygon fill="#ffffb3" stroke="#000000" points="1939.2716,-122 1810.7284,-122 1810.7284,-86 1939.2716,-86 1939.2716,-122"/>
<text text-anchor="middle" x="1875" y="-99.8" font-family="Times,serif" font-size="14.00" fill="#000000">ConfirmComponent</text>
</g>
<!-- ConfirmComponent&#45;&gt;ToolModule -->
<g id="edge2" class="edge">
<title>ConfirmComponent&#45;&gt;ToolModule</title>
<path fill="none" stroke="#000000" d="M1875,-122.1686C1875,-141.0898 1875,-168 1875,-168 1875,-168 1167.0951,-168 1167.0951,-168"/>
<polygon fill="#000000" stroke="#000000" points="1167.0951,-164.5001 1157.0951,-168 1167.095,-171.5001 1167.0951,-164.5001"/>
</g>
<!-- CustomSnackBarComponent -->
<g id="node3" class="node">
<title>CustomSnackBarComponent</title>
<polygon fill="#ffffb3" stroke="#000000" points="1792.8187,-122 1613.1813,-122 1613.1813,-86 1792.8187,-86 1792.8187,-122"/>
<text text-anchor="middle" x="1703" y="-99.8" font-family="Times,serif" font-size="14.00" fill="#000000">CustomSnackBarComponent</text>
</g>
<!-- CustomSnackBarComponent&#45;&gt;ToolModule -->
<g id="edge3" class="edge">
<title>CustomSnackBarComponent&#45;&gt;ToolModule</title>
<path fill="none" stroke="#000000" d="M1619.4101,-122.302C1619.4101,-140.2699 1619.4101,-165 1619.4101,-165 1619.4101,-165 1167.091,-165 1167.091,-165"/>
<polygon fill="#000000" stroke="#000000" points="1167.091,-161.5001 1157.091,-165 1167.0909,-168.5001 1167.091,-161.5001"/>
</g>
<!-- FooterComponent -->
<g id="node4" class="node">
<title>FooterComponent</title>
<polygon fill="#ffffb3" stroke="#000000" points="1594.8809,-122 1477.1191,-122 1477.1191,-86 1594.8809,-86 1594.8809,-122"/>
<text text-anchor="middle" x="1536" y="-99.8" font-family="Times,serif" font-size="14.00" fill="#000000">FooterComponent</text>
</g>
<!-- FooterComponent&#45;&gt;ToolModule -->
<g id="edge4" class="edge">
<title>FooterComponent&#45;&gt;ToolModule</title>
<path fill="none" stroke="#000000" d="M1481.6846,-122.0352C1481.6846,-138.7344 1481.6846,-161 1481.6846,-161 1481.6846,-161 1167.2593,-161 1167.2593,-161"/>
<polygon fill="#000000" stroke="#000000" points="1167.2593,-157.5001 1157.2593,-161 1167.2593,-164.5001 1167.2593,-157.5001"/>
</g>
<!-- IndicatorComponent -->
<g id="node5" class="node">
<title>IndicatorComponent</title>
<polygon fill="#ffffb3" stroke="#000000" points="1458.8641,-122 1327.1359,-122 1327.1359,-86 1458.8641,-86 1458.8641,-122"/>
<text text-anchor="middle" x="1393" y="-99.8" font-family="Times,serif" font-size="14.00" fill="#000000">IndicatorComponent</text>
</g>
<!-- IndicatorComponent&#45;&gt;ToolModule -->
<g id="edge5" class="edge">
<title>IndicatorComponent&#45;&gt;ToolModule</title>
<path fill="none" stroke="#000000" d="M1417.0607,-122.2819C1417.0607,-137.9478 1417.0607,-158 1417.0607,-158 1417.0607,-158 1167.0994,-158 1167.0994,-158"/>
<polygon fill="#000000" stroke="#000000" points="1167.0994,-154.5001 1157.0994,-158 1167.0993,-161.5001 1167.0994,-154.5001"/>
</g>
<!-- IsOldVersionPipe -->
<g id="node6" class="node">
<title>IsOldVersionPipe</title>
<polygon fill="#ffffb3" stroke="#000000" points="1309.3076,-122 1192.6924,-122 1192.6924,-86 1309.3076,-86 1309.3076,-122"/>
<text text-anchor="middle" x="1251" y="-99.8" font-family="Times,serif" font-size="14.00" fill="#000000">IsOldVersionPipe</text>
</g>
<!-- IsOldVersionPipe&#45;&gt;ToolModule -->
<g id="edge6" class="edge">
<title>IsOldVersionPipe&#45;&gt;ToolModule</title>
<path fill="none" stroke="#000000" d="M1271.1345,-122.1243C1271.1345,-136.7832 1271.1345,-155 1271.1345,-155 1271.1345,-155 1167.3537,-155 1167.3537,-155"/>
<polygon fill="#000000" stroke="#000000" points="1167.3537,-151.5001 1157.3537,-155 1167.3536,-158.5001 1167.3537,-151.5001"/>
</g>
<!-- NavbarComponent -->
<g id="node7" class="node">
<title>NavbarComponent</title>
<polygon fill="#ffffb3" stroke="#000000" points="1175.0297,-122 1052.9703,-122 1052.9703,-86 1175.0297,-86 1175.0297,-122"/>
<text text-anchor="middle" x="1114" y="-99.8" font-family="Times,serif" font-size="14.00" fill="#000000">NavbarComponent</text>
</g>
<!-- NavbarComponent&#45;&gt;ToolModule -->
<g id="edge7" class="edge">
<title>NavbarComponent&#45;&gt;ToolModule</title>
<path fill="none" stroke="#000000" d="M1114,-122.1061C1114,-122.1061 1114,-140.991 1114,-140.991"/>
<polygon fill="#000000" stroke="#000000" points="1110.5001,-140.9909 1114,-150.991 1117.5001,-140.991 1110.5001,-140.9909"/>
</g>
<!-- RunningLogComponent -->
<g id="node8" class="node">
<title>RunningLogComponent</title>
<polygon fill="#ffffb3" stroke="#000000" points="1035.1122,-122 882.8878,-122 882.8878,-86 1035.1122,-86 1035.1122,-122"/>
<text text-anchor="middle" x="959" y="-99.8" font-family="Times,serif" font-size="14.00" fill="#000000">RunningLogComponent</text>
</g>
<!-- RunningLogComponent&#45;&gt;ToolModule -->
<g id="edge8" class="edge">
<title>RunningLogComponent&#45;&gt;ToolModule</title>
<path fill="none" stroke="#000000" d="M982.852,-122.1243C982.852,-136.7832 982.852,-155 982.852,-155 982.852,-155 1060.6938,-155 1060.6938,-155"/>
<polygon fill="#000000" stroke="#000000" points="1060.6938,-158.5001 1070.6938,-155 1060.6937,-151.5001 1060.6938,-158.5001"/>
</g>
<!-- SimpleNzConfirmWrapComponent -->
<g id="node9" class="node">
<title>SimpleNzConfirmWrapComponent</title>
<polygon fill="#ffffb3" stroke="#000000" points="864.8515,-122 649.1485,-122 649.1485,-86 864.8515,-86 864.8515,-122"/>
<text text-anchor="middle" x="757" y="-99.8" font-family="Times,serif" font-size="14.00" fill="#000000">SimpleNzConfirmWrapComponent</text>
</g>
<!-- SimpleNzConfirmWrapComponent&#45;&gt;ToolModule -->
<g id="edge9" class="edge">
<title>SimpleNzConfirmWrapComponent&#45;&gt;ToolModule</title>
<path fill="none" stroke="#000000" d="M789.4752,-122.2819C789.4752,-137.9478 789.4752,-158 789.4752,-158 789.4752,-158 1060.9056,-158 1060.9056,-158"/>
<polygon fill="#000000" stroke="#000000" points="1060.9057,-161.5001 1070.9056,-158 1060.9056,-154.5001 1060.9057,-161.5001"/>
</g>
<!-- TextCenterDirective -->
<g id="node10" class="node">
<title>TextCenterDirective</title>
<polygon fill="#ffffb3" stroke="#000000" points="631.5576,-122 500.4424,-122 500.4424,-86 631.5576,-86 631.5576,-122"/>
<text text-anchor="middle" x="566" y="-99.8" font-family="Times,serif" font-size="14.00" fill="#000000">TextCenterDirective</text>
</g>
<!-- TextCenterDirective&#45;&gt;ToolModule -->
<g id="edge10" class="edge">
<title>TextCenterDirective&#45;&gt;ToolModule</title>
<path fill="none" stroke="#000000" d="M626.9038,-122.0352C626.9038,-138.7344 626.9038,-161 626.9038,-161 626.9038,-161 1060.7735,-161 1060.7735,-161"/>
<polygon fill="#000000" stroke="#000000" points="1060.7735,-164.5001 1070.7735,-161 1060.7734,-157.5001 1060.7735,-164.5001"/>
</g>
<!-- TextDirectionDirective -->
<g id="node11" class="node">
<title>TextDirectionDirective</title>
<polygon fill="#ffffb3" stroke="#000000" points="482.1093,-122 335.8907,-122 335.8907,-86 482.1093,-86 482.1093,-122"/>
<text text-anchor="middle" x="409" y="-99.8" font-family="Times,serif" font-size="14.00" fill="#000000">TextDirectionDirective</text>
</g>
<!-- TextDirectionDirective&#45;&gt;ToolModule -->
<g id="edge11" class="edge">
<title>TextDirectionDirective&#45;&gt;ToolModule</title>
<path fill="none" stroke="#000000" d="M476.1794,-122.302C476.1794,-140.2699 476.1794,-165 476.1794,-165 476.1794,-165 1060.6614,-165 1060.6614,-165"/>
<polygon fill="#000000" stroke="#000000" points="1060.6615,-168.5001 1070.6614,-165 1060.6614,-161.5001 1060.6615,-168.5001"/>
</g>
<!-- VerifyPasswordComponent -->
<g id="node12" class="node">
<title>VerifyPasswordComponent</title>
<polygon fill="#ffffb3" stroke="#000000" points="317.5197,-122 146.4803,-122 146.4803,-86 317.5197,-86 317.5197,-122"/>
<text text-anchor="middle" x="232" y="-99.8" font-family="Times,serif" font-size="14.00" fill="#000000">VerifyPasswordComponent</text>
</g>
<!-- VerifyPasswordComponent&#45;&gt;ToolModule -->
<g id="edge12" class="edge">
<title>VerifyPasswordComponent&#45;&gt;ToolModule</title>
<path fill="none" stroke="#000000" d="M232,-122.1686C232,-141.0898 232,-168 232,-168 232,-168 1060.8622,-168 1060.8622,-168"/>
<polygon fill="#000000" stroke="#000000" points="1060.8623,-171.5001 1070.8622,-168 1060.8622,-164.5001 1060.8623,-171.5001"/>
</g>
<!-- AgentRegionPipe  -->
<g id="node15" class="node">
<title>AgentRegionPipe </title>
<polygon fill="#fb8072" stroke="#000000" points="1744.5414,-252 1625.4586,-252 1625.4586,-216 1744.5414,-216 1744.5414,-252"/>
<text text-anchor="middle" x="1685" y="-229.8" font-family="Times,serif" font-size="14.00" fill="#000000">AgentRegionPipe </text>
</g>
<!-- ToolModule&#45;&gt;AgentRegionPipe  -->
<g id="edge14" class="edge">
<title>ToolModule&#45;&gt;AgentRegionPipe </title>
<path fill="none" stroke="#000000" stroke-dasharray="5,2" d="M1157.3865,-174C1290.6378,-174 1685,-174 1685,-174 1685,-174 1685,-205.998 1685,-205.998"/>
<polygon fill="#000000" stroke="#000000" points="1681.5001,-205.998 1685,-215.998 1688.5001,-205.9981 1681.5001,-205.998"/>
</g>
<!-- FooterComponent  -->
<g id="node16" class="node">
<title>FooterComponent </title>
<polygon fill="#fb8072" stroke="#000000" points="1607.8814,-252 1486.1186,-252 1486.1186,-216 1607.8814,-216 1607.8814,-252"/>
<text text-anchor="middle" x="1547" y="-229.8" font-family="Times,serif" font-size="14.00" fill="#000000">FooterComponent </text>
</g>
<!-- ToolModule&#45;&gt;FooterComponent  -->
<g id="edge15" class="edge">
<title>ToolModule&#45;&gt;FooterComponent </title>
<path fill="none" stroke="#000000" stroke-dasharray="5,2" d="M1157.2549,-178C1265.7153,-178 1540.625,-178 1540.625,-178 1540.625,-178 1540.625,-205.973 1540.625,-205.973"/>
<polygon fill="#000000" stroke="#000000" points="1537.1251,-205.973 1540.625,-215.973 1544.1251,-205.973 1537.1251,-205.973"/>
</g>
<!-- IndicatorComponent  -->
<g id="node17" class="node">
<title>IndicatorComponent </title>
<polygon fill="#fb8072" stroke="#000000" points="1468.8645,-252 1333.1355,-252 1333.1355,-216 1468.8645,-216 1468.8645,-252"/>
<text text-anchor="middle" x="1401" y="-229.8" font-family="Times,serif" font-size="14.00" fill="#000000">IndicatorComponent </text>
</g>
<!-- ToolModule&#45;&gt;IndicatorComponent  -->
<g id="edge16" class="edge">
<title>ToolModule&#45;&gt;IndicatorComponent </title>
<path fill="none" stroke="#000000" stroke-dasharray="5,2" d="M1157.1301,-181C1231.3152,-181 1375.1893,-181 1375.1893,-181 1375.1893,-181 1375.1893,-205.7604 1375.1893,-205.7604"/>
<polygon fill="#000000" stroke="#000000" points="1371.6894,-205.7604 1375.1893,-215.7604 1378.6894,-205.7604 1371.6894,-205.7604"/>
</g>
<!-- IsOldVersionPipe  -->
<g id="node18" class="node">
<title>IsOldVersionPipe </title>
<polygon fill="#fb8072" stroke="#000000" points="1314.8074,-252 1195.1926,-252 1195.1926,-216 1314.8074,-216 1314.8074,-252"/>
<text text-anchor="middle" x="1255" y="-229.8" font-family="Times,serif" font-size="14.00" fill="#000000">IsOldVersionPipe </text>
</g>
<!-- ToolModule&#45;&gt;IsOldVersionPipe  -->
<g id="edge17" class="edge">
<title>ToolModule&#45;&gt;IsOldVersionPipe </title>
<path fill="none" stroke="#000000" stroke-dasharray="5,2" d="M1157.0034,-184C1191.1226,-184 1233.1155,-184 1233.1155,-184 1233.1155,-184 1233.1155,-205.9489 1233.1155,-205.9489"/>
<polygon fill="#000000" stroke="#000000" points="1229.6156,-205.9488 1233.1155,-215.9489 1236.6156,-205.9489 1229.6156,-205.9488"/>
</g>
<!-- NavbarComponent  -->
<g id="node19" class="node">
<title>NavbarComponent </title>
<polygon fill="#fb8072" stroke="#000000" points="1177.0288,-252 1050.9712,-252 1050.9712,-216 1177.0288,-216 1177.0288,-252"/>
<text text-anchor="middle" x="1114" y="-229.8" font-family="Times,serif" font-size="14.00" fill="#000000">NavbarComponent </text>
</g>
<!-- ToolModule&#45;&gt;NavbarComponent  -->
<g id="edge18" class="edge">
<title>ToolModule&#45;&gt;NavbarComponent </title>
<path fill="none" stroke="#000000" stroke-dasharray="5,2" d="M1114,-187.1061C1114,-187.1061 1114,-205.991 1114,-205.991"/>
<polygon fill="#000000" stroke="#000000" points="1110.5001,-205.9909 1114,-215.991 1117.5001,-205.991 1110.5001,-205.9909"/>
</g>
<!-- RunningLogComponent  -->
<g id="node20" class="node">
<title>RunningLogComponent </title>
<polygon fill="#fb8072" stroke="#000000" points="1032.6127,-252 877.3873,-252 877.3873,-216 1032.6127,-216 1032.6127,-252"/>
<text text-anchor="middle" x="955" y="-229.8" font-family="Times,serif" font-size="14.00" fill="#000000">RunningLogComponent </text>
</g>
<!-- ToolModule&#45;&gt;RunningLogComponent  -->
<g id="edge19" class="edge">
<title>ToolModule&#45;&gt;RunningLogComponent </title>
<path fill="none" stroke="#000000" stroke-dasharray="5,2" d="M1070.6216,-184C1017.0441,-184 932.898,-184 932.898,-184 932.898,-184 932.898,-205.9489 932.898,-205.9489"/>
<polygon fill="#000000" stroke="#000000" points="929.3981,-205.9488 932.898,-215.9489 936.3981,-205.9489 929.3981,-205.9488"/>
</g>
<!-- SimpleNzConfirmWrapComponent  -->
<g id="node21" class="node">
<title>SimpleNzConfirmWrapComponent </title>
<polygon fill="#fb8072" stroke="#000000" points="859.8517,-252 640.1483,-252 640.1483,-216 859.8517,-216 859.8517,-252"/>
<text text-anchor="middle" x="750" y="-229.8" font-family="Times,serif" font-size="14.00" fill="#000000">SimpleNzConfirmWrapComponent </text>
</g>
<!-- ToolModule&#45;&gt;SimpleNzConfirmWrapComponent  -->
<g id="edge20" class="edge">
<title>ToolModule&#45;&gt;SimpleNzConfirmWrapComponent </title>
<path fill="none" stroke="#000000" stroke-dasharray="5,2" d="M1071.0061,-181C968.702,-181 719.2748,-181 719.2748,-181 719.2748,-181 719.2748,-205.7604 719.2748,-205.7604"/>
<polygon fill="#000000" stroke="#000000" points="715.7749,-205.7604 719.2748,-215.7604 722.7749,-205.7604 715.7749,-205.7604"/>
</g>
<!-- TextCenterDirective  -->
<g id="node22" class="node">
<title>TextCenterDirective </title>
<polygon fill="#fb8072" stroke="#000000" points="622.0583,-252 487.9417,-252 487.9417,-216 622.0583,-216 622.0583,-252"/>
<text text-anchor="middle" x="555" y="-229.8" font-family="Times,serif" font-size="14.00" fill="#000000">TextCenterDirective </text>
</g>
<!-- ToolModule&#45;&gt;TextCenterDirective  -->
<g id="edge21" class="edge">
<title>ToolModule&#45;&gt;TextCenterDirective </title>
<path fill="none" stroke="#000000" stroke-dasharray="5,2" d="M1070.6364,-178C940.3603,-178 561.375,-178 561.375,-178 561.375,-178 561.375,-205.973 561.375,-205.973"/>
<polygon fill="#000000" stroke="#000000" points="557.8751,-205.973 561.375,-215.973 564.8751,-205.973 557.8751,-205.973"/>
</g>
<!-- TextDirectionDirective  -->
<g id="node23" class="node">
<title>TextDirectionDirective </title>
<polygon fill="#fb8072" stroke="#000000" points="470.1088,-252 319.8912,-252 319.8912,-216 470.1088,-216 470.1088,-252"/>
<text text-anchor="middle" x="395" y="-229.8" font-family="Times,serif" font-size="14.00" fill="#000000">TextDirectionDirective </text>
</g>
<!-- ToolModule&#45;&gt;TextDirectionDirective  -->
<g id="edge22" class="edge">
<title>ToolModule&#45;&gt;TextDirectionDirective </title>
<path fill="none" stroke="#000000" stroke-dasharray="5,2" d="M1070.8523,-174C916.7809,-174 402.875,-174 402.875,-174 402.875,-174 402.875,-205.998 402.875,-205.998"/>
<polygon fill="#000000" stroke="#000000" points="399.3751,-205.998 402.875,-215.998 406.3751,-205.9981 399.3751,-205.998"/>
</g>
<!-- SharedModule -->
<g id="node14" class="node">
<title>SharedModule</title>
<polygon fill="#8dd3c7" stroke="#000000" points="122.4231,-122 119.4231,-126 98.4231,-126 95.4231,-122 23.5769,-122 23.5769,-86 122.4231,-86 122.4231,-122"/>
<text text-anchor="middle" x="73" y="-99.8" font-family="Times,serif" font-size="14.00" fill="#000000">SharedModule</text>
</g>
<!-- SharedModule&#45;&gt;ToolModule -->
<g id="edge13" class="edge">
<title>SharedModule&#45;&gt;ToolModule</title>
<path fill="none" stroke="#000000" d="M73,-122.308C73,-142.1455 73,-171 73,-171 73,-171 1060.9234,-171 1060.9234,-171"/>
<polygon fill="#000000" stroke="#000000" points="1060.9234,-174.5001 1070.9234,-171 1060.9234,-167.5001 1060.9234,-174.5001"/>
</g>
</g>
</svg>
