<?xml version="1.0" encoding="UTF-8" standalone="no"?>
<!DOCTYPE svg PUBLIC "-//W3C//DTD SVG 1.1//EN"
 "http://www.w3.org/Graphics/SVG/1.1/DTD/svg11.dtd">
<!-- Generated by graphviz version 2.40.1 (20161225.0304)
 -->
<!-- Title: dependencies Pages: 1 -->
<svg width="2137pt" height="284pt"
 viewBox="0.00 0.00 2137.00 284.00" xmlns="http://www.w3.org/2000/svg" xmlns:xlink="http://www.w3.org/1999/xlink">
<g id="graph0" class="graph" transform="scale(1 1) rotate(0) translate(4 280)">
<title>dependencies</title>
<polygon fill="#ffffff" stroke="transparent" points="-4,4 -4,-280 2133,-280 2133,4 -4,4"/>
<text text-anchor="start" x="1043.5091" y="-42.4" font-family="sans-serif" font-weight="bold" font-size="14.00" fill="#000000">Legend</text>
<polygon fill="#ffffb3" stroke="transparent" points="830.5,-10 830.5,-30 850.5,-30 850.5,-10 830.5,-10"/>
<text text-anchor="start" x="854.129" y="-15.4" font-family="sans-serif" font-size="14.00" fill="#000000"> &#160;Declarations</text>
<polygon fill="#8dd3c7" stroke="transparent" points="943.5,-10 943.5,-30 963.5,-30 963.5,-10 943.5,-10"/>
<text text-anchor="start" x="967.2251" y="-15.4" font-family="sans-serif" font-size="14.00" fill="#000000"> &#160;Module</text>
<polygon fill="#80b1d3" stroke="transparent" points="1029.5,-10 1029.5,-30 1049.5,-30 1049.5,-10 1029.5,-10"/>
<text text-anchor="start" x="1053.2812" y="-15.4" font-family="sans-serif" font-size="14.00" fill="#000000"> &#160;Bootstrap</text>
<polygon fill="#fdb462" stroke="transparent" points="1126.5,-10 1126.5,-30 1146.5,-30 1146.5,-10 1126.5,-10"/>
<text text-anchor="start" x="1150.1732" y="-15.4" font-family="sans-serif" font-size="14.00" fill="#000000"> &#160;Providers</text>
<polygon fill="#fb8072" stroke="transparent" points="1222.5,-10 1222.5,-30 1242.5,-30 1242.5,-10 1222.5,-10"/>
<text text-anchor="start" x="1246.2258" y="-15.4" font-family="sans-serif" font-size="14.00" fill="#000000"> &#160;Exports</text>
<g id="clust1" class="cluster">
<title>cluster_ToolModule</title>
<polygon fill="none" stroke="#000000" stroke-dasharray="1,5" points="8,-70 8,-268 2121,-268 2121,-70 8,-70"/>
</g>
<g id="clust2" class="cluster">
<title>cluster_ToolModule_declarations</title>
<polygon fill="none" stroke="#000000" points="138,-78 138,-130 2113,-130 2113,-78 138,-78"/>
</g>
<g id="clust15" class="cluster">
<title>cluster_ToolModule_imports</title>
<polygon fill="none" stroke="#000000" points="16,-78 16,-130 130,-130 130,-78 16,-78"/>
</g>
<g id="clust16" class="cluster">
<title>cluster_ToolModule_exports</title>
<polygon fill="none" stroke="#000000" points="313,-208 313,-260 1786,-260 1786,-208 313,-208"/>
</g>
<!-- ConfirmComponent -->
<g id="node1" class="node">
<title>ConfirmComponent</title>
<polygon fill="#ffffb3" stroke="#000000" points="2105.2716,-122 1976.7284,-122 1976.7284,-86 2105.2716,-86 2105.2716,-122"/>
<text text-anchor="middle" x="2041" y="-99.8" font-family="Times,serif" font-size="14.00" fill="#000000">ConfirmComponent</text>
</g>
<!-- ToolModule -->
<g id="node13" class="node">
<title>ToolModule</title>
<polygon fill="#8dd3c7" stroke="#000000" points="1168.993,-187 1165.993,-191 1144.993,-191 1141.993,-187 1083.007,-187 1083.007,-151 1168.993,-151 1168.993,-187"/>
<text text-anchor="middle" x="1126" y="-164.8" font-family="Times,serif" font-size="14.00" fill="#000000">ToolModule</text>
</g>
<!-- ConfirmComponent&#45;&gt;ToolModule -->
<g id="edge1" class="edge">
<title>ConfirmComponent&#45;&gt;ToolModule</title>
<path fill="none" stroke="#000000" d="M2041,-122.308C2041,-142.1455 2041,-171 2041,-171 2041,-171 1179.2105,-171 1179.2105,-171"/>
<polygon fill="#000000" stroke="#000000" points="1179.2105,-167.5001 1169.2105,-171 1179.2104,-174.5001 1179.2105,-167.5001"/>
</g>
<!-- CustomSnackBarComponent -->
<g id="node2" class="node">
<title>CustomSnackBarComponent</title>
<polygon fill="#ffffb3" stroke="#000000" points="1958.8187,-122 1779.1813,-122 1779.1813,-86 1958.8187,-86 1958.8187,-122"/>
<text text-anchor="middle" x="1869" y="-99.8" font-family="Times,serif" font-size="14.00" fill="#000000">CustomSnackBarComponent</text>
</g>
<!-- CustomSnackBarComponent&#45;&gt;ToolModule -->
<g id="edge2" class="edge">
<title>CustomSnackBarComponent&#45;&gt;ToolModule</title>
<path fill="none" stroke="#000000" d="M1869,-122.1686C1869,-141.0898 1869,-168 1869,-168 1869,-168 1179.1583,-168 1179.1583,-168"/>
<polygon fill="#000000" stroke="#000000" points="1179.1584,-164.5001 1169.1583,-168 1179.1583,-171.5001 1179.1584,-164.5001"/>
</g>
<!-- FooterComponent -->
<g id="node3" class="node">
<title>FooterComponent</title>
<polygon fill="#ffffb3" stroke="#000000" points="1760.8809,-122 1643.1191,-122 1643.1191,-86 1760.8809,-86 1760.8809,-122"/>
<text text-anchor="middle" x="1702" y="-99.8" font-family="Times,serif" font-size="14.00" fill="#000000">FooterComponent</text>
</g>
<!-- FooterComponent&#45;&gt;ToolModule -->
<g id="edge3" class="edge">
<title>FooterComponent&#45;&gt;ToolModule</title>
<path fill="none" stroke="#000000" d="M1649.6846,-122.302C1649.6846,-140.2699 1649.6846,-165 1649.6846,-165 1649.6846,-165 1179.3008,-165 1179.3008,-165"/>
<polygon fill="#000000" stroke="#000000" points="1179.3009,-161.5001 1169.3008,-165 1179.3008,-168.5001 1179.3009,-161.5001"/>
</g>
<!-- FuturesResultPipe -->
<g id="node4" class="node">
<title>FuturesResultPipe</title>
<polygon fill="#ffffb3" stroke="#000000" points="1625.1583,-122 1506.8417,-122 1506.8417,-86 1625.1583,-86 1625.1583,-122"/>
<text text-anchor="middle" x="1566" y="-99.8" font-family="Times,serif" font-size="14.00" fill="#000000">FuturesResultPipe</text>
</g>
<!-- FuturesResultPipe&#45;&gt;ToolModule -->
<g id="edge4" class="edge">
<title>FuturesResultPipe&#45;&gt;ToolModule</title>
<path fill="none" stroke="#000000" d="M1511.2961,-122.0352C1511.2961,-138.7344 1511.2961,-161 1511.2961,-161 1511.2961,-161 1179.0768,-161 1179.0768,-161"/>
<polygon fill="#000000" stroke="#000000" points="1179.0769,-157.5001 1169.0768,-161 1179.0768,-164.5001 1179.0769,-157.5001"/>
</g>
<!-- IndicatorComponent -->
<g id="node5" class="node">
<title>IndicatorComponent</title>
<polygon fill="#ffffb3" stroke="#000000" points="1488.8641,-122 1357.1359,-122 1357.1359,-86 1488.8641,-86 1488.8641,-122"/>
<text text-anchor="middle" x="1423" y="-99.8" font-family="Times,serif" font-size="14.00" fill="#000000">IndicatorComponent</text>
</g>
<!-- IndicatorComponent&#45;&gt;ToolModule -->
<g id="edge5" class="edge">
<title>IndicatorComponent&#45;&gt;ToolModule</title>
<path fill="none" stroke="#000000" d="M1446.7273,-122.2819C1446.7273,-137.9478 1446.7273,-158 1446.7273,-158 1446.7273,-158 1179.2547,-158 1179.2547,-158"/>
<polygon fill="#000000" stroke="#000000" points="1179.2548,-154.5001 1169.2547,-158 1179.2547,-161.5001 1179.2548,-154.5001"/>
</g>
<!-- NavbarComponent -->
<g id="node6" class="node">
<title>NavbarComponent</title>
<polygon fill="#ffffb3" stroke="#000000" points="1339.0297,-122 1216.9703,-122 1216.9703,-86 1339.0297,-86 1339.0297,-122"/>
<text text-anchor="middle" x="1278" y="-99.8" font-family="Times,serif" font-size="14.00" fill="#000000">NavbarComponent</text>
</g>
<!-- NavbarComponent&#45;&gt;ToolModule -->
<g id="edge6" class="edge">
<title>NavbarComponent&#45;&gt;ToolModule</title>
<path fill="none" stroke="#000000" d="M1298.8381,-122.1243C1298.8381,-136.7832 1298.8381,-155 1298.8381,-155 1298.8381,-155 1179.1685,-155 1179.1685,-155"/>
<polygon fill="#000000" stroke="#000000" points="1179.1685,-151.5001 1169.1685,-155 1179.1685,-158.5001 1179.1685,-151.5001"/>
</g>
<!-- OptimizeFilterDesPipe -->
<g id="node7" class="node">
<title>OptimizeFilterDesPipe</title>
<polygon fill="#ffffb3" stroke="#000000" points="1198.5814,-122 1053.4186,-122 1053.4186,-86 1198.5814,-86 1198.5814,-122"/>
<text text-anchor="middle" x="1126" y="-99.8" font-family="Times,serif" font-size="14.00" fill="#000000">OptimizeFilterDesPipe</text>
</g>
<!-- OptimizeFilterDesPipe&#45;&gt;ToolModule -->
<g id="edge7" class="edge">
<title>OptimizeFilterDesPipe&#45;&gt;ToolModule</title>
<path fill="none" stroke="#000000" d="M1126,-122.1061C1126,-122.1061 1126,-140.991 1126,-140.991"/>
<polygon fill="#000000" stroke="#000000" points="1122.5001,-140.9909 1126,-150.991 1129.5001,-140.991 1122.5001,-140.9909"/>
</g>
<!-- RunningLogComponent -->
<g id="node8" class="node">
<title>RunningLogComponent</title>
<polygon fill="#ffffb3" stroke="#000000" points="1035.1122,-122 882.8878,-122 882.8878,-86 1035.1122,-86 1035.1122,-122"/>
<text text-anchor="middle" x="959" y="-99.8" font-family="Times,serif" font-size="14.00" fill="#000000">RunningLogComponent</text>
</g>
<!-- RunningLogComponent&#45;&gt;ToolModule -->
<g id="edge8" class="edge">
<title>RunningLogComponent&#45;&gt;ToolModule</title>
<path fill="none" stroke="#000000" d="M983.5187,-122.1243C983.5187,-136.7832 983.5187,-155 983.5187,-155 983.5187,-155 1072.8643,-155 1072.8643,-155"/>
<polygon fill="#000000" stroke="#000000" points="1072.8643,-158.5001 1082.8643,-155 1072.8642,-151.5001 1072.8643,-158.5001"/>
</g>
<!-- SimpleNzConfirmWrapComponent -->
<g id="node9" class="node">
<title>SimpleNzConfirmWrapComponent</title>
<polygon fill="#ffffb3" stroke="#000000" points="864.8515,-122 649.1485,-122 649.1485,-86 864.8515,-86 864.8515,-122"/>
<text text-anchor="middle" x="757" y="-99.8" font-family="Times,serif" font-size="14.00" fill="#000000">SimpleNzConfirmWrapComponent</text>
</g>
<!-- SimpleNzConfirmWrapComponent&#45;&gt;ToolModule -->
<g id="edge9" class="edge">
<title>SimpleNzConfirmWrapComponent&#45;&gt;ToolModule</title>
<path fill="none" stroke="#000000" d="M790.1419,-122.2819C790.1419,-137.9478 790.1419,-158 790.1419,-158 790.1419,-158 1072.78,-158 1072.78,-158"/>
<polygon fill="#000000" stroke="#000000" points="1072.78,-161.5001 1082.78,-158 1072.78,-154.5001 1072.78,-161.5001"/>
</g>
<!-- TextCenterDirective -->
<g id="node10" class="node">
<title>TextCenterDirective</title>
<polygon fill="#ffffb3" stroke="#000000" points="631.5576,-122 500.4424,-122 500.4424,-86 631.5576,-86 631.5576,-122"/>
<text text-anchor="middle" x="566" y="-99.8" font-family="Times,serif" font-size="14.00" fill="#000000">TextCenterDirective</text>
</g>
<!-- TextCenterDirective&#45;&gt;ToolModule -->
<g id="edge10" class="edge">
<title>TextCenterDirective&#45;&gt;ToolModule</title>
<path fill="none" stroke="#000000" d="M627.4038,-122.0352C627.4038,-138.7344 627.4038,-161 627.4038,-161 627.4038,-161 1072.6251,-161 1072.6251,-161"/>
<polygon fill="#000000" stroke="#000000" points="1072.6251,-164.5001 1082.6251,-161 1072.625,-157.5001 1072.6251,-164.5001"/>
</g>
<!-- TextDirectionDirective -->
<g id="node11" class="node">
<title>TextDirectionDirective</title>
<polygon fill="#ffffb3" stroke="#000000" points="482.1093,-122 335.8907,-122 335.8907,-86 482.1093,-86 482.1093,-122"/>
<text text-anchor="middle" x="409" y="-99.8" font-family="Times,serif" font-size="14.00" fill="#000000">TextDirectionDirective</text>
</g>
<!-- TextDirectionDirective&#45;&gt;ToolModule -->
<g id="edge11" class="edge">
<title>TextDirectionDirective&#45;&gt;ToolModule</title>
<path fill="none" stroke="#000000" d="M476.6794,-122.302C476.6794,-140.2699 476.6794,-165 476.6794,-165 476.6794,-165 1072.8934,-165 1072.8934,-165"/>
<polygon fill="#000000" stroke="#000000" points="1072.8934,-168.5001 1082.8934,-165 1072.8934,-161.5001 1072.8934,-168.5001"/>
</g>
<!-- VerifyPasswordComponent -->
<g id="node12" class="node">
<title>VerifyPasswordComponent</title>
<polygon fill="#ffffb3" stroke="#000000" points="317.5197,-122 146.4803,-122 146.4803,-86 317.5197,-86 317.5197,-122"/>
<text text-anchor="middle" x="232" y="-99.8" font-family="Times,serif" font-size="14.00" fill="#000000">VerifyPasswordComponent</text>
</g>
<!-- VerifyPasswordComponent&#45;&gt;ToolModule -->
<g id="edge12" class="edge">
<title>VerifyPasswordComponent&#45;&gt;ToolModule</title>
<path fill="none" stroke="#000000" d="M232,-122.1686C232,-141.0898 232,-168 232,-168 232,-168 1072.8805,-168 1072.8805,-168"/>
<polygon fill="#000000" stroke="#000000" points="1072.8806,-171.5001 1082.8805,-168 1072.8805,-164.5001 1072.8806,-171.5001"/>
</g>
<!-- FooterComponent  -->
<g id="node15" class="node">
<title>FooterComponent </title>
<polygon fill="#fb8072" stroke="#000000" points="1777.8814,-252 1656.1186,-252 1656.1186,-216 1777.8814,-216 1777.8814,-252"/>
<text text-anchor="middle" x="1717" y="-229.8" font-family="Times,serif" font-size="14.00" fill="#000000">FooterComponent </text>
</g>
<!-- ToolModule&#45;&gt;FooterComponent  -->
<g id="edge14" class="edge">
<title>ToolModule&#45;&gt;FooterComponent </title>
<path fill="none" stroke="#000000" stroke-dasharray="5,2" d="M1169.3156,-174C1304.3403,-174 1708.625,-174 1708.625,-174 1708.625,-174 1708.625,-205.998 1708.625,-205.998"/>
<polygon fill="#000000" stroke="#000000" points="1705.1251,-205.998 1708.625,-215.998 1712.1251,-205.9981 1705.1251,-205.998"/>
</g>
<!-- FuturesResultPipe  -->
<g id="node16" class="node">
<title>FuturesResultPipe </title>
<polygon fill="#fb8072" stroke="#000000" points="1638.1579,-252 1515.8421,-252 1515.8421,-216 1638.1579,-216 1638.1579,-252"/>
<text text-anchor="middle" x="1577" y="-229.8" font-family="Times,serif" font-size="14.00" fill="#000000">FuturesResultPipe </text>
</g>
<!-- ToolModule&#45;&gt;FuturesResultPipe  -->
<g id="edge15" class="edge">
<title>ToolModule&#45;&gt;FuturesResultPipe </title>
<path fill="none" stroke="#000000" stroke-dasharray="5,2" d="M1169.0365,-178C1280.6203,-178 1570.625,-178 1570.625,-178 1570.625,-178 1570.625,-205.973 1570.625,-205.973"/>
<polygon fill="#000000" stroke="#000000" points="1567.1251,-205.973 1570.625,-215.973 1574.1251,-205.973 1567.1251,-205.973"/>
</g>
<!-- IndicatorComponent  -->
<g id="node17" class="node">
<title>IndicatorComponent </title>
<polygon fill="#fb8072" stroke="#000000" points="1497.8645,-252 1362.1355,-252 1362.1355,-216 1497.8645,-216 1497.8645,-252"/>
<text text-anchor="middle" x="1430" y="-229.8" font-family="Times,serif" font-size="14.00" fill="#000000">IndicatorComponent </text>
</g>
<!-- ToolModule&#45;&gt;IndicatorComponent  -->
<g id="edge16" class="edge">
<title>ToolModule&#45;&gt;IndicatorComponent </title>
<path fill="none" stroke="#000000" stroke-dasharray="5,2" d="M1169.2136,-181C1247.4454,-181 1404.5227,-181 1404.5227,-181 1404.5227,-181 1404.5227,-205.7604 1404.5227,-205.7604"/>
<polygon fill="#000000" stroke="#000000" points="1401.0228,-205.7604 1404.5227,-215.7604 1408.0228,-205.7604 1401.0228,-205.7604"/>
</g>
<!-- NavbarComponent  -->
<g id="node18" class="node">
<title>NavbarComponent </title>
<polygon fill="#fb8072" stroke="#000000" points="1344.0288,-252 1217.9712,-252 1217.9712,-216 1344.0288,-216 1344.0288,-252"/>
<text text-anchor="middle" x="1281" y="-229.8" font-family="Times,serif" font-size="14.00" fill="#000000">NavbarComponent </text>
</g>
<!-- ToolModule&#45;&gt;NavbarComponent  -->
<g id="edge17" class="edge">
<title>ToolModule&#45;&gt;NavbarComponent </title>
<path fill="none" stroke="#000000" stroke-dasharray="5,2" d="M1169.3566,-184C1207.9735,-184 1258.4119,-184 1258.4119,-184 1258.4119,-184 1258.4119,-205.9489 1258.4119,-205.9489"/>
<polygon fill="#000000" stroke="#000000" points="1254.912,-205.9488 1258.4119,-215.9489 1261.912,-205.9489 1254.912,-205.9488"/>
</g>
<!-- OptimizeFilterDesPipe  -->
<g id="node19" class="node">
<title>OptimizeFilterDesPipe </title>
<polygon fill="#fb8072" stroke="#000000" points="1200.082,-252 1051.918,-252 1051.918,-216 1200.082,-216 1200.082,-252"/>
<text text-anchor="middle" x="1126" y="-229.8" font-family="Times,serif" font-size="14.00" fill="#000000">OptimizeFilterDesPipe </text>
</g>
<!-- ToolModule&#45;&gt;OptimizeFilterDesPipe  -->
<g id="edge18" class="edge">
<title>ToolModule&#45;&gt;OptimizeFilterDesPipe </title>
<path fill="none" stroke="#000000" stroke-dasharray="5,2" d="M1126,-187.1061C1126,-187.1061 1126,-205.991 1126,-205.991"/>
<polygon fill="#000000" stroke="#000000" points="1122.5001,-205.9909 1126,-215.991 1129.5001,-205.991 1122.5001,-205.9909"/>
</g>
<!-- RunningLogComponent  -->
<g id="node20" class="node">
<title>RunningLogComponent </title>
<polygon fill="#fb8072" stroke="#000000" points="1033.6127,-252 878.3873,-252 878.3873,-216 1033.6127,-216 1033.6127,-252"/>
<text text-anchor="middle" x="956" y="-229.8" font-family="Times,serif" font-size="14.00" fill="#000000">RunningLogComponent </text>
</g>
<!-- ToolModule&#45;&gt;RunningLogComponent  -->
<g id="edge19" class="edge">
<title>ToolModule&#45;&gt;RunningLogComponent </title>
<path fill="none" stroke="#000000" stroke-dasharray="5,2" d="M1082.7389,-184C1025.9043,-184 933.2313,-184 933.2313,-184 933.2313,-184 933.2313,-205.9489 933.2313,-205.9489"/>
<polygon fill="#000000" stroke="#000000" points="929.7314,-205.9488 933.2313,-215.9489 936.7314,-205.9489 929.7314,-205.9488"/>
</g>
<!-- SimpleNzConfirmWrapComponent  -->
<g id="node21" class="node">
<title>SimpleNzConfirmWrapComponent </title>
<polygon fill="#fb8072" stroke="#000000" points="860.8517,-252 641.1483,-252 641.1483,-216 860.8517,-216 860.8517,-252"/>
<text text-anchor="middle" x="751" y="-229.8" font-family="Times,serif" font-size="14.00" fill="#000000">SimpleNzConfirmWrapComponent </text>
</g>
<!-- ToolModule&#45;&gt;SimpleNzConfirmWrapComponent  -->
<g id="edge20" class="edge">
<title>ToolModule&#45;&gt;SimpleNzConfirmWrapComponent </title>
<path fill="none" stroke="#000000" stroke-dasharray="5,2" d="M1082.8937,-181C978.3038,-181 719.6081,-181 719.6081,-181 719.6081,-181 719.6081,-205.7604 719.6081,-205.7604"/>
<polygon fill="#000000" stroke="#000000" points="716.1082,-205.7604 719.6081,-215.7604 723.1082,-205.7604 716.1082,-205.7604"/>
</g>
<!-- TextCenterDirective  -->
<g id="node22" class="node">
<title>TextCenterDirective </title>
<polygon fill="#fb8072" stroke="#000000" points="623.0583,-252 488.9417,-252 488.9417,-216 623.0583,-216 623.0583,-252"/>
<text text-anchor="middle" x="556" y="-229.8" font-family="Times,serif" font-size="14.00" fill="#000000">TextCenterDirective </text>
</g>
<!-- ToolModule&#45;&gt;TextCenterDirective  -->
<g id="edge21" class="edge">
<title>ToolModule&#45;&gt;TextCenterDirective </title>
<path fill="none" stroke="#000000" stroke-dasharray="5,2" d="M1082.6708,-178C950.5739,-178 561.875,-178 561.875,-178 561.875,-178 561.875,-205.973 561.875,-205.973"/>
<polygon fill="#000000" stroke="#000000" points="558.3751,-205.973 561.875,-215.973 565.3751,-205.973 558.3751,-205.973"/>
</g>
<!-- TextDirectionDirective  -->
<g id="node23" class="node">
<title>TextDirectionDirective </title>
<polygon fill="#fb8072" stroke="#000000" points="471.1088,-252 320.8912,-252 320.8912,-216 471.1088,-216 471.1088,-252"/>
<text text-anchor="middle" x="396" y="-229.8" font-family="Times,serif" font-size="14.00" fill="#000000">TextDirectionDirective </text>
</g>
<!-- ToolModule&#45;&gt;TextDirectionDirective  -->
<g id="edge22" class="edge">
<title>ToolModule&#45;&gt;TextDirectionDirective </title>
<path fill="none" stroke="#000000" stroke-dasharray="5,2" d="M1082.9606,-174C927.3928,-174 403.375,-174 403.375,-174 403.375,-174 403.375,-205.998 403.375,-205.998"/>
<polygon fill="#000000" stroke="#000000" points="399.8751,-205.998 403.375,-215.998 406.8751,-205.9981 399.8751,-205.998"/>
</g>
<!-- SharedModule -->
<g id="node14" class="node">
<title>SharedModule</title>
<polygon fill="#8dd3c7" stroke="#000000" points="122.4231,-122 119.4231,-126 98.4231,-126 95.4231,-122 23.5769,-122 23.5769,-86 122.4231,-86 122.4231,-122"/>
<text text-anchor="middle" x="73" y="-99.8" font-family="Times,serif" font-size="14.00" fill="#000000">SharedModule</text>
</g>
<!-- SharedModule&#45;&gt;ToolModule -->
<g id="edge13" class="edge">
<title>SharedModule&#45;&gt;ToolModule</title>
<path fill="none" stroke="#000000" d="M73,-122.308C73,-142.1455 73,-171 73,-171 73,-171 1072.758,-171 1072.758,-171"/>
<polygon fill="#000000" stroke="#000000" points="1072.7581,-174.5001 1082.758,-171 1072.758,-167.5001 1072.7581,-174.5001"/>
</g>
</g>
</svg>
