<?xml version="1.0" encoding="UTF-8" standalone="no"?>
<!DOCTYPE svg PUBLIC "-//W3C//DTD SVG 1.1//EN"
 "http://www.w3.org/Graphics/SVG/1.1/DTD/svg11.dtd">
<!-- Generated by graphviz version 2.40.1 (20161225.0304)
 -->
<!-- Title: dependencies Pages: 1 -->
<svg width="2114pt" height="284pt"
 viewBox="0.00 0.00 2114.00 284.00" xmlns="http://www.w3.org/2000/svg" xmlns:xlink="http://www.w3.org/1999/xlink">
<g id="graph0" class="graph" transform="scale(1 1) rotate(0) translate(4 280)">
<title>dependencies</title>
<polygon fill="#ffffff" stroke="transparent" points="-4,4 -4,-280 2110,-280 2110,4 -4,4"/>
<text text-anchor="start" x="1032.0091" y="-42.4" font-family="sans-serif" font-weight="bold" font-size="14.00" fill="#000000">Legend</text>
<polygon fill="#ffffb3" stroke="transparent" points="819,-10 819,-30 839,-30 839,-10 819,-10"/>
<text text-anchor="start" x="842.629" y="-15.4" font-family="sans-serif" font-size="14.00" fill="#000000"> &#160;Declarations</text>
<polygon fill="#8dd3c7" stroke="transparent" points="932,-10 932,-30 952,-30 952,-10 932,-10"/>
<text text-anchor="start" x="955.7251" y="-15.4" font-family="sans-serif" font-size="14.00" fill="#000000"> &#160;Module</text>
<polygon fill="#80b1d3" stroke="transparent" points="1018,-10 1018,-30 1038,-30 1038,-10 1018,-10"/>
<text text-anchor="start" x="1041.7812" y="-15.4" font-family="sans-serif" font-size="14.00" fill="#000000"> &#160;Bootstrap</text>
<polygon fill="#fdb462" stroke="transparent" points="1115,-10 1115,-30 1135,-30 1135,-10 1115,-10"/>
<text text-anchor="start" x="1138.6732" y="-15.4" font-family="sans-serif" font-size="14.00" fill="#000000"> &#160;Providers</text>
<polygon fill="#fb8072" stroke="transparent" points="1211,-10 1211,-30 1231,-30 1231,-10 1211,-10"/>
<text text-anchor="start" x="1234.7258" y="-15.4" font-family="sans-serif" font-size="14.00" fill="#000000"> &#160;Exports</text>
<g id="clust1" class="cluster">
<title>cluster_ToolModule</title>
<polygon fill="none" stroke="#000000" stroke-dasharray="1,5" points="8,-70 8,-268 2098,-268 2098,-70 8,-70"/>
</g>
<g id="clust2" class="cluster">
<title>cluster_ToolModule_declarations</title>
<polygon fill="none" stroke="#000000" points="138,-78 138,-130 2090,-130 2090,-78 138,-78"/>
</g>
<g id="clust16" class="cluster">
<title>cluster_ToolModule_imports</title>
<polygon fill="none" stroke="#000000" points="16,-78 16,-130 130,-130 130,-78 16,-78"/>
</g>
<g id="clust17" class="cluster">
<title>cluster_ToolModule_exports</title>
<polygon fill="none" stroke="#000000" points="309,-208 309,-260 1765,-260 1765,-208 309,-208"/>
</g>
<!-- BytesPipe -->
<g id="node1" class="node">
<title>BytesPipe</title>
<polygon fill="#ffffb3" stroke="#000000" points="2082.2745,-122 2009.7255,-122 2009.7255,-86 2082.2745,-86 2082.2745,-122"/>
<text text-anchor="middle" x="2046" y="-99.8" font-family="Times,serif" font-size="14.00" fill="#000000">BytesPipe</text>
</g>
<!-- ToolModule -->
<g id="node14" class="node">
<title>ToolModule</title>
<polygon fill="#8dd3c7" stroke="#000000" points="1154.993,-187 1151.993,-191 1130.993,-191 1127.993,-187 1069.007,-187 1069.007,-151 1154.993,-151 1154.993,-187"/>
<text text-anchor="middle" x="1112" y="-164.8" font-family="Times,serif" font-size="14.00" fill="#000000">ToolModule</text>
</g>
<!-- BytesPipe&#45;&gt;ToolModule -->
<g id="edge1" class="edge">
<title>BytesPipe&#45;&gt;ToolModule</title>
<path fill="none" stroke="#000000" d="M2046,-122.308C2046,-142.1455 2046,-171 2046,-171 2046,-171 1165.1756,-171 1165.1756,-171"/>
<polygon fill="#000000" stroke="#000000" points="1165.1756,-167.5001 1155.1756,-171 1165.1755,-174.5001 1165.1756,-167.5001"/>
</g>
<!-- ConfirmComponent -->
<g id="node2" class="node">
<title>ConfirmComponent</title>
<polygon fill="#ffffb3" stroke="#000000" points="1991.2716,-122 1862.7284,-122 1862.7284,-86 1991.2716,-86 1991.2716,-122"/>
<text text-anchor="middle" x="1927" y="-99.8" font-family="Times,serif" font-size="14.00" fill="#000000">ConfirmComponent</text>
</g>
<!-- ConfirmComponent&#45;&gt;ToolModule -->
<g id="edge2" class="edge">
<title>ConfirmComponent&#45;&gt;ToolModule</title>
<path fill="none" stroke="#000000" d="M1927,-122.1686C1927,-141.0898 1927,-168 1927,-168 1927,-168 1165.2425,-168 1165.2425,-168"/>
<polygon fill="#000000" stroke="#000000" points="1165.2425,-164.5001 1155.2425,-168 1165.2425,-171.5001 1165.2425,-164.5001"/>
</g>
<!-- CustomSnackBarComponent -->
<g id="node3" class="node">
<title>CustomSnackBarComponent</title>
<polygon fill="#ffffb3" stroke="#000000" points="1844.8187,-122 1665.1813,-122 1665.1813,-86 1844.8187,-86 1844.8187,-122"/>
<text text-anchor="middle" x="1755" y="-99.8" font-family="Times,serif" font-size="14.00" fill="#000000">CustomSnackBarComponent</text>
</g>
<!-- CustomSnackBarComponent&#45;&gt;ToolModule -->
<g id="edge3" class="edge">
<title>CustomSnackBarComponent&#45;&gt;ToolModule</title>
<path fill="none" stroke="#000000" d="M1673.1019,-122.302C1673.1019,-140.2699 1673.1019,-165 1673.1019,-165 1673.1019,-165 1165.097,-165 1165.097,-165"/>
<polygon fill="#000000" stroke="#000000" points="1165.0971,-161.5001 1155.097,-165 1165.097,-168.5001 1165.0971,-161.5001"/>
</g>
<!-- FooterComponent -->
<g id="node4" class="node">
<title>FooterComponent</title>
<polygon fill="#ffffb3" stroke="#000000" points="1646.8809,-122 1529.1191,-122 1529.1191,-86 1646.8809,-86 1646.8809,-122"/>
<text text-anchor="middle" x="1588" y="-99.8" font-family="Times,serif" font-size="14.00" fill="#000000">FooterComponent</text>
</g>
<!-- FooterComponent&#45;&gt;ToolModule -->
<g id="edge4" class="edge">
<title>FooterComponent&#45;&gt;ToolModule</title>
<path fill="none" stroke="#000000" d="M1535.1846,-122.0352C1535.1846,-138.7344 1535.1846,-161 1535.1846,-161 1535.1846,-161 1165.2994,-161 1165.2994,-161"/>
<polygon fill="#000000" stroke="#000000" points="1165.2995,-157.5001 1155.2994,-161 1165.2994,-164.5001 1165.2995,-157.5001"/>
</g>
<!-- FromJSONPipe -->
<g id="node5" class="node">
<title>FromJSONPipe</title>
<polygon fill="#ffffb3" stroke="#000000" points="1511.1625,-122 1406.8375,-122 1406.8375,-86 1511.1625,-86 1511.1625,-122"/>
<text text-anchor="middle" x="1459" y="-99.8" font-family="Times,serif" font-size="14.00" fill="#000000">FromJSONPipe</text>
</g>
<!-- FromJSONPipe&#45;&gt;ToolModule -->
<g id="edge5" class="edge">
<title>FromJSONPipe&#45;&gt;ToolModule</title>
<path fill="none" stroke="#000000" d="M1410.794,-122.2819C1410.794,-137.9478 1410.794,-158 1410.794,-158 1410.794,-158 1165.1281,-158 1165.1281,-158"/>
<polygon fill="#000000" stroke="#000000" points="1165.1281,-154.5001 1155.1281,-158 1165.1281,-161.5001 1165.1281,-154.5001"/>
</g>
<!-- IndicatorComponent -->
<g id="node6" class="node">
<title>IndicatorComponent</title>
<polygon fill="#ffffb3" stroke="#000000" points="1388.8641,-122 1257.1359,-122 1257.1359,-86 1388.8641,-86 1388.8641,-122"/>
<text text-anchor="middle" x="1323" y="-99.8" font-family="Times,serif" font-size="14.00" fill="#000000">IndicatorComponent</text>
</g>
<!-- IndicatorComponent&#45;&gt;ToolModule -->
<g id="edge6" class="edge">
<title>IndicatorComponent&#45;&gt;ToolModule</title>
<path fill="none" stroke="#000000" d="M1346.394,-122.1243C1346.394,-136.7832 1346.394,-155 1346.394,-155 1346.394,-155 1165.2646,-155 1165.2646,-155"/>
<polygon fill="#000000" stroke="#000000" points="1165.2647,-151.5001 1155.2646,-155 1165.2646,-158.5001 1165.2647,-151.5001"/>
</g>
<!-- NavbarComponent -->
<g id="node7" class="node">
<title>NavbarComponent</title>
<polygon fill="#ffffb3" stroke="#000000" points="1239.0297,-122 1116.9703,-122 1116.9703,-86 1239.0297,-86 1239.0297,-122"/>
<text text-anchor="middle" x="1178" y="-99.8" font-family="Times,serif" font-size="14.00" fill="#000000">NavbarComponent</text>
</g>
<!-- NavbarComponent&#45;&gt;ToolModule -->
<g id="edge7" class="edge">
<title>NavbarComponent&#45;&gt;ToolModule</title>
<path fill="none" stroke="#000000" d="M1135.8661,-122.1061C1135.8661,-122.1061 1135.8661,-140.991 1135.8661,-140.991"/>
<polygon fill="#000000" stroke="#000000" points="1132.3661,-140.9909 1135.8661,-150.991 1139.3661,-140.991 1132.3661,-140.9909"/>
</g>
<!-- OriginDataPipe -->
<g id="node8" class="node">
<title>OriginDataPipe</title>
<polygon fill="#ffffb3" stroke="#000000" points="1098.8627,-122 995.1373,-122 995.1373,-86 1098.8627,-86 1098.8627,-122"/>
<text text-anchor="middle" x="1047" y="-99.8" font-family="Times,serif" font-size="14.00" fill="#000000">OriginDataPipe</text>
</g>
<!-- OriginDataPipe&#45;&gt;ToolModule -->
<g id="edge8" class="edge">
<title>OriginDataPipe&#45;&gt;ToolModule</title>
<path fill="none" stroke="#000000" d="M1083.9674,-122.1061C1083.9674,-122.1061 1083.9674,-140.991 1083.9674,-140.991"/>
<polygon fill="#000000" stroke="#000000" points="1080.4675,-140.9909 1083.9674,-150.991 1087.4675,-140.991 1080.4675,-140.9909"/>
</g>
<!-- SafeHtmlPipe -->
<g id="node9" class="node">
<title>SafeHtmlPipe</title>
<polygon fill="#ffffb3" stroke="#000000" points="977.0397,-122 882.9603,-122 882.9603,-86 977.0397,-86 977.0397,-122"/>
<text text-anchor="middle" x="930" y="-99.8" font-family="Times,serif" font-size="14.00" fill="#000000">SafeHtmlPipe</text>
</g>
<!-- SafeHtmlPipe&#45;&gt;ToolModule -->
<g id="edge9" class="edge">
<title>SafeHtmlPipe&#45;&gt;ToolModule</title>
<path fill="none" stroke="#000000" d="M942.9231,-122.1243C942.9231,-136.7832 942.9231,-155 942.9231,-155 942.9231,-155 1058.8973,-155 1058.8973,-155"/>
<polygon fill="#000000" stroke="#000000" points="1058.8973,-158.5001 1068.8973,-155 1058.8973,-151.5001 1058.8973,-158.5001"/>
</g>
<!-- SimpleNzConfirmWrapComponent -->
<g id="node10" class="node">
<title>SimpleNzConfirmWrapComponent</title>
<polygon fill="#ffffb3" stroke="#000000" points="864.8515,-122 649.1485,-122 649.1485,-86 864.8515,-86 864.8515,-122"/>
<text text-anchor="middle" x="757" y="-99.8" font-family="Times,serif" font-size="14.00" fill="#000000">SimpleNzConfirmWrapComponent</text>
</g>
<!-- SimpleNzConfirmWrapComponent&#45;&gt;ToolModule -->
<g id="edge10" class="edge">
<title>SimpleNzConfirmWrapComponent&#45;&gt;ToolModule</title>
<path fill="none" stroke="#000000" d="M860.8007,-122.2819C860.8007,-137.9478 860.8007,-158 860.8007,-158 860.8007,-158 1058.8173,-158 1058.8173,-158"/>
<polygon fill="#000000" stroke="#000000" points="1058.8173,-161.5001 1068.8173,-158 1058.8173,-154.5001 1058.8173,-161.5001"/>
</g>
<!-- TextCenterDirective -->
<g id="node11" class="node">
<title>TextCenterDirective</title>
<polygon fill="#ffffb3" stroke="#000000" points="631.5576,-122 500.4424,-122 500.4424,-86 631.5576,-86 631.5576,-122"/>
<text text-anchor="middle" x="566" y="-99.8" font-family="Times,serif" font-size="14.00" fill="#000000">TextCenterDirective</text>
</g>
<!-- TextCenterDirective&#45;&gt;ToolModule -->
<g id="edge11" class="edge">
<title>TextCenterDirective&#45;&gt;ToolModule</title>
<path fill="none" stroke="#000000" d="M625.4038,-122.0352C625.4038,-138.7344 625.4038,-161 625.4038,-161 625.4038,-161 1058.8178,-161 1058.8178,-161"/>
<polygon fill="#000000" stroke="#000000" points="1058.8179,-164.5001 1068.8178,-161 1058.8178,-157.5001 1058.8179,-164.5001"/>
</g>
<!-- TextDirectionDirective -->
<g id="node12" class="node">
<title>TextDirectionDirective</title>
<polygon fill="#ffffb3" stroke="#000000" points="482.1093,-122 335.8907,-122 335.8907,-86 482.1093,-86 482.1093,-122"/>
<text text-anchor="middle" x="409" y="-99.8" font-family="Times,serif" font-size="14.00" fill="#000000">TextDirectionDirective</text>
</g>
<!-- TextDirectionDirective&#45;&gt;ToolModule -->
<g id="edge12" class="edge">
<title>TextDirectionDirective&#45;&gt;ToolModule</title>
<path fill="none" stroke="#000000" d="M474.6794,-122.302C474.6794,-140.2699 474.6794,-165 474.6794,-165 474.6794,-165 1058.6954,-165 1058.6954,-165"/>
<polygon fill="#000000" stroke="#000000" points="1058.6955,-168.5001 1068.6954,-165 1058.6954,-161.5001 1058.6955,-168.5001"/>
</g>
<!-- VerifyPasswordComponent -->
<g id="node13" class="node">
<title>VerifyPasswordComponent</title>
<polygon fill="#ffffb3" stroke="#000000" points="317.5197,-122 146.4803,-122 146.4803,-86 317.5197,-86 317.5197,-122"/>
<text text-anchor="middle" x="232" y="-99.8" font-family="Times,serif" font-size="14.00" fill="#000000">VerifyPasswordComponent</text>
</g>
<!-- VerifyPasswordComponent&#45;&gt;ToolModule -->
<g id="edge13" class="edge">
<title>VerifyPasswordComponent&#45;&gt;ToolModule</title>
<path fill="none" stroke="#000000" d="M231.5931,-122.1686C231.5931,-141.0898 231.5931,-168 231.593,-168 231.593,-168 1058.9402,-168 1058.9402,-168"/>
<polygon fill="#000000" stroke="#000000" points="1058.9402,-171.5001 1068.9402,-168 1058.9401,-164.5001 1058.9402,-171.5001"/>
</g>
<!-- BytesPipe  -->
<g id="node16" class="node">
<title>BytesPipe </title>
<polygon fill="#fb8072" stroke="#000000" points="1757.2747,-252 1680.7253,-252 1680.7253,-216 1757.2747,-216 1757.2747,-252"/>
<text text-anchor="middle" x="1719" y="-229.8" font-family="Times,serif" font-size="14.00" fill="#000000">BytesPipe </text>
</g>
<!-- ToolModule&#45;&gt;BytesPipe  -->
<g id="edge15" class="edge">
<title>ToolModule&#45;&gt;BytesPipe </title>
<path fill="none" stroke="#000000" stroke-dasharray="5,2" d="M1155.1673,-174C1293.8419,-174 1719,-174 1719,-174 1719,-174 1719,-205.998 1719,-205.998"/>
<polygon fill="#000000" stroke="#000000" points="1715.5001,-205.998 1719,-215.998 1722.5001,-205.9981 1715.5001,-205.998"/>
</g>
<!-- FooterComponent  -->
<g id="node17" class="node">
<title>FooterComponent </title>
<polygon fill="#fb8072" stroke="#000000" points="1662.8814,-252 1541.1186,-252 1541.1186,-216 1662.8814,-216 1662.8814,-252"/>
<text text-anchor="middle" x="1602" y="-229.8" font-family="Times,serif" font-size="14.00" fill="#000000">FooterComponent </text>
</g>
<!-- ToolModule&#45;&gt;FooterComponent  -->
<g id="edge16" class="edge">
<title>ToolModule&#45;&gt;FooterComponent </title>
<path fill="none" stroke="#000000" stroke-dasharray="5,2" d="M1155.2097,-178C1273.5478,-178 1594.125,-178 1594.125,-178 1594.125,-178 1594.125,-205.973 1594.125,-205.973"/>
<polygon fill="#000000" stroke="#000000" points="1590.6251,-205.973 1594.125,-215.973 1597.6251,-205.973 1590.6251,-205.973"/>
</g>
<!-- FromJSONPipe  -->
<g id="node18" class="node">
<title>FromJSONPipe </title>
<polygon fill="#fb8072" stroke="#000000" points="1523.1621,-252 1414.8379,-252 1414.8379,-216 1523.1621,-216 1523.1621,-252"/>
<text text-anchor="middle" x="1469" y="-229.8" font-family="Times,serif" font-size="14.00" fill="#000000">FromJSONPipe </text>
</g>
<!-- ToolModule&#45;&gt;FromJSONPipe  -->
<g id="edge17" class="edge">
<title>ToolModule&#45;&gt;FromJSONPipe </title>
<path fill="none" stroke="#000000" stroke-dasharray="5,2" d="M1155.0548,-181C1248.8153,-181 1463.125,-181 1463.125,-181 1463.125,-181 1463.125,-205.7604 1463.125,-205.7604"/>
<polygon fill="#000000" stroke="#000000" points="1459.6251,-205.7604 1463.125,-215.7604 1466.6251,-205.7604 1459.6251,-205.7604"/>
</g>
<!-- IndicatorComponent  -->
<g id="node19" class="node">
<title>IndicatorComponent </title>
<polygon fill="#fb8072" stroke="#000000" points="1396.8645,-252 1261.1355,-252 1261.1355,-216 1396.8645,-216 1396.8645,-252"/>
<text text-anchor="middle" x="1329" y="-229.8" font-family="Times,serif" font-size="14.00" fill="#000000">IndicatorComponent </text>
</g>
<!-- ToolModule&#45;&gt;IndicatorComponent  -->
<g id="edge18" class="edge">
<title>ToolModule&#45;&gt;IndicatorComponent </title>
<path fill="none" stroke="#000000" stroke-dasharray="5,2" d="M1155.0562,-184C1211.6218,-184 1303.856,-184 1303.856,-184 1303.856,-184 1303.856,-205.9489 1303.856,-205.9489"/>
<polygon fill="#000000" stroke="#000000" points="1300.3561,-205.9488 1303.856,-215.9489 1307.3561,-205.9489 1300.3561,-205.9488"/>
</g>
<!-- NavbarComponent  -->
<g id="node20" class="node">
<title>NavbarComponent </title>
<polygon fill="#fb8072" stroke="#000000" points="1243.0288,-252 1116.9712,-252 1116.9712,-216 1243.0288,-216 1243.0288,-252"/>
<text text-anchor="middle" x="1180" y="-229.8" font-family="Times,serif" font-size="14.00" fill="#000000">NavbarComponent </text>
</g>
<!-- ToolModule&#45;&gt;NavbarComponent  -->
<g id="edge19" class="edge">
<title>ToolModule&#45;&gt;NavbarComponent </title>
<path fill="none" stroke="#000000" stroke-dasharray="5,2" d="M1135.9911,-187.1061C1135.9911,-187.1061 1135.9911,-205.991 1135.9911,-205.991"/>
<polygon fill="#000000" stroke="#000000" points="1132.4911,-205.9909 1135.9911,-215.991 1139.4911,-205.991 1132.4911,-205.9909"/>
</g>
<!-- OriginDataPipe  -->
<g id="node21" class="node">
<title>OriginDataPipe </title>
<polygon fill="#fb8072" stroke="#000000" points="1098.8632,-252 991.1368,-252 991.1368,-216 1098.8632,-216 1098.8632,-252"/>
<text text-anchor="middle" x="1045" y="-229.8" font-family="Times,serif" font-size="14.00" fill="#000000">OriginDataPipe </text>
</g>
<!-- ToolModule&#45;&gt;OriginDataPipe  -->
<g id="edge20" class="edge">
<title>ToolModule&#45;&gt;OriginDataPipe </title>
<path fill="none" stroke="#000000" stroke-dasharray="5,2" d="M1083.8424,-187.1061C1083.8424,-187.1061 1083.8424,-205.991 1083.8424,-205.991"/>
<polygon fill="#000000" stroke="#000000" points="1080.3425,-205.9909 1083.8424,-215.991 1087.3425,-205.991 1080.3425,-205.9909"/>
</g>
<!-- SafeHtmlPipe  -->
<g id="node22" class="node">
<title>SafeHtmlPipe </title>
<polygon fill="#fb8072" stroke="#000000" points="973.0386,-252 874.9614,-252 874.9614,-216 973.0386,-216 973.0386,-252"/>
<text text-anchor="middle" x="924" y="-229.8" font-family="Times,serif" font-size="14.00" fill="#000000">SafeHtmlPipe </text>
</g>
<!-- ToolModule&#45;&gt;SafeHtmlPipe  -->
<g id="edge21" class="edge">
<title>ToolModule&#45;&gt;SafeHtmlPipe </title>
<path fill="none" stroke="#000000" stroke-dasharray="5,2" d="M1068.7824,-184C1010.204,-184 912.8269,-184 912.8269,-184 912.8269,-184 912.8269,-205.9489 912.8269,-205.9489"/>
<polygon fill="#000000" stroke="#000000" points="909.327,-205.9488 912.8269,-215.9489 916.327,-205.9489 909.327,-205.9488"/>
</g>
<!-- SimpleNzConfirmWrapComponent  -->
<g id="node23" class="node">
<title>SimpleNzConfirmWrapComponent </title>
<polygon fill="#fb8072" stroke="#000000" points="856.8517,-252 637.1483,-252 637.1483,-216 856.8517,-216 856.8517,-252"/>
<text text-anchor="middle" x="747" y="-229.8" font-family="Times,serif" font-size="14.00" fill="#000000">SimpleNzConfirmWrapComponent </text>
</g>
<!-- ToolModule&#45;&gt;SimpleNzConfirmWrapComponent  -->
<g id="edge22" class="edge">
<title>ToolModule&#45;&gt;SimpleNzConfirmWrapComponent </title>
<path fill="none" stroke="#000000" stroke-dasharray="5,2" d="M1068.6811,-181C973.1648,-181 752.875,-181 752.875,-181 752.875,-181 752.875,-205.7604 752.875,-205.7604"/>
<polygon fill="#000000" stroke="#000000" points="749.3751,-205.7604 752.875,-215.7604 756.3751,-205.7604 749.3751,-205.7604"/>
</g>
<!-- TextCenterDirective  -->
<g id="node24" class="node">
<title>TextCenterDirective </title>
<polygon fill="#fb8072" stroke="#000000" points="619.0583,-252 484.9417,-252 484.9417,-216 619.0583,-216 619.0583,-252"/>
<text text-anchor="middle" x="552" y="-229.8" font-family="Times,serif" font-size="14.00" fill="#000000">TextCenterDirective </text>
</g>
<!-- ToolModule&#45;&gt;TextCenterDirective  -->
<g id="edge23" class="edge">
<title>ToolModule&#45;&gt;TextCenterDirective </title>
<path fill="none" stroke="#000000" stroke-dasharray="5,2" d="M1068.6757,-178C938.5174,-178 559.875,-178 559.875,-178 559.875,-178 559.875,-205.973 559.875,-205.973"/>
<polygon fill="#000000" stroke="#000000" points="556.3751,-205.973 559.875,-215.973 563.3751,-205.973 556.3751,-205.973"/>
</g>
<!-- TextDirectionDirective  -->
<g id="node25" class="node">
<title>TextDirectionDirective </title>
<polygon fill="#fb8072" stroke="#000000" points="467.1088,-252 316.8912,-252 316.8912,-216 467.1088,-216 467.1088,-252"/>
<text text-anchor="middle" x="392" y="-229.8" font-family="Times,serif" font-size="14.00" fill="#000000">TextDirectionDirective </text>
</g>
<!-- ToolModule&#45;&gt;TextDirectionDirective  -->
<g id="edge24" class="edge">
<title>ToolModule&#45;&gt;TextDirectionDirective </title>
<path fill="none" stroke="#000000" stroke-dasharray="5,2" d="M1068.8826,-174C914.9195,-174 401.375,-174 401.375,-174 401.375,-174 401.375,-205.998 401.375,-205.998"/>
<polygon fill="#000000" stroke="#000000" points="397.8751,-205.998 401.375,-215.998 404.8751,-205.9981 397.8751,-205.998"/>
</g>
<!-- SharedModule -->
<g id="node15" class="node">
<title>SharedModule</title>
<polygon fill="#8dd3c7" stroke="#000000" points="122.4231,-122 119.4231,-126 98.4231,-126 95.4231,-122 23.5769,-122 23.5769,-86 122.4231,-86 122.4231,-122"/>
<text text-anchor="middle" x="73" y="-99.8" font-family="Times,serif" font-size="14.00" fill="#000000">SharedModule</text>
</g>
<!-- SharedModule&#45;&gt;ToolModule -->
<g id="edge14" class="edge">
<title>SharedModule&#45;&gt;ToolModule</title>
<path fill="none" stroke="#000000" d="M73,-122.308C73,-142.1455 73,-171 73,-171 73,-171 1059.0062,-171 1059.0062,-171"/>
<polygon fill="#000000" stroke="#000000" points="1059.0062,-174.5001 1069.0062,-171 1059.0061,-167.5001 1059.0062,-174.5001"/>
</g>
</g>
</svg>
