<?xml version="1.0" encoding="UTF-8" standalone="no"?>
<!DOCTYPE svg PUBLIC "-//W3C//DTD SVG 1.1//EN"
 "http://www.w3.org/Graphics/SVG/1.1/DTD/svg11.dtd">
<!-- Generated by graphviz version 2.40.1 (20161225.0304)
 -->
<!-- Title: dependencies Pages: 1 -->
<svg width="2855pt" height="284pt"
 viewBox="0.00 0.00 2855.00 284.00" xmlns="http://www.w3.org/2000/svg" xmlns:xlink="http://www.w3.org/1999/xlink">
<g id="graph0" class="graph" transform="scale(1 1) rotate(0) translate(4 280)">
<title>dependencies</title>
<polygon fill="#ffffff" stroke="transparent" points="-4,4 -4,-280 2851,-280 2851,4 -4,4"/>
<text text-anchor="start" x="1402.5091" y="-42.4" font-family="sans-serif" font-weight="bold" font-size="14.00" fill="#000000">Legend</text>
<polygon fill="#ffffb3" stroke="transparent" points="1189.5,-10 1189.5,-30 1209.5,-30 1209.5,-10 1189.5,-10"/>
<text text-anchor="start" x="1213.129" y="-15.4" font-family="sans-serif" font-size="14.00" fill="#000000"> &#160;Declarations</text>
<polygon fill="#8dd3c7" stroke="transparent" points="1302.5,-10 1302.5,-30 1322.5,-30 1322.5,-10 1302.5,-10"/>
<text text-anchor="start" x="1326.2251" y="-15.4" font-family="sans-serif" font-size="14.00" fill="#000000"> &#160;Module</text>
<polygon fill="#80b1d3" stroke="transparent" points="1388.5,-10 1388.5,-30 1408.5,-30 1408.5,-10 1388.5,-10"/>
<text text-anchor="start" x="1412.2812" y="-15.4" font-family="sans-serif" font-size="14.00" fill="#000000"> &#160;Bootstrap</text>
<polygon fill="#fdb462" stroke="transparent" points="1485.5,-10 1485.5,-30 1505.5,-30 1505.5,-10 1485.5,-10"/>
<text text-anchor="start" x="1509.1732" y="-15.4" font-family="sans-serif" font-size="14.00" fill="#000000"> &#160;Providers</text>
<polygon fill="#fb8072" stroke="transparent" points="1581.5,-10 1581.5,-30 1601.5,-30 1601.5,-10 1581.5,-10"/>
<text text-anchor="start" x="1605.2258" y="-15.4" font-family="sans-serif" font-size="14.00" fill="#000000"> &#160;Exports</text>
<g id="clust1" class="cluster">
<title>cluster_ToolModule</title>
<polygon fill="none" stroke="#000000" stroke-dasharray="1,5" points="8,-70 8,-268 2839,-268 2839,-70 8,-70"/>
</g>
<g id="clust2" class="cluster">
<title>cluster_ToolModule_declarations</title>
<polygon fill="none" stroke="#000000" points="138,-78 138,-130 2831,-130 2831,-78 138,-78"/>
</g>
<g id="clust19" class="cluster">
<title>cluster_ToolModule_imports</title>
<polygon fill="none" stroke="#000000" points="16,-78 16,-130 130,-130 130,-78 16,-78"/>
</g>
<g id="clust20" class="cluster">
<title>cluster_ToolModule_exports</title>
<polygon fill="none" stroke="#000000" points="404,-208 404,-260 2407,-260 2407,-208 404,-208"/>
</g>
<!-- AgentRegionPipe -->
<g id="node1" class="node">
<title>AgentRegionPipe</title>
<polygon fill="#ffffb3" stroke="#000000" points="2822.5423,-122 2707.4577,-122 2707.4577,-86 2822.5423,-86 2822.5423,-122"/>
<text text-anchor="middle" x="2765" y="-99.8" font-family="Times,serif" font-size="14.00" fill="#000000">AgentRegionPipe</text>
</g>
<!-- ToolModule -->
<g id="node17" class="node">
<title>ToolModule</title>
<polygon fill="#8dd3c7" stroke="#000000" points="1581.993,-187 1578.993,-191 1557.993,-191 1554.993,-187 1496.007,-187 1496.007,-151 1581.993,-151 1581.993,-187"/>
<text text-anchor="middle" x="1539" y="-164.8" font-family="Times,serif" font-size="14.00" fill="#000000">ToolModule</text>
</g>
<!-- AgentRegionPipe&#45;&gt;ToolModule -->
<g id="edge1" class="edge">
<title>AgentRegionPipe&#45;&gt;ToolModule</title>
<path fill="none" stroke="#000000" d="M2765,-122.2228C2765,-142.3652 2765,-172 2765,-172 2765,-172 1592.2739,-172 1592.2739,-172"/>
<polygon fill="#000000" stroke="#000000" points="1592.2739,-168.5001 1582.2739,-172 1592.2738,-175.5001 1592.2739,-168.5001"/>
</g>
<!-- CommentComponent -->
<g id="node2" class="node">
<title>CommentComponent</title>
<polygon fill="#ffffb3" stroke="#000000" points="2689.0561,-122 2552.9439,-122 2552.9439,-86 2689.0561,-86 2689.0561,-122"/>
<text text-anchor="middle" x="2621" y="-99.8" font-family="Times,serif" font-size="14.00" fill="#000000">CommentComponent</text>
</g>
<!-- CommentComponent&#45;&gt;ToolModule -->
<g id="edge2" class="edge">
<title>CommentComponent&#45;&gt;ToolModule</title>
<path fill="none" stroke="#000000" d="M2621,-122.1061C2621,-141.3391 2621,-169 2621,-169 2621,-169 1592.0834,-169 1592.0834,-169"/>
<polygon fill="#000000" stroke="#000000" points="1592.0834,-165.5001 1582.0834,-169 1592.0833,-172.5001 1592.0834,-165.5001"/>
</g>
<!-- ConfirmComponent -->
<g id="node3" class="node">
<title>ConfirmComponent</title>
<polygon fill="#ffffb3" stroke="#000000" points="2534.2716,-122 2405.7284,-122 2405.7284,-86 2534.2716,-86 2534.2716,-122"/>
<text text-anchor="middle" x="2470" y="-99.8" font-family="Times,serif" font-size="14.00" fill="#000000">ConfirmComponent</text>
</g>
<!-- ConfirmComponent&#45;&gt;ToolModule -->
<g id="edge3" class="edge">
<title>ConfirmComponent&#45;&gt;ToolModule</title>
<path fill="none" stroke="#000000" d="M2470,-122.2222C2470,-140.8285 2470,-167 2470,-167 2470,-167 1592.0369,-167 1592.0369,-167"/>
<polygon fill="#000000" stroke="#000000" points="1592.0369,-163.5001 1582.0369,-167 1592.0368,-170.5001 1592.0369,-163.5001"/>
</g>
<!-- CustomSnackBarComponent -->
<g id="node4" class="node">
<title>CustomSnackBarComponent</title>
<polygon fill="#ffffb3" stroke="#000000" points="2387.8187,-122 2208.1813,-122 2208.1813,-86 2387.8187,-86 2387.8187,-122"/>
<text text-anchor="middle" x="2298" y="-99.8" font-family="Times,serif" font-size="14.00" fill="#000000">CustomSnackBarComponent</text>
</g>
<!-- CustomSnackBarComponent&#45;&gt;ToolModule -->
<g id="edge4" class="edge">
<title>CustomSnackBarComponent&#45;&gt;ToolModule</title>
<path fill="none" stroke="#000000" d="M2234.6843,-122.002C2234.6843,-139.6754 2234.6843,-164 2234.6843,-164 2234.6843,-164 1591.9932,-164 1591.9932,-164"/>
<polygon fill="#000000" stroke="#000000" points="1591.9932,-160.5001 1581.9932,-164 1591.9931,-167.5001 1591.9932,-160.5001"/>
</g>
<!-- FooterComponent -->
<g id="node5" class="node">
<title>FooterComponent</title>
<polygon fill="#ffffb3" stroke="#000000" points="2189.8809,-122 2072.1191,-122 2072.1191,-86 2189.8809,-86 2189.8809,-122"/>
<text text-anchor="middle" x="2131" y="-99.8" font-family="Times,serif" font-size="14.00" fill="#000000">FooterComponent</text>
</g>
<!-- FooterComponent&#45;&gt;ToolModule -->
<g id="edge5" class="edge">
<title>FooterComponent&#45;&gt;ToolModule</title>
<path fill="none" stroke="#000000" d="M2087.375,-122.0336C2087.375,-139.0597 2087.375,-162 2087.375,-162 2087.375,-162 1592.0301,-162 1592.0301,-162"/>
<polygon fill="#000000" stroke="#000000" points="1592.0301,-158.5001 1582.0301,-162 1592.03,-165.5001 1592.0301,-158.5001"/>
</g>
<!-- IndicatorComponent -->
<g id="node6" class="node">
<title>IndicatorComponent</title>
<polygon fill="#ffffb3" stroke="#000000" points="2053.8641,-122 1922.1359,-122 1922.1359,-86 2053.8641,-86 2053.8641,-122"/>
<text text-anchor="middle" x="1988" y="-99.8" font-family="Times,serif" font-size="14.00" fill="#000000">IndicatorComponent</text>
</g>
<!-- IndicatorComponent&#45;&gt;ToolModule -->
<g id="edge6" class="edge">
<title>IndicatorComponent&#45;&gt;ToolModule</title>
<path fill="none" stroke="#000000" d="M1942.875,-122.0091C1942.875,-138.0494 1942.875,-159 1942.875,-159 1942.875,-159 1592.2217,-159 1592.2217,-159"/>
<polygon fill="#000000" stroke="#000000" points="1592.2217,-155.5001 1582.2217,-159 1592.2217,-162.5001 1592.2217,-155.5001"/>
</g>
<!-- IsOldVersionPipe -->
<g id="node7" class="node">
<title>IsOldVersionPipe</title>
<polygon fill="#ffffb3" stroke="#000000" points="1904.3076,-122 1787.6924,-122 1787.6924,-86 1904.3076,-86 1904.3076,-122"/>
<text text-anchor="middle" x="1846" y="-99.8" font-family="Times,serif" font-size="14.00" fill="#000000">IsOldVersionPipe</text>
</g>
<!-- IsOldVersionPipe&#45;&gt;ToolModule -->
<g id="edge7" class="edge">
<title>IsOldVersionPipe&#45;&gt;ToolModule</title>
<path fill="none" stroke="#000000" d="M1798.875,-122.2396C1798.875,-137.5706 1798.875,-157 1798.875,-157 1798.875,-157 1592.2048,-157 1592.2048,-157"/>
<polygon fill="#000000" stroke="#000000" points="1592.2048,-153.5001 1582.2048,-157 1592.2048,-160.5001 1592.2048,-153.5001"/>
</g>
<!-- NavbarComponent -->
<g id="node8" class="node">
<title>NavbarComponent</title>
<polygon fill="#ffffb3" stroke="#000000" points="1770.0297,-122 1647.9703,-122 1647.9703,-86 1770.0297,-86 1770.0297,-122"/>
<text text-anchor="middle" x="1709" y="-99.8" font-family="Times,serif" font-size="14.00" fill="#000000">NavbarComponent</text>
</g>
<!-- NavbarComponent&#45;&gt;ToolModule -->
<g id="edge8" class="edge">
<title>NavbarComponent&#45;&gt;ToolModule</title>
<path fill="none" stroke="#000000" d="M1659.875,-122.0511C1659.875,-136.373 1659.875,-154 1659.875,-154 1659.875,-154 1592.2972,-154 1592.2972,-154"/>
<polygon fill="#000000" stroke="#000000" points="1592.2973,-150.5001 1582.2972,-154 1592.2972,-157.5001 1592.2973,-150.5001"/>
</g>
<!-- OperateCommentComponent -->
<g id="node9" class="node">
<title>OperateCommentComponent</title>
<polygon fill="#ffffb3" stroke="#000000" points="1629.3571,-122 1448.6429,-122 1448.6429,-86 1629.3571,-86 1629.3571,-122"/>
<text text-anchor="middle" x="1539" y="-99.8" font-family="Times,serif" font-size="14.00" fill="#000000">OperateCommentComponent</text>
</g>
<!-- OperateCommentComponent&#45;&gt;ToolModule -->
<g id="edge9" class="edge">
<title>OperateCommentComponent&#45;&gt;ToolModule</title>
<path fill="none" stroke="#000000" d="M1539,-122.1061C1539,-122.1061 1539,-140.991 1539,-140.991"/>
<polygon fill="#000000" stroke="#000000" points="1535.5001,-140.9909 1539,-150.991 1542.5001,-140.991 1535.5001,-140.9909"/>
</g>
<!-- ReplyComponent -->
<g id="node10" class="node">
<title>ReplyComponent</title>
<polygon fill="#ffffb3" stroke="#000000" points="1430.2744,-122 1315.7256,-122 1315.7256,-86 1430.2744,-86 1430.2744,-122"/>
<text text-anchor="middle" x="1373" y="-99.8" font-family="Times,serif" font-size="14.00" fill="#000000">ReplyComponent</text>
</g>
<!-- ReplyComponent&#45;&gt;ToolModule -->
<g id="edge10" class="edge">
<title>ReplyComponent&#45;&gt;ToolModule</title>
<path fill="none" stroke="#000000" d="M1420.125,-122.0511C1420.125,-136.373 1420.125,-154 1420.125,-154 1420.125,-154 1485.7471,-154 1485.7471,-154"/>
<polygon fill="#000000" stroke="#000000" points="1485.7472,-157.5001 1495.7471,-154 1485.7471,-150.5001 1485.7472,-157.5001"/>
</g>
<!-- RunningLogComponent -->
<g id="node11" class="node">
<title>RunningLogComponent</title>
<polygon fill="#ffffb3" stroke="#000000" points="1298.1122,-122 1145.8878,-122 1145.8878,-86 1298.1122,-86 1298.1122,-122"/>
<text text-anchor="middle" x="1222" y="-99.8" font-family="Times,serif" font-size="14.00" fill="#000000">RunningLogComponent</text>
</g>
<!-- RunningLogComponent&#45;&gt;ToolModule -->
<g id="edge11" class="edge">
<title>RunningLogComponent&#45;&gt;ToolModule</title>
<path fill="none" stroke="#000000" d="M1267.125,-122.2396C1267.125,-137.5706 1267.125,-157 1267.125,-157 1267.125,-157 1485.9206,-157 1485.9206,-157"/>
<polygon fill="#000000" stroke="#000000" points="1485.9206,-160.5001 1495.9206,-157 1485.9206,-153.5001 1485.9206,-160.5001"/>
</g>
<!-- SelectTypeValueValidateDirective -->
<g id="node12" class="node">
<title>SelectTypeValueValidateDirective</title>
<polygon fill="#ffffb3" stroke="#000000" points="1127.9062,-122 916.0938,-122 916.0938,-86 1127.9062,-86 1127.9062,-122"/>
<text text-anchor="middle" x="1022" y="-99.8" font-family="Times,serif" font-size="14.00" fill="#000000">SelectTypeValueValidateDirective</text>
</g>
<!-- SelectTypeValueValidateDirective&#45;&gt;ToolModule -->
<g id="edge12" class="edge">
<title>SelectTypeValueValidateDirective&#45;&gt;ToolModule</title>
<path fill="none" stroke="#000000" d="M1065.125,-122.0091C1065.125,-138.0494 1065.125,-159 1065.125,-159 1065.125,-159 1485.6905,-159 1485.6905,-159"/>
<polygon fill="#000000" stroke="#000000" points="1485.6906,-162.5001 1495.6905,-159 1485.6905,-155.5001 1485.6906,-162.5001"/>
</g>
<!-- ShareComponent -->
<g id="node13" class="node">
<title>ShareComponent</title>
<polygon fill="#ffffb3" stroke="#000000" points="897.705,-122 784.295,-122 784.295,-86 897.705,-86 897.705,-122"/>
<text text-anchor="middle" x="841" y="-99.8" font-family="Times,serif" font-size="14.00" fill="#000000">ShareComponent</text>
</g>
<!-- ShareComponent&#45;&gt;ToolModule -->
<g id="edge13" class="edge">
<title>ShareComponent&#45;&gt;ToolModule</title>
<path fill="none" stroke="#000000" d="M882.625,-122.0336C882.625,-139.0597 882.625,-162 882.625,-162 882.625,-162 1485.9334,-162 1485.9334,-162"/>
<polygon fill="#000000" stroke="#000000" points="1485.9334,-165.5001 1495.9334,-162 1485.9334,-158.5001 1485.9334,-165.5001"/>
</g>
<!-- SimpleNzConfirmWrapComponent -->
<g id="node14" class="node">
<title>SimpleNzConfirmWrapComponent</title>
<polygon fill="#ffffb3" stroke="#000000" points="765.8515,-122 550.1485,-122 550.1485,-86 765.8515,-86 765.8515,-122"/>
<text text-anchor="middle" x="658" y="-99.8" font-family="Times,serif" font-size="14.00" fill="#000000">SimpleNzConfirmWrapComponent</text>
</g>
<!-- SimpleNzConfirmWrapComponent&#45;&gt;ToolModule -->
<g id="edge14" class="edge">
<title>SimpleNzConfirmWrapComponent&#45;&gt;ToolModule</title>
<path fill="none" stroke="#000000" d="M698.125,-122.002C698.125,-139.6754 698.125,-164 698.125,-164 698.125,-164 1485.8537,-164 1485.8537,-164"/>
<polygon fill="#000000" stroke="#000000" points="1485.8537,-167.5001 1495.8537,-164 1485.8536,-160.5001 1485.8537,-167.5001"/>
</g>
<!-- VariableNameValidateDirective -->
<g id="node15" class="node">
<title>VariableNameValidateDirective</title>
<polygon fill="#ffffb3" stroke="#000000" points="532.6236,-122 335.3764,-122 335.3764,-86 532.6236,-86 532.6236,-122"/>
<text text-anchor="middle" x="434" y="-99.8" font-family="Times,serif" font-size="14.00" fill="#000000">VariableNameValidateDirective</text>
</g>
<!-- VariableNameValidateDirective&#45;&gt;ToolModule -->
<g id="edge15" class="edge">
<title>VariableNameValidateDirective&#45;&gt;ToolModule</title>
<path fill="none" stroke="#000000" d="M472.125,-122.2222C472.125,-140.8285 472.125,-167 472.125,-167 472.125,-167 1485.8559,-167 1485.8559,-167"/>
<polygon fill="#000000" stroke="#000000" points="1485.8559,-170.5001 1495.8559,-167 1485.8558,-163.5001 1485.8559,-170.5001"/>
</g>
<!-- VerifyPasswordComponent -->
<g id="node16" class="node">
<title>VerifyPasswordComponent</title>
<polygon fill="#ffffb3" stroke="#000000" points="317.5197,-122 146.4803,-122 146.4803,-86 317.5197,-86 317.5197,-122"/>
<text text-anchor="middle" x="232" y="-99.8" font-family="Times,serif" font-size="14.00" fill="#000000">VerifyPasswordComponent</text>
</g>
<!-- VerifyPasswordComponent&#45;&gt;ToolModule -->
<g id="edge16" class="edge">
<title>VerifyPasswordComponent&#45;&gt;ToolModule</title>
<path fill="none" stroke="#000000" d="M232,-122.1061C232,-141.3391 232,-169 232,-169 232,-169 1485.886,-169 1485.886,-169"/>
<polygon fill="#000000" stroke="#000000" points="1485.8861,-172.5001 1495.886,-169 1485.886,-165.5001 1485.8861,-172.5001"/>
</g>
<!-- AgentRegionPipe  -->
<g id="node19" class="node">
<title>AgentRegionPipe </title>
<polygon fill="#fb8072" stroke="#000000" points="2398.5414,-252 2279.4586,-252 2279.4586,-216 2398.5414,-216 2398.5414,-252"/>
<text text-anchor="middle" x="2339" y="-229.8" font-family="Times,serif" font-size="14.00" fill="#000000">AgentRegionPipe </text>
</g>
<!-- ToolModule&#45;&gt;AgentRegionPipe  -->
<g id="edge18" class="edge">
<title>ToolModule&#45;&gt;AgentRegionPipe </title>
<path fill="none" stroke="#000000" stroke-dasharray="5,2" d="M1582.0012,-175C1747.4263,-175 2333.5693,-175 2333.5693,-175 2333.5693,-175 2333.5693,-205.9775 2333.5693,-205.9775"/>
<polygon fill="#000000" stroke="#000000" points="2330.0693,-205.9774 2333.5693,-215.9775 2337.0693,-205.9775 2330.0693,-205.9774"/>
</g>
<!-- CommentComponent  -->
<g id="node20" class="node">
<title>CommentComponent </title>
<polygon fill="#fb8072" stroke="#000000" points="2261.0554,-252 2120.9446,-252 2120.9446,-216 2261.0554,-216 2261.0554,-252"/>
<text text-anchor="middle" x="2191" y="-229.8" font-family="Times,serif" font-size="14.00" fill="#000000">CommentComponent </text>
</g>
<!-- ToolModule&#45;&gt;CommentComponent  -->
<g id="edge19" class="edge">
<title>ToolModule&#45;&gt;CommentComponent </title>
<path fill="none" stroke="#000000" stroke-dasharray="5,2" d="M1582.348,-177C1722.6666,-177 2155.4564,-177 2155.4564,-177 2155.4564,-177 2155.4564,-205.9648 2155.4564,-205.9648"/>
<polygon fill="#000000" stroke="#000000" points="2151.9564,-205.9648 2155.4564,-215.9648 2158.9564,-205.9649 2151.9564,-205.9648"/>
</g>
<!-- FooterComponent  -->
<g id="node21" class="node">
<title>FooterComponent </title>
<polygon fill="#fb8072" stroke="#000000" points="2102.8814,-252 1981.1186,-252 1981.1186,-216 2102.8814,-216 2102.8814,-252"/>
<text text-anchor="middle" x="2042" y="-229.8" font-family="Times,serif" font-size="14.00" fill="#000000">FooterComponent </text>
</g>
<!-- ToolModule&#45;&gt;FooterComponent  -->
<g id="edge20" class="edge">
<title>ToolModule&#45;&gt;FooterComponent </title>
<path fill="none" stroke="#000000" stroke-dasharray="5,2" d="M1582.3186,-180C1700.1354,-180 2017.6208,-180 2017.6208,-180 2017.6208,-180 2017.6208,-205.7181 2017.6208,-205.7181"/>
<polygon fill="#000000" stroke="#000000" points="2014.1209,-205.718 2017.6208,-215.7181 2021.1209,-205.7181 2014.1209,-205.718"/>
</g>
<!-- IndicatorComponent  -->
<g id="node22" class="node">
<title>IndicatorComponent </title>
<polygon fill="#fb8072" stroke="#000000" points="1963.8645,-252 1828.1355,-252 1828.1355,-216 1963.8645,-216 1963.8645,-252"/>
<text text-anchor="middle" x="1896" y="-229.8" font-family="Times,serif" font-size="14.00" fill="#000000">IndicatorComponent </text>
</g>
<!-- ToolModule&#45;&gt;IndicatorComponent  -->
<g id="edge21" class="edge">
<title>ToolModule&#45;&gt;IndicatorComponent </title>
<path fill="none" stroke="#000000" stroke-dasharray="5,2" d="M1582.1169,-182C1670.9755,-182 1866.2358,-182 1866.2358,-182 1866.2358,-182 1866.2358,-205.8129 1866.2358,-205.8129"/>
<polygon fill="#000000" stroke="#000000" points="1862.7359,-205.8129 1866.2358,-215.8129 1869.7359,-205.813 1862.7359,-205.8129"/>
</g>
<!-- IsOldVersionPipe  -->
<g id="node23" class="node">
<title>IsOldVersionPipe </title>
<polygon fill="#fb8072" stroke="#000000" points="1809.8074,-252 1690.1926,-252 1690.1926,-216 1809.8074,-216 1809.8074,-252"/>
<text text-anchor="middle" x="1750" y="-229.8" font-family="Times,serif" font-size="14.00" fill="#000000">IsOldVersionPipe </text>
</g>
<!-- ToolModule&#45;&gt;IsOldVersionPipe  -->
<g id="edge22" class="edge">
<title>ToolModule&#45;&gt;IsOldVersionPipe </title>
<path fill="none" stroke="#000000" stroke-dasharray="5,2" d="M1582.3818,-185C1638.788,-185 1730.1804,-185 1730.1804,-185 1730.1804,-185 1730.1804,-205.7542 1730.1804,-205.7542"/>
<polygon fill="#000000" stroke="#000000" points="1726.6805,-205.7542 1730.1804,-215.7542 1733.6805,-205.7542 1726.6805,-205.7542"/>
</g>
<!-- NavbarComponent  -->
<g id="node24" class="node">
<title>NavbarComponent </title>
<polygon fill="#fb8072" stroke="#000000" points="1672.0288,-252 1545.9712,-252 1545.9712,-216 1672.0288,-216 1672.0288,-252"/>
<text text-anchor="middle" x="1609" y="-229.8" font-family="Times,serif" font-size="14.00" fill="#000000">NavbarComponent </text>
</g>
<!-- ToolModule&#45;&gt;NavbarComponent  -->
<g id="edge23" class="edge">
<title>ToolModule&#45;&gt;NavbarComponent </title>
<path fill="none" stroke="#000000" stroke-dasharray="5,2" d="M1563.9911,-187.1061C1563.9911,-187.1061 1563.9911,-205.991 1563.9911,-205.991"/>
<polygon fill="#000000" stroke="#000000" points="1560.4911,-205.9909 1563.9911,-215.991 1567.4911,-205.991 1560.4911,-205.9909"/>
</g>
<!-- ReplyComponent  -->
<g id="node25" class="node">
<title>ReplyComponent </title>
<polygon fill="#fb8072" stroke="#000000" points="1528.2745,-252 1409.7255,-252 1409.7255,-216 1528.2745,-216 1528.2745,-252"/>
<text text-anchor="middle" x="1469" y="-229.8" font-family="Times,serif" font-size="14.00" fill="#000000">ReplyComponent </text>
</g>
<!-- ToolModule&#45;&gt;ReplyComponent  -->
<g id="edge24" class="edge">
<title>ToolModule&#45;&gt;ReplyComponent </title>
<path fill="none" stroke="#000000" stroke-dasharray="5,2" d="M1512.0703,-187.1061C1512.0703,-187.1061 1512.0703,-205.991 1512.0703,-205.991"/>
<polygon fill="#000000" stroke="#000000" points="1508.5704,-205.9909 1512.0703,-215.991 1515.5704,-205.991 1508.5704,-205.9909"/>
</g>
<!-- RunningLogComponent  -->
<g id="node26" class="node">
<title>RunningLogComponent </title>
<polygon fill="#fb8072" stroke="#000000" points="1391.6127,-252 1236.3873,-252 1236.3873,-216 1391.6127,-216 1391.6127,-252"/>
<text text-anchor="middle" x="1314" y="-229.8" font-family="Times,serif" font-size="14.00" fill="#000000">RunningLogComponent </text>
</g>
<!-- ToolModule&#45;&gt;RunningLogComponent  -->
<g id="edge25" class="edge">
<title>ToolModule&#45;&gt;RunningLogComponent </title>
<path fill="none" stroke="#000000" stroke-dasharray="5,2" d="M1495.5576,-185C1440.7913,-185 1353.7095,-185 1353.7095,-185 1353.7095,-185 1353.7095,-205.7542 1353.7095,-205.7542"/>
<polygon fill="#000000" stroke="#000000" points="1350.2096,-205.7542 1353.7095,-215.7542 1357.2096,-205.7542 1350.2096,-205.7542"/>
</g>
<!-- SelectTypeValueValidateDirective  -->
<g id="node27" class="node">
<title>SelectTypeValueValidateDirective </title>
<polygon fill="#fb8072" stroke="#000000" points="1217.9066,-252 1002.0934,-252 1002.0934,-216 1217.9066,-216 1217.9066,-252"/>
<text text-anchor="middle" x="1110" y="-229.8" font-family="Times,serif" font-size="14.00" fill="#000000">SelectTypeValueValidateDirective </text>
</g>
<!-- ToolModule&#45;&gt;SelectTypeValueValidateDirective  -->
<g id="edge26" class="edge">
<title>ToolModule&#45;&gt;SelectTypeValueValidateDirective </title>
<path fill="none" stroke="#000000" stroke-dasharray="5,2" d="M1495.9162,-182C1400.9181,-182 1181.8235,-182 1181.8235,-182 1181.8235,-182 1181.8235,-205.8129 1181.8235,-205.8129"/>
<polygon fill="#000000" stroke="#000000" points="1178.3236,-205.8129 1181.8235,-215.8129 1185.3236,-205.813 1178.3236,-205.8129"/>
</g>
<!-- ShareComponent  -->
<g id="node28" class="node">
<title>ShareComponent </title>
<polygon fill="#fb8072" stroke="#000000" points="984.2052,-252 867.7948,-252 867.7948,-216 984.2052,-216 984.2052,-252"/>
<text text-anchor="middle" x="926" y="-229.8" font-family="Times,serif" font-size="14.00" fill="#000000">ShareComponent </text>
</g>
<!-- ToolModule&#45;&gt;ShareComponent  -->
<g id="edge27" class="edge">
<title>ToolModule&#45;&gt;ShareComponent </title>
<path fill="none" stroke="#000000" stroke-dasharray="5,2" d="M1495.7041,-180C1359.7279,-180 950.1997,-180 950.1997,-180 950.1997,-180 950.1997,-205.7181 950.1997,-205.7181"/>
<polygon fill="#000000" stroke="#000000" points="946.6997,-205.718 950.1997,-215.7181 953.6997,-205.7181 946.6997,-205.718"/>
</g>
<!-- SimpleNzConfirmWrapComponent  -->
<g id="node29" class="node">
<title>SimpleNzConfirmWrapComponent </title>
<polygon fill="#fb8072" stroke="#000000" points="849.8517,-252 630.1483,-252 630.1483,-216 849.8517,-216 849.8517,-252"/>
<text text-anchor="middle" x="740" y="-229.8" font-family="Times,serif" font-size="14.00" fill="#000000">SimpleNzConfirmWrapComponent </text>
</g>
<!-- ToolModule&#45;&gt;SimpleNzConfirmWrapComponent  -->
<g id="edge28" class="edge">
<title>ToolModule&#45;&gt;SimpleNzConfirmWrapComponent </title>
<path fill="none" stroke="#000000" stroke-dasharray="5,2" d="M1496,-177C1340.5746,-177 817.0367,-177 817.0367,-177 817.0367,-177 817.0367,-205.9648 817.0367,-205.9648"/>
<polygon fill="#000000" stroke="#000000" points="813.5367,-205.9648 817.0367,-215.9648 820.5367,-205.9649 813.5367,-205.9648"/>
</g>
<!-- VariableNameValidateDirective  -->
<g id="node30" class="node">
<title>VariableNameValidateDirective </title>
<polygon fill="#fb8072" stroke="#000000" points="612.124,-252 411.876,-252 411.876,-216 612.124,-216 612.124,-252"/>
<text text-anchor="middle" x="512" y="-229.8" font-family="Times,serif" font-size="14.00" fill="#000000">VariableNameValidateDirective </text>
</g>
<!-- ToolModule&#45;&gt;VariableNameValidateDirective  -->
<g id="edge29" class="edge">
<title>ToolModule&#45;&gt;VariableNameValidateDirective </title>
<path fill="none" stroke="#000000" stroke-dasharray="5,2" d="M1495.9843,-175C1309.6116,-175 581.1931,-175 581.1931,-175 581.1931,-175 581.1931,-205.9775 581.1931,-205.9775"/>
<polygon fill="#000000" stroke="#000000" points="577.6931,-205.9774 581.1931,-215.9775 584.6931,-205.9775 577.6931,-205.9774"/>
</g>
<!-- SharedModule -->
<g id="node18" class="node">
<title>SharedModule</title>
<polygon fill="#8dd3c7" stroke="#000000" points="122.4231,-122 119.4231,-126 98.4231,-126 95.4231,-122 23.5769,-122 23.5769,-86 122.4231,-86 122.4231,-122"/>
<text text-anchor="middle" x="73" y="-99.8" font-family="Times,serif" font-size="14.00" fill="#000000">SharedModule</text>
</g>
<!-- SharedModule&#45;&gt;ToolModule -->
<g id="edge17" class="edge">
<title>SharedModule&#45;&gt;ToolModule</title>
<path fill="none" stroke="#000000" d="M73,-122.2228C73,-142.3652 73,-172 73,-172 73,-172 1485.9193,-172 1485.9193,-172"/>
<polygon fill="#000000" stroke="#000000" points="1485.9194,-175.5001 1495.9193,-172 1485.9193,-168.5001 1485.9194,-175.5001"/>
</g>
</g>
</svg>
