<?xml version="1.0" encoding="UTF-8" standalone="no"?>
<!DOCTYPE svg PUBLIC "-//W3C//DTD SVG 1.1//EN"
 "http://www.w3.org/Graphics/SVG/1.1/DTD/svg11.dtd">
<!-- Generated by graphviz version 2.40.1 (20161225.0304)
 -->
<!-- Title: dependencies Pages: 1 -->
<svg width="504pt" height="211pt"
 viewBox="0.00 0.00 504.00 211.00" xmlns="http://www.w3.org/2000/svg" xmlns:xlink="http://www.w3.org/1999/xlink">
<g id="graph0" class="graph" transform="scale(1 1) rotate(0) translate(4 207)">
<title>dependencies</title>
<polygon fill="#ffffff" stroke="transparent" points="-4,4 -4,-207 500,-207 500,4 -4,4"/>
<text text-anchor="start" x="227.0091" y="-42.4" font-family="sans-serif" font-weight="bold" font-size="14.00" fill="#000000">Legend</text>
<polygon fill="#ffffb3" stroke="transparent" points="14,-10 14,-30 34,-30 34,-10 14,-10"/>
<text text-anchor="start" x="37.629" y="-15.4" font-family="sans-serif" font-size="14.00" fill="#000000"> &#160;Declarations</text>
<polygon fill="#8dd3c7" stroke="transparent" points="127,-10 127,-30 147,-30 147,-10 127,-10"/>
<text text-anchor="start" x="150.7251" y="-15.4" font-family="sans-serif" font-size="14.00" fill="#000000"> &#160;Module</text>
<polygon fill="#80b1d3" stroke="transparent" points="213,-10 213,-30 233,-30 233,-10 213,-10"/>
<text text-anchor="start" x="236.7812" y="-15.4" font-family="sans-serif" font-size="14.00" fill="#000000"> &#160;Bootstrap</text>
<polygon fill="#fdb462" stroke="transparent" points="310,-10 310,-30 330,-30 330,-10 310,-10"/>
<text text-anchor="start" x="333.6732" y="-15.4" font-family="sans-serif" font-size="14.00" fill="#000000"> &#160;Providers</text>
<polygon fill="#fb8072" stroke="transparent" points="406,-10 406,-30 426,-30 426,-10 406,-10"/>
<text text-anchor="start" x="429.7258" y="-15.4" font-family="sans-serif" font-size="14.00" fill="#000000"> &#160;Exports</text>
<g id="clust1" class="cluster">
<title>cluster_ManagementModule</title>
<polygon fill="none" stroke="#000000" stroke-dasharray="1,5" points="63,-70 63,-195 433,-195 433,-70 63,-70"/>
</g>
<g id="clust2" class="cluster">
<title>cluster_ManagementModule_declarations</title>
<polygon fill="none" stroke="#000000" points="273,-78 273,-130 425,-130 425,-78 273,-78"/>
</g>
<g id="clust4" class="cluster">
<title>cluster_ManagementModule_imports</title>
<polygon fill="none" stroke="#000000" points="71,-78 71,-130 265,-130 265,-78 71,-78"/>
</g>
<!-- ContainerComponent -->
<g id="node1" class="node">
<title>ContainerComponent</title>
<polygon fill="#ffffb3" stroke="#000000" points="417.0408,-122 280.9592,-122 280.9592,-86 417.0408,-86 417.0408,-122"/>
<text text-anchor="middle" x="349" y="-99.8" font-family="Times,serif" font-size="14.00" fill="#000000">ContainerComponent</text>
</g>
<!-- ManagementModule -->
<g id="node2" class="node">
<title>ManagementModule</title>
<polygon fill="#8dd3c7" stroke="#000000" points="324.1345,-187 321.1345,-191 300.1345,-191 297.1345,-187 191.8655,-187 191.8655,-151 324.1345,-151 324.1345,-187"/>
<text text-anchor="middle" x="258" y="-164.8" font-family="Times,serif" font-size="14.00" fill="#000000">ManagementModule</text>
</g>
<!-- ContainerComponent&#45;&gt;ManagementModule -->
<g id="edge1" class="edge">
<title>ContainerComponent&#45;&gt;ManagementModule</title>
<path fill="none" stroke="#000000" d="M302.5235,-122.1061C302.5235,-122.1061 302.5235,-140.991 302.5235,-140.991"/>
<polygon fill="#000000" stroke="#000000" points="299.0236,-140.9909 302.5235,-150.991 306.0236,-140.991 299.0236,-140.9909"/>
</g>
<!-- ManagementRoutingModule -->
<g id="node3" class="node">
<title>ManagementRoutingModule</title>
<polygon fill="#8dd3c7" stroke="#000000" points="256.752,-122 253.752,-126 232.752,-126 229.752,-122 79.248,-122 79.248,-86 256.752,-86 256.752,-122"/>
<text text-anchor="middle" x="168" y="-99.8" font-family="Times,serif" font-size="14.00" fill="#000000">ManagementRoutingModule</text>
</g>
<!-- ManagementRoutingModule&#45;&gt;ManagementModule -->
<g id="edge2" class="edge">
<title>ManagementRoutingModule&#45;&gt;ManagementModule</title>
<path fill="none" stroke="#000000" d="M224.2795,-122.1061C224.2795,-122.1061 224.2795,-140.991 224.2795,-140.991"/>
<polygon fill="#000000" stroke="#000000" points="220.7795,-140.9909 224.2795,-150.991 227.7795,-140.991 220.7795,-140.9909"/>
</g>
</g>
</svg>
