<?xml version="1.0" encoding="UTF-8" standalone="no"?>
<!DOCTYPE svg PUBLIC "-//W3C//DTD SVG 1.1//EN"
 "http://www.w3.org/Graphics/SVG/1.1/DTD/svg11.dtd">
<!-- Generated by graphviz version 2.40.1 (20161225.0304)
 -->
<!-- Title: dependencies Pages: 1 -->
<svg width="504pt" height="211pt"
 viewBox="0.00 0.00 504.00 211.00" xmlns="http://www.w3.org/2000/svg" xmlns:xlink="http://www.w3.org/1999/xlink">
<g id="graph0" class="graph" transform="scale(1 1) rotate(0) translate(4 207)">
<title>dependencies</title>
<polygon fill="#ffffff" stroke="transparent" points="-4,4 -4,-207 500,-207 500,4 -4,4"/>
<text text-anchor="start" x="227.0091" y="-42.4" font-family="sans-serif" font-weight="bold" font-size="14.00" fill="#000000">Legend</text>
<polygon fill="#ffffb3" stroke="transparent" points="14,-10 14,-30 34,-30 34,-10 14,-10"/>
<text text-anchor="start" x="37.629" y="-15.4" font-family="sans-serif" font-size="14.00" fill="#000000"> &#160;Declarations</text>
<polygon fill="#8dd3c7" stroke="transparent" points="127,-10 127,-30 147,-30 147,-10 127,-10"/>
<text text-anchor="start" x="150.7251" y="-15.4" font-family="sans-serif" font-size="14.00" fill="#000000"> &#160;Module</text>
<polygon fill="#80b1d3" stroke="transparent" points="213,-10 213,-30 233,-30 233,-10 213,-10"/>
<text text-anchor="start" x="236.7812" y="-15.4" font-family="sans-serif" font-size="14.00" fill="#000000"> &#160;Bootstrap</text>
<polygon fill="#fdb462" stroke="transparent" points="310,-10 310,-30 330,-30 330,-10 310,-10"/>
<text text-anchor="start" x="333.6732" y="-15.4" font-family="sans-serif" font-size="14.00" fill="#000000"> &#160;Providers</text>
<polygon fill="#fb8072" stroke="transparent" points="406,-10 406,-30 426,-30 426,-10 406,-10"/>
<text text-anchor="start" x="429.7258" y="-15.4" font-family="sans-serif" font-size="14.00" fill="#000000"> &#160;Exports</text>
<g id="clust1" class="cluster">
<title>cluster_DocumentModule</title>
<polygon fill="none" stroke="#000000" stroke-dasharray="1,5" points="71,-70 71,-195 425,-195 425,-70 71,-70"/>
</g>
<g id="clust2" class="cluster">
<title>cluster_DocumentModule_declarations</title>
<polygon fill="none" stroke="#000000" points="265,-78 265,-130 417,-130 417,-78 265,-78"/>
</g>
<g id="clust4" class="cluster">
<title>cluster_DocumentModule_imports</title>
<polygon fill="none" stroke="#000000" points="79,-78 79,-130 257,-130 257,-78 79,-78"/>
</g>
<!-- ContainerComponent -->
<g id="node1" class="node">
<title>ContainerComponent</title>
<polygon fill="#ffffb3" stroke="#000000" points="409.0408,-122 272.9592,-122 272.9592,-86 409.0408,-86 409.0408,-122"/>
<text text-anchor="middle" x="341" y="-99.8" font-family="Times,serif" font-size="14.00" fill="#000000">ContainerComponent</text>
</g>
<!-- DocumentModule -->
<g id="node2" class="node">
<title>DocumentModule</title>
<polygon fill="#8dd3c7" stroke="#000000" points="312.8669,-187 309.8669,-191 288.8669,-191 285.8669,-187 195.1331,-187 195.1331,-151 312.8669,-151 312.8669,-187"/>
<text text-anchor="middle" x="254" y="-164.8" font-family="Times,serif" font-size="14.00" fill="#000000">DocumentModule</text>
</g>
<!-- ContainerComponent&#45;&gt;DocumentModule -->
<g id="edge1" class="edge">
<title>ContainerComponent&#45;&gt;DocumentModule</title>
<path fill="none" stroke="#000000" d="M292.8317,-122.1061C292.8317,-122.1061 292.8317,-140.991 292.8317,-140.991"/>
<polygon fill="#000000" stroke="#000000" points="289.3318,-140.9909 292.8317,-150.991 296.3318,-140.991 289.3318,-140.9909"/>
</g>
<!-- DocumentRoutingModule -->
<g id="node3" class="node">
<title>DocumentRoutingModule</title>
<polygon fill="#8dd3c7" stroke="#000000" points="249.4846,-122 246.4846,-126 225.4846,-126 222.4846,-122 86.5154,-122 86.5154,-86 249.4846,-86 249.4846,-122"/>
<text text-anchor="middle" x="168" y="-99.8" font-family="Times,serif" font-size="14.00" fill="#000000">DocumentRoutingModule</text>
</g>
<!-- DocumentRoutingModule&#45;&gt;DocumentModule -->
<g id="edge2" class="edge">
<title>DocumentRoutingModule&#45;&gt;DocumentModule</title>
<path fill="none" stroke="#000000" d="M222.2795,-122.1061C222.2795,-122.1061 222.2795,-140.991 222.2795,-140.991"/>
<polygon fill="#000000" stroke="#000000" points="218.7795,-140.9909 222.2795,-150.991 225.7795,-140.991 218.7795,-140.9909"/>
</g>
</g>
</svg>
