<?xml version="1.0" encoding="UTF-8" standalone="no"?>
<!DOCTYPE svg PUBLIC "-//W3C//DTD SVG 1.1//EN"
 "http://www.w3.org/Graphics/SVG/1.1/DTD/svg11.dtd">
<!-- Generated by graphviz version 2.40.1 (20161225.0304)
 -->
<!-- Title: dependencies Pages: 1 -->
<svg width="504pt" height="211pt"
 viewBox="0.00 0.00 504.00 211.00" xmlns="http://www.w3.org/2000/svg" xmlns:xlink="http://www.w3.org/1999/xlink">
<g id="graph0" class="graph" transform="scale(1 1) rotate(0) translate(4 207)">
<title>dependencies</title>
<polygon fill="#ffffff" stroke="transparent" points="-4,4 -4,-207 500,-207 500,4 -4,4"/>
<text text-anchor="start" x="227.0091" y="-42.4" font-family="sans-serif" font-weight="bold" font-size="14.00" fill="#000000">Legend</text>
<polygon fill="#ffffb3" stroke="transparent" points="14,-10 14,-30 34,-30 34,-10 14,-10"/>
<text text-anchor="start" x="37.629" y="-15.4" font-family="sans-serif" font-size="14.00" fill="#000000"> &#160;Declarations</text>
<polygon fill="#8dd3c7" stroke="transparent" points="127,-10 127,-30 147,-30 147,-10 127,-10"/>
<text text-anchor="start" x="150.7251" y="-15.4" font-family="sans-serif" font-size="14.00" fill="#000000"> &#160;Module</text>
<polygon fill="#80b1d3" stroke="transparent" points="213,-10 213,-30 233,-30 233,-10 213,-10"/>
<text text-anchor="start" x="236.7812" y="-15.4" font-family="sans-serif" font-size="14.00" fill="#000000"> &#160;Bootstrap</text>
<polygon fill="#fdb462" stroke="transparent" points="310,-10 310,-30 330,-30 330,-10 310,-10"/>
<text text-anchor="start" x="333.6732" y="-15.4" font-family="sans-serif" font-size="14.00" fill="#000000"> &#160;Providers</text>
<polygon fill="#fb8072" stroke="transparent" points="406,-10 406,-30 426,-30 426,-10 406,-10"/>
<text text-anchor="start" x="429.7258" y="-15.4" font-family="sans-serif" font-size="14.00" fill="#000000"> &#160;Exports</text>
<g id="clust1" class="cluster">
<title>cluster_CommunityModule</title>
<polygon fill="none" stroke="#000000" stroke-dasharray="1,5" points="8,-70 8,-195 488,-195 488,-70 8,-70"/>
</g>
<g id="clust2" class="cluster">
<title>cluster_CommunityModule_declarations</title>
<polygon fill="none" stroke="#000000" points="328,-78 328,-130 480,-130 480,-78 328,-78"/>
</g>
<g id="clust4" class="cluster">
<title>cluster_CommunityModule_imports</title>
<polygon fill="none" stroke="#000000" points="16,-78 16,-130 320,-130 320,-78 16,-78"/>
</g>
<!-- ContainerComponent -->
<g id="node1" class="node">
<title>ContainerComponent</title>
<polygon fill="#ffffb3" stroke="#000000" points="472.0408,-122 335.9592,-122 335.9592,-86 472.0408,-86 472.0408,-122"/>
<text text-anchor="middle" x="404" y="-99.8" font-family="Times,serif" font-size="14.00" fill="#000000">ContainerComponent</text>
</g>
<!-- CommunityModule -->
<g id="node2" class="node">
<title>CommunityModule</title>
<polygon fill="#8dd3c7" stroke="#000000" points="289.4496,-187 286.4496,-191 265.4496,-191 262.4496,-187 162.5504,-187 162.5504,-151 289.4496,-151 289.4496,-187"/>
<text text-anchor="middle" x="226" y="-164.8" font-family="Times,serif" font-size="14.00" fill="#000000">CommunityModule</text>
</g>
<!-- ContainerComponent&#45;&gt;CommunityModule -->
<g id="edge1" class="edge">
<title>ContainerComponent&#45;&gt;CommunityModule</title>
<path fill="none" stroke="#000000" d="M404,-122.1061C404,-141.3391 404,-169 404,-169 404,-169 299.2573,-169 299.2573,-169"/>
<polygon fill="#000000" stroke="#000000" points="299.2574,-165.5001 289.2573,-169 299.2573,-172.5001 299.2574,-165.5001"/>
</g>
<!-- CommunityRoutingModule -->
<g id="node3" class="node">
<title>CommunityRoutingModule</title>
<polygon fill="#8dd3c7" stroke="#000000" points="311.5671,-122 308.5671,-126 287.5671,-126 284.5671,-122 140.4329,-122 140.4329,-86 311.5671,-86 311.5671,-122"/>
<text text-anchor="middle" x="226" y="-99.8" font-family="Times,serif" font-size="14.00" fill="#000000">CommunityRoutingModule</text>
</g>
<!-- CommunityRoutingModule&#45;&gt;CommunityModule -->
<g id="edge2" class="edge">
<title>CommunityRoutingModule&#45;&gt;CommunityModule</title>
<path fill="none" stroke="#000000" d="M226,-122.1061C226,-122.1061 226,-140.991 226,-140.991"/>
<polygon fill="#000000" stroke="#000000" points="222.5001,-140.9909 226,-150.991 229.5001,-140.991 222.5001,-140.9909"/>
</g>
<!-- SharedModule -->
<g id="node4" class="node">
<title>SharedModule</title>
<polygon fill="#8dd3c7" stroke="#000000" points="122.4231,-122 119.4231,-126 98.4231,-126 95.4231,-122 23.5769,-122 23.5769,-86 122.4231,-86 122.4231,-122"/>
<text text-anchor="middle" x="73" y="-99.8" font-family="Times,serif" font-size="14.00" fill="#000000">SharedModule</text>
</g>
<!-- SharedModule&#45;&gt;CommunityModule -->
<g id="edge3" class="edge">
<title>SharedModule&#45;&gt;CommunityModule</title>
<path fill="none" stroke="#000000" d="M73,-122.1061C73,-141.3391 73,-169 73,-169 73,-169 152.4434,-169 152.4434,-169"/>
<polygon fill="#000000" stroke="#000000" points="152.4435,-172.5001 162.4434,-169 152.4434,-165.5001 152.4435,-172.5001"/>
</g>
</g>
</svg>
