<?xml version="1.0" encoding="UTF-8" standalone="no"?>
<!DOCTYPE svg PUBLIC "-//W3C//DTD SVG 1.1//EN"
 "http://www.w3.org/Graphics/SVG/1.1/DTD/svg11.dtd">
<!-- Generated by graphviz version 2.40.1 (20161225.0304)
 -->
<!-- Title: dependencies Pages: 1 -->
<svg width="1406pt" height="211pt"
 viewBox="0.00 0.00 1406.00 211.00" xmlns="http://www.w3.org/2000/svg" xmlns:xlink="http://www.w3.org/1999/xlink">
<g id="graph0" class="graph" transform="scale(1 1) rotate(0) translate(4 207)">
<title>dependencies</title>
<polygon fill="#ffffff" stroke="transparent" points="-4,4 -4,-207 1402,-207 1402,4 -4,4"/>
<text text-anchor="start" x="678.0091" y="-42.4" font-family="sans-serif" font-weight="bold" font-size="14.00" fill="#000000">Legend</text>
<polygon fill="#ffffb3" stroke="transparent" points="465,-10 465,-30 485,-30 485,-10 465,-10"/>
<text text-anchor="start" x="488.629" y="-15.4" font-family="sans-serif" font-size="14.00" fill="#000000"> &#160;Declarations</text>
<polygon fill="#8dd3c7" stroke="transparent" points="578,-10 578,-30 598,-30 598,-10 578,-10"/>
<text text-anchor="start" x="601.7251" y="-15.4" font-family="sans-serif" font-size="14.00" fill="#000000"> &#160;Module</text>
<polygon fill="#80b1d3" stroke="transparent" points="664,-10 664,-30 684,-30 684,-10 664,-10"/>
<text text-anchor="start" x="687.7812" y="-15.4" font-family="sans-serif" font-size="14.00" fill="#000000"> &#160;Bootstrap</text>
<polygon fill="#fdb462" stroke="transparent" points="761,-10 761,-30 781,-30 781,-10 761,-10"/>
<text text-anchor="start" x="784.6732" y="-15.4" font-family="sans-serif" font-size="14.00" fill="#000000"> &#160;Providers</text>
<polygon fill="#fb8072" stroke="transparent" points="857,-10 857,-30 877,-30 877,-10 857,-10"/>
<text text-anchor="start" x="880.7258" y="-15.4" font-family="sans-serif" font-size="14.00" fill="#000000"> &#160;Exports</text>
<g id="clust1" class="cluster">
<title>cluster_HomeModule</title>
<polygon fill="none" stroke="#000000" stroke-dasharray="1,5" points="8,-70 8,-195 1390,-195 1390,-70 8,-70"/>
</g>
<g id="clust2" class="cluster">
<title>cluster_HomeModule_declarations</title>
<polygon fill="none" stroke="#000000" points="242,-78 242,-130 1382,-130 1382,-78 242,-78"/>
</g>
<g id="clust11" class="cluster">
<title>cluster_HomeModule_imports</title>
<polygon fill="none" stroke="#000000" points="16,-78 16,-130 234,-130 234,-78 16,-78"/>
</g>
<!-- ContactComponent -->
<g id="node1" class="node">
<title>ContactComponent</title>
<polygon fill="#ffffb3" stroke="#000000" points="1374.3795,-122 1249.6205,-122 1249.6205,-86 1374.3795,-86 1374.3795,-122"/>
<text text-anchor="middle" x="1312" y="-99.8" font-family="Times,serif" font-size="14.00" fill="#000000">ContactComponent</text>
</g>
<!-- HomeModule -->
<g id="node9" class="node">
<title>HomeModule</title>
<polygon fill="#8dd3c7" stroke="#000000" points="732.7619,-187 729.7619,-191 708.7619,-191 705.7619,-187 639.2381,-187 639.2381,-151 732.7619,-151 732.7619,-187"/>
<text text-anchor="middle" x="686" y="-164.8" font-family="Times,serif" font-size="14.00" fill="#000000">HomeModule</text>
</g>
<!-- ContactComponent&#45;&gt;HomeModule -->
<g id="edge1" class="edge">
<title>ContactComponent&#45;&gt;HomeModule</title>
<path fill="none" stroke="#000000" d="M1312,-122.0109C1312,-144.4852 1312,-180 1312,-180 1312,-180 742.7957,-180 742.7957,-180"/>
<polygon fill="#000000" stroke="#000000" points="742.7958,-176.5001 732.7957,-180 742.7957,-183.5001 742.7958,-176.5001"/>
</g>
<!-- DetailComponent -->
<g id="node2" class="node">
<title>DetailComponent</title>
<polygon fill="#ffffb3" stroke="#000000" points="1231.5409,-122 1116.4591,-122 1116.4591,-86 1231.5409,-86 1231.5409,-122"/>
<text text-anchor="middle" x="1174" y="-99.8" font-family="Times,serif" font-size="14.00" fill="#000000">DetailComponent</text>
</g>
<!-- DetailComponent&#45;&gt;HomeModule -->
<g id="edge2" class="edge">
<title>DetailComponent&#45;&gt;HomeModule</title>
<path fill="none" stroke="#000000" d="M1174,-122.1289C1174,-142.5724 1174,-173 1174,-173 1174,-173 742.7915,-173 742.7915,-173"/>
<polygon fill="#000000" stroke="#000000" points="742.7915,-169.5001 732.7915,-173 742.7915,-176.5001 742.7915,-169.5001"/>
</g>
<!-- EntranceComponent -->
<g id="node3" class="node">
<title>EntranceComponent</title>
<polygon fill="#ffffb3" stroke="#000000" points="1098.58,-122 967.42,-122 967.42,-86 1098.58,-86 1098.58,-122"/>
<text text-anchor="middle" x="1033" y="-99.8" font-family="Times,serif" font-size="14.00" fill="#000000">EntranceComponent</text>
</g>
<!-- EntranceComponent&#45;&gt;HomeModule -->
<g id="edge3" class="edge">
<title>EntranceComponent&#45;&gt;HomeModule</title>
<path fill="none" stroke="#000000" d="M1033,-122.2667C1033,-140.5552 1033,-166 1033,-166 1033,-166 742.798,-166 742.798,-166"/>
<polygon fill="#000000" stroke="#000000" points="742.798,-162.5001 732.798,-166 742.7979,-169.5001 742.798,-162.5001"/>
</g>
<!-- FeatureComponent -->
<g id="node4" class="node">
<title>FeatureComponent</title>
<polygon fill="#ffffb3" stroke="#000000" points="949.8104,-122 826.1896,-122 826.1896,-86 949.8104,-86 949.8104,-122"/>
<text text-anchor="middle" x="888" y="-99.8" font-family="Times,serif" font-size="14.00" fill="#000000">FeatureComponent</text>
</g>
<!-- FeatureComponent&#45;&gt;HomeModule -->
<g id="edge4" class="edge">
<title>FeatureComponent&#45;&gt;HomeModule</title>
<path fill="none" stroke="#000000" d="M888,-122.0091C888,-138.0494 888,-159 888,-159 888,-159 742.8506,-159 742.8506,-159"/>
<polygon fill="#000000" stroke="#000000" points="742.8506,-155.5001 732.8506,-159 742.8506,-162.5001 742.8506,-155.5001"/>
</g>
<!-- HomeComponent -->
<g id="node5" class="node">
<title>HomeComponent</title>
<polygon fill="#ffffb3" stroke="#000000" points="808.5451,-122 693.4549,-122 693.4549,-86 808.5451,-86 808.5451,-122"/>
<text text-anchor="middle" x="751" y="-99.8" font-family="Times,serif" font-size="14.00" fill="#000000">HomeComponent</text>
</g>
<!-- HomeComponent&#45;&gt;HomeModule -->
<g id="edge5" class="edge">
<title>HomeComponent&#45;&gt;HomeModule</title>
<path fill="none" stroke="#000000" d="M713.0544,-122.1061C713.0544,-122.1061 713.0544,-140.991 713.0544,-140.991"/>
<polygon fill="#000000" stroke="#000000" points="709.5544,-140.9909 713.0544,-150.991 716.5544,-140.991 709.5544,-140.9909"/>
</g>
<!-- IntroComponent -->
<g id="node6" class="node">
<title>IntroComponent</title>
<polygon fill="#ffffb3" stroke="#000000" points="675.0452,-122 566.9548,-122 566.9548,-86 675.0452,-86 675.0452,-122"/>
<text text-anchor="middle" x="621" y="-99.8" font-family="Times,serif" font-size="14.00" fill="#000000">IntroComponent</text>
</g>
<!-- IntroComponent&#45;&gt;HomeModule -->
<g id="edge6" class="edge">
<title>IntroComponent&#45;&gt;HomeModule</title>
<path fill="none" stroke="#000000" d="M657.1957,-122.1061C657.1957,-122.1061 657.1957,-140.991 657.1957,-140.991"/>
<polygon fill="#000000" stroke="#000000" points="653.6957,-140.9909 657.1957,-150.991 660.6957,-140.991 653.6957,-140.9909"/>
</g>
<!-- ProduceUsersComponent -->
<g id="node7" class="node">
<title>ProduceUsersComponent</title>
<polygon fill="#ffffb3" stroke="#000000" points="548.5758,-122 389.4242,-122 389.4242,-86 548.5758,-86 548.5758,-122"/>
<text text-anchor="middle" x="469" y="-99.8" font-family="Times,serif" font-size="14.00" fill="#000000">ProduceUsersComponent</text>
</g>
<!-- ProduceUsersComponent&#45;&gt;HomeModule -->
<g id="edge7" class="edge">
<title>ProduceUsersComponent&#45;&gt;HomeModule</title>
<path fill="none" stroke="#000000" d="M469,-122.0091C469,-138.0494 469,-159 469,-159 469,-159 629.1814,-159 629.1814,-159"/>
<polygon fill="#000000" stroke="#000000" points="629.1814,-162.5001 639.1814,-159 629.1814,-155.5001 629.1814,-162.5001"/>
</g>
<!-- SundryComponent -->
<g id="node8" class="node">
<title>SundryComponent</title>
<polygon fill="#ffffb3" stroke="#000000" points="371.7758,-122 250.2242,-122 250.2242,-86 371.7758,-86 371.7758,-122"/>
<text text-anchor="middle" x="311" y="-99.8" font-family="Times,serif" font-size="14.00" fill="#000000">SundryComponent</text>
</g>
<!-- SundryComponent&#45;&gt;HomeModule -->
<g id="edge8" class="edge">
<title>SundryComponent&#45;&gt;HomeModule</title>
<path fill="none" stroke="#000000" d="M311,-122.2667C311,-140.5552 311,-166 311,-166 311,-166 628.8857,-166 628.8857,-166"/>
<polygon fill="#000000" stroke="#000000" points="628.8857,-169.5001 638.8857,-166 628.8857,-162.5001 628.8857,-169.5001"/>
</g>
<!-- SharedModule -->
<g id="node10" class="node">
<title>SharedModule</title>
<polygon fill="#8dd3c7" stroke="#000000" points="226.4231,-122 223.4231,-126 202.4231,-126 199.4231,-122 127.5769,-122 127.5769,-86 226.4231,-86 226.4231,-122"/>
<text text-anchor="middle" x="177" y="-99.8" font-family="Times,serif" font-size="14.00" fill="#000000">SharedModule</text>
</g>
<!-- SharedModule&#45;&gt;HomeModule -->
<g id="edge9" class="edge">
<title>SharedModule&#45;&gt;HomeModule</title>
<path fill="none" stroke="#000000" d="M177,-122.1289C177,-142.5724 177,-173 177,-173 177,-173 629.0269,-173 629.0269,-173"/>
<polygon fill="#000000" stroke="#000000" points="629.0269,-176.5001 639.0269,-173 629.0268,-169.5001 629.0269,-176.5001"/>
</g>
<!-- ToolModule -->
<g id="node11" class="node">
<title>ToolModule</title>
<polygon fill="#8dd3c7" stroke="#000000" points="109.993,-122 106.993,-126 85.993,-126 82.993,-122 24.007,-122 24.007,-86 109.993,-86 109.993,-122"/>
<text text-anchor="middle" x="67" y="-99.8" font-family="Times,serif" font-size="14.00" fill="#000000">ToolModule</text>
</g>
<!-- ToolModule&#45;&gt;HomeModule -->
<g id="edge10" class="edge">
<title>ToolModule&#45;&gt;HomeModule</title>
<path fill="none" stroke="#000000" d="M67,-122.0109C67,-144.4852 67,-180 67,-180 67,-180 629.2207,-180 629.2207,-180"/>
<polygon fill="#000000" stroke="#000000" points="629.2207,-183.5001 639.2207,-180 629.2206,-176.5001 629.2207,-183.5001"/>
</g>
</g>
</svg>
