<?xml version="1.0" encoding="UTF-8" standalone="no"?>
<!DOCTYPE svg PUBLIC "-//W3C//DTD SVG 1.1//EN"
 "http://www.w3.org/Graphics/SVG/1.1/DTD/svg11.dtd">
<!-- Generated by graphviz version 2.40.1 (20161225.0304)
 -->
<!-- Title: dependencies Pages: 1 -->
<svg width="1558pt" height="211pt"
 viewBox="0.00 0.00 1558.00 211.00" xmlns="http://www.w3.org/2000/svg" xmlns:xlink="http://www.w3.org/1999/xlink">
<g id="graph0" class="graph" transform="scale(1 1) rotate(0) translate(4 207)">
<title>dependencies</title>
<polygon fill="#ffffff" stroke="transparent" points="-4,4 -4,-207 1554,-207 1554,4 -4,4"/>
<text text-anchor="start" x="754.0091" y="-42.4" font-family="sans-serif" font-weight="bold" font-size="14.00" fill="#000000">Legend</text>
<polygon fill="#ffffb3" stroke="transparent" points="541,-10 541,-30 561,-30 561,-10 541,-10"/>
<text text-anchor="start" x="564.629" y="-15.4" font-family="sans-serif" font-size="14.00" fill="#000000"> &#160;Declarations</text>
<polygon fill="#8dd3c7" stroke="transparent" points="654,-10 654,-30 674,-30 674,-10 654,-10"/>
<text text-anchor="start" x="677.7251" y="-15.4" font-family="sans-serif" font-size="14.00" fill="#000000"> &#160;Module</text>
<polygon fill="#80b1d3" stroke="transparent" points="740,-10 740,-30 760,-30 760,-10 740,-10"/>
<text text-anchor="start" x="763.7812" y="-15.4" font-family="sans-serif" font-size="14.00" fill="#000000"> &#160;Bootstrap</text>
<polygon fill="#fdb462" stroke="transparent" points="837,-10 837,-30 857,-30 857,-10 837,-10"/>
<text text-anchor="start" x="860.6732" y="-15.4" font-family="sans-serif" font-size="14.00" fill="#000000"> &#160;Providers</text>
<polygon fill="#fb8072" stroke="transparent" points="933,-10 933,-30 953,-30 953,-10 933,-10"/>
<text text-anchor="start" x="956.7258" y="-15.4" font-family="sans-serif" font-size="14.00" fill="#000000"> &#160;Exports</text>
<g id="clust1" class="cluster">
<title>cluster_HomeModule</title>
<polygon fill="none" stroke="#000000" stroke-dasharray="1,5" points="8,-70 8,-195 1542,-195 1542,-70 8,-70"/>
</g>
<g id="clust2" class="cluster">
<title>cluster_HomeModule_declarations</title>
<polygon fill="none" stroke="#000000" points="394,-78 394,-130 1534,-130 1534,-78 394,-78"/>
</g>
<g id="clust11" class="cluster">
<title>cluster_HomeModule_imports</title>
<polygon fill="none" stroke="#000000" points="168,-78 168,-130 386,-130 386,-78 168,-78"/>
</g>
<g id="clust14" class="cluster">
<title>cluster_HomeModule_providers</title>
<polygon fill="none" stroke="#000000" points="16,-78 16,-130 160,-130 160,-78 16,-78"/>
</g>
<!-- ContactComponent -->
<g id="node1" class="node">
<title>ContactComponent</title>
<polygon fill="#ffffb3" stroke="#000000" points="1526.3795,-122 1401.6205,-122 1401.6205,-86 1526.3795,-86 1526.3795,-122"/>
<text text-anchor="middle" x="1464" y="-99.8" font-family="Times,serif" font-size="14.00" fill="#000000">ContactComponent</text>
</g>
<!-- HomeModule -->
<g id="node9" class="node">
<title>HomeModule</title>
<polygon fill="#8dd3c7" stroke="#000000" points="819.7619,-187 816.7619,-191 795.7619,-191 792.7619,-187 726.2381,-187 726.2381,-151 819.7619,-151 819.7619,-187"/>
<text text-anchor="middle" x="773" y="-164.8" font-family="Times,serif" font-size="14.00" fill="#000000">HomeModule</text>
</g>
<!-- ContactComponent&#45;&gt;HomeModule -->
<g id="edge1" class="edge">
<title>ContactComponent&#45;&gt;HomeModule</title>
<path fill="none" stroke="#000000" d="M1464,-122.0908C1464,-145.1328 1464,-182 1464,-182 1464,-182 829.952,-182 829.952,-182"/>
<polygon fill="#000000" stroke="#000000" points="829.952,-178.5001 819.952,-182 829.9519,-185.5001 829.952,-178.5001"/>
</g>
<!-- DetailComponent -->
<g id="node2" class="node">
<title>DetailComponent</title>
<polygon fill="#ffffb3" stroke="#000000" points="1383.5409,-122 1268.4591,-122 1268.4591,-86 1383.5409,-86 1383.5409,-122"/>
<text text-anchor="middle" x="1326" y="-99.8" font-family="Times,serif" font-size="14.00" fill="#000000">DetailComponent</text>
</g>
<!-- DetailComponent&#45;&gt;HomeModule -->
<g id="edge2" class="edge">
<title>DetailComponent&#45;&gt;HomeModule</title>
<path fill="none" stroke="#000000" d="M1326,-122.2843C1326,-143.3211 1326,-175 1326,-175 1326,-175 830.1485,-175 830.1485,-175"/>
<polygon fill="#000000" stroke="#000000" points="830.1485,-171.5001 820.1485,-175 830.1484,-178.5001 830.1485,-171.5001"/>
</g>
<!-- EntranceComponent -->
<g id="node3" class="node">
<title>EntranceComponent</title>
<polygon fill="#ffffb3" stroke="#000000" points="1250.58,-122 1119.42,-122 1119.42,-86 1250.58,-86 1250.58,-122"/>
<text text-anchor="middle" x="1185" y="-99.8" font-family="Times,serif" font-size="14.00" fill="#000000">EntranceComponent</text>
</g>
<!-- EntranceComponent&#45;&gt;HomeModule -->
<g id="edge3" class="edge">
<title>EntranceComponent&#45;&gt;HomeModule</title>
<path fill="none" stroke="#000000" d="M1185,-122.1061C1185,-141.3391 1185,-169 1185,-169 1185,-169 829.8605,-169 829.8605,-169"/>
<polygon fill="#000000" stroke="#000000" points="829.8606,-165.5001 819.8605,-169 829.8605,-172.5001 829.8606,-165.5001"/>
</g>
<!-- FeatureComponent -->
<g id="node4" class="node">
<title>FeatureComponent</title>
<polygon fill="#ffffb3" stroke="#000000" points="1101.8104,-122 978.1896,-122 978.1896,-86 1101.8104,-86 1101.8104,-122"/>
<text text-anchor="middle" x="1040" y="-99.8" font-family="Times,serif" font-size="14.00" fill="#000000">FeatureComponent</text>
</g>
<!-- FeatureComponent&#45;&gt;HomeModule -->
<g id="edge4" class="edge">
<title>FeatureComponent&#45;&gt;HomeModule</title>
<path fill="none" stroke="#000000" d="M1040,-122.0225C1040,-139.3734 1040,-163 1040,-163 1040,-163 829.8134,-163 829.8134,-163"/>
<polygon fill="#000000" stroke="#000000" points="829.8134,-159.5001 819.8134,-163 829.8133,-166.5001 829.8134,-159.5001"/>
</g>
<!-- HomeComponent -->
<g id="node5" class="node">
<title>HomeComponent</title>
<polygon fill="#ffffb3" stroke="#000000" points="960.5451,-122 845.4549,-122 845.4549,-86 960.5451,-86 960.5451,-122"/>
<text text-anchor="middle" x="903" y="-99.8" font-family="Times,serif" font-size="14.00" fill="#000000">HomeComponent</text>
</g>
<!-- HomeComponent&#45;&gt;HomeModule -->
<g id="edge5" class="edge">
<title>HomeComponent&#45;&gt;HomeModule</title>
<path fill="none" stroke="#000000" d="M903,-122.2396C903,-137.5706 903,-157 903,-157 903,-157 829.933,-157 829.933,-157"/>
<polygon fill="#000000" stroke="#000000" points="829.933,-153.5001 819.933,-157 829.9329,-160.5001 829.933,-153.5001"/>
</g>
<!-- IntroComponent -->
<g id="node6" class="node">
<title>IntroComponent</title>
<polygon fill="#ffffb3" stroke="#000000" points="827.0452,-122 718.9548,-122 718.9548,-86 827.0452,-86 827.0452,-122"/>
<text text-anchor="middle" x="773" y="-99.8" font-family="Times,serif" font-size="14.00" fill="#000000">IntroComponent</text>
</g>
<!-- IntroComponent&#45;&gt;HomeModule -->
<g id="edge6" class="edge">
<title>IntroComponent&#45;&gt;HomeModule</title>
<path fill="none" stroke="#000000" d="M773,-122.1061C773,-122.1061 773,-140.991 773,-140.991"/>
<polygon fill="#000000" stroke="#000000" points="769.5001,-140.9909 773,-150.991 776.5001,-140.991 769.5001,-140.9909"/>
</g>
<!-- ProduceUsersComponent -->
<g id="node7" class="node">
<title>ProduceUsersComponent</title>
<polygon fill="#ffffb3" stroke="#000000" points="700.5758,-122 541.4242,-122 541.4242,-86 700.5758,-86 700.5758,-122"/>
<text text-anchor="middle" x="621" y="-99.8" font-family="Times,serif" font-size="14.00" fill="#000000">ProduceUsersComponent</text>
</g>
<!-- ProduceUsersComponent&#45;&gt;HomeModule -->
<g id="edge7" class="edge">
<title>ProduceUsersComponent&#45;&gt;HomeModule</title>
<path fill="none" stroke="#000000" d="M621,-122.2396C621,-137.5706 621,-157 621,-157 621,-157 716.1547,-157 716.1547,-157"/>
<polygon fill="#000000" stroke="#000000" points="716.1548,-160.5001 726.1547,-157 716.1547,-153.5001 716.1548,-160.5001"/>
</g>
<!-- SundryComponent -->
<g id="node8" class="node">
<title>SundryComponent</title>
<polygon fill="#ffffb3" stroke="#000000" points="523.7758,-122 402.2242,-122 402.2242,-86 523.7758,-86 523.7758,-122"/>
<text text-anchor="middle" x="463" y="-99.8" font-family="Times,serif" font-size="14.00" fill="#000000">SundryComponent</text>
</g>
<!-- SundryComponent&#45;&gt;HomeModule -->
<g id="edge8" class="edge">
<title>SundryComponent&#45;&gt;HomeModule</title>
<path fill="none" stroke="#000000" d="M463,-122.0225C463,-139.3734 463,-163 463,-163 463,-163 715.9177,-163 715.9177,-163"/>
<polygon fill="#000000" stroke="#000000" points="715.9177,-166.5001 725.9177,-163 715.9176,-159.5001 715.9177,-166.5001"/>
</g>
<!-- SharedModule -->
<g id="node10" class="node">
<title>SharedModule</title>
<polygon fill="#8dd3c7" stroke="#000000" points="378.4231,-122 375.4231,-126 354.4231,-126 351.4231,-122 279.5769,-122 279.5769,-86 378.4231,-86 378.4231,-122"/>
<text text-anchor="middle" x="329" y="-99.8" font-family="Times,serif" font-size="14.00" fill="#000000">SharedModule</text>
</g>
<!-- SharedModule&#45;&gt;HomeModule -->
<g id="edge9" class="edge">
<title>SharedModule&#45;&gt;HomeModule</title>
<path fill="none" stroke="#000000" d="M329,-122.1061C329,-141.3391 329,-169 329,-169 329,-169 715.9046,-169 715.9046,-169"/>
<polygon fill="#000000" stroke="#000000" points="715.9046,-172.5001 725.9046,-169 715.9045,-165.5001 715.9046,-172.5001"/>
</g>
<!-- ToolModule -->
<g id="node11" class="node">
<title>ToolModule</title>
<polygon fill="#8dd3c7" stroke="#000000" points="261.993,-122 258.993,-126 237.993,-126 234.993,-122 176.007,-122 176.007,-86 261.993,-86 261.993,-122"/>
<text text-anchor="middle" x="219" y="-99.8" font-family="Times,serif" font-size="14.00" fill="#000000">ToolModule</text>
</g>
<!-- ToolModule&#45;&gt;HomeModule -->
<g id="edge10" class="edge">
<title>ToolModule&#45;&gt;HomeModule</title>
<path fill="none" stroke="#000000" d="M219,-122.2843C219,-143.3211 219,-175 219,-175 219,-175 715.7663,-175 715.7663,-175"/>
<polygon fill="#000000" stroke="#000000" points="715.7663,-178.5001 725.7663,-175 715.7662,-171.5001 715.7663,-178.5001"/>
</g>
<!-- HomeService -->
<g id="node12" class="node">
<title>HomeService</title>
<ellipse fill="#fdb462" stroke="#000000" cx="88" cy="-104" rx="63.6813" ry="18"/>
<text text-anchor="middle" x="88" y="-99.8" font-family="Times,serif" font-size="14.00" fill="#000000">HomeService</text>
</g>
<!-- HomeService&#45;&gt;HomeModule -->
<g id="edge11" class="edge">
<title>HomeService&#45;&gt;HomeModule</title>
<path fill="none" stroke="#000000" d="M88,-122.0908C88,-145.1328 88,-182 88,-182 88,-182 716.1868,-182 716.1868,-182"/>
<polygon fill="#000000" stroke="#000000" points="716.1868,-185.5001 726.1868,-182 716.1867,-178.5001 716.1868,-185.5001"/>
</g>
</g>
</svg>
