<?xml version="1.0" encoding="UTF-8" standalone="no"?>
<!DOCTYPE svg PUBLIC "-//W3C//DTD SVG 1.1//EN"
 "http://www.w3.org/Graphics/SVG/1.1/DTD/svg11.dtd">
<!-- Generated by graphviz version 2.40.1 (20161225.0304)
 -->
<!-- Title: dependencies Pages: 1 -->
<svg width="2437pt" height="284pt"
 viewBox="0.00 0.00 2437.00 284.00" xmlns="http://www.w3.org/2000/svg" xmlns:xlink="http://www.w3.org/1999/xlink">
<g id="graph0" class="graph" transform="scale(1 1) rotate(0) translate(4 280)">
<title>dependencies</title>
<polygon fill="#ffffff" stroke="transparent" points="-4,4 -4,-280 2433,-280 2433,4 -4,4"/>
<text text-anchor="start" x="1193.5091" y="-42.4" font-family="sans-serif" font-weight="bold" font-size="14.00" fill="#000000">Legend</text>
<polygon fill="#ffffb3" stroke="transparent" points="980.5,-10 980.5,-30 1000.5,-30 1000.5,-10 980.5,-10"/>
<text text-anchor="start" x="1004.129" y="-15.4" font-family="sans-serif" font-size="14.00" fill="#000000"> &#160;Declarations</text>
<polygon fill="#8dd3c7" stroke="transparent" points="1093.5,-10 1093.5,-30 1113.5,-30 1113.5,-10 1093.5,-10"/>
<text text-anchor="start" x="1117.2251" y="-15.4" font-family="sans-serif" font-size="14.00" fill="#000000"> &#160;Module</text>
<polygon fill="#80b1d3" stroke="transparent" points="1179.5,-10 1179.5,-30 1199.5,-30 1199.5,-10 1179.5,-10"/>
<text text-anchor="start" x="1203.2812" y="-15.4" font-family="sans-serif" font-size="14.00" fill="#000000"> &#160;Bootstrap</text>
<polygon fill="#fdb462" stroke="transparent" points="1276.5,-10 1276.5,-30 1296.5,-30 1296.5,-10 1276.5,-10"/>
<text text-anchor="start" x="1300.1732" y="-15.4" font-family="sans-serif" font-size="14.00" fill="#000000"> &#160;Providers</text>
<polygon fill="#fb8072" stroke="transparent" points="1372.5,-10 1372.5,-30 1392.5,-30 1392.5,-10 1372.5,-10"/>
<text text-anchor="start" x="1396.2258" y="-15.4" font-family="sans-serif" font-size="14.00" fill="#000000"> &#160;Exports</text>
<g id="clust1" class="cluster">
<title>cluster_AppModule</title>
<polygon fill="none" stroke="#000000" stroke-dasharray="1,5" points="8,-70 8,-268 2421,-268 2421,-70 8,-70"/>
</g>
<g id="clust2" class="cluster">
<title>cluster_AppModule_declarations</title>
<polygon fill="none" stroke="#000000" points="2291,-78 2291,-130 2413,-130 2413,-78 2291,-78"/>
</g>
<g id="clust4" class="cluster">
<title>cluster_AppModule_imports</title>
<polygon fill="none" stroke="#000000" points="1695,-78 1695,-130 2283,-130 2283,-78 1695,-78"/>
</g>
<g id="clust6" class="cluster">
<title>cluster_AppModule_bootstrap</title>
<polygon fill="none" stroke="#000000" points="1244,-208 1244,-260 1368,-260 1368,-208 1244,-208"/>
</g>
<g id="clust7" class="cluster">
<title>cluster_AppModule_providers</title>
<polygon fill="none" stroke="#000000" points="16,-78 16,-130 1687,-130 1687,-78 16,-78"/>
</g>
<!-- AppComponent -->
<g id="node1" class="node">
<title>AppComponent</title>
<polygon fill="#ffffb3" stroke="#000000" points="2404.9399,-122 2299.0601,-122 2299.0601,-86 2404.9399,-86 2404.9399,-122"/>
<text text-anchor="middle" x="2352" y="-99.8" font-family="Times,serif" font-size="14.00" fill="#000000">AppComponent</text>
</g>
<!-- AppModule -->
<g id="node2" class="node">
<title>AppModule</title>
<polygon fill="#8dd3c7" stroke="#000000" points="1347.6571,-187 1344.6571,-191 1323.6571,-191 1320.6571,-187 1264.3429,-187 1264.3429,-151 1347.6571,-151 1347.6571,-187"/>
<text text-anchor="middle" x="1306" y="-164.8" font-family="Times,serif" font-size="14.00" fill="#000000">AppModule</text>
</g>
<!-- AppComponent&#45;&gt;AppModule -->
<g id="edge1" class="edge">
<title>AppComponent&#45;&gt;AppModule</title>
<path fill="none" stroke="#000000" d="M2352,-122.3228C2352,-145.6602 2352,-183 2352,-183 2352,-183 1357.9744,-183 1357.9744,-183"/>
<polygon fill="#000000" stroke="#000000" points="1357.9744,-179.5001 1347.9744,-183 1357.9743,-186.5001 1357.9744,-179.5001"/>
</g>
<!-- AppComponent  -->
<g id="node8" class="node">
<title>AppComponent </title>
<polygon fill="#80b1d3" stroke="#000000" points="1360.439,-252 1251.561,-252 1251.561,-216 1360.439,-216 1360.439,-252"/>
<text text-anchor="middle" x="1306" y="-229.8" font-family="Times,serif" font-size="14.00" fill="#000000">AppComponent </text>
</g>
<!-- AppModule&#45;&gt;AppComponent  -->
<g id="edge7" class="edge">
<title>AppModule&#45;&gt;AppComponent </title>
<path fill="none" stroke="#000000" stroke-dasharray="1,5" d="M1306,-187.1061C1306,-187.1061 1306,-205.991 1306,-205.991"/>
<polygon fill="#000000" stroke="#000000" points="1302.5001,-205.9909 1306,-215.991 1309.5001,-205.991 1302.5001,-205.9909"/>
</g>
<!-- AppRoutingModule -->
<g id="node3" class="node">
<title>AppRoutingModule</title>
<polygon fill="#8dd3c7" stroke="#000000" points="2275.2744,-122 2272.2744,-126 2251.2744,-126 2248.2744,-122 2146.7256,-122 2146.7256,-86 2275.2744,-86 2275.2744,-122"/>
<text text-anchor="middle" x="2211" y="-99.8" font-family="Times,serif" font-size="14.00" fill="#000000">AppRoutingModule</text>
</g>
<!-- AppRoutingModule&#45;&gt;AppModule -->
<g id="edge2" class="edge">
<title>AppRoutingModule&#45;&gt;AppModule</title>
<path fill="none" stroke="#000000" d="M2211,-122.1554C2211,-144.3519 2211,-179 2211,-179 2211,-179 1357.835,-179 1357.835,-179"/>
<polygon fill="#000000" stroke="#000000" points="1357.835,-175.5001 1347.835,-179 1357.835,-182.5001 1357.835,-175.5001"/>
</g>
<!-- HomeModule -->
<g id="node4" class="node">
<title>HomeModule</title>
<polygon fill="#8dd3c7" stroke="#000000" points="2128.7619,-122 2125.7619,-126 2104.7619,-126 2101.7619,-122 2035.2381,-122 2035.2381,-86 2128.7619,-86 2128.7619,-122"/>
<text text-anchor="middle" x="2082" y="-99.8" font-family="Times,serif" font-size="14.00" fill="#000000">HomeModule</text>
</g>
<!-- HomeModule&#45;&gt;AppModule -->
<g id="edge3" class="edge">
<title>HomeModule&#45;&gt;AppModule</title>
<path fill="none" stroke="#000000" d="M2082,-122.2843C2082,-143.3211 2082,-175 2082,-175 2082,-175 1357.7211,-175 1357.7211,-175"/>
<polygon fill="#000000" stroke="#000000" points="1357.7212,-171.5001 1347.7211,-175 1357.7211,-178.5001 1357.7212,-171.5001"/>
</g>
<!-- RobotModule -->
<g id="node5" class="node">
<title>RobotModule</title>
<polygon fill="#8dd3c7" stroke="#000000" points="2016.7773,-122 2013.7773,-126 1992.7773,-126 1989.7773,-122 1923.2227,-122 1923.2227,-86 2016.7773,-86 2016.7773,-122"/>
<text text-anchor="middle" x="1970" y="-99.8" font-family="Times,serif" font-size="14.00" fill="#000000">RobotModule</text>
</g>
<!-- RobotModule&#45;&gt;AppModule -->
<g id="edge4" class="edge">
<title>RobotModule&#45;&gt;AppModule</title>
<path fill="none" stroke="#000000" d="M1970,-122.308C1970,-142.1455 1970,-171 1970,-171 1970,-171 1357.7877,-171 1357.7877,-171"/>
<polygon fill="#000000" stroke="#000000" points="1357.7877,-167.5001 1347.7877,-171 1357.7877,-174.5001 1357.7877,-167.5001"/>
</g>
<!-- SharedModule -->
<g id="node6" class="node">
<title>SharedModule</title>
<polygon fill="#8dd3c7" stroke="#000000" points="1905.4231,-122 1902.4231,-126 1881.4231,-126 1878.4231,-122 1806.5769,-122 1806.5769,-86 1905.4231,-86 1905.4231,-122"/>
<text text-anchor="middle" x="1856" y="-99.8" font-family="Times,serif" font-size="14.00" fill="#000000">SharedModule</text>
</g>
<!-- SharedModule&#45;&gt;AppModule -->
<g id="edge5" class="edge">
<title>SharedModule&#45;&gt;AppModule</title>
<path fill="none" stroke="#000000" d="M1856,-122.2222C1856,-140.8285 1856,-167 1856,-167 1856,-167 1357.7908,-167 1357.7908,-167"/>
<polygon fill="#000000" stroke="#000000" points="1357.7909,-163.5001 1347.7908,-167 1357.7908,-170.5001 1357.7909,-163.5001"/>
</g>
<!-- ToolModule -->
<g id="node7" class="node">
<title>ToolModule</title>
<polygon fill="#8dd3c7" stroke="#000000" points="1788.993,-122 1785.993,-126 1764.993,-126 1761.993,-122 1703.007,-122 1703.007,-86 1788.993,-86 1788.993,-122"/>
<text text-anchor="middle" x="1746" y="-99.8" font-family="Times,serif" font-size="14.00" fill="#000000">ToolModule</text>
</g>
<!-- ToolModule&#45;&gt;AppModule -->
<g id="edge6" class="edge">
<title>ToolModule&#45;&gt;AppModule</title>
<path fill="none" stroke="#000000" d="M1746,-122.0225C1746,-139.3734 1746,-163 1746,-163 1746,-163 1357.7908,-163 1357.7908,-163"/>
<polygon fill="#000000" stroke="#000000" points="1357.7908,-159.5001 1347.7908,-163 1357.7908,-166.5001 1357.7908,-159.5001"/>
</g>
<!-- BtNodeService -->
<g id="node9" class="node">
<title>BtNodeService</title>
<ellipse fill="#fdb462" stroke="#000000" cx="1609" cy="-104" rx="70.0616" ry="18"/>
<text text-anchor="middle" x="1609" y="-99.8" font-family="Times,serif" font-size="14.00" fill="#000000">BtNodeService</text>
</g>
<!-- BtNodeService&#45;&gt;AppModule -->
<g id="edge8" class="edge">
<title>BtNodeService&#45;&gt;AppModule</title>
<path fill="none" stroke="#000000" d="M1609,-122.0091C1609,-138.0494 1609,-159 1609,-159 1609,-159 1357.8127,-159 1357.8127,-159"/>
<polygon fill="#000000" stroke="#000000" points="1357.8128,-155.5001 1347.8127,-159 1357.8127,-162.5001 1357.8128,-155.5001"/>
</g>
<!-- ChartService -->
<g id="node10" class="node">
<title>ChartService</title>
<ellipse fill="#fdb462" stroke="#000000" cx="1460" cy="-104" rx="61.3916" ry="18"/>
<text text-anchor="middle" x="1460" y="-99.8" font-family="Times,serif" font-size="14.00" fill="#000000">ChartService</text>
</g>
<!-- ChartService&#45;&gt;AppModule -->
<g id="edge9" class="edge">
<title>ChartService&#45;&gt;AppModule</title>
<path fill="none" stroke="#000000" d="M1460,-122.1243C1460,-136.7832 1460,-155 1460,-155 1460,-155 1357.6746,-155 1357.6746,-155"/>
<polygon fill="#000000" stroke="#000000" points="1357.6747,-151.5001 1347.6746,-155 1357.6746,-158.5001 1357.6747,-151.5001"/>
</g>
<!-- ConstantService -->
<g id="node11" class="node">
<title>ConstantService</title>
<ellipse fill="#fdb462" stroke="#000000" cx="1306" cy="-104" rx="74.1547" ry="18"/>
<text text-anchor="middle" x="1306" y="-99.8" font-family="Times,serif" font-size="14.00" fill="#000000">ConstantService</text>
</g>
<!-- ConstantService&#45;&gt;AppModule -->
<g id="edge10" class="edge">
<title>ConstantService&#45;&gt;AppModule</title>
<path fill="none" stroke="#000000" d="M1306,-122.1061C1306,-122.1061 1306,-140.991 1306,-140.991"/>
<polygon fill="#000000" stroke="#000000" points="1302.5001,-140.9909 1306,-150.991 1309.5001,-140.991 1302.5001,-140.9909"/>
</g>
<!-- EncryptService -->
<g id="node12" class="node">
<title>EncryptService</title>
<ellipse fill="#fdb462" stroke="#000000" cx="1143" cy="-104" rx="70.6239" ry="18"/>
<text text-anchor="middle" x="1143" y="-99.8" font-family="Times,serif" font-size="14.00" fill="#000000">EncryptService</text>
</g>
<!-- EncryptService&#45;&gt;AppModule -->
<g id="edge11" class="edge">
<title>EncryptService&#45;&gt;AppModule</title>
<path fill="none" stroke="#000000" d="M1143,-122.1243C1143,-136.7832 1143,-155 1143,-155 1143,-155 1254.0234,-155 1254.0234,-155"/>
<polygon fill="#000000" stroke="#000000" points="1254.0235,-158.5001 1264.0234,-155 1254.0234,-151.5001 1254.0235,-158.5001"/>
</g>
<!-- ErrorService -->
<g id="node13" class="node">
<title>ErrorService</title>
<ellipse fill="#fdb462" stroke="#000000" cx="994" cy="-104" rx="60.2287" ry="18"/>
<text text-anchor="middle" x="994" y="-99.8" font-family="Times,serif" font-size="14.00" fill="#000000">ErrorService</text>
</g>
<!-- ErrorService&#45;&gt;AppModule -->
<g id="edge12" class="edge">
<title>ErrorService&#45;&gt;AppModule</title>
<path fill="none" stroke="#000000" d="M994,-122.0091C994,-138.0494 994,-159 994,-159 994,-159 1254.246,-159 1254.246,-159"/>
<polygon fill="#000000" stroke="#000000" points="1254.2461,-162.5001 1264.246,-159 1254.246,-155.5001 1254.2461,-162.5001"/>
</g>
<!-- PlatformService -->
<g id="node14" class="node">
<title>PlatformService</title>
<ellipse fill="#fdb462" stroke="#000000" cx="842" cy="-104" rx="73.5695" ry="18"/>
<text text-anchor="middle" x="842" y="-99.8" font-family="Times,serif" font-size="14.00" fill="#000000">PlatformService</text>
</g>
<!-- PlatformService&#45;&gt;AppModule -->
<g id="edge13" class="edge">
<title>PlatformService&#45;&gt;AppModule</title>
<path fill="none" stroke="#000000" d="M842,-122.0225C842,-139.3734 842,-163 842,-163 842,-163 1254.0047,-163 1254.0047,-163"/>
<polygon fill="#000000" stroke="#000000" points="1254.0048,-166.5001 1264.0047,-163 1254.0047,-159.5001 1254.0048,-166.5001"/>
</g>
<!-- PublicService -->
<g id="node15" class="node">
<title>PublicService</title>
<ellipse fill="#fdb462" stroke="#000000" cx="686" cy="-104" rx="64.8428" ry="18"/>
<text text-anchor="middle" x="686" y="-99.8" font-family="Times,serif" font-size="14.00" fill="#000000">PublicService</text>
</g>
<!-- PublicService&#45;&gt;AppModule -->
<g id="edge14" class="edge">
<title>PublicService&#45;&gt;AppModule</title>
<path fill="none" stroke="#000000" d="M686,-122.2222C686,-140.8285 686,-167 686,-167 686,-167 1253.8723,-167 1253.8723,-167"/>
<polygon fill="#000000" stroke="#000000" points="1253.8724,-170.5001 1263.8723,-167 1253.8723,-163.5001 1253.8724,-170.5001"/>
</g>
<!-- RoutingService -->
<g id="node16" class="node">
<title>RoutingService</title>
<ellipse fill="#fdb462" stroke="#000000" cx="532" cy="-104" rx="71.2268" ry="18"/>
<text text-anchor="middle" x="532" y="-99.8" font-family="Times,serif" font-size="14.00" fill="#000000">RoutingService</text>
</g>
<!-- RoutingService&#45;&gt;AppModule -->
<g id="edge15" class="edge">
<title>RoutingService&#45;&gt;AppModule</title>
<path fill="none" stroke="#000000" d="M532,-122.308C532,-142.1455 532,-171 532,-171 532,-171 1254.112,-171 1254.112,-171"/>
<polygon fill="#000000" stroke="#000000" points="1254.112,-174.5001 1264.112,-171 1254.1119,-167.5001 1254.112,-174.5001"/>
</g>
<!-- TipService -->
<g id="node17" class="node">
<title>TipService</title>
<ellipse fill="#fdb462" stroke="#000000" cx="389" cy="-104" rx="53.3071" ry="18"/>
<text text-anchor="middle" x="389" y="-99.8" font-family="Times,serif" font-size="14.00" fill="#000000">TipService</text>
</g>
<!-- TipService&#45;&gt;AppModule -->
<g id="edge16" class="edge">
<title>TipService&#45;&gt;AppModule</title>
<path fill="none" stroke="#000000" d="M389,-122.2843C389,-143.3211 389,-175 389,-175 389,-175 1254.2156,-175 1254.2156,-175"/>
<polygon fill="#000000" stroke="#000000" points="1254.2156,-178.5001 1264.2156,-175 1254.2155,-171.5001 1254.2156,-178.5001"/>
</g>
<!-- UtilService -->
<g id="node18" class="node">
<title>UtilService</title>
<ellipse fill="#fdb462" stroke="#000000" cx="263" cy="-104" rx="55.0285" ry="18"/>
<text text-anchor="middle" x="263" y="-99.8" font-family="Times,serif" font-size="14.00" fill="#000000">UtilService</text>
</g>
<!-- UtilService&#45;&gt;AppModule -->
<g id="edge17" class="edge">
<title>UtilService&#45;&gt;AppModule</title>
<path fill="none" stroke="#000000" d="M263,-122.1554C263,-144.3519 263,-179 263,-179 263,-179 1254.146,-179 1254.146,-179"/>
<polygon fill="#000000" stroke="#000000" points="1254.1461,-182.5001 1264.146,-179 1254.146,-175.5001 1254.1461,-182.5001"/>
</g>
<!-- WebsocketService -->
<g id="node19" class="node">
<title>WebsocketService</title>
<ellipse fill="#fdb462" stroke="#000000" cx="107" cy="-104" rx="82.7839" ry="18"/>
<text text-anchor="middle" x="107" y="-99.8" font-family="Times,serif" font-size="14.00" fill="#000000">WebsocketService</text>
</g>
<!-- WebsocketService&#45;&gt;AppModule -->
<g id="edge18" class="edge">
<title>WebsocketService&#45;&gt;AppModule</title>
<path fill="none" stroke="#000000" d="M107,-122.3228C107,-145.6602 107,-183 107,-183 107,-183 1254.03,-183 1254.03,-183"/>
<polygon fill="#000000" stroke="#000000" points="1254.03,-186.5001 1264.03,-183 1254.03,-179.5001 1254.03,-186.5001"/>
</g>
</g>
</svg>
