<?xml version="1.0" encoding="UTF-8" standalone="no"?>
<!DOCTYPE svg PUBLIC "-//W3C//DTD SVG 1.1//EN"
 "http://www.w3.org/Graphics/SVG/1.1/DTD/svg11.dtd">
<!-- Generated by graphviz version 2.40.1 (20161225.0304)
 -->
<!-- Title: dependencies Pages: 1 -->
<svg width="2785pt" height="284pt"
 viewBox="0.00 0.00 2785.00 284.00" xmlns="http://www.w3.org/2000/svg" xmlns:xlink="http://www.w3.org/1999/xlink">
<g id="graph0" class="graph" transform="scale(1 1) rotate(0) translate(4 280)">
<title>dependencies</title>
<polygon fill="#ffffff" stroke="transparent" points="-4,4 -4,-280 2781,-280 2781,4 -4,4"/>
<text text-anchor="start" x="1367.5091" y="-42.4" font-family="sans-serif" font-weight="bold" font-size="14.00" fill="#000000">Legend</text>
<polygon fill="#ffffb3" stroke="transparent" points="1154.5,-10 1154.5,-30 1174.5,-30 1174.5,-10 1154.5,-10"/>
<text text-anchor="start" x="1178.129" y="-15.4" font-family="sans-serif" font-size="14.00" fill="#000000"> &#160;Declarations</text>
<polygon fill="#8dd3c7" stroke="transparent" points="1267.5,-10 1267.5,-30 1287.5,-30 1287.5,-10 1267.5,-10"/>
<text text-anchor="start" x="1291.2251" y="-15.4" font-family="sans-serif" font-size="14.00" fill="#000000"> &#160;Module</text>
<polygon fill="#80b1d3" stroke="transparent" points="1353.5,-10 1353.5,-30 1373.5,-30 1373.5,-10 1353.5,-10"/>
<text text-anchor="start" x="1377.2812" y="-15.4" font-family="sans-serif" font-size="14.00" fill="#000000"> &#160;Bootstrap</text>
<polygon fill="#fdb462" stroke="transparent" points="1450.5,-10 1450.5,-30 1470.5,-30 1470.5,-10 1450.5,-10"/>
<text text-anchor="start" x="1474.1732" y="-15.4" font-family="sans-serif" font-size="14.00" fill="#000000"> &#160;Providers</text>
<polygon fill="#fb8072" stroke="transparent" points="1546.5,-10 1546.5,-30 1566.5,-30 1566.5,-10 1546.5,-10"/>
<text text-anchor="start" x="1570.2258" y="-15.4" font-family="sans-serif" font-size="14.00" fill="#000000"> &#160;Exports</text>
<g id="clust1" class="cluster">
<title>cluster_AppModule</title>
<polygon fill="none" stroke="#000000" stroke-dasharray="1,5" points="8,-70 8,-268 2769,-268 2769,-70 8,-70"/>
</g>
<g id="clust2" class="cluster">
<title>cluster_AppModule_declarations</title>
<polygon fill="none" stroke="#000000" points="2639,-78 2639,-130 2761,-130 2761,-78 2639,-78"/>
</g>
<g id="clust4" class="cluster">
<title>cluster_AppModule_imports</title>
<polygon fill="none" stroke="#000000" points="2043,-78 2043,-130 2631,-130 2631,-78 2043,-78"/>
</g>
<g id="clust6" class="cluster">
<title>cluster_AppModule_bootstrap</title>
<polygon fill="none" stroke="#000000" points="1418,-208 1418,-260 1542,-260 1542,-208 1418,-208"/>
</g>
<g id="clust7" class="cluster">
<title>cluster_AppModule_providers</title>
<polygon fill="none" stroke="#000000" points="16,-78 16,-130 2035,-130 2035,-78 16,-78"/>
</g>
<!-- AppComponent -->
<g id="node1" class="node">
<title>AppComponent</title>
<polygon fill="#ffffb3" stroke="#000000" points="2752.9399,-122 2647.0601,-122 2647.0601,-86 2752.9399,-86 2752.9399,-122"/>
<text text-anchor="middle" x="2700" y="-99.8" font-family="Times,serif" font-size="14.00" fill="#000000">AppComponent</text>
</g>
<!-- AppModule -->
<g id="node2" class="node">
<title>AppModule</title>
<polygon fill="#8dd3c7" stroke="#000000" points="1521.6571,-187 1518.6571,-191 1497.6571,-191 1494.6571,-187 1438.3429,-187 1438.3429,-151 1521.6571,-151 1521.6571,-187"/>
<text text-anchor="middle" x="1480" y="-164.8" font-family="Times,serif" font-size="14.00" fill="#000000">AppModule</text>
</g>
<!-- AppComponent&#45;&gt;AppModule -->
<g id="edge1" class="edge">
<title>AppComponent&#45;&gt;AppModule</title>
<path fill="none" stroke="#000000" d="M2700,-122.1532C2700,-145.7566 2700,-184 2700,-184 2700,-184 1531.9952,-184 1531.9952,-184"/>
<polygon fill="#000000" stroke="#000000" points="1531.9952,-180.5001 1521.9952,-184 1531.9951,-187.5001 1531.9952,-180.5001"/>
</g>
<!-- AppComponent  -->
<g id="node8" class="node">
<title>AppComponent </title>
<polygon fill="#80b1d3" stroke="#000000" points="1534.439,-252 1425.561,-252 1425.561,-216 1534.439,-216 1534.439,-252"/>
<text text-anchor="middle" x="1480" y="-229.8" font-family="Times,serif" font-size="14.00" fill="#000000">AppComponent </text>
</g>
<!-- AppModule&#45;&gt;AppComponent  -->
<g id="edge7" class="edge">
<title>AppModule&#45;&gt;AppComponent </title>
<path fill="none" stroke="#000000" stroke-dasharray="1,5" d="M1480,-187.1061C1480,-187.1061 1480,-205.991 1480,-205.991"/>
<polygon fill="#000000" stroke="#000000" points="1476.5001,-205.9909 1480,-215.991 1483.5001,-205.991 1476.5001,-205.9909"/>
</g>
<!-- AppRoutingModule -->
<g id="node3" class="node">
<title>AppRoutingModule</title>
<polygon fill="#8dd3c7" stroke="#000000" points="2623.2744,-122 2620.2744,-126 2599.2744,-126 2596.2744,-122 2494.7256,-122 2494.7256,-86 2623.2744,-86 2623.2744,-122"/>
<text text-anchor="middle" x="2559" y="-99.8" font-family="Times,serif" font-size="14.00" fill="#000000">AppRoutingModule</text>
</g>
<!-- AppRoutingModule&#45;&gt;AppModule -->
<g id="edge2" class="edge">
<title>AppRoutingModule&#45;&gt;AppModule</title>
<path fill="none" stroke="#000000" d="M2559,-122.0109C2559,-144.4852 2559,-180 2559,-180 2559,-180 1531.9669,-180 1531.9669,-180"/>
<polygon fill="#000000" stroke="#000000" points="1531.967,-176.5001 1521.9669,-180 1531.9669,-183.5001 1531.967,-176.5001"/>
</g>
<!-- HomeModule -->
<g id="node4" class="node">
<title>HomeModule</title>
<polygon fill="#8dd3c7" stroke="#000000" points="2476.7619,-122 2473.7619,-126 2452.7619,-126 2449.7619,-122 2383.2381,-122 2383.2381,-86 2476.7619,-86 2476.7619,-122"/>
<text text-anchor="middle" x="2430" y="-99.8" font-family="Times,serif" font-size="14.00" fill="#000000">HomeModule</text>
</g>
<!-- HomeModule&#45;&gt;AppModule -->
<g id="edge3" class="edge">
<title>HomeModule&#45;&gt;AppModule</title>
<path fill="none" stroke="#000000" d="M2430,-122.0449C2430,-143.6623 2430,-177 2430,-177 2430,-177 1531.7381,-177 1531.7381,-177"/>
<polygon fill="#000000" stroke="#000000" points="1531.7382,-173.5001 1521.7381,-177 1531.7381,-180.5001 1531.7382,-173.5001"/>
</g>
<!-- RobotModule -->
<g id="node5" class="node">
<title>RobotModule</title>
<polygon fill="#8dd3c7" stroke="#000000" points="2364.7773,-122 2361.7773,-126 2340.7773,-126 2337.7773,-122 2271.2227,-122 2271.2227,-86 2364.7773,-86 2364.7773,-122"/>
<text text-anchor="middle" x="2318" y="-99.8" font-family="Times,serif" font-size="14.00" fill="#000000">RobotModule</text>
</g>
<!-- RobotModule&#45;&gt;AppModule -->
<g id="edge4" class="edge">
<title>RobotModule&#45;&gt;AppModule</title>
<path fill="none" stroke="#000000" d="M2318,-122.1289C2318,-142.5724 2318,-173 2318,-173 2318,-173 1531.8433,-173 1531.8433,-173"/>
<polygon fill="#000000" stroke="#000000" points="1531.8433,-169.5001 1521.8433,-173 1531.8432,-176.5001 1531.8433,-169.5001"/>
</g>
<!-- SharedModule -->
<g id="node6" class="node">
<title>SharedModule</title>
<polygon fill="#8dd3c7" stroke="#000000" points="2253.4231,-122 2250.4231,-126 2229.4231,-126 2226.4231,-122 2154.5769,-122 2154.5769,-86 2253.4231,-86 2253.4231,-122"/>
<text text-anchor="middle" x="2204" y="-99.8" font-family="Times,serif" font-size="14.00" fill="#000000">SharedModule</text>
</g>
<!-- SharedModule&#45;&gt;AppModule -->
<g id="edge5" class="edge">
<title>SharedModule&#45;&gt;AppModule</title>
<path fill="none" stroke="#000000" d="M2204,-122.1061C2204,-141.3391 2204,-169 2204,-169 2204,-169 1531.7899,-169 1531.7899,-169"/>
<polygon fill="#000000" stroke="#000000" points="1531.7899,-165.5001 1521.7899,-169 1531.7898,-172.5001 1531.7899,-165.5001"/>
</g>
<!-- ToolModule -->
<g id="node7" class="node">
<title>ToolModule</title>
<polygon fill="#8dd3c7" stroke="#000000" points="2136.993,-122 2133.993,-126 2112.993,-126 2109.993,-122 2051.007,-122 2051.007,-86 2136.993,-86 2136.993,-122"/>
<text text-anchor="middle" x="2094" y="-99.8" font-family="Times,serif" font-size="14.00" fill="#000000">ToolModule</text>
</g>
<!-- ToolModule&#45;&gt;AppModule -->
<g id="edge6" class="edge">
<title>ToolModule&#45;&gt;AppModule</title>
<path fill="none" stroke="#000000" d="M2094,-122.2667C2094,-140.5552 2094,-166 2094,-166 2094,-166 1531.72,-166 1531.72,-166"/>
<polygon fill="#000000" stroke="#000000" points="1531.72,-162.5001 1521.72,-166 1531.72,-169.5001 1531.72,-162.5001"/>
</g>
<!-- BtNodeService -->
<g id="node9" class="node">
<title>BtNodeService</title>
<ellipse fill="#fdb462" stroke="#000000" cx="1957" cy="-104" rx="70.0616" ry="18"/>
<text text-anchor="middle" x="1957" y="-99.8" font-family="Times,serif" font-size="14.00" fill="#000000">BtNodeService</text>
</g>
<!-- BtNodeService&#45;&gt;AppModule -->
<g id="edge8" class="edge">
<title>BtNodeService&#45;&gt;AppModule</title>
<path fill="none" stroke="#000000" d="M1957,-122.0336C1957,-139.0597 1957,-162 1957,-162 1957,-162 1531.9125,-162 1531.9125,-162"/>
<polygon fill="#000000" stroke="#000000" points="1531.9125,-158.5001 1521.9125,-162 1531.9125,-165.5001 1531.9125,-158.5001"/>
</g>
<!-- ChartService -->
<g id="node10" class="node">
<title>ChartService</title>
<ellipse fill="#fdb462" stroke="#000000" cx="1808" cy="-104" rx="61.3916" ry="18"/>
<text text-anchor="middle" x="1808" y="-99.8" font-family="Times,serif" font-size="14.00" fill="#000000">ChartService</text>
</g>
<!-- ChartService&#45;&gt;AppModule -->
<g id="edge9" class="edge">
<title>ChartService&#45;&gt;AppModule</title>
<path fill="none" stroke="#000000" d="M1808,-122.0091C1808,-138.0494 1808,-159 1808,-159 1808,-159 1531.8746,-159 1531.8746,-159"/>
<polygon fill="#000000" stroke="#000000" points="1531.8746,-155.5001 1521.8746,-159 1531.8746,-162.5001 1531.8746,-155.5001"/>
</g>
<!-- CommentService -->
<g id="node11" class="node">
<title>CommentService</title>
<ellipse fill="#fdb462" stroke="#000000" cx="1650" cy="-104" rx="78.1675" ry="18"/>
<text text-anchor="middle" x="1650" y="-99.8" font-family="Times,serif" font-size="14.00" fill="#000000">CommentService</text>
</g>
<!-- CommentService&#45;&gt;AppModule -->
<g id="edge10" class="edge">
<title>CommentService&#45;&gt;AppModule</title>
<path fill="none" stroke="#000000" d="M1650,-122.1243C1650,-136.7832 1650,-155 1650,-155 1650,-155 1532.0225,-155 1532.0225,-155"/>
<polygon fill="#000000" stroke="#000000" points="1532.0225,-151.5001 1522.0225,-155 1532.0224,-158.5001 1532.0225,-151.5001"/>
</g>
<!-- ConstantService -->
<g id="node12" class="node">
<title>ConstantService</title>
<ellipse fill="#fdb462" stroke="#000000" cx="1480" cy="-104" rx="74.1547" ry="18"/>
<text text-anchor="middle" x="1480" y="-99.8" font-family="Times,serif" font-size="14.00" fill="#000000">ConstantService</text>
</g>
<!-- ConstantService&#45;&gt;AppModule -->
<g id="edge11" class="edge">
<title>ConstantService&#45;&gt;AppModule</title>
<path fill="none" stroke="#000000" d="M1480,-122.1061C1480,-122.1061 1480,-140.991 1480,-140.991"/>
<polygon fill="#000000" stroke="#000000" points="1476.5001,-140.9909 1480,-150.991 1483.5001,-140.991 1476.5001,-140.9909"/>
</g>
<!-- EncryptService -->
<g id="node13" class="node">
<title>EncryptService</title>
<ellipse fill="#fdb462" stroke="#000000" cx="1317" cy="-104" rx="70.6239" ry="18"/>
<text text-anchor="middle" x="1317" y="-99.8" font-family="Times,serif" font-size="14.00" fill="#000000">EncryptService</text>
</g>
<!-- EncryptService&#45;&gt;AppModule -->
<g id="edge12" class="edge">
<title>EncryptService&#45;&gt;AppModule</title>
<path fill="none" stroke="#000000" d="M1317,-122.1243C1317,-136.7832 1317,-155 1317,-155 1317,-155 1428.0234,-155 1428.0234,-155"/>
<polygon fill="#000000" stroke="#000000" points="1428.0235,-158.5001 1438.0234,-155 1428.0234,-151.5001 1428.0235,-158.5001"/>
</g>
<!-- ErrorService -->
<g id="node14" class="node">
<title>ErrorService</title>
<ellipse fill="#fdb462" stroke="#000000" cx="1168" cy="-104" rx="60.2287" ry="18"/>
<text text-anchor="middle" x="1168" y="-99.8" font-family="Times,serif" font-size="14.00" fill="#000000">ErrorService</text>
</g>
<!-- ErrorService&#45;&gt;AppModule -->
<g id="edge13" class="edge">
<title>ErrorService&#45;&gt;AppModule</title>
<path fill="none" stroke="#000000" d="M1168,-122.0091C1168,-138.0494 1168,-159 1168,-159 1168,-159 1428.246,-159 1428.246,-159"/>
<polygon fill="#000000" stroke="#000000" points="1428.2461,-162.5001 1438.246,-159 1428.246,-155.5001 1428.2461,-162.5001"/>
</g>
<!-- ExchangeService -->
<g id="node15" class="node">
<title>ExchangeService</title>
<ellipse fill="#fdb462" stroke="#000000" cx="1012" cy="-104" rx="78.1308" ry="18"/>
<text text-anchor="middle" x="1012" y="-99.8" font-family="Times,serif" font-size="14.00" fill="#000000">ExchangeService</text>
</g>
<!-- ExchangeService&#45;&gt;AppModule -->
<g id="edge14" class="edge">
<title>ExchangeService&#45;&gt;AppModule</title>
<path fill="none" stroke="#000000" d="M1012,-122.0336C1012,-139.0597 1012,-162 1012,-162 1012,-162 1428.0563,-162 1428.0563,-162"/>
<polygon fill="#000000" stroke="#000000" points="1428.0563,-165.5001 1438.0563,-162 1428.0562,-158.5001 1428.0563,-165.5001"/>
</g>
<!-- PlatformService -->
<g id="node16" class="node">
<title>PlatformService</title>
<ellipse fill="#fdb462" stroke="#000000" cx="842" cy="-104" rx="73.5695" ry="18"/>
<text text-anchor="middle" x="842" y="-99.8" font-family="Times,serif" font-size="14.00" fill="#000000">PlatformService</text>
</g>
<!-- PlatformService&#45;&gt;AppModule -->
<g id="edge15" class="edge">
<title>PlatformService&#45;&gt;AppModule</title>
<path fill="none" stroke="#000000" d="M842,-122.2667C842,-140.5552 842,-166 842,-166 842,-166 1428.139,-166 1428.139,-166"/>
<polygon fill="#000000" stroke="#000000" points="1428.1391,-169.5001 1438.139,-166 1428.139,-162.5001 1428.1391,-169.5001"/>
</g>
<!-- PublicService -->
<g id="node17" class="node">
<title>PublicService</title>
<ellipse fill="#fdb462" stroke="#000000" cx="686" cy="-104" rx="64.8428" ry="18"/>
<text text-anchor="middle" x="686" y="-99.8" font-family="Times,serif" font-size="14.00" fill="#000000">PublicService</text>
</g>
<!-- PublicService&#45;&gt;AppModule -->
<g id="edge16" class="edge">
<title>PublicService&#45;&gt;AppModule</title>
<path fill="none" stroke="#000000" d="M686,-122.1061C686,-141.3391 686,-169 686,-169 686,-169 1428.1508,-169 1428.1508,-169"/>
<polygon fill="#000000" stroke="#000000" points="1428.1508,-172.5001 1438.1508,-169 1428.1507,-165.5001 1428.1508,-172.5001"/>
</g>
<!-- RoutingService -->
<g id="node18" class="node">
<title>RoutingService</title>
<ellipse fill="#fdb462" stroke="#000000" cx="532" cy="-104" rx="71.2268" ry="18"/>
<text text-anchor="middle" x="532" y="-99.8" font-family="Times,serif" font-size="14.00" fill="#000000">RoutingService</text>
</g>
<!-- RoutingService&#45;&gt;AppModule -->
<g id="edge17" class="edge">
<title>RoutingService&#45;&gt;AppModule</title>
<path fill="none" stroke="#000000" d="M532,-122.1289C532,-142.5724 532,-173 532,-173 532,-173 1428.0424,-173 1428.0424,-173"/>
<polygon fill="#000000" stroke="#000000" points="1428.0424,-176.5001 1438.0424,-173 1428.0424,-169.5001 1428.0424,-176.5001"/>
</g>
<!-- TipService -->
<g id="node19" class="node">
<title>TipService</title>
<ellipse fill="#fdb462" stroke="#000000" cx="389" cy="-104" rx="53.3071" ry="18"/>
<text text-anchor="middle" x="389" y="-99.8" font-family="Times,serif" font-size="14.00" fill="#000000">TipService</text>
</g>
<!-- TipService&#45;&gt;AppModule -->
<g id="edge18" class="edge">
<title>TipService&#45;&gt;AppModule</title>
<path fill="none" stroke="#000000" d="M389,-122.0449C389,-143.6623 389,-177 389,-177 389,-177 1428.2325,-177 1428.2325,-177"/>
<polygon fill="#000000" stroke="#000000" points="1428.2325,-180.5001 1438.2325,-177 1428.2324,-173.5001 1428.2325,-180.5001"/>
</g>
<!-- UtilService -->
<g id="node20" class="node">
<title>UtilService</title>
<ellipse fill="#fdb462" stroke="#000000" cx="263" cy="-104" rx="55.0285" ry="18"/>
<text text-anchor="middle" x="263" y="-99.8" font-family="Times,serif" font-size="14.00" fill="#000000">UtilService</text>
</g>
<!-- UtilService&#45;&gt;AppModule -->
<g id="edge19" class="edge">
<title>UtilService&#45;&gt;AppModule</title>
<path fill="none" stroke="#000000" d="M263,-122.0109C263,-144.4852 263,-180 263,-180 263,-180 1428.1081,-180 1428.1081,-180"/>
<polygon fill="#000000" stroke="#000000" points="1428.1081,-183.5001 1438.1081,-180 1428.1081,-176.5001 1428.1081,-183.5001"/>
</g>
<!-- WebsocketService -->
<g id="node21" class="node">
<title>WebsocketService</title>
<ellipse fill="#fdb462" stroke="#000000" cx="107" cy="-104" rx="82.7839" ry="18"/>
<text text-anchor="middle" x="107" y="-99.8" font-family="Times,serif" font-size="14.00" fill="#000000">WebsocketService</text>
</g>
<!-- WebsocketService&#45;&gt;AppModule -->
<g id="edge20" class="edge">
<title>WebsocketService&#45;&gt;AppModule</title>
<path fill="none" stroke="#000000" d="M107,-122.1532C107,-145.7566 107,-184 107,-184 107,-184 1428.1592,-184 1428.1592,-184"/>
<polygon fill="#000000" stroke="#000000" points="1428.1592,-187.5001 1438.1592,-184 1428.1591,-180.5001 1428.1592,-187.5001"/>
</g>
</g>
</svg>
