<?xml version="1.0" encoding="UTF-8" standalone="no"?>
<!DOCTYPE svg PUBLIC "-//W3C//DTD SVG 1.1//EN"
 "http://www.w3.org/Graphics/SVG/1.1/DTD/svg11.dtd">
<!-- Generated by graphviz version 2.40.1 (20161225.0304)
 -->
<!-- Title: dependencies Pages: 1 -->
<svg width="2594pt" height="284pt"
 viewBox="0.00 0.00 2594.00 284.00" xmlns="http://www.w3.org/2000/svg" xmlns:xlink="http://www.w3.org/1999/xlink">
<g id="graph0" class="graph" transform="scale(1 1) rotate(0) translate(4 280)">
<title>dependencies</title>
<polygon fill="#ffffff" stroke="transparent" points="-4,4 -4,-280 2590,-280 2590,4 -4,4"/>
<text text-anchor="start" x="1272.0091" y="-42.4" font-family="sans-serif" font-weight="bold" font-size="14.00" fill="#000000">Legend</text>
<polygon fill="#ffffb3" stroke="transparent" points="1059,-10 1059,-30 1079,-30 1079,-10 1059,-10"/>
<text text-anchor="start" x="1082.629" y="-15.4" font-family="sans-serif" font-size="14.00" fill="#000000"> &#160;Declarations</text>
<polygon fill="#8dd3c7" stroke="transparent" points="1172,-10 1172,-30 1192,-30 1192,-10 1172,-10"/>
<text text-anchor="start" x="1195.7251" y="-15.4" font-family="sans-serif" font-size="14.00" fill="#000000"> &#160;Module</text>
<polygon fill="#80b1d3" stroke="transparent" points="1258,-10 1258,-30 1278,-30 1278,-10 1258,-10"/>
<text text-anchor="start" x="1281.7812" y="-15.4" font-family="sans-serif" font-size="14.00" fill="#000000"> &#160;Bootstrap</text>
<polygon fill="#fdb462" stroke="transparent" points="1355,-10 1355,-30 1375,-30 1375,-10 1355,-10"/>
<text text-anchor="start" x="1378.6732" y="-15.4" font-family="sans-serif" font-size="14.00" fill="#000000"> &#160;Providers</text>
<polygon fill="#fb8072" stroke="transparent" points="1451,-10 1451,-30 1471,-30 1471,-10 1451,-10"/>
<text text-anchor="start" x="1474.7258" y="-15.4" font-family="sans-serif" font-size="14.00" fill="#000000"> &#160;Exports</text>
<g id="clust1" class="cluster">
<title>cluster_AppModule</title>
<polygon fill="none" stroke="#000000" stroke-dasharray="1,5" points="8,-70 8,-268 2578,-268 2578,-70 8,-70"/>
</g>
<g id="clust2" class="cluster">
<title>cluster_AppModule_declarations</title>
<polygon fill="none" stroke="#000000" points="2448,-78 2448,-130 2570,-130 2570,-78 2448,-78"/>
</g>
<g id="clust4" class="cluster">
<title>cluster_AppModule_imports</title>
<polygon fill="none" stroke="#000000" points="1852,-78 1852,-130 2440,-130 2440,-78 1852,-78"/>
</g>
<g id="clust6" class="cluster">
<title>cluster_AppModule_bootstrap</title>
<polygon fill="none" stroke="#000000" points="1319,-208 1319,-260 1443,-260 1443,-208 1319,-208"/>
</g>
<g id="clust7" class="cluster">
<title>cluster_AppModule_providers</title>
<polygon fill="none" stroke="#000000" points="16,-78 16,-130 1844,-130 1844,-78 16,-78"/>
</g>
<!-- AppComponent -->
<g id="node1" class="node">
<title>AppComponent</title>
<polygon fill="#ffffb3" stroke="#000000" points="2561.9399,-122 2456.0601,-122 2456.0601,-86 2561.9399,-86 2561.9399,-122"/>
<text text-anchor="middle" x="2509" y="-99.8" font-family="Times,serif" font-size="14.00" fill="#000000">AppComponent</text>
</g>
<!-- AppModule -->
<g id="node2" class="node">
<title>AppModule</title>
<polygon fill="#8dd3c7" stroke="#000000" points="1422.6571,-187 1419.6571,-191 1398.6571,-191 1395.6571,-187 1339.3429,-187 1339.3429,-151 1422.6571,-151 1422.6571,-187"/>
<text text-anchor="middle" x="1381" y="-164.8" font-family="Times,serif" font-size="14.00" fill="#000000">AppModule</text>
</g>
<!-- AppComponent&#45;&gt;AppModule -->
<g id="edge1" class="edge">
<title>AppComponent&#45;&gt;AppModule</title>
<path fill="none" stroke="#000000" d="M2509,-122.3228C2509,-145.6602 2509,-183 2509,-183 2509,-183 1432.8214,-183 1432.8214,-183"/>
<polygon fill="#000000" stroke="#000000" points="1432.8215,-179.5001 1422.8214,-183 1432.8214,-186.5001 1432.8215,-179.5001"/>
</g>
<!-- AppComponent  -->
<g id="node8" class="node">
<title>AppComponent </title>
<polygon fill="#80b1d3" stroke="#000000" points="1435.439,-252 1326.561,-252 1326.561,-216 1435.439,-216 1435.439,-252"/>
<text text-anchor="middle" x="1381" y="-229.8" font-family="Times,serif" font-size="14.00" fill="#000000">AppComponent </text>
</g>
<!-- AppModule&#45;&gt;AppComponent  -->
<g id="edge7" class="edge">
<title>AppModule&#45;&gt;AppComponent </title>
<path fill="none" stroke="#000000" stroke-dasharray="1,5" d="M1381,-187.1061C1381,-187.1061 1381,-205.991 1381,-205.991"/>
<polygon fill="#000000" stroke="#000000" points="1377.5001,-205.9909 1381,-215.991 1384.5001,-205.991 1377.5001,-205.9909"/>
</g>
<!-- AppRoutingModule -->
<g id="node3" class="node">
<title>AppRoutingModule</title>
<polygon fill="#8dd3c7" stroke="#000000" points="2432.2744,-122 2429.2744,-126 2408.2744,-126 2405.2744,-122 2303.7256,-122 2303.7256,-86 2432.2744,-86 2432.2744,-122"/>
<text text-anchor="middle" x="2368" y="-99.8" font-family="Times,serif" font-size="14.00" fill="#000000">AppRoutingModule</text>
</g>
<!-- AppRoutingModule&#45;&gt;AppModule -->
<g id="edge2" class="edge">
<title>AppRoutingModule&#45;&gt;AppModule</title>
<path fill="none" stroke="#000000" d="M2368,-122.1554C2368,-144.3519 2368,-179 2368,-179 2368,-179 1432.7797,-179 1432.7797,-179"/>
<polygon fill="#000000" stroke="#000000" points="1432.7798,-175.5001 1422.7797,-179 1432.7797,-182.5001 1432.7798,-175.5001"/>
</g>
<!-- HomeModule -->
<g id="node4" class="node">
<title>HomeModule</title>
<polygon fill="#8dd3c7" stroke="#000000" points="2285.7619,-122 2282.7619,-126 2261.7619,-126 2258.7619,-122 2192.2381,-122 2192.2381,-86 2285.7619,-86 2285.7619,-122"/>
<text text-anchor="middle" x="2239" y="-99.8" font-family="Times,serif" font-size="14.00" fill="#000000">HomeModule</text>
</g>
<!-- HomeModule&#45;&gt;AppModule -->
<g id="edge3" class="edge">
<title>HomeModule&#45;&gt;AppModule</title>
<path fill="none" stroke="#000000" d="M2239,-122.2843C2239,-143.3211 2239,-175 2239,-175 2239,-175 1432.6731,-175 1432.6731,-175"/>
<polygon fill="#000000" stroke="#000000" points="1432.6731,-171.5001 1422.6731,-175 1432.673,-178.5001 1432.6731,-171.5001"/>
</g>
<!-- RobotModule -->
<g id="node5" class="node">
<title>RobotModule</title>
<polygon fill="#8dd3c7" stroke="#000000" points="2173.7773,-122 2170.7773,-126 2149.7773,-126 2146.7773,-122 2080.2227,-122 2080.2227,-86 2173.7773,-86 2173.7773,-122"/>
<text text-anchor="middle" x="2127" y="-99.8" font-family="Times,serif" font-size="14.00" fill="#000000">RobotModule</text>
</g>
<!-- RobotModule&#45;&gt;AppModule -->
<g id="edge4" class="edge">
<title>RobotModule&#45;&gt;AppModule</title>
<path fill="none" stroke="#000000" d="M2127,-122.308C2127,-142.1455 2127,-171 2127,-171 2127,-171 1432.7067,-171 1432.7067,-171"/>
<polygon fill="#000000" stroke="#000000" points="1432.7067,-167.5001 1422.7067,-171 1432.7067,-174.5001 1432.7067,-167.5001"/>
</g>
<!-- SharedModule -->
<g id="node6" class="node">
<title>SharedModule</title>
<polygon fill="#8dd3c7" stroke="#000000" points="2062.4231,-122 2059.4231,-126 2038.4231,-126 2035.4231,-122 1963.5769,-122 1963.5769,-86 2062.4231,-86 2062.4231,-122"/>
<text text-anchor="middle" x="2013" y="-99.8" font-family="Times,serif" font-size="14.00" fill="#000000">SharedModule</text>
</g>
<!-- SharedModule&#45;&gt;AppModule -->
<g id="edge5" class="edge">
<title>SharedModule&#45;&gt;AppModule</title>
<path fill="none" stroke="#000000" d="M2013,-122.2222C2013,-140.8285 2013,-167 2013,-167 2013,-167 1432.9567,-167 1432.9567,-167"/>
<polygon fill="#000000" stroke="#000000" points="1432.9568,-163.5001 1422.9567,-167 1432.9567,-170.5001 1432.9568,-163.5001"/>
</g>
<!-- ToolModule -->
<g id="node7" class="node">
<title>ToolModule</title>
<polygon fill="#8dd3c7" stroke="#000000" points="1945.993,-122 1942.993,-126 1921.993,-126 1918.993,-122 1860.007,-122 1860.007,-86 1945.993,-86 1945.993,-122"/>
<text text-anchor="middle" x="1903" y="-99.8" font-family="Times,serif" font-size="14.00" fill="#000000">ToolModule</text>
</g>
<!-- ToolModule&#45;&gt;AppModule -->
<g id="edge6" class="edge">
<title>ToolModule&#45;&gt;AppModule</title>
<path fill="none" stroke="#000000" d="M1903,-122.0225C1903,-139.3734 1903,-163 1903,-163 1903,-163 1432.8351,-163 1432.8351,-163"/>
<polygon fill="#000000" stroke="#000000" points="1432.8351,-159.5001 1422.8351,-163 1432.835,-166.5001 1432.8351,-159.5001"/>
</g>
<!-- BtNodeService -->
<g id="node9" class="node">
<title>BtNodeService</title>
<ellipse fill="#fdb462" stroke="#000000" cx="1766" cy="-104" rx="70.0616" ry="18"/>
<text text-anchor="middle" x="1766" y="-99.8" font-family="Times,serif" font-size="14.00" fill="#000000">BtNodeService</text>
</g>
<!-- BtNodeService&#45;&gt;AppModule -->
<g id="edge8" class="edge">
<title>BtNodeService&#45;&gt;AppModule</title>
<path fill="none" stroke="#000000" d="M1766,-122.0091C1766,-138.0494 1766,-159 1766,-159 1766,-159 1432.9346,-159 1432.9346,-159"/>
<polygon fill="#000000" stroke="#000000" points="1432.9347,-155.5001 1422.9346,-159 1432.9346,-162.5001 1432.9347,-155.5001"/>
</g>
<!-- ChartService -->
<g id="node10" class="node">
<title>ChartService</title>
<ellipse fill="#fdb462" stroke="#000000" cx="1617" cy="-104" rx="61.3916" ry="18"/>
<text text-anchor="middle" x="1617" y="-99.8" font-family="Times,serif" font-size="14.00" fill="#000000">ChartService</text>
</g>
<!-- ChartService&#45;&gt;AppModule -->
<g id="edge9" class="edge">
<title>ChartService&#45;&gt;AppModule</title>
<path fill="none" stroke="#000000" d="M1617,-122.1243C1617,-136.7832 1617,-155 1617,-155 1617,-155 1432.9201,-155 1432.9201,-155"/>
<polygon fill="#000000" stroke="#000000" points="1432.9202,-151.5001 1422.9201,-155 1432.9201,-158.5001 1432.9202,-151.5001"/>
</g>
<!-- ConstantService -->
<g id="node11" class="node">
<title>ConstantService</title>
<ellipse fill="#fdb462" stroke="#000000" cx="1463" cy="-104" rx="74.1547" ry="18"/>
<text text-anchor="middle" x="1463" y="-99.8" font-family="Times,serif" font-size="14.00" fill="#000000">ConstantService</text>
</g>
<!-- ConstantService&#45;&gt;AppModule -->
<g id="edge10" class="edge">
<title>ConstantService&#45;&gt;AppModule</title>
<path fill="none" stroke="#000000" d="M1405.7505,-115.6207C1405.7505,-115.6207 1405.7505,-140.8534 1405.7505,-140.8534"/>
<polygon fill="#000000" stroke="#000000" points="1402.2506,-140.8533 1405.7505,-150.8534 1409.2506,-140.8534 1402.2506,-140.8533"/>
</g>
<!-- EncryptService -->
<g id="node12" class="node">
<title>EncryptService</title>
<ellipse fill="#fdb462" stroke="#000000" cx="1300" cy="-104" rx="70.6239" ry="18"/>
<text text-anchor="middle" x="1300" y="-99.8" font-family="Times,serif" font-size="14.00" fill="#000000">EncryptService</text>
</g>
<!-- EncryptService&#45;&gt;AppModule -->
<g id="edge11" class="edge">
<title>EncryptService&#45;&gt;AppModule</title>
<path fill="none" stroke="#000000" d="M1354.8669,-115.3221C1354.8669,-115.3221 1354.8669,-140.9424 1354.8669,-140.9424"/>
<polygon fill="#000000" stroke="#000000" points="1351.367,-140.9424 1354.8669,-150.9424 1358.367,-140.9425 1351.367,-140.9424"/>
</g>
<!-- ErrorService -->
<g id="node13" class="node">
<title>ErrorService</title>
<ellipse fill="#fdb462" stroke="#000000" cx="1151" cy="-104" rx="60.2287" ry="18"/>
<text text-anchor="middle" x="1151" y="-99.8" font-family="Times,serif" font-size="14.00" fill="#000000">ErrorService</text>
</g>
<!-- ErrorService&#45;&gt;AppModule -->
<g id="edge12" class="edge">
<title>ErrorService&#45;&gt;AppModule</title>
<path fill="none" stroke="#000000" d="M1151,-122.1243C1151,-136.7832 1151,-155 1151,-155 1151,-155 1329.0819,-155 1329.0819,-155"/>
<polygon fill="#000000" stroke="#000000" points="1329.0819,-158.5001 1339.0819,-155 1329.0819,-151.5001 1329.0819,-158.5001"/>
</g>
<!-- PlatformService -->
<g id="node14" class="node">
<title>PlatformService</title>
<ellipse fill="#fdb462" stroke="#000000" cx="999" cy="-104" rx="73.5695" ry="18"/>
<text text-anchor="middle" x="999" y="-99.8" font-family="Times,serif" font-size="14.00" fill="#000000">PlatformService</text>
</g>
<!-- PlatformService&#45;&gt;AppModule -->
<g id="edge13" class="edge">
<title>PlatformService&#45;&gt;AppModule</title>
<path fill="none" stroke="#000000" d="M999,-122.0091C999,-138.0494 999,-159 999,-159 999,-159 1329.0266,-159 1329.0266,-159"/>
<polygon fill="#000000" stroke="#000000" points="1329.0266,-162.5001 1339.0266,-159 1329.0266,-155.5001 1329.0266,-162.5001"/>
</g>
<!-- ProcessService -->
<g id="node15" class="node">
<title>ProcessService</title>
<ellipse fill="#fdb462" stroke="#000000" cx="838" cy="-104" rx="69.4761" ry="18"/>
<text text-anchor="middle" x="838" y="-99.8" font-family="Times,serif" font-size="14.00" fill="#000000">ProcessService</text>
</g>
<!-- ProcessService&#45;&gt;AppModule -->
<g id="edge14" class="edge">
<title>ProcessService&#45;&gt;AppModule</title>
<path fill="none" stroke="#000000" d="M838,-122.0225C838,-139.3734 838,-163 838,-163 838,-163 1329.2933,-163 1329.2933,-163"/>
<polygon fill="#000000" stroke="#000000" points="1329.2934,-166.5001 1339.2933,-163 1329.2933,-159.5001 1329.2934,-166.5001"/>
</g>
<!-- PublicService -->
<g id="node16" class="node">
<title>PublicService</title>
<ellipse fill="#fdb462" stroke="#000000" cx="686" cy="-104" rx="64.8428" ry="18"/>
<text text-anchor="middle" x="686" y="-99.8" font-family="Times,serif" font-size="14.00" fill="#000000">PublicService</text>
</g>
<!-- PublicService&#45;&gt;AppModule -->
<g id="edge15" class="edge">
<title>PublicService&#45;&gt;AppModule</title>
<path fill="none" stroke="#000000" d="M686,-122.2222C686,-140.8285 686,-167 686,-167 686,-167 1329.0898,-167 1329.0898,-167"/>
<polygon fill="#000000" stroke="#000000" points="1329.0898,-170.5001 1339.0898,-167 1329.0897,-163.5001 1329.0898,-170.5001"/>
</g>
<!-- RoutingService -->
<g id="node17" class="node">
<title>RoutingService</title>
<ellipse fill="#fdb462" stroke="#000000" cx="532" cy="-104" rx="71.2268" ry="18"/>
<text text-anchor="middle" x="532" y="-99.8" font-family="Times,serif" font-size="14.00" fill="#000000">RoutingService</text>
</g>
<!-- RoutingService&#45;&gt;AppModule -->
<g id="edge16" class="edge">
<title>RoutingService&#45;&gt;AppModule</title>
<path fill="none" stroke="#000000" d="M532,-122.308C532,-142.1455 532,-171 532,-171 532,-171 1329.1875,-171 1329.1875,-171"/>
<polygon fill="#000000" stroke="#000000" points="1329.1876,-174.5001 1339.1875,-171 1329.1875,-167.5001 1329.1876,-174.5001"/>
</g>
<!-- TipService -->
<g id="node18" class="node">
<title>TipService</title>
<ellipse fill="#fdb462" stroke="#000000" cx="389" cy="-104" rx="53.3071" ry="18"/>
<text text-anchor="middle" x="389" y="-99.8" font-family="Times,serif" font-size="14.00" fill="#000000">TipService</text>
</g>
<!-- TipService&#45;&gt;AppModule -->
<g id="edge17" class="edge">
<title>TipService&#45;&gt;AppModule</title>
<path fill="none" stroke="#000000" d="M389,-122.2843C389,-143.3211 389,-175 389,-175 389,-175 1329.3238,-175 1329.3238,-175"/>
<polygon fill="#000000" stroke="#000000" points="1329.3239,-178.5001 1339.3238,-175 1329.3238,-171.5001 1329.3239,-178.5001"/>
</g>
<!-- UtilService -->
<g id="node19" class="node">
<title>UtilService</title>
<ellipse fill="#fdb462" stroke="#000000" cx="263" cy="-104" rx="55.0285" ry="18"/>
<text text-anchor="middle" x="263" y="-99.8" font-family="Times,serif" font-size="14.00" fill="#000000">UtilService</text>
</g>
<!-- UtilService&#45;&gt;AppModule -->
<g id="edge18" class="edge">
<title>UtilService&#45;&gt;AppModule</title>
<path fill="none" stroke="#000000" d="M263,-122.1554C263,-144.3519 263,-179 263,-179 263,-179 1329.2135,-179 1329.2135,-179"/>
<polygon fill="#000000" stroke="#000000" points="1329.2136,-182.5001 1339.2135,-179 1329.2135,-175.5001 1329.2136,-182.5001"/>
</g>
<!-- WebsocketService -->
<g id="node20" class="node">
<title>WebsocketService</title>
<ellipse fill="#fdb462" stroke="#000000" cx="107" cy="-104" rx="82.7839" ry="18"/>
<text text-anchor="middle" x="107" y="-99.8" font-family="Times,serif" font-size="14.00" fill="#000000">WebsocketService</text>
</g>
<!-- WebsocketService&#45;&gt;AppModule -->
<g id="edge19" class="edge">
<title>WebsocketService&#45;&gt;AppModule</title>
<path fill="none" stroke="#000000" d="M107,-122.3228C107,-145.6602 107,-183 107,-183 107,-183 1329.3361,-183 1329.3361,-183"/>
<polygon fill="#000000" stroke="#000000" points="1329.3361,-186.5001 1339.3361,-183 1329.336,-179.5001 1329.3361,-186.5001"/>
</g>
</g>
</svg>
