<?xml version="1.0" encoding="UTF-8" standalone="no"?>
<!DOCTYPE svg PUBLIC "-//W3C//DTD SVG 1.1//EN"
 "http://www.w3.org/Graphics/SVG/1.1/DTD/svg11.dtd">
<!-- Generated by graphviz version 2.40.1 (20161225.0304)
 -->
<!-- Title: dependencies Pages: 1 -->
<svg width="3571pt" height="284pt"
 viewBox="0.00 0.00 3571.00 284.00" xmlns="http://www.w3.org/2000/svg" xmlns:xlink="http://www.w3.org/1999/xlink">
<g id="graph0" class="graph" transform="scale(1 1) rotate(0) translate(4 280)">
<title>dependencies</title>
<polygon fill="#ffffff" stroke="transparent" points="-4,4 -4,-280 3567,-280 3567,4 -4,4"/>
<text text-anchor="start" x="1760.5091" y="-42.4" font-family="sans-serif" font-weight="bold" font-size="14.00" fill="#000000">Legend</text>
<polygon fill="#ffffb3" stroke="transparent" points="1547.5,-10 1547.5,-30 1567.5,-30 1567.5,-10 1547.5,-10"/>
<text text-anchor="start" x="1571.129" y="-15.4" font-family="sans-serif" font-size="14.00" fill="#000000"> &#160;Declarations</text>
<polygon fill="#8dd3c7" stroke="transparent" points="1660.5,-10 1660.5,-30 1680.5,-30 1680.5,-10 1660.5,-10"/>
<text text-anchor="start" x="1684.2251" y="-15.4" font-family="sans-serif" font-size="14.00" fill="#000000"> &#160;Module</text>
<polygon fill="#80b1d3" stroke="transparent" points="1746.5,-10 1746.5,-30 1766.5,-30 1766.5,-10 1746.5,-10"/>
<text text-anchor="start" x="1770.2812" y="-15.4" font-family="sans-serif" font-size="14.00" fill="#000000"> &#160;Bootstrap</text>
<polygon fill="#fdb462" stroke="transparent" points="1843.5,-10 1843.5,-30 1863.5,-30 1863.5,-10 1843.5,-10"/>
<text text-anchor="start" x="1867.1732" y="-15.4" font-family="sans-serif" font-size="14.00" fill="#000000"> &#160;Providers</text>
<polygon fill="#fb8072" stroke="transparent" points="1939.5,-10 1939.5,-30 1959.5,-30 1959.5,-10 1939.5,-10"/>
<text text-anchor="start" x="1963.2258" y="-15.4" font-family="sans-serif" font-size="14.00" fill="#000000"> &#160;Exports</text>
<g id="clust1" class="cluster">
<title>cluster_BacktestModule</title>
<polygon fill="none" stroke="#000000" stroke-dasharray="1,5" points="8,-70 8,-268 3555,-268 3555,-70 8,-70"/>
</g>
<g id="clust2" class="cluster">
<title>cluster_BacktestModule_declarations</title>
<polygon fill="none" stroke="#000000" points="1560,-78 1560,-130 3547,-130 3547,-78 1560,-78"/>
</g>
<g id="clust14" class="cluster">
<title>cluster_BacktestModule_imports</title>
<polygon fill="none" stroke="#000000" points="1098,-78 1098,-130 1552,-130 1552,-78 1098,-78"/>
</g>
<g id="clust15" class="cluster">
<title>cluster_BacktestModule_exports</title>
<polygon fill="none" stroke="#000000" points="939,-208 939,-260 2476,-260 2476,-208 939,-208"/>
</g>
<g id="clust17" class="cluster">
<title>cluster_BacktestModule_providers</title>
<polygon fill="none" stroke="#000000" points="16,-78 16,-130 1090,-130 1090,-78 16,-78"/>
</g>
<!-- AccountInfoComponent -->
<g id="node1" class="node">
<title>AccountInfoComponent</title>
<polygon fill="#ffffb3" stroke="#000000" points="3539.08,-122 3386.92,-122 3386.92,-86 3539.08,-86 3539.08,-122"/>
<text text-anchor="middle" x="3463" y="-99.8" font-family="Times,serif" font-size="14.00" fill="#000000">AccountInfoComponent</text>
</g>
<!-- BacktestModule -->
<g id="node12" class="node">
<title>BacktestModule</title>
<polygon fill="#8dd3c7" stroke="#000000" points="1783.7563,-187 1780.7563,-191 1759.7563,-191 1756.7563,-187 1676.2437,-187 1676.2437,-151 1783.7563,-151 1783.7563,-187"/>
<text text-anchor="middle" x="1730" y="-164.8" font-family="Times,serif" font-size="14.00" fill="#000000">BacktestModule</text>
</g>
<!-- AccountInfoComponent&#45;&gt;BacktestModule -->
<g id="edge1" class="edge">
<title>AccountInfoComponent&#45;&gt;BacktestModule</title>
<path fill="none" stroke="#000000" d="M3463,-122.1686C3463,-143.498 3463,-176 3463,-176 3463,-176 1793.7656,-176 1793.7656,-176"/>
<polygon fill="#000000" stroke="#000000" points="1793.7656,-172.5001 1783.7656,-176 1793.7656,-179.5001 1793.7656,-172.5001"/>
</g>
<!-- AdvancedOptionsComponent -->
<g id="node2" class="node">
<title>AdvancedOptionsComponent</title>
<polygon fill="#ffffb3" stroke="#000000" points="3369.4157,-122 3186.5843,-122 3186.5843,-86 3369.4157,-86 3369.4157,-122"/>
<text text-anchor="middle" x="3278" y="-99.8" font-family="Times,serif" font-size="14.00" fill="#000000">AdvancedOptionsComponent</text>
</g>
<!-- AdvancedOptionsComponent&#45;&gt;BacktestModule -->
<g id="edge2" class="edge">
<title>AdvancedOptionsComponent&#45;&gt;BacktestModule</title>
<path fill="none" stroke="#000000" d="M3278,-122.0267C3278,-142.7672 3278,-174 3278,-174 3278,-174 1794.1865,-174 1794.1865,-174"/>
<polygon fill="#000000" stroke="#000000" points="1794.1865,-170.5001 1784.1865,-174 1794.1864,-177.5001 1794.1865,-170.5001"/>
</g>
<!-- ArgOptimizerComponent -->
<g id="node3" class="node">
<title>ArgOptimizerComponent</title>
<polygon fill="#ffffb3" stroke="#000000" points="3168.8585,-122 3009.1415,-122 3009.1415,-86 3168.8585,-86 3168.8585,-122"/>
<text text-anchor="middle" x="3089" y="-99.8" font-family="Times,serif" font-size="14.00" fill="#000000">ArgOptimizerComponent</text>
</g>
<!-- ArgOptimizerComponent&#45;&gt;BacktestModule -->
<g id="edge3" class="edge">
<title>ArgOptimizerComponent&#45;&gt;BacktestModule</title>
<path fill="none" stroke="#000000" d="M3089,-122.308C3089,-142.1455 3089,-171 3089,-171 3089,-171 1794.113,-171 1794.113,-171"/>
<polygon fill="#000000" stroke="#000000" points="1794.1131,-167.5001 1784.113,-171 1794.113,-174.5001 1794.1131,-167.5001"/>
</g>
<!-- BacktestLogComponent -->
<g id="node4" class="node">
<title>BacktestLogComponent</title>
<polygon fill="#ffffb3" stroke="#000000" points="2991.0912,-122 2838.9088,-122 2838.9088,-86 2991.0912,-86 2991.0912,-122"/>
<text text-anchor="middle" x="2915" y="-99.8" font-family="Times,serif" font-size="14.00" fill="#000000">BacktestLogComponent</text>
</g>
<!-- BacktestLogComponent&#45;&gt;BacktestModule -->
<g id="edge4" class="edge">
<title>BacktestLogComponent&#45;&gt;BacktestModule</title>
<path fill="none" stroke="#000000" d="M2915,-122.1686C2915,-141.0898 2915,-168 2915,-168 2915,-168 1793.9962,-168 1793.9962,-168"/>
<polygon fill="#000000" stroke="#000000" points="1793.9963,-164.5001 1783.9962,-168 1793.9962,-171.5001 1793.9963,-164.5001"/>
</g>
<!-- BacktestStatusComponent -->
<g id="node5" class="node">
<title>BacktestStatusComponent</title>
<polygon fill="#ffffb3" stroke="#000000" points="2820.7618,-122 2657.2382,-122 2657.2382,-86 2820.7618,-86 2820.7618,-122"/>
<text text-anchor="middle" x="2739" y="-99.8" font-family="Times,serif" font-size="14.00" fill="#000000">BacktestStatusComponent</text>
</g>
<!-- BacktestStatusComponent&#45;&gt;BacktestModule -->
<g id="edge5" class="edge">
<title>BacktestStatusComponent&#45;&gt;BacktestModule</title>
<path fill="none" stroke="#000000" d="M2739,-122.302C2739,-140.2699 2739,-165 2739,-165 2739,-165 1793.8915,-165 1793.8915,-165"/>
<polygon fill="#000000" stroke="#000000" points="1793.8915,-161.5001 1783.8915,-165 1793.8915,-168.5001 1793.8915,-161.5001"/>
</g>
<!-- BacktestStrategyArgsComponent -->
<g id="node6" class="node">
<title>BacktestStrategyArgsComponent</title>
<polygon fill="#ffffb3" stroke="#000000" points="2638.9044,-122 2435.0956,-122 2435.0956,-86 2638.9044,-86 2638.9044,-122"/>
<text text-anchor="middle" x="2537" y="-99.8" font-family="Times,serif" font-size="14.00" fill="#000000">BacktestStrategyArgsComponent</text>
</g>
<!-- BacktestStrategyArgsComponent&#45;&gt;BacktestModule -->
<g id="edge6" class="edge">
<title>BacktestStrategyArgsComponent&#45;&gt;BacktestModule</title>
<path fill="none" stroke="#000000" d="M2451.544,-122.0225C2451.544,-139.3734 2451.544,-163 2451.544,-163 2451.544,-163 1793.938,-163 1793.938,-163"/>
<polygon fill="#000000" stroke="#000000" points="1793.938,-159.5001 1783.938,-163 1793.938,-166.5001 1793.938,-159.5001"/>
</g>
<!-- DispenseOptionsComponent -->
<g id="node7" class="node">
<title>DispenseOptionsComponent</title>
<polygon fill="#ffffb3" stroke="#000000" points="2417.4804,-122 2240.5196,-122 2240.5196,-86 2417.4804,-86 2417.4804,-122"/>
<text text-anchor="middle" x="2329" y="-99.8" font-family="Times,serif" font-size="14.00" fill="#000000">DispenseOptionsComponent</text>
</g>
<!-- DispenseOptionsComponent&#45;&gt;BacktestModule -->
<g id="edge7" class="edge">
<title>DispenseOptionsComponent&#45;&gt;BacktestModule</title>
<path fill="none" stroke="#000000" d="M2267.2337,-122.027C2267.2337,-138.3976 2267.2337,-160 2267.2337,-160 2267.2337,-160 1793.9718,-160 1793.9718,-160"/>
<polygon fill="#000000" stroke="#000000" points="1793.9718,-156.5001 1783.9718,-160 1793.9717,-163.5001 1793.9718,-156.5001"/>
</g>
<!-- ExchangeOptionsComponent -->
<g id="node8" class="node">
<title>ExchangeOptionsComponent</title>
<polygon fill="#ffffb3" stroke="#000000" points="2222.3613,-122 2041.6387,-122 2041.6387,-86 2222.3613,-86 2222.3613,-122"/>
<text text-anchor="middle" x="2132" y="-99.8" font-family="Times,serif" font-size="14.00" fill="#000000">ExchangeOptionsComponent</text>
</g>
<!-- ExchangeOptionsComponent&#45;&gt;BacktestModule -->
<g id="edge8" class="edge">
<title>ExchangeOptionsComponent&#45;&gt;BacktestModule</title>
<path fill="none" stroke="#000000" d="M2065.6825,-122.2396C2065.6825,-137.5706 2065.6825,-157 2065.6825,-157 2065.6825,-157 1793.9332,-157 1793.9332,-157"/>
<polygon fill="#000000" stroke="#000000" points="1793.9332,-153.5001 1783.9332,-157 1793.9332,-160.5001 1793.9332,-153.5001"/>
</g>
<!-- FuturesResultPipe -->
<g id="node9" class="node">
<title>FuturesResultPipe</title>
<polygon fill="#ffffb3" stroke="#000000" points="2023.1583,-122 1904.8417,-122 1904.8417,-86 2023.1583,-86 2023.1583,-122"/>
<text text-anchor="middle" x="1964" y="-99.8" font-family="Times,serif" font-size="14.00" fill="#000000">FuturesResultPipe</text>
</g>
<!-- FuturesResultPipe&#45;&gt;BacktestModule -->
<g id="edge9" class="edge">
<title>FuturesResultPipe&#45;&gt;BacktestModule</title>
<path fill="none" stroke="#000000" d="M1910.651,-122.0511C1910.651,-136.373 1910.651,-154 1910.651,-154 1910.651,-154 1794.2012,-154 1794.2012,-154"/>
<polygon fill="#000000" stroke="#000000" points="1794.2013,-150.5001 1784.2012,-154 1794.2012,-157.5001 1794.2013,-150.5001"/>
</g>
<!-- OptimizeFilterDesPipe -->
<g id="node10" class="node">
<title>OptimizeFilterDesPipe</title>
<polygon fill="#ffffb3" stroke="#000000" points="1886.5814,-122 1741.4186,-122 1741.4186,-86 1886.5814,-86 1886.5814,-122"/>
<text text-anchor="middle" x="1814" y="-99.8" font-family="Times,serif" font-size="14.00" fill="#000000">OptimizeFilterDesPipe</text>
</g>
<!-- OptimizeFilterDesPipe&#45;&gt;BacktestModule -->
<g id="edge10" class="edge">
<title>OptimizeFilterDesPipe&#45;&gt;BacktestModule</title>
<path fill="none" stroke="#000000" d="M1762.6687,-122.1061C1762.6687,-122.1061 1762.6687,-140.991 1762.6687,-140.991"/>
<polygon fill="#000000" stroke="#000000" points="1759.1687,-140.9909 1762.6687,-150.991 1766.1687,-140.991 1759.1687,-140.9909"/>
</g>
<!-- TimeOptionsComponent -->
<g id="node11" class="node">
<title>TimeOptionsComponent</title>
<polygon fill="#ffffb3" stroke="#000000" points="1723.7133,-122 1568.2867,-122 1568.2867,-86 1723.7133,-86 1723.7133,-122"/>
<text text-anchor="middle" x="1646" y="-99.8" font-family="Times,serif" font-size="14.00" fill="#000000">TimeOptionsComponent</text>
</g>
<!-- TimeOptionsComponent&#45;&gt;BacktestModule -->
<g id="edge11" class="edge">
<title>TimeOptionsComponent&#45;&gt;BacktestModule</title>
<path fill="none" stroke="#000000" d="M1699.8643,-122.1061C1699.8643,-122.1061 1699.8643,-140.991 1699.8643,-140.991"/>
<polygon fill="#000000" stroke="#000000" points="1696.3644,-140.9909 1699.8643,-150.991 1703.3644,-140.991 1696.3644,-140.9909"/>
</g>
<!-- AccountInfoComponent  -->
<g id="node17" class="node">
<title>AccountInfoComponent </title>
<polygon fill="#fb8072" stroke="#000000" points="2467.5806,-252 2312.4194,-252 2312.4194,-216 2467.5806,-216 2467.5806,-252"/>
<text text-anchor="middle" x="2390" y="-229.8" font-family="Times,serif" font-size="14.00" fill="#000000">AccountInfoComponent </text>
</g>
<!-- BacktestModule&#45;&gt;AccountInfoComponent  -->
<g id="edge16" class="edge">
<title>BacktestModule&#45;&gt;AccountInfoComponent </title>
<path fill="none" stroke="#000000" stroke-dasharray="5,2" d="M1783.8531,-179C1937.1427,-179 2364.8501,-179 2364.8501,-179 2364.8501,-179 2364.8501,-205.9909 2364.8501,-205.9909"/>
<polygon fill="#000000" stroke="#000000" points="2361.3502,-205.9909 2364.8501,-215.9909 2368.3502,-205.991 2361.3502,-205.9909"/>
</g>
<!-- AdvancedOptionsComponent  -->
<g id="node18" class="node">
<title>AdvancedOptionsComponent </title>
<polygon fill="#fb8072" stroke="#000000" points="2293.9152,-252 2108.0848,-252 2108.0848,-216 2293.9152,-216 2293.9152,-252"/>
<text text-anchor="middle" x="2201" y="-229.8" font-family="Times,serif" font-size="14.00" fill="#000000">AdvancedOptionsComponent </text>
</g>
<!-- BacktestModule&#45;&gt;AdvancedOptionsComponent  -->
<g id="edge17" class="edge">
<title>BacktestModule&#45;&gt;AdvancedOptionsComponent </title>
<path fill="none" stroke="#000000" stroke-dasharray="5,2" d="M1783.8051,-182C1900.2529,-182 2165.2365,-182 2165.2365,-182 2165.2365,-182 2165.2365,-205.8129 2165.2365,-205.8129"/>
<polygon fill="#000000" stroke="#000000" points="2161.7366,-205.8129 2165.2365,-215.8129 2168.7366,-205.813 2161.7366,-205.8129"/>
</g>
<!-- BacktestLogComponent  -->
<g id="node19" class="node">
<title>BacktestLogComponent </title>
<polygon fill="#fb8072" stroke="#000000" points="2089.5917,-252 1934.4083,-252 1934.4083,-216 2089.5917,-216 2089.5917,-252"/>
<text text-anchor="middle" x="2012" y="-229.8" font-family="Times,serif" font-size="14.00" fill="#000000">BacktestLogComponent </text>
</g>
<!-- BacktestModule&#45;&gt;BacktestLogComponent  -->
<g id="edge18" class="edge">
<title>BacktestModule&#45;&gt;BacktestLogComponent </title>
<path fill="none" stroke="#000000" stroke-dasharray="5,2" d="M1783.9787,-185C1857.1429,-185 1978.7667,-185 1978.7667,-185 1978.7667,-185 1978.7667,-205.7542 1978.7667,-205.7542"/>
<polygon fill="#000000" stroke="#000000" points="1975.2667,-205.7542 1978.7667,-215.7542 1982.2667,-205.7542 1975.2667,-205.7542"/>
</g>
<!-- BacktestStatusComponent  -->
<g id="node20" class="node">
<title>BacktestStatusComponent </title>
<polygon fill="#fb8072" stroke="#000000" points="1916.7618,-252 1749.2382,-252 1749.2382,-216 1916.7618,-216 1916.7618,-252"/>
<text text-anchor="middle" x="1833" y="-229.8" font-family="Times,serif" font-size="14.00" fill="#000000">BacktestStatusComponent </text>
</g>
<!-- BacktestModule&#45;&gt;BacktestStatusComponent  -->
<g id="edge19" class="edge">
<title>BacktestModule&#45;&gt;BacktestStatusComponent </title>
<path fill="none" stroke="#000000" stroke-dasharray="5,2" d="M1766.6236,-187.1061C1766.6236,-187.1061 1766.6236,-205.991 1766.6236,-205.991"/>
<polygon fill="#000000" stroke="#000000" points="1763.1237,-205.9909 1766.6236,-215.991 1770.1237,-205.991 1763.1237,-205.9909"/>
</g>
<!-- BacktestStrategyArgsComponent  -->
<g id="node21" class="node">
<title>BacktestStrategyArgsComponent </title>
<polygon fill="#fb8072" stroke="#000000" points="1731.404,-252 1524.596,-252 1524.596,-216 1731.404,-216 1731.404,-252"/>
<text text-anchor="middle" x="1628" y="-229.8" font-family="Times,serif" font-size="14.00" fill="#000000">BacktestStrategyArgsComponent </text>
</g>
<!-- BacktestModule&#45;&gt;BacktestStrategyArgsComponent  -->
<g id="edge20" class="edge">
<title>BacktestModule&#45;&gt;BacktestStrategyArgsComponent </title>
<path fill="none" stroke="#000000" stroke-dasharray="5,2" d="M1703.787,-187.1061C1703.787,-187.1061 1703.787,-205.991 1703.787,-205.991"/>
<polygon fill="#000000" stroke="#000000" points="1700.2871,-205.9909 1703.787,-215.991 1707.2871,-205.991 1700.2871,-205.9909"/>
</g>
<!-- DispenseOptionsComponent  -->
<g id="node22" class="node">
<title>DispenseOptionsComponent </title>
<polygon fill="#fb8072" stroke="#000000" points="1506.481,-252 1325.519,-252 1325.519,-216 1506.481,-216 1506.481,-252"/>
<text text-anchor="middle" x="1416" y="-229.8" font-family="Times,serif" font-size="14.00" fill="#000000">DispenseOptionsComponent </text>
</g>
<!-- BacktestModule&#45;&gt;DispenseOptionsComponent  -->
<g id="edge21" class="edge">
<title>BacktestModule&#45;&gt;DispenseOptionsComponent </title>
<path fill="none" stroke="#000000" stroke-dasharray="5,2" d="M1675.9774,-185C1601.9832,-185 1478.1759,-185 1478.1759,-185 1478.1759,-185 1478.1759,-205.7542 1478.1759,-205.7542"/>
<polygon fill="#000000" stroke="#000000" points="1474.6759,-205.7542 1478.1759,-215.7542 1481.6759,-205.7542 1474.6759,-205.7542"/>
</g>
<!-- ExchangeOptionsComponent  -->
<g id="node23" class="node">
<title>ExchangeOptionsComponent </title>
<polygon fill="#fb8072" stroke="#000000" points="1308.3616,-252 1123.6384,-252 1123.6384,-216 1308.3616,-216 1308.3616,-252"/>
<text text-anchor="middle" x="1216" y="-229.8" font-family="Times,serif" font-size="14.00" fill="#000000">ExchangeOptionsComponent </text>
</g>
<!-- BacktestModule&#45;&gt;ExchangeOptionsComponent  -->
<g id="edge22" class="edge">
<title>BacktestModule&#45;&gt;ExchangeOptionsComponent </title>
<path fill="none" stroke="#000000" stroke-dasharray="5,2" d="M1675.9748,-182C1552.2687,-182 1259.0395,-182 1259.0395,-182 1259.0395,-182 1259.0395,-205.8129 1259.0395,-205.8129"/>
<polygon fill="#000000" stroke="#000000" points="1255.5395,-205.8129 1259.0395,-215.8129 1262.5395,-205.813 1255.5395,-205.8129"/>
</g>
<!-- TimeOptionsComponent  -->
<g id="node24" class="node">
<title>TimeOptionsComponent </title>
<polygon fill="#fb8072" stroke="#000000" points="1105.2135,-252 946.7865,-252 946.7865,-216 1105.2135,-216 1105.2135,-252"/>
<text text-anchor="middle" x="1026" y="-229.8" font-family="Times,serif" font-size="14.00" fill="#000000">TimeOptionsComponent </text>
</g>
<!-- BacktestModule&#45;&gt;TimeOptionsComponent  -->
<g id="edge23" class="edge">
<title>BacktestModule&#45;&gt;TimeOptionsComponent </title>
<path fill="none" stroke="#000000" stroke-dasharray="5,2" d="M1676.0096,-179C1522.3291,-179 1093.5311,-179 1093.5311,-179 1093.5311,-179 1093.5311,-205.9909 1093.5311,-205.9909"/>
<polygon fill="#000000" stroke="#000000" points="1090.0312,-205.9909 1093.5311,-215.9909 1097.0312,-205.991 1090.0312,-205.9909"/>
</g>
<!-- RobotModule -->
<g id="node13" class="node">
<title>RobotModule</title>
<polygon fill="#8dd3c7" stroke="#000000" points="1543.7773,-122 1540.7773,-126 1519.7773,-126 1516.7773,-122 1450.2227,-122 1450.2227,-86 1543.7773,-86 1543.7773,-122"/>
<text text-anchor="middle" x="1497" y="-99.8" font-family="Times,serif" font-size="14.00" fill="#000000">RobotModule</text>
</g>
<!-- RobotModule&#45;&gt;BacktestModule -->
<g id="edge12" class="edge">
<title>RobotModule&#45;&gt;BacktestModule</title>
<path fill="none" stroke="#000000" d="M1534.2182,-122.0511C1534.2182,-136.373 1534.2182,-154 1534.2182,-154 1534.2182,-154 1666.2428,-154 1666.2428,-154"/>
<polygon fill="#000000" stroke="#000000" points="1666.2429,-157.5001 1676.2428,-154 1666.2428,-150.5001 1666.2429,-157.5001"/>
</g>
<!-- SharedModule -->
<g id="node14" class="node">
<title>SharedModule</title>
<polygon fill="#8dd3c7" stroke="#000000" points="1432.4231,-122 1429.4231,-126 1408.4231,-126 1405.4231,-122 1333.5769,-122 1333.5769,-86 1432.4231,-86 1432.4231,-122"/>
<text text-anchor="middle" x="1383" y="-99.8" font-family="Times,serif" font-size="14.00" fill="#000000">SharedModule</text>
</g>
<!-- SharedModule&#45;&gt;BacktestModule -->
<g id="edge13" class="edge">
<title>SharedModule&#45;&gt;BacktestModule</title>
<path fill="none" stroke="#000000" d="M1383,-122.2396C1383,-137.5706 1383,-157 1383,-157 1383,-157 1666.162,-157 1666.162,-157"/>
<polygon fill="#000000" stroke="#000000" points="1666.162,-160.5001 1676.162,-157 1666.1619,-153.5001 1666.162,-160.5001"/>
</g>
<!-- StrategyModule -->
<g id="node15" class="node">
<title>StrategyModule</title>
<polygon fill="#8dd3c7" stroke="#000000" points="1316.2036,-122 1313.2036,-126 1292.2036,-126 1289.2036,-122 1209.7964,-122 1209.7964,-86 1316.2036,-86 1316.2036,-122"/>
<text text-anchor="middle" x="1263" y="-99.8" font-family="Times,serif" font-size="14.00" fill="#000000">StrategyModule</text>
</g>
<!-- StrategyModule&#45;&gt;BacktestModule -->
<g id="edge14" class="edge">
<title>StrategyModule&#45;&gt;BacktestModule</title>
<path fill="none" stroke="#000000" d="M1312.1412,-122.027C1312.1412,-138.3976 1312.1412,-160 1312.1412,-160 1312.1412,-160 1666.2277,-160 1666.2277,-160"/>
<polygon fill="#000000" stroke="#000000" points="1666.2277,-163.5001 1676.2277,-160 1666.2277,-156.5001 1666.2277,-163.5001"/>
</g>
<!-- ToolModule -->
<g id="node16" class="node">
<title>ToolModule</title>
<polygon fill="#8dd3c7" stroke="#000000" points="1191.993,-122 1188.993,-126 1167.993,-126 1164.993,-122 1106.007,-122 1106.007,-86 1191.993,-86 1191.993,-122"/>
<text text-anchor="middle" x="1149" y="-99.8" font-family="Times,serif" font-size="14.00" fill="#000000">ToolModule</text>
</g>
<!-- ToolModule&#45;&gt;BacktestModule -->
<g id="edge15" class="edge">
<title>ToolModule&#45;&gt;BacktestModule</title>
<path fill="none" stroke="#000000" d="M1157.908,-122.0225C1157.908,-139.3734 1157.908,-163 1157.908,-163 1157.908,-163 1666.179,-163 1666.179,-163"/>
<polygon fill="#000000" stroke="#000000" points="1666.179,-166.5001 1676.179,-163 1666.1789,-159.5001 1666.179,-166.5001"/>
</g>
<!-- BacktestComputingService -->
<g id="node25" class="node">
<title>BacktestComputingService</title>
<ellipse fill="#fdb462" stroke="#000000" cx="965" cy="-104" rx="116.9117" ry="18"/>
<text text-anchor="middle" x="965" y="-99.8" font-family="Times,serif" font-size="14.00" fill="#000000">BacktestComputingService</text>
</g>
<!-- BacktestComputingService&#45;&gt;BacktestModule -->
<g id="edge24" class="edge">
<title>BacktestComputingService&#45;&gt;BacktestModule</title>
<path fill="none" stroke="#000000" d="M1014.1745,-120.3469C1014.1745,-138.4158 1014.1745,-165 1014.1745,-165 1014.1745,-165 1666.1967,-165 1666.1967,-165"/>
<polygon fill="#000000" stroke="#000000" points="1666.1968,-168.5001 1676.1967,-165 1666.1967,-161.5001 1666.1968,-168.5001"/>
</g>
<!-- BacktestConstantService -->
<g id="node26" class="node">
<title>BacktestConstantService</title>
<ellipse fill="#fdb462" stroke="#000000" cx="723" cy="-104" rx="107.6579" ry="18"/>
<text text-anchor="middle" x="723" y="-99.8" font-family="Times,serif" font-size="14.00" fill="#000000">BacktestConstantService</text>
</g>
<!-- BacktestConstantService&#45;&gt;BacktestModule -->
<g id="edge25" class="edge">
<title>BacktestConstantService&#45;&gt;BacktestModule</title>
<path fill="none" stroke="#000000" d="M723,-122.1686C723,-141.0898 723,-168 723,-168 723,-168 1666.2153,-168 1666.2153,-168"/>
<polygon fill="#000000" stroke="#000000" points="1666.2154,-171.5001 1676.2153,-168 1666.2153,-164.5001 1666.2154,-171.5001"/>
</g>
<!-- BacktestParamService -->
<g id="node27" class="node">
<title>BacktestParamService</title>
<ellipse fill="#fdb462" stroke="#000000" cx="500" cy="-104" rx="97.8247" ry="18"/>
<text text-anchor="middle" x="500" y="-99.8" font-family="Times,serif" font-size="14.00" fill="#000000">BacktestParamService</text>
</g>
<!-- BacktestParamService&#45;&gt;BacktestModule -->
<g id="edge26" class="edge">
<title>BacktestParamService&#45;&gt;BacktestModule</title>
<path fill="none" stroke="#000000" d="M500,-122.308C500,-142.1455 500,-171 500,-171 500,-171 1665.9601,-171 1665.9601,-171"/>
<polygon fill="#000000" stroke="#000000" points="1665.9601,-174.5001 1675.9601,-171 1665.9601,-167.5001 1665.9601,-174.5001"/>
</g>
<!-- BacktestResultService -->
<g id="node28" class="node">
<title>BacktestResultService</title>
<ellipse fill="#fdb462" stroke="#000000" cx="286" cy="-104" rx="97.844" ry="18"/>
<text text-anchor="middle" x="286" y="-99.8" font-family="Times,serif" font-size="14.00" fill="#000000">BacktestResultService</text>
</g>
<!-- BacktestResultService&#45;&gt;BacktestModule -->
<g id="edge27" class="edge">
<title>BacktestResultService&#45;&gt;BacktestModule</title>
<path fill="none" stroke="#000000" d="M286,-122.0267C286,-142.7672 286,-174 286,-174 286,-174 1666.0289,-174 1666.0289,-174"/>
<polygon fill="#000000" stroke="#000000" points="1666.029,-177.5001 1676.0289,-174 1666.0289,-170.5001 1666.029,-177.5001"/>
</g>
<!-- BacktestService -->
<g id="node29" class="node">
<title>BacktestService</title>
<ellipse fill="#fdb462" stroke="#000000" cx="97" cy="-104" rx="73.4881" ry="18"/>
<text text-anchor="middle" x="97" y="-99.8" font-family="Times,serif" font-size="14.00" fill="#000000">BacktestService</text>
</g>
<!-- BacktestService&#45;&gt;BacktestModule -->
<g id="edge28" class="edge">
<title>BacktestService&#45;&gt;BacktestModule</title>
<path fill="none" stroke="#000000" d="M97,-122.1686C97,-143.498 97,-176 97,-176 97,-176 1666.1323,-176 1666.1323,-176"/>
<polygon fill="#000000" stroke="#000000" points="1666.1323,-179.5001 1676.1323,-176 1666.1323,-172.5001 1666.1323,-179.5001"/>
</g>
</g>
</svg>
