<?xml version="1.0" encoding="UTF-8" standalone="no"?>
<!DOCTYPE svg PUBLIC "-//W3C//DTD SVG 1.1//EN"
 "http://www.w3.org/Graphics/SVG/1.1/DTD/svg11.dtd">
<!-- Generated by graphviz version 2.40.1 (20161225.0304)
 -->
<!-- Title: dependencies Pages: 1 -->
<svg width="5279pt" height="284pt"
 viewBox="0.00 0.00 5279.00 284.00" xmlns="http://www.w3.org/2000/svg" xmlns:xlink="http://www.w3.org/1999/xlink">
<g id="graph0" class="graph" transform="scale(1 1) rotate(0) translate(4 280)">
<title>dependencies</title>
<polygon fill="#ffffff" stroke="transparent" points="-4,4 -4,-280 5275,-280 5275,4 -4,4"/>
<text text-anchor="start" x="2614.5091" y="-42.4" font-family="sans-serif" font-weight="bold" font-size="14.00" fill="#000000">Legend</text>
<polygon fill="#ffffb3" stroke="transparent" points="2401.5,-10 2401.5,-30 2421.5,-30 2421.5,-10 2401.5,-10"/>
<text text-anchor="start" x="2425.129" y="-15.4" font-family="sans-serif" font-size="14.00" fill="#000000"> &#160;Declarations</text>
<polygon fill="#8dd3c7" stroke="transparent" points="2514.5,-10 2514.5,-30 2534.5,-30 2534.5,-10 2514.5,-10"/>
<text text-anchor="start" x="2538.2251" y="-15.4" font-family="sans-serif" font-size="14.00" fill="#000000"> &#160;Module</text>
<polygon fill="#80b1d3" stroke="transparent" points="2600.5,-10 2600.5,-30 2620.5,-30 2620.5,-10 2600.5,-10"/>
<text text-anchor="start" x="2624.2812" y="-15.4" font-family="sans-serif" font-size="14.00" fill="#000000"> &#160;Bootstrap</text>
<polygon fill="#fdb462" stroke="transparent" points="2697.5,-10 2697.5,-30 2717.5,-30 2717.5,-10 2697.5,-10"/>
<text text-anchor="start" x="2721.1732" y="-15.4" font-family="sans-serif" font-size="14.00" fill="#000000"> &#160;Providers</text>
<polygon fill="#fb8072" stroke="transparent" points="2793.5,-10 2793.5,-30 2813.5,-30 2813.5,-10 2793.5,-10"/>
<text text-anchor="start" x="2817.2258" y="-15.4" font-family="sans-serif" font-size="14.00" fill="#000000"> &#160;Exports</text>
<g id="clust1" class="cluster">
<title>cluster_BacktestModule</title>
<polygon fill="none" stroke="#000000" stroke-dasharray="1,5" points="8,-70 8,-268 5263,-268 5263,-70 8,-70"/>
</g>
<g id="clust2" class="cluster">
<title>cluster_BacktestModule_declarations</title>
<polygon fill="none" stroke="#000000" points="1999,-78 1999,-130 5255,-130 5255,-78 1999,-78"/>
</g>
<g id="clust21" class="cluster">
<title>cluster_BacktestModule_imports</title>
<polygon fill="none" stroke="#000000" points="1537,-78 1537,-130 1991,-130 1991,-78 1537,-78"/>
</g>
<g id="clust22" class="cluster">
<title>cluster_BacktestModule_exports</title>
<polygon fill="none" stroke="#000000" points="1995,-208 1995,-260 3186,-260 3186,-208 1995,-208"/>
</g>
<g id="clust24" class="cluster">
<title>cluster_BacktestModule_providers</title>
<polygon fill="none" stroke="#000000" points="16,-78 16,-130 1529,-130 1529,-78 16,-78"/>
</g>
<!-- AccountInfoComponent -->
<g id="node1" class="node">
<title>AccountInfoComponent</title>
<polygon fill="#ffffb3" stroke="#000000" points="5247.08,-122 5094.92,-122 5094.92,-86 5247.08,-86 5247.08,-122"/>
<text text-anchor="middle" x="5171" y="-99.8" font-family="Times,serif" font-size="14.00" fill="#000000">AccountInfoComponent</text>
</g>
<!-- BacktestModule -->
<g id="node19" class="node">
<title>BacktestModule</title>
<polygon fill="#8dd3c7" stroke="#000000" points="2631.7563,-187 2628.7563,-191 2607.7563,-191 2604.7563,-187 2524.2437,-187 2524.2437,-151 2631.7563,-151 2631.7563,-187"/>
<text text-anchor="middle" x="2578" y="-164.8" font-family="Times,serif" font-size="14.00" fill="#000000">BacktestModule</text>
</g>
<!-- AccountInfoComponent&#45;&gt;BacktestModule -->
<g id="edge1" class="edge">
<title>AccountInfoComponent&#45;&gt;BacktestModule</title>
<path fill="none" stroke="#000000" d="M5171,-122.2479C5171,-145.0179 5171,-181 5171,-181 5171,-181 2641.8605,-181 2641.8605,-181"/>
<polygon fill="#000000" stroke="#000000" points="2641.8605,-177.5001 2631.8605,-181 2641.8605,-184.5001 2641.8605,-177.5001"/>
</g>
<!-- AdvancedOptionsComponent -->
<g id="node2" class="node">
<title>AdvancedOptionsComponent</title>
<polygon fill="#ffffb3" stroke="#000000" points="5077.4157,-122 4894.5843,-122 4894.5843,-86 5077.4157,-86 5077.4157,-122"/>
<text text-anchor="middle" x="4986" y="-99.8" font-family="Times,serif" font-size="14.00" fill="#000000">AdvancedOptionsComponent</text>
</g>
<!-- AdvancedOptionsComponent&#45;&gt;BacktestModule -->
<g id="edge2" class="edge">
<title>AdvancedOptionsComponent&#45;&gt;BacktestModule</title>
<path fill="none" stroke="#000000" d="M4986,-122.1554C4986,-144.3519 4986,-179 4986,-179 4986,-179 2641.9567,-179 2641.9567,-179"/>
<polygon fill="#000000" stroke="#000000" points="2641.9567,-175.5001 2631.9567,-179 2641.9566,-182.5001 2641.9567,-175.5001"/>
</g>
<!-- ArgOptimizerComponent -->
<g id="node3" class="node">
<title>ArgOptimizerComponent</title>
<polygon fill="#ffffb3" stroke="#000000" points="4876.8585,-122 4717.1415,-122 4717.1415,-86 4876.8585,-86 4876.8585,-122"/>
<text text-anchor="middle" x="4797" y="-99.8" font-family="Times,serif" font-size="14.00" fill="#000000">ArgOptimizerComponent</text>
</g>
<!-- ArgOptimizerComponent&#45;&gt;BacktestModule -->
<g id="edge3" class="edge">
<title>ArgOptimizerComponent&#45;&gt;BacktestModule</title>
<path fill="none" stroke="#000000" d="M4797,-122.0449C4797,-143.6623 4797,-177 4797,-177 4797,-177 2642.0264,-177 2642.0264,-177"/>
<polygon fill="#000000" stroke="#000000" points="2642.0264,-173.5001 2632.0264,-177 2642.0264,-180.5001 2642.0264,-173.5001"/>
</g>
<!-- BacktestChartComponent -->
<g id="node4" class="node">
<title>BacktestChartComponent</title>
<polygon fill="#ffffb3" stroke="#000000" points="4699.1414,-122 4538.8586,-122 4538.8586,-86 4699.1414,-86 4699.1414,-122"/>
<text text-anchor="middle" x="4619" y="-99.8" font-family="Times,serif" font-size="14.00" fill="#000000">BacktestChartComponent</text>
</g>
<!-- BacktestChartComponent&#45;&gt;BacktestModule -->
<g id="edge4" class="edge">
<title>BacktestChartComponent&#45;&gt;BacktestModule</title>
<path fill="none" stroke="#000000" d="M4619,-122.2843C4619,-143.3211 4619,-175 4619,-175 4619,-175 2641.8041,-175 2641.8041,-175"/>
<polygon fill="#000000" stroke="#000000" points="2641.8041,-171.5001 2631.8041,-175 2641.8041,-178.5001 2641.8041,-171.5001"/>
</g>
<!-- BacktestLogComponent -->
<g id="node5" class="node">
<title>BacktestLogComponent</title>
<polygon fill="#ffffb3" stroke="#000000" points="4521.0912,-122 4368.9088,-122 4368.9088,-86 4521.0912,-86 4521.0912,-122"/>
<text text-anchor="middle" x="4445" y="-99.8" font-family="Times,serif" font-size="14.00" fill="#000000">BacktestLogComponent</text>
</g>
<!-- BacktestLogComponent&#45;&gt;BacktestModule -->
<g id="edge5" class="edge">
<title>BacktestLogComponent&#45;&gt;BacktestModule</title>
<path fill="none" stroke="#000000" d="M4445,-122.1289C4445,-142.5724 4445,-173 4445,-173 4445,-173 2641.8622,-173 2641.8622,-173"/>
<polygon fill="#000000" stroke="#000000" points="2641.8622,-169.5001 2631.8622,-173 2641.8622,-176.5001 2641.8622,-169.5001"/>
</g>
<!-- BacktestLogInfoComponent -->
<g id="node6" class="node">
<title>BacktestLogInfoComponent</title>
<polygon fill="#ffffb3" stroke="#000000" points="4350.9129,-122 4175.0871,-122 4175.0871,-86 4350.9129,-86 4350.9129,-122"/>
<text text-anchor="middle" x="4263" y="-99.8" font-family="Times,serif" font-size="14.00" fill="#000000">BacktestLogInfoComponent</text>
</g>
<!-- BacktestLogInfoComponent&#45;&gt;BacktestModule -->
<g id="edge6" class="edge">
<title>BacktestLogInfoComponent&#45;&gt;BacktestModule</title>
<path fill="none" stroke="#000000" d="M4263,-122.308C4263,-142.1455 4263,-171 4263,-171 4263,-171 2642.1545,-171 2642.1545,-171"/>
<polygon fill="#000000" stroke="#000000" points="2642.1546,-167.5001 2632.1545,-171 2642.1545,-174.5001 2642.1546,-167.5001"/>
</g>
<!-- BacktestResultComponent -->
<g id="node7" class="node">
<title>BacktestResultComponent</title>
<polygon fill="#ffffb3" stroke="#000000" points="4157.8159,-122 3992.1841,-122 3992.1841,-86 4157.8159,-86 4157.8159,-122"/>
<text text-anchor="middle" x="4075" y="-99.8" font-family="Times,serif" font-size="14.00" fill="#000000">BacktestResultComponent</text>
</g>
<!-- BacktestResultComponent&#45;&gt;BacktestModule -->
<g id="edge7" class="edge">
<title>BacktestResultComponent&#45;&gt;BacktestModule</title>
<path fill="none" stroke="#000000" d="M4075,-122.1686C4075,-141.0898 4075,-168 4075,-168 4075,-168 2642.1634,-168 2642.1634,-168"/>
<polygon fill="#000000" stroke="#000000" points="2642.1635,-164.5001 2632.1634,-168 2642.1634,-171.5001 2642.1635,-164.5001"/>
</g>
<!-- BacktestStatusComponent -->
<g id="node8" class="node">
<title>BacktestStatusComponent</title>
<polygon fill="#ffffb3" stroke="#000000" points="3973.7618,-122 3810.2382,-122 3810.2382,-86 3973.7618,-86 3973.7618,-122"/>
<text text-anchor="middle" x="3892" y="-99.8" font-family="Times,serif" font-size="14.00" fill="#000000">BacktestStatusComponent</text>
</g>
<!-- BacktestStatusComponent&#45;&gt;BacktestModule -->
<g id="edge8" class="edge">
<title>BacktestStatusComponent&#45;&gt;BacktestModule</title>
<path fill="none" stroke="#000000" d="M3892,-122.2667C3892,-140.5552 3892,-166 3892,-166 3892,-166 2641.9601,-166 2641.9601,-166"/>
<polygon fill="#000000" stroke="#000000" points="2641.9601,-162.5001 2631.9601,-166 2641.96,-169.5001 2641.9601,-162.5001"/>
</g>
<!-- BacktestStrategyArgsComponent -->
<g id="node9" class="node">
<title>BacktestStrategyArgsComponent</title>
<polygon fill="#ffffb3" stroke="#000000" points="3791.9044,-122 3588.0956,-122 3588.0956,-86 3791.9044,-86 3791.9044,-122"/>
<text text-anchor="middle" x="3690" y="-99.8" font-family="Times,serif" font-size="14.00" fill="#000000">BacktestStrategyArgsComponent</text>
</g>
<!-- BacktestStrategyArgsComponent&#45;&gt;BacktestModule -->
<g id="edge9" class="edge">
<title>BacktestStrategyArgsComponent&#45;&gt;BacktestModule</title>
<path fill="none" stroke="#000000" d="M3690,-122.002C3690,-139.6754 3690,-164 3690,-164 3690,-164 2642.0099,-164 2642.0099,-164"/>
<polygon fill="#000000" stroke="#000000" points="2642.0099,-160.5001 2632.0099,-164 2642.0098,-167.5001 2642.0099,-160.5001"/>
</g>
<!-- BacktestStrategyChartComponent -->
<g id="node10" class="node">
<title>BacktestStrategyChartComponent</title>
<polygon fill="#ffffb3" stroke="#000000" points="3570.7948,-122 3363.2052,-122 3363.2052,-86 3570.7948,-86 3570.7948,-122"/>
<text text-anchor="middle" x="3467" y="-99.8" font-family="Times,serif" font-size="14.00" fill="#000000">BacktestStrategyChartComponent</text>
</g>
<!-- BacktestStrategyChartComponent&#45;&gt;BacktestModule -->
<g id="edge10" class="edge">
<title>BacktestStrategyChartComponent&#45;&gt;BacktestModule</title>
<path fill="none" stroke="#000000" d="M3467,-122.0336C3467,-139.0597 3467,-162 3467,-162 3467,-162 2641.9404,-162 2641.9404,-162"/>
<polygon fill="#000000" stroke="#000000" points="2641.9404,-158.5001 2631.9404,-162 2641.9403,-165.5001 2641.9404,-158.5001"/>
</g>
<!-- DispenseOptionsComponent -->
<g id="node11" class="node">
<title>DispenseOptionsComponent</title>
<polygon fill="#ffffb3" stroke="#000000" points="3345.4804,-122 3168.5196,-122 3168.5196,-86 3345.4804,-86 3345.4804,-122"/>
<text text-anchor="middle" x="3257" y="-99.8" font-family="Times,serif" font-size="14.00" fill="#000000">DispenseOptionsComponent</text>
</g>
<!-- DispenseOptionsComponent&#45;&gt;BacktestModule -->
<g id="edge11" class="edge">
<title>DispenseOptionsComponent&#45;&gt;BacktestModule</title>
<path fill="none" stroke="#000000" d="M3173.2337,-122.027C3173.2337,-138.3976 3173.2337,-160 3173.2337,-160 3173.2337,-160 2641.8728,-160 2641.8728,-160"/>
<polygon fill="#000000" stroke="#000000" points="2641.8729,-156.5001 2631.8728,-160 2641.8728,-163.5001 2641.8729,-156.5001"/>
</g>
<!-- ExchangeOptionsComponent -->
<g id="node12" class="node">
<title>ExchangeOptionsComponent</title>
<polygon fill="#ffffb3" stroke="#000000" points="3150.3613,-122 2969.6387,-122 2969.6387,-86 3150.3613,-86 3150.3613,-122"/>
<text text-anchor="middle" x="3060" y="-99.8" font-family="Times,serif" font-size="14.00" fill="#000000">ExchangeOptionsComponent</text>
</g>
<!-- ExchangeOptionsComponent&#45;&gt;BacktestModule -->
<g id="edge12" class="edge">
<title>ExchangeOptionsComponent&#45;&gt;BacktestModule</title>
<path fill="none" stroke="#000000" d="M2983.2251,-122.2819C2983.2251,-137.9478 2983.2251,-158 2983.2251,-158 2983.2251,-158 2641.8108,-158 2641.8108,-158"/>
<polygon fill="#000000" stroke="#000000" points="2641.8108,-154.5001 2631.8108,-158 2641.8107,-161.5001 2641.8108,-154.5001"/>
</g>
<!-- FuturesResultPipe -->
<g id="node13" class="node">
<title>FuturesResultPipe</title>
<polygon fill="#ffffb3" stroke="#000000" points="2951.1583,-122 2832.8417,-122 2832.8417,-86 2951.1583,-86 2951.1583,-122"/>
<text text-anchor="middle" x="2892" y="-99.8" font-family="Times,serif" font-size="14.00" fill="#000000">FuturesResultPipe</text>
</g>
<!-- FuturesResultPipe&#45;&gt;BacktestModule -->
<g id="edge13" class="edge">
<title>FuturesResultPipe&#45;&gt;BacktestModule</title>
<path fill="none" stroke="#000000" d="M2892,-122.1871C2892,-137.1824 2892,-156 2892,-156 2892,-156 2641.9785,-156 2641.9785,-156"/>
<polygon fill="#000000" stroke="#000000" points="2641.9786,-152.5001 2631.9785,-156 2641.9785,-159.5001 2641.9786,-152.5001"/>
</g>
<!-- OptimizeFilterDesPipe -->
<g id="node14" class="node">
<title>OptimizeFilterDesPipe</title>
<polygon fill="#ffffb3" stroke="#000000" points="2814.5814,-122 2669.4186,-122 2669.4186,-86 2814.5814,-86 2814.5814,-122"/>
<text text-anchor="middle" x="2742" y="-99.8" font-family="Times,serif" font-size="14.00" fill="#000000">OptimizeFilterDesPipe</text>
</g>
<!-- OptimizeFilterDesPipe&#45;&gt;BacktestModule -->
<g id="edge14" class="edge">
<title>OptimizeFilterDesPipe&#45;&gt;BacktestModule</title>
<path fill="none" stroke="#000000" d="M2728.4557,-122.0511C2728.4557,-136.373 2728.4557,-154 2728.4557,-154 2728.4557,-154 2641.893,-154 2641.893,-154"/>
<polygon fill="#000000" stroke="#000000" points="2641.893,-150.5001 2631.893,-154 2641.8929,-157.5001 2641.893,-150.5001"/>
</g>
<!-- ProfitCurveComponent -->
<g id="node15" class="node">
<title>ProfitCurveComponent</title>
<polygon fill="#ffffb3" stroke="#000000" points="2651.9298,-122 2504.0702,-122 2504.0702,-86 2651.9298,-86 2651.9298,-122"/>
<text text-anchor="middle" x="2578" y="-99.8" font-family="Times,serif" font-size="14.00" fill="#000000">ProfitCurveComponent</text>
</g>
<!-- ProfitCurveComponent&#45;&gt;BacktestModule -->
<g id="edge15" class="edge">
<title>ProfitCurveComponent&#45;&gt;BacktestModule</title>
<path fill="none" stroke="#000000" d="M2578,-122.1061C2578,-122.1061 2578,-140.991 2578,-140.991"/>
<polygon fill="#000000" stroke="#000000" points="2574.5001,-140.9909 2578,-150.991 2581.5001,-140.991 2574.5001,-140.9909"/>
</g>
<!-- ProfitLoseComponent -->
<g id="node16" class="node">
<title>ProfitLoseComponent</title>
<polygon fill="#ffffb3" stroke="#000000" points="2486.4299,-122 2345.5701,-122 2345.5701,-86 2486.4299,-86 2486.4299,-122"/>
<text text-anchor="middle" x="2416" y="-99.8" font-family="Times,serif" font-size="14.00" fill="#000000">ProfitLoseComponent</text>
</g>
<!-- ProfitLoseComponent&#45;&gt;BacktestModule -->
<g id="edge16" class="edge">
<title>ProfitLoseComponent&#45;&gt;BacktestModule</title>
<path fill="none" stroke="#000000" d="M2433.9872,-122.0511C2433.9872,-136.373 2433.9872,-154 2433.9872,-154 2433.9872,-154 2513.9652,-154 2513.9652,-154"/>
<polygon fill="#000000" stroke="#000000" points="2513.9653,-157.5001 2523.9652,-154 2513.9652,-150.5001 2513.9653,-157.5001"/>
</g>
<!-- QuotaChartComponent -->
<g id="node17" class="node">
<title>QuotaChartComponent</title>
<polygon fill="#ffffb3" stroke="#000000" points="2327.147,-122 2180.853,-122 2180.853,-86 2327.147,-86 2327.147,-122"/>
<text text-anchor="middle" x="2254" y="-99.8" font-family="Times,serif" font-size="14.00" fill="#000000">QuotaChartComponent</text>
</g>
<!-- QuotaChartComponent&#45;&gt;BacktestModule -->
<g id="edge17" class="edge">
<title>QuotaChartComponent&#45;&gt;BacktestModule</title>
<path fill="none" stroke="#000000" d="M2254,-122.1871C2254,-137.1824 2254,-156 2254,-156 2254,-156 2514.1343,-156 2514.1343,-156"/>
<polygon fill="#000000" stroke="#000000" points="2514.1343,-159.5001 2524.1343,-156 2514.1342,-152.5001 2514.1343,-159.5001"/>
</g>
<!-- TimeOptionsComponent -->
<g id="node18" class="node">
<title>TimeOptionsComponent</title>
<polygon fill="#ffffb3" stroke="#000000" points="2162.7133,-122 2007.2867,-122 2007.2867,-86 2162.7133,-86 2162.7133,-122"/>
<text text-anchor="middle" x="2085" y="-99.8" font-family="Times,serif" font-size="14.00" fill="#000000">TimeOptionsComponent</text>
</g>
<!-- TimeOptionsComponent&#45;&gt;BacktestModule -->
<g id="edge18" class="edge">
<title>TimeOptionsComponent&#45;&gt;BacktestModule</title>
<path fill="none" stroke="#000000" d="M2110.0355,-122.2819C2110.0355,-137.9478 2110.0355,-158 2110.0355,-158 2110.0355,-158 2513.8614,-158 2513.8614,-158"/>
<polygon fill="#000000" stroke="#000000" points="2513.8614,-161.5001 2523.8614,-158 2513.8613,-154.5001 2513.8614,-161.5001"/>
</g>
<!-- AdvancedOptionsComponent  -->
<g id="node24" class="node">
<title>AdvancedOptionsComponent </title>
<polygon fill="#fb8072" stroke="#000000" points="3177.9152,-252 2992.0848,-252 2992.0848,-216 3177.9152,-216 3177.9152,-252"/>
<text text-anchor="middle" x="3085" y="-229.8" font-family="Times,serif" font-size="14.00" fill="#000000">AdvancedOptionsComponent </text>
</g>
<!-- BacktestModule&#45;&gt;AdvancedOptionsComponent  -->
<g id="edge23" class="edge">
<title>BacktestModule&#45;&gt;AdvancedOptionsComponent </title>
<path fill="none" stroke="#000000" stroke-dasharray="5,2" d="M2632.1959,-183C2760.3253,-183 3071.2365,-183 3071.2365,-183 3071.2365,-183 3071.2365,-205.8757 3071.2365,-205.8757"/>
<polygon fill="#000000" stroke="#000000" points="3067.7366,-205.8757 3071.2365,-215.8757 3074.7366,-205.8757 3067.7366,-205.8757"/>
</g>
<!-- BacktestResultComponent  -->
<g id="node25" class="node">
<title>BacktestResultComponent </title>
<polygon fill="#fb8072" stroke="#000000" points="2974.3157,-252 2805.6843,-252 2805.6843,-216 2974.3157,-216 2974.3157,-252"/>
<text text-anchor="middle" x="2890" y="-229.8" font-family="Times,serif" font-size="14.00" fill="#000000">BacktestResultComponent </text>
</g>
<!-- BacktestModule&#45;&gt;BacktestResultComponent  -->
<g id="edge24" class="edge">
<title>BacktestModule&#45;&gt;BacktestResultComponent </title>
<path fill="none" stroke="#000000" stroke-dasharray="5,2" d="M2631.824,-185C2700.3788,-185 2810.0665,-185 2810.0665,-185 2810.0665,-185 2810.0665,-205.7542 2810.0665,-205.7542"/>
<polygon fill="#000000" stroke="#000000" points="2806.5665,-205.7542 2810.0665,-215.7542 2813.5665,-205.7542 2806.5665,-205.7542"/>
</g>
<!-- BacktestStrategyArgsComponent  -->
<g id="node26" class="node">
<title>BacktestStrategyArgsComponent </title>
<polygon fill="#fb8072" stroke="#000000" points="2787.404,-252 2580.596,-252 2580.596,-216 2787.404,-216 2787.404,-252"/>
<text text-anchor="middle" x="2684" y="-229.8" font-family="Times,serif" font-size="14.00" fill="#000000">BacktestStrategyArgsComponent </text>
</g>
<!-- BacktestModule&#45;&gt;BacktestStrategyArgsComponent  -->
<g id="edge25" class="edge">
<title>BacktestModule&#45;&gt;BacktestStrategyArgsComponent </title>
<path fill="none" stroke="#000000" stroke-dasharray="5,2" d="M2606.213,-187.1061C2606.213,-187.1061 2606.213,-205.991 2606.213,-205.991"/>
<polygon fill="#000000" stroke="#000000" points="2602.7131,-205.9909 2606.213,-215.991 2609.7131,-205.991 2602.7131,-205.9909"/>
</g>
<!-- DispenseOptionsComponent  -->
<g id="node27" class="node">
<title>DispenseOptionsComponent </title>
<polygon fill="#fb8072" stroke="#000000" points="2562.481,-252 2381.519,-252 2381.519,-216 2562.481,-216 2562.481,-252"/>
<text text-anchor="middle" x="2472" y="-229.8" font-family="Times,serif" font-size="14.00" fill="#000000">DispenseOptionsComponent </text>
</g>
<!-- BacktestModule&#45;&gt;DispenseOptionsComponent  -->
<g id="edge26" class="edge">
<title>BacktestModule&#45;&gt;DispenseOptionsComponent </title>
<path fill="none" stroke="#000000" stroke-dasharray="5,2" d="M2543.1811,-187.1061C2543.1811,-187.1061 2543.1811,-205.991 2543.1811,-205.991"/>
<polygon fill="#000000" stroke="#000000" points="2539.6812,-205.9909 2543.1811,-215.991 2546.6812,-205.991 2539.6812,-205.9909"/>
</g>
<!-- ExchangeOptionsComponent  -->
<g id="node28" class="node">
<title>ExchangeOptionsComponent </title>
<polygon fill="#fb8072" stroke="#000000" points="2364.3616,-252 2179.6384,-252 2179.6384,-216 2364.3616,-216 2364.3616,-252"/>
<text text-anchor="middle" x="2272" y="-229.8" font-family="Times,serif" font-size="14.00" fill="#000000">ExchangeOptionsComponent </text>
</g>
<!-- BacktestModule&#45;&gt;ExchangeOptionsComponent  -->
<g id="edge27" class="edge">
<title>BacktestModule&#45;&gt;ExchangeOptionsComponent </title>
<path fill="none" stroke="#000000" stroke-dasharray="5,2" d="M2524.0138,-185C2458.0113,-185 2354.983,-185 2354.983,-185 2354.983,-185 2354.983,-205.7542 2354.983,-205.7542"/>
<polygon fill="#000000" stroke="#000000" points="2351.4831,-205.7542 2354.983,-215.7542 2358.4831,-205.7542 2351.4831,-205.7542"/>
</g>
<!-- TimeOptionsComponent  -->
<g id="node29" class="node">
<title>TimeOptionsComponent </title>
<polygon fill="#fb8072" stroke="#000000" points="2161.2135,-252 2002.7865,-252 2002.7865,-216 2161.2135,-216 2161.2135,-252"/>
<text text-anchor="middle" x="2082" y="-229.8" font-family="Times,serif" font-size="14.00" fill="#000000">TimeOptionsComponent </text>
</g>
<!-- BacktestModule&#45;&gt;TimeOptionsComponent  -->
<g id="edge28" class="edge">
<title>BacktestModule&#45;&gt;TimeOptionsComponent </title>
<path fill="none" stroke="#000000" stroke-dasharray="5,2" d="M2523.8969,-183C2390.895,-183 2058.7145,-183 2058.7145,-183 2058.7145,-183 2058.7145,-205.8757 2058.7145,-205.8757"/>
<polygon fill="#000000" stroke="#000000" points="2055.2146,-205.8757 2058.7145,-215.8757 2062.2146,-205.8757 2055.2146,-205.8757"/>
</g>
<!-- RobotModule -->
<g id="node20" class="node">
<title>RobotModule</title>
<polygon fill="#8dd3c7" stroke="#000000" points="1982.7773,-122 1979.7773,-126 1958.7773,-126 1955.7773,-122 1889.2227,-122 1889.2227,-86 1982.7773,-86 1982.7773,-122"/>
<text text-anchor="middle" x="1936" y="-99.8" font-family="Times,serif" font-size="14.00" fill="#000000">RobotModule</text>
</g>
<!-- RobotModule&#45;&gt;BacktestModule -->
<g id="edge19" class="edge">
<title>RobotModule&#45;&gt;BacktestModule</title>
<path fill="none" stroke="#000000" d="M1936,-122.027C1936,-138.3976 1936,-160 1936,-160 1936,-160 2514.0925,-160 2514.0925,-160"/>
<polygon fill="#000000" stroke="#000000" points="2514.0925,-163.5001 2524.0925,-160 2514.0925,-156.5001 2514.0925,-163.5001"/>
</g>
<!-- SharedModule -->
<g id="node21" class="node">
<title>SharedModule</title>
<polygon fill="#8dd3c7" stroke="#000000" points="1871.4231,-122 1868.4231,-126 1847.4231,-126 1844.4231,-122 1772.5769,-122 1772.5769,-86 1871.4231,-86 1871.4231,-122"/>
<text text-anchor="middle" x="1822" y="-99.8" font-family="Times,serif" font-size="14.00" fill="#000000">SharedModule</text>
</g>
<!-- SharedModule&#45;&gt;BacktestModule -->
<g id="edge20" class="edge">
<title>SharedModule&#45;&gt;BacktestModule</title>
<path fill="none" stroke="#000000" d="M1822,-122.0336C1822,-139.0597 1822,-162 1822,-162 1822,-162 2514.2364,-162 2514.2364,-162"/>
<polygon fill="#000000" stroke="#000000" points="2514.2364,-165.5001 2524.2364,-162 2514.2364,-158.5001 2514.2364,-165.5001"/>
</g>
<!-- StrategyModule -->
<g id="node22" class="node">
<title>StrategyModule</title>
<polygon fill="#8dd3c7" stroke="#000000" points="1755.2036,-122 1752.2036,-126 1731.2036,-126 1728.2036,-122 1648.7964,-122 1648.7964,-86 1755.2036,-86 1755.2036,-122"/>
<text text-anchor="middle" x="1702" y="-99.8" font-family="Times,serif" font-size="14.00" fill="#000000">StrategyModule</text>
</g>
<!-- StrategyModule&#45;&gt;BacktestModule -->
<g id="edge21" class="edge">
<title>StrategyModule&#45;&gt;BacktestModule</title>
<path fill="none" stroke="#000000" d="M1702,-122.002C1702,-139.6754 1702,-164 1702,-164 1702,-164 2514.1926,-164 2514.1926,-164"/>
<polygon fill="#000000" stroke="#000000" points="2514.1926,-167.5001 2524.1926,-164 2514.1926,-160.5001 2514.1926,-167.5001"/>
</g>
<!-- ToolModule -->
<g id="node23" class="node">
<title>ToolModule</title>
<polygon fill="#8dd3c7" stroke="#000000" points="1630.993,-122 1627.993,-126 1606.993,-126 1603.993,-122 1545.007,-122 1545.007,-86 1630.993,-86 1630.993,-122"/>
<text text-anchor="middle" x="1588" y="-99.8" font-family="Times,serif" font-size="14.00" fill="#000000">ToolModule</text>
</g>
<!-- ToolModule&#45;&gt;BacktestModule -->
<g id="edge22" class="edge">
<title>ToolModule&#45;&gt;BacktestModule</title>
<path fill="none" stroke="#000000" d="M1588,-122.2667C1588,-140.5552 1588,-166 1588,-166 1588,-166 2514.0702,-166 2514.0702,-166"/>
<polygon fill="#000000" stroke="#000000" points="2514.0703,-169.5001 2524.0702,-166 2514.0702,-162.5001 2514.0703,-169.5001"/>
</g>
<!-- BacktestChartService -->
<g id="node30" class="node">
<title>BacktestChartService</title>
<ellipse fill="#fdb462" stroke="#000000" cx="1426" cy="-104" rx="94.8954" ry="18"/>
<text text-anchor="middle" x="1426" y="-99.8" font-family="Times,serif" font-size="14.00" fill="#000000">BacktestChartService</text>
</g>
<!-- BacktestChartService&#45;&gt;BacktestModule -->
<g id="edge29" class="edge">
<title>BacktestChartService&#45;&gt;BacktestModule</title>
<path fill="none" stroke="#000000" d="M1426,-122.1686C1426,-141.0898 1426,-168 1426,-168 1426,-168 2513.9818,-168 2513.9818,-168"/>
<polygon fill="#000000" stroke="#000000" points="2513.9818,-171.5001 2523.9818,-168 2513.9818,-164.5001 2513.9818,-171.5001"/>
</g>
<!-- BacktestComputingService -->
<g id="node31" class="node">
<title>BacktestComputingService</title>
<ellipse fill="#fdb462" stroke="#000000" cx="1197" cy="-104" rx="116.9117" ry="18"/>
<text text-anchor="middle" x="1197" y="-99.8" font-family="Times,serif" font-size="14.00" fill="#000000">BacktestComputingService</text>
</g>
<!-- BacktestComputingService&#45;&gt;BacktestModule -->
<g id="edge30" class="edge">
<title>BacktestComputingService&#45;&gt;BacktestModule</title>
<path fill="none" stroke="#000000" d="M1197,-122.308C1197,-142.1455 1197,-171 1197,-171 1197,-171 2513.8632,-171 2513.8632,-171"/>
<polygon fill="#000000" stroke="#000000" points="2513.8632,-174.5001 2523.8632,-171 2513.8631,-167.5001 2513.8632,-174.5001"/>
</g>
<!-- BacktestConstantService -->
<g id="node32" class="node">
<title>BacktestConstantService</title>
<ellipse fill="#fdb462" stroke="#000000" cx="955" cy="-104" rx="107.6579" ry="18"/>
<text text-anchor="middle" x="955" y="-99.8" font-family="Times,serif" font-size="14.00" fill="#000000">BacktestConstantService</text>
</g>
<!-- BacktestConstantService&#45;&gt;BacktestModule -->
<g id="edge31" class="edge">
<title>BacktestConstantService&#45;&gt;BacktestModule</title>
<path fill="none" stroke="#000000" d="M955,-122.1289C955,-142.5724 955,-173 955,-173 955,-173 2513.9999,-173 2513.9999,-173"/>
<polygon fill="#000000" stroke="#000000" points="2513.9999,-176.5001 2523.9999,-173 2513.9999,-169.5001 2513.9999,-176.5001"/>
</g>
<!-- BacktestParamService -->
<g id="node33" class="node">
<title>BacktestParamService</title>
<ellipse fill="#fdb462" stroke="#000000" cx="732" cy="-104" rx="97.8247" ry="18"/>
<text text-anchor="middle" x="732" y="-99.8" font-family="Times,serif" font-size="14.00" fill="#000000">BacktestParamService</text>
</g>
<!-- BacktestParamService&#45;&gt;BacktestModule -->
<g id="edge32" class="edge">
<title>BacktestParamService&#45;&gt;BacktestModule</title>
<path fill="none" stroke="#000000" d="M732,-122.2843C732,-143.3211 732,-175 732,-175 732,-175 2513.7525,-175 2513.7525,-175"/>
<polygon fill="#000000" stroke="#000000" points="2513.7525,-178.5001 2523.7525,-175 2513.7524,-171.5001 2513.7525,-178.5001"/>
</g>
<!-- BacktestResultService -->
<g id="node34" class="node">
<title>BacktestResultService</title>
<ellipse fill="#fdb462" stroke="#000000" cx="518" cy="-104" rx="97.844" ry="18"/>
<text text-anchor="middle" x="518" y="-99.8" font-family="Times,serif" font-size="14.00" fill="#000000">BacktestResultService</text>
</g>
<!-- BacktestResultService&#45;&gt;BacktestModule -->
<g id="edge33" class="edge">
<title>BacktestResultService&#45;&gt;BacktestModule</title>
<path fill="none" stroke="#000000" d="M518,-122.0449C518,-143.6623 518,-177 518,-177 518,-177 2514.2221,-177 2514.2221,-177"/>
<polygon fill="#000000" stroke="#000000" points="2514.2221,-180.5001 2524.2221,-177 2514.2221,-173.5001 2514.2221,-180.5001"/>
</g>
<!-- BacktestSandboxService -->
<g id="node35" class="node">
<title>BacktestSandboxService</title>
<ellipse fill="#fdb462" stroke="#000000" cx="295" cy="-104" rx="107.0821" ry="18"/>
<text text-anchor="middle" x="295" y="-99.8" font-family="Times,serif" font-size="14.00" fill="#000000">BacktestSandboxService</text>
</g>
<!-- BacktestSandboxService&#45;&gt;BacktestModule -->
<g id="edge34" class="edge">
<title>BacktestSandboxService&#45;&gt;BacktestModule</title>
<path fill="none" stroke="#000000" d="M295,-122.1554C295,-144.3519 295,-179 295,-179 295,-179 2514.0962,-179 2514.0962,-179"/>
<polygon fill="#000000" stroke="#000000" points="2514.0963,-182.5001 2524.0962,-179 2514.0962,-175.5001 2514.0963,-182.5001"/>
</g>
<!-- BacktestService -->
<g id="node36" class="node">
<title>BacktestService</title>
<ellipse fill="#fdb462" stroke="#000000" cx="97" cy="-104" rx="73.4881" ry="18"/>
<text text-anchor="middle" x="97" y="-99.8" font-family="Times,serif" font-size="14.00" fill="#000000">BacktestService</text>
</g>
<!-- BacktestService&#45;&gt;BacktestModule -->
<g id="edge35" class="edge">
<title>BacktestService&#45;&gt;BacktestModule</title>
<path fill="none" stroke="#000000" d="M97,-122.2479C97,-145.0179 97,-181 97,-181 97,-181 2514.1644,-181 2514.1644,-181"/>
<polygon fill="#000000" stroke="#000000" points="2514.1645,-184.5001 2524.1644,-181 2514.1644,-177.5001 2514.1645,-184.5001"/>
</g>
</g>
</svg>
