<?xml version="1.0" encoding="UTF-8" standalone="no"?>
<!DOCTYPE svg PUBLIC "-//W3C//DTD SVG 1.1//EN"
 "http://www.w3.org/Graphics/SVG/1.1/DTD/svg11.dtd">
<!-- Generated by graphviz version 2.40.1 (20161225.0304)
 -->
<!-- Title: dependencies Pages: 1 -->
<svg width="4797pt" height="284pt"
 viewBox="0.00 0.00 4797.00 284.00" xmlns="http://www.w3.org/2000/svg" xmlns:xlink="http://www.w3.org/1999/xlink">
<g id="graph0" class="graph" transform="scale(1 1) rotate(0) translate(4 280)">
<title>dependencies</title>
<polygon fill="#ffffff" stroke="transparent" points="-4,4 -4,-280 4793,-280 4793,4 -4,4"/>
<text text-anchor="start" x="2373.5091" y="-42.4" font-family="sans-serif" font-weight="bold" font-size="14.00" fill="#000000">Legend</text>
<polygon fill="#ffffb3" stroke="transparent" points="2160.5,-10 2160.5,-30 2180.5,-30 2180.5,-10 2160.5,-10"/>
<text text-anchor="start" x="2184.129" y="-15.4" font-family="sans-serif" font-size="14.00" fill="#000000"> &#160;Declarations</text>
<polygon fill="#8dd3c7" stroke="transparent" points="2273.5,-10 2273.5,-30 2293.5,-30 2293.5,-10 2273.5,-10"/>
<text text-anchor="start" x="2297.2251" y="-15.4" font-family="sans-serif" font-size="14.00" fill="#000000"> &#160;Module</text>
<polygon fill="#80b1d3" stroke="transparent" points="2359.5,-10 2359.5,-30 2379.5,-30 2379.5,-10 2359.5,-10"/>
<text text-anchor="start" x="2383.2812" y="-15.4" font-family="sans-serif" font-size="14.00" fill="#000000"> &#160;Bootstrap</text>
<polygon fill="#fdb462" stroke="transparent" points="2456.5,-10 2456.5,-30 2476.5,-30 2476.5,-10 2456.5,-10"/>
<text text-anchor="start" x="2480.1732" y="-15.4" font-family="sans-serif" font-size="14.00" fill="#000000"> &#160;Providers</text>
<polygon fill="#fb8072" stroke="transparent" points="2552.5,-10 2552.5,-30 2572.5,-30 2572.5,-10 2552.5,-10"/>
<text text-anchor="start" x="2576.2258" y="-15.4" font-family="sans-serif" font-size="14.00" fill="#000000"> &#160;Exports</text>
<g id="clust1" class="cluster">
<title>cluster_BacktestModule</title>
<polygon fill="none" stroke="#000000" stroke-dasharray="1,5" points="8,-70 8,-268 4781,-268 4781,-70 8,-70"/>
</g>
<g id="clust2" class="cluster">
<title>cluster_BacktestModule_declarations</title>
<polygon fill="none" stroke="#000000" points="1340,-78 1340,-130 4773,-130 4773,-78 1340,-78"/>
</g>
<g id="clust22" class="cluster">
<title>cluster_BacktestModule_imports</title>
<polygon fill="none" stroke="#000000" points="878,-78 878,-130 1332,-130 1332,-78 878,-78"/>
</g>
<g id="clust23" class="cluster">
<title>cluster_BacktestModule_exports</title>
<polygon fill="none" stroke="#000000" points="2131,-208 2131,-260 2341,-260 2341,-208 2131,-208"/>
</g>
<g id="clust25" class="cluster">
<title>cluster_BacktestModule_providers</title>
<polygon fill="none" stroke="#000000" points="16,-78 16,-130 870,-130 870,-78 16,-78"/>
</g>
<!-- AccountInfoComponent -->
<g id="node1" class="node">
<title>AccountInfoComponent</title>
<polygon fill="#ffffb3" stroke="#000000" points="4765.08,-122 4612.92,-122 4612.92,-86 4765.08,-86 4765.08,-122"/>
<text text-anchor="middle" x="4689" y="-99.8" font-family="Times,serif" font-size="14.00" fill="#000000">AccountInfoComponent</text>
</g>
<!-- BacktestModule -->
<g id="node20" class="node">
<title>BacktestModule</title>
<polygon fill="#8dd3c7" stroke="#000000" points="2289.7563,-187 2286.7563,-191 2265.7563,-191 2262.7563,-187 2182.2437,-187 2182.2437,-151 2289.7563,-151 2289.7563,-187"/>
<text text-anchor="middle" x="2236" y="-164.8" font-family="Times,serif" font-size="14.00" fill="#000000">BacktestModule</text>
</g>
<!-- AccountInfoComponent&#45;&gt;BacktestModule -->
<g id="edge1" class="edge">
<title>AccountInfoComponent&#45;&gt;BacktestModule</title>
<path fill="none" stroke="#000000" d="M4689,-122.3802C4689,-146.2785 4689,-185 4689,-185 4689,-185 2299.8041,-185 2299.8041,-185"/>
<polygon fill="#000000" stroke="#000000" points="2299.8041,-181.5001 2289.8041,-185 2299.8041,-188.5001 2299.8041,-181.5001"/>
</g>
<!-- AdvancedOptionsComponent -->
<g id="node2" class="node">
<title>AdvancedOptionsComponent</title>
<polygon fill="#ffffb3" stroke="#000000" points="4595.4157,-122 4412.5843,-122 4412.5843,-86 4595.4157,-86 4595.4157,-122"/>
<text text-anchor="middle" x="4504" y="-99.8" font-family="Times,serif" font-size="14.00" fill="#000000">AdvancedOptionsComponent</text>
</g>
<!-- AdvancedOptionsComponent&#45;&gt;BacktestModule -->
<g id="edge2" class="edge">
<title>AdvancedOptionsComponent&#45;&gt;BacktestModule</title>
<path fill="none" stroke="#000000" d="M4504,-122.0908C4504,-145.1328 4504,-182 4504,-182 4504,-182 2299.8263,-182 2299.8263,-182"/>
<polygon fill="#000000" stroke="#000000" points="2299.8263,-178.5001 2289.8263,-182 2299.8262,-185.5001 2299.8263,-178.5001"/>
</g>
<!-- AgentRegionPipe -->
<g id="node3" class="node">
<title>AgentRegionPipe</title>
<polygon fill="#ffffb3" stroke="#000000" points="4394.5423,-122 4279.4577,-122 4279.4577,-86 4394.5423,-86 4394.5423,-122"/>
<text text-anchor="middle" x="4337" y="-99.8" font-family="Times,serif" font-size="14.00" fill="#000000">AgentRegionPipe</text>
</g>
<!-- AgentRegionPipe&#45;&gt;BacktestModule -->
<g id="edge3" class="edge">
<title>AgentRegionPipe&#45;&gt;BacktestModule</title>
<path fill="none" stroke="#000000" d="M4337,-122.0109C4337,-144.4852 4337,-180 4337,-180 4337,-180 2299.7804,-180 2299.7804,-180"/>
<polygon fill="#000000" stroke="#000000" points="2299.7804,-176.5001 2289.7804,-180 2299.7804,-183.5001 2299.7804,-176.5001"/>
</g>
<!-- ArgOptimizerComponent -->
<g id="node4" class="node">
<title>ArgOptimizerComponent</title>
<polygon fill="#ffffb3" stroke="#000000" points="4260.8585,-122 4101.1415,-122 4101.1415,-86 4260.8585,-86 4260.8585,-122"/>
<text text-anchor="middle" x="4181" y="-99.8" font-family="Times,serif" font-size="14.00" fill="#000000">ArgOptimizerComponent</text>
</g>
<!-- ArgOptimizerComponent&#45;&gt;BacktestModule -->
<g id="edge4" class="edge">
<title>ArgOptimizerComponent&#45;&gt;BacktestModule</title>
<path fill="none" stroke="#000000" d="M4181,-122.0449C4181,-143.6623 4181,-177 4181,-177 4181,-177 2299.7952,-177 2299.7952,-177"/>
<polygon fill="#000000" stroke="#000000" points="2299.7952,-173.5001 2289.7952,-177 2299.7952,-180.5001 2299.7952,-173.5001"/>
</g>
<!-- BacktestChartComponent -->
<g id="node5" class="node">
<title>BacktestChartComponent</title>
<polygon fill="#ffffb3" stroke="#000000" points="4083.1414,-122 3922.8586,-122 3922.8586,-86 4083.1414,-86 4083.1414,-122"/>
<text text-anchor="middle" x="4003" y="-99.8" font-family="Times,serif" font-size="14.00" fill="#000000">BacktestChartComponent</text>
</g>
<!-- BacktestChartComponent&#45;&gt;BacktestModule -->
<g id="edge5" class="edge">
<title>BacktestChartComponent&#45;&gt;BacktestModule</title>
<path fill="none" stroke="#000000" d="M4003,-122.2843C4003,-143.3211 4003,-175 4003,-175 4003,-175 2299.8476,-175 2299.8476,-175"/>
<polygon fill="#000000" stroke="#000000" points="2299.8476,-171.5001 2289.8476,-175 2299.8476,-178.5001 2299.8476,-171.5001"/>
</g>
<!-- BacktestLogComponent -->
<g id="node6" class="node">
<title>BacktestLogComponent</title>
<polygon fill="#ffffb3" stroke="#000000" points="3905.0912,-122 3752.9088,-122 3752.9088,-86 3905.0912,-86 3905.0912,-122"/>
<text text-anchor="middle" x="3829" y="-99.8" font-family="Times,serif" font-size="14.00" fill="#000000">BacktestLogComponent</text>
</g>
<!-- BacktestLogComponent&#45;&gt;BacktestModule -->
<g id="edge6" class="edge">
<title>BacktestLogComponent&#45;&gt;BacktestModule</title>
<path fill="none" stroke="#000000" d="M3829,-122.2228C3829,-142.3652 3829,-172 3829,-172 3829,-172 2299.9148,-172 2299.9148,-172"/>
<polygon fill="#000000" stroke="#000000" points="2299.9148,-168.5001 2289.9148,-172 2299.9147,-175.5001 2299.9148,-168.5001"/>
</g>
<!-- BacktestLogInfoComponent -->
<g id="node7" class="node">
<title>BacktestLogInfoComponent</title>
<polygon fill="#ffffb3" stroke="#000000" points="3734.9129,-122 3559.0871,-122 3559.0871,-86 3734.9129,-86 3734.9129,-122"/>
<text text-anchor="middle" x="3647" y="-99.8" font-family="Times,serif" font-size="14.00" fill="#000000">BacktestLogInfoComponent</text>
</g>
<!-- BacktestLogInfoComponent&#45;&gt;BacktestModule -->
<g id="edge7" class="edge">
<title>BacktestLogInfoComponent&#45;&gt;BacktestModule</title>
<path fill="none" stroke="#000000" d="M3647,-122.1061C3647,-141.3391 3647,-169 3647,-169 3647,-169 2300.0183,-169 2300.0183,-169"/>
<polygon fill="#000000" stroke="#000000" points="2300.0184,-165.5001 2290.0183,-169 2300.0183,-172.5001 2300.0184,-165.5001"/>
</g>
<!-- BacktestResultComponent -->
<g id="node8" class="node">
<title>BacktestResultComponent</title>
<polygon fill="#ffffb3" stroke="#000000" points="3541.8159,-122 3376.1841,-122 3376.1841,-86 3541.8159,-86 3541.8159,-122"/>
<text text-anchor="middle" x="3459" y="-99.8" font-family="Times,serif" font-size="14.00" fill="#000000">BacktestResultComponent</text>
</g>
<!-- BacktestResultComponent&#45;&gt;BacktestModule -->
<g id="edge8" class="edge">
<title>BacktestResultComponent&#45;&gt;BacktestModule</title>
<path fill="none" stroke="#000000" d="M3459,-122.2222C3459,-140.8285 3459,-167 3459,-167 3459,-167 2300.1288,-167 2300.1288,-167"/>
<polygon fill="#000000" stroke="#000000" points="2300.1289,-163.5001 2290.1288,-167 2300.1288,-170.5001 2300.1289,-163.5001"/>
</g>
<!-- BacktestSimulationComponent -->
<g id="node9" class="node">
<title>BacktestSimulationComponent</title>
<polygon fill="#ffffb3" stroke="#000000" points="3358.4888,-122 3167.5112,-122 3167.5112,-86 3358.4888,-86 3358.4888,-122"/>
<text text-anchor="middle" x="3263" y="-99.8" font-family="Times,serif" font-size="14.00" fill="#000000">BacktestSimulationComponent</text>
</g>
<!-- BacktestSimulationComponent&#45;&gt;BacktestModule -->
<g id="edge9" class="edge">
<title>BacktestSimulationComponent&#45;&gt;BacktestModule</title>
<path fill="none" stroke="#000000" d="M3263,-122.002C3263,-139.6754 3263,-164 3263,-164 3263,-164 2299.77,-164 2299.77,-164"/>
<polygon fill="#000000" stroke="#000000" points="2299.77,-160.5001 2289.77,-164 2299.77,-167.5001 2299.77,-160.5001"/>
</g>
<!-- BacktestStatusComponent -->
<g id="node10" class="node">
<title>BacktestStatusComponent</title>
<polygon fill="#ffffb3" stroke="#000000" points="3149.7618,-122 2986.2382,-122 2986.2382,-86 3149.7618,-86 3149.7618,-122"/>
<text text-anchor="middle" x="3068" y="-99.8" font-family="Times,serif" font-size="14.00" fill="#000000">BacktestStatusComponent</text>
</g>
<!-- BacktestStatusComponent&#45;&gt;BacktestModule -->
<g id="edge10" class="edge">
<title>BacktestStatusComponent&#45;&gt;BacktestModule</title>
<path fill="none" stroke="#000000" d="M3068,-122.0336C3068,-139.0597 3068,-162 3068,-162 3068,-162 2299.9488,-162 2299.9488,-162"/>
<polygon fill="#000000" stroke="#000000" points="2299.9488,-158.5001 2289.9488,-162 2299.9487,-165.5001 2299.9488,-158.5001"/>
</g>
<!-- BacktestStrategyArgsComponent -->
<g id="node11" class="node">
<title>BacktestStrategyArgsComponent</title>
<polygon fill="#ffffb3" stroke="#000000" points="2967.9044,-122 2764.0956,-122 2764.0956,-86 2967.9044,-86 2967.9044,-122"/>
<text text-anchor="middle" x="2866" y="-99.8" font-family="Times,serif" font-size="14.00" fill="#000000">BacktestStrategyArgsComponent</text>
</g>
<!-- BacktestStrategyArgsComponent&#45;&gt;BacktestModule -->
<g id="edge11" class="edge">
<title>BacktestStrategyArgsComponent&#45;&gt;BacktestModule</title>
<path fill="none" stroke="#000000" d="M2866,-122.0091C2866,-138.0494 2866,-159 2866,-159 2866,-159 2299.9858,-159 2299.9858,-159"/>
<polygon fill="#000000" stroke="#000000" points="2299.9858,-155.5001 2289.9858,-159 2299.9858,-162.5001 2299.9858,-155.5001"/>
</g>
<!-- BacktestStrategyChartComponent -->
<g id="node12" class="node">
<title>BacktestStrategyChartComponent</title>
<polygon fill="#ffffb3" stroke="#000000" points="2746.7948,-122 2539.2052,-122 2539.2052,-86 2746.7948,-86 2746.7948,-122"/>
<text text-anchor="middle" x="2643" y="-99.8" font-family="Times,serif" font-size="14.00" fill="#000000">BacktestStrategyChartComponent</text>
</g>
<!-- BacktestStrategyChartComponent&#45;&gt;BacktestModule -->
<g id="edge12" class="edge">
<title>BacktestStrategyChartComponent&#45;&gt;BacktestModule</title>
<path fill="none" stroke="#000000" d="M2643,-122.2396C2643,-137.5706 2643,-157 2643,-157 2643,-157 2300.0465,-157 2300.0465,-157"/>
<polygon fill="#000000" stroke="#000000" points="2300.0465,-153.5001 2290.0465,-157 2300.0464,-160.5001 2300.0465,-153.5001"/>
</g>
<!-- DispenseOptionsComponent -->
<g id="node13" class="node">
<title>DispenseOptionsComponent</title>
<polygon fill="#ffffb3" stroke="#000000" points="2521.4804,-122 2344.5196,-122 2344.5196,-86 2521.4804,-86 2521.4804,-122"/>
<text text-anchor="middle" x="2433" y="-99.8" font-family="Times,serif" font-size="14.00" fill="#000000">DispenseOptionsComponent</text>
</g>
<!-- DispenseOptionsComponent&#45;&gt;BacktestModule -->
<g id="edge13" class="edge">
<title>DispenseOptionsComponent&#45;&gt;BacktestModule</title>
<path fill="none" stroke="#000000" d="M2433,-122.0511C2433,-136.373 2433,-154 2433,-154 2433,-154 2299.8311,-154 2299.8311,-154"/>
<polygon fill="#000000" stroke="#000000" points="2299.8312,-150.5001 2289.8311,-154 2299.8311,-157.5001 2299.8312,-150.5001"/>
</g>
<!-- ExchangeOptionsComponent -->
<g id="node14" class="node">
<title>ExchangeOptionsComponent</title>
<polygon fill="#ffffb3" stroke="#000000" points="2326.3613,-122 2145.6387,-122 2145.6387,-86 2326.3613,-86 2326.3613,-122"/>
<text text-anchor="middle" x="2236" y="-99.8" font-family="Times,serif" font-size="14.00" fill="#000000">ExchangeOptionsComponent</text>
</g>
<!-- ExchangeOptionsComponent&#45;&gt;BacktestModule -->
<g id="edge14" class="edge">
<title>ExchangeOptionsComponent&#45;&gt;BacktestModule</title>
<path fill="none" stroke="#000000" d="M2236,-122.1061C2236,-122.1061 2236,-140.991 2236,-140.991"/>
<polygon fill="#000000" stroke="#000000" points="2232.5001,-140.9909 2236,-150.991 2239.5001,-140.991 2232.5001,-140.9909"/>
</g>
<!-- IsOldVersionPipe -->
<g id="node15" class="node">
<title>IsOldVersionPipe</title>
<polygon fill="#ffffb3" stroke="#000000" points="2127.3076,-122 2010.6924,-122 2010.6924,-86 2127.3076,-86 2127.3076,-122"/>
<text text-anchor="middle" x="2069" y="-99.8" font-family="Times,serif" font-size="14.00" fill="#000000">IsOldVersionPipe</text>
</g>
<!-- IsOldVersionPipe&#45;&gt;BacktestModule -->
<g id="edge15" class="edge">
<title>IsOldVersionPipe&#45;&gt;BacktestModule</title>
<path fill="none" stroke="#000000" d="M2069,-122.0511C2069,-136.373 2069,-154 2069,-154 2069,-154 2172.2409,-154 2172.2409,-154"/>
<polygon fill="#000000" stroke="#000000" points="2172.2409,-157.5001 2182.2409,-154 2172.2409,-150.5001 2172.2409,-157.5001"/>
</g>
<!-- ProfitCurveComponent -->
<g id="node16" class="node">
<title>ProfitCurveComponent</title>
<polygon fill="#ffffb3" stroke="#000000" points="1992.9298,-122 1845.0702,-122 1845.0702,-86 1992.9298,-86 1992.9298,-122"/>
<text text-anchor="middle" x="1919" y="-99.8" font-family="Times,serif" font-size="14.00" fill="#000000">ProfitCurveComponent</text>
</g>
<!-- ProfitCurveComponent&#45;&gt;BacktestModule -->
<g id="edge16" class="edge">
<title>ProfitCurveComponent&#45;&gt;BacktestModule</title>
<path fill="none" stroke="#000000" d="M1919,-122.2396C1919,-137.5706 1919,-157 1919,-157 1919,-157 2172.2253,-157 2172.2253,-157"/>
<polygon fill="#000000" stroke="#000000" points="2172.2253,-160.5001 2182.2253,-157 2172.2252,-153.5001 2172.2253,-160.5001"/>
</g>
<!-- ProfitLoseComponent -->
<g id="node17" class="node">
<title>ProfitLoseComponent</title>
<polygon fill="#ffffb3" stroke="#000000" points="1827.4299,-122 1686.5701,-122 1686.5701,-86 1827.4299,-86 1827.4299,-122"/>
<text text-anchor="middle" x="1757" y="-99.8" font-family="Times,serif" font-size="14.00" fill="#000000">ProfitLoseComponent</text>
</g>
<!-- ProfitLoseComponent&#45;&gt;BacktestModule -->
<g id="edge17" class="edge">
<title>ProfitLoseComponent&#45;&gt;BacktestModule</title>
<path fill="none" stroke="#000000" d="M1757,-122.0091C1757,-138.0494 1757,-159 1757,-159 1757,-159 2171.9837,-159 2171.9837,-159"/>
<polygon fill="#000000" stroke="#000000" points="2171.9838,-162.5001 2181.9837,-159 2171.9837,-155.5001 2171.9838,-162.5001"/>
</g>
<!-- QuotaChartComponent -->
<g id="node18" class="node">
<title>QuotaChartComponent</title>
<polygon fill="#ffffb3" stroke="#000000" points="1668.147,-122 1521.853,-122 1521.853,-86 1668.147,-86 1668.147,-122"/>
<text text-anchor="middle" x="1595" y="-99.8" font-family="Times,serif" font-size="14.00" fill="#000000">QuotaChartComponent</text>
</g>
<!-- QuotaChartComponent&#45;&gt;BacktestModule -->
<g id="edge18" class="edge">
<title>QuotaChartComponent&#45;&gt;BacktestModule</title>
<path fill="none" stroke="#000000" d="M1595,-122.0336C1595,-139.0597 1595,-162 1595,-162 1595,-162 2172.1765,-162 2172.1765,-162"/>
<polygon fill="#000000" stroke="#000000" points="2172.1765,-165.5001 2182.1765,-162 2172.1764,-158.5001 2172.1765,-165.5001"/>
</g>
<!-- TimeOptionsComponent -->
<g id="node19" class="node">
<title>TimeOptionsComponent</title>
<polygon fill="#ffffb3" stroke="#000000" points="1503.7133,-122 1348.2867,-122 1348.2867,-86 1503.7133,-86 1503.7133,-122"/>
<text text-anchor="middle" x="1426" y="-99.8" font-family="Times,serif" font-size="14.00" fill="#000000">TimeOptionsComponent</text>
</g>
<!-- TimeOptionsComponent&#45;&gt;BacktestModule -->
<g id="edge19" class="edge">
<title>TimeOptionsComponent&#45;&gt;BacktestModule</title>
<path fill="none" stroke="#000000" d="M1426,-122.002C1426,-139.6754 1426,-164 1426,-164 1426,-164 2172.2263,-164 2172.2263,-164"/>
<polygon fill="#000000" stroke="#000000" points="2172.2264,-167.5001 2182.2263,-164 2172.2263,-160.5001 2172.2264,-167.5001"/>
</g>
<!-- BacktestSimulationComponent  -->
<g id="node25" class="node">
<title>BacktestSimulationComponent </title>
<polygon fill="#fb8072" stroke="#000000" points="2333.4894,-252 2138.5106,-252 2138.5106,-216 2333.4894,-216 2333.4894,-252"/>
<text text-anchor="middle" x="2236" y="-229.8" font-family="Times,serif" font-size="14.00" fill="#000000">BacktestSimulationComponent </text>
</g>
<!-- BacktestModule&#45;&gt;BacktestSimulationComponent  -->
<g id="edge24" class="edge">
<title>BacktestModule&#45;&gt;BacktestSimulationComponent </title>
<path fill="none" stroke="#000000" stroke-dasharray="5,2" d="M2236,-187.1061C2236,-187.1061 2236,-205.991 2236,-205.991"/>
<polygon fill="#000000" stroke="#000000" points="2232.5001,-205.9909 2236,-215.991 2239.5001,-205.991 2232.5001,-205.9909"/>
</g>
<!-- RobotModule -->
<g id="node21" class="node">
<title>RobotModule</title>
<polygon fill="#8dd3c7" stroke="#000000" points="1323.7773,-122 1320.7773,-126 1299.7773,-126 1296.7773,-122 1230.2227,-122 1230.2227,-86 1323.7773,-86 1323.7773,-122"/>
<text text-anchor="middle" x="1277" y="-99.8" font-family="Times,serif" font-size="14.00" fill="#000000">RobotModule</text>
</g>
<!-- RobotModule&#45;&gt;BacktestModule -->
<g id="edge20" class="edge">
<title>RobotModule&#45;&gt;BacktestModule</title>
<path fill="none" stroke="#000000" d="M1277,-122.2222C1277,-140.8285 1277,-167 1277,-167 1277,-167 2172.0392,-167 2172.0392,-167"/>
<polygon fill="#000000" stroke="#000000" points="2172.0392,-170.5001 2182.0392,-167 2172.0391,-163.5001 2172.0392,-170.5001"/>
</g>
<!-- SharedModule -->
<g id="node22" class="node">
<title>SharedModule</title>
<polygon fill="#8dd3c7" stroke="#000000" points="1212.4231,-122 1209.4231,-126 1188.4231,-126 1185.4231,-122 1113.5769,-122 1113.5769,-86 1212.4231,-86 1212.4231,-122"/>
<text text-anchor="middle" x="1163" y="-99.8" font-family="Times,serif" font-size="14.00" fill="#000000">SharedModule</text>
</g>
<!-- SharedModule&#45;&gt;BacktestModule -->
<g id="edge21" class="edge">
<title>SharedModule&#45;&gt;BacktestModule</title>
<path fill="none" stroke="#000000" d="M1163,-122.1061C1163,-141.3391 1163,-169 1163,-169 1163,-169 2172.0544,-169 2172.0544,-169"/>
<polygon fill="#000000" stroke="#000000" points="2172.0545,-172.5001 2182.0544,-169 2172.0544,-165.5001 2172.0545,-172.5001"/>
</g>
<!-- StrategyModule -->
<g id="node23" class="node">
<title>StrategyModule</title>
<polygon fill="#8dd3c7" stroke="#000000" points="1096.2036,-122 1093.2036,-126 1072.2036,-126 1069.2036,-122 989.7964,-122 989.7964,-86 1096.2036,-86 1096.2036,-122"/>
<text text-anchor="middle" x="1043" y="-99.8" font-family="Times,serif" font-size="14.00" fill="#000000">StrategyModule</text>
</g>
<!-- StrategyModule&#45;&gt;BacktestModule -->
<g id="edge22" class="edge">
<title>StrategyModule&#45;&gt;BacktestModule</title>
<path fill="none" stroke="#000000" d="M1043,-122.2228C1043,-142.3652 1043,-172 1043,-172 1043,-172 2172.0311,-172 2172.0311,-172"/>
<polygon fill="#000000" stroke="#000000" points="2172.0311,-175.5001 2182.0311,-172 2172.031,-168.5001 2172.0311,-175.5001"/>
</g>
<!-- ToolModule -->
<g id="node24" class="node">
<title>ToolModule</title>
<polygon fill="#8dd3c7" stroke="#000000" points="971.993,-122 968.993,-126 947.993,-126 944.993,-122 886.007,-122 886.007,-86 971.993,-86 971.993,-122"/>
<text text-anchor="middle" x="929" y="-99.8" font-family="Times,serif" font-size="14.00" fill="#000000">ToolModule</text>
</g>
<!-- ToolModule&#45;&gt;BacktestModule -->
<g id="edge23" class="edge">
<title>ToolModule&#45;&gt;BacktestModule</title>
<path fill="none" stroke="#000000" d="M929,-122.2843C929,-143.3211 929,-175 929,-175 929,-175 2171.9163,-175 2171.9163,-175"/>
<polygon fill="#000000" stroke="#000000" points="2171.9164,-178.5001 2181.9163,-175 2171.9163,-171.5001 2171.9164,-178.5001"/>
</g>
<!-- BacktestChartService -->
<g id="node26" class="node">
<title>BacktestChartService</title>
<ellipse fill="#fdb462" stroke="#000000" cx="767" cy="-104" rx="94.8954" ry="18"/>
<text text-anchor="middle" x="767" y="-99.8" font-family="Times,serif" font-size="14.00" fill="#000000">BacktestChartService</text>
</g>
<!-- BacktestChartService&#45;&gt;BacktestModule -->
<g id="edge25" class="edge">
<title>BacktestChartService&#45;&gt;BacktestModule</title>
<path fill="none" stroke="#000000" d="M767,-122.0449C767,-143.6623 767,-177 767,-177 767,-177 2171.9753,-177 2171.9753,-177"/>
<polygon fill="#000000" stroke="#000000" points="2171.9754,-180.5001 2181.9753,-177 2171.9753,-173.5001 2171.9754,-180.5001"/>
</g>
<!-- BacktestComputingService -->
<g id="node27" class="node">
<title>BacktestComputingService</title>
<ellipse fill="#fdb462" stroke="#000000" cx="538" cy="-104" rx="116.9117" ry="18"/>
<text text-anchor="middle" x="538" y="-99.8" font-family="Times,serif" font-size="14.00" fill="#000000">BacktestComputingService</text>
</g>
<!-- BacktestComputingService&#45;&gt;BacktestModule -->
<g id="edge26" class="edge">
<title>BacktestComputingService&#45;&gt;BacktestModule</title>
<path fill="none" stroke="#000000" d="M538,-122.0109C538,-144.4852 538,-180 538,-180 538,-180 2171.9037,-180 2171.9037,-180"/>
<polygon fill="#000000" stroke="#000000" points="2171.9037,-183.5001 2181.9037,-180 2171.9036,-176.5001 2171.9037,-183.5001"/>
</g>
<!-- BacktestConstantService -->
<g id="node28" class="node">
<title>BacktestConstantService</title>
<ellipse fill="#fdb462" stroke="#000000" cx="296" cy="-104" rx="107.6579" ry="18"/>
<text text-anchor="middle" x="296" y="-99.8" font-family="Times,serif" font-size="14.00" fill="#000000">BacktestConstantService</text>
</g>
<!-- BacktestConstantService&#45;&gt;BacktestModule -->
<g id="edge27" class="edge">
<title>BacktestConstantService&#45;&gt;BacktestModule</title>
<path fill="none" stroke="#000000" d="M296,-122.0908C296,-145.1328 296,-182 296,-182 296,-182 2172.0885,-182 2172.0885,-182"/>
<polygon fill="#000000" stroke="#000000" points="2172.0885,-185.5001 2182.0885,-182 2172.0885,-178.5001 2172.0885,-185.5001"/>
</g>
<!-- BacktestService -->
<g id="node29" class="node">
<title>BacktestService</title>
<ellipse fill="#fdb462" stroke="#000000" cx="97" cy="-104" rx="73.4881" ry="18"/>
<text text-anchor="middle" x="97" y="-99.8" font-family="Times,serif" font-size="14.00" fill="#000000">BacktestService</text>
</g>
<!-- BacktestService&#45;&gt;BacktestModule -->
<g id="edge28" class="edge">
<title>BacktestService&#45;&gt;BacktestModule</title>
<path fill="none" stroke="#000000" d="M97,-122.3802C97,-146.2785 97,-185 97,-185 97,-185 2172.0557,-185 2172.0557,-185"/>
<polygon fill="#000000" stroke="#000000" points="2172.0558,-188.5001 2182.0557,-185 2172.0557,-181.5001 2172.0558,-188.5001"/>
</g>
</g>
</svg>
