<?xml version="1.0" encoding="UTF-8" standalone="no"?>
<!DOCTYPE svg PUBLIC "-//W3C//DTD SVG 1.1//EN"
 "http://www.w3.org/Graphics/SVG/1.1/DTD/svg11.dtd">
<!-- Generated by graphviz version 2.40.1 (20161225.0304)
 -->
<!-- Title: dependencies Pages: 1 -->
<svg width="4620pt" height="284pt"
 viewBox="0.00 0.00 4620.00 284.00" xmlns="http://www.w3.org/2000/svg" xmlns:xlink="http://www.w3.org/1999/xlink">
<g id="graph0" class="graph" transform="scale(1 1) rotate(0) translate(4 280)">
<title>dependencies</title>
<polygon fill="#ffffff" stroke="transparent" points="-4,4 -4,-280 4616,-280 4616,4 -4,4"/>
<text text-anchor="start" x="2285.0091" y="-42.4" font-family="sans-serif" font-weight="bold" font-size="14.00" fill="#000000">Legend</text>
<polygon fill="#ffffb3" stroke="transparent" points="2072,-10 2072,-30 2092,-30 2092,-10 2072,-10"/>
<text text-anchor="start" x="2095.629" y="-15.4" font-family="sans-serif" font-size="14.00" fill="#000000"> &#160;Declarations</text>
<polygon fill="#8dd3c7" stroke="transparent" points="2185,-10 2185,-30 2205,-30 2205,-10 2185,-10"/>
<text text-anchor="start" x="2208.7251" y="-15.4" font-family="sans-serif" font-size="14.00" fill="#000000"> &#160;Module</text>
<polygon fill="#80b1d3" stroke="transparent" points="2271,-10 2271,-30 2291,-30 2291,-10 2271,-10"/>
<text text-anchor="start" x="2294.7812" y="-15.4" font-family="sans-serif" font-size="14.00" fill="#000000"> &#160;Bootstrap</text>
<polygon fill="#fdb462" stroke="transparent" points="2368,-10 2368,-30 2388,-30 2388,-10 2368,-10"/>
<text text-anchor="start" x="2391.6732" y="-15.4" font-family="sans-serif" font-size="14.00" fill="#000000"> &#160;Providers</text>
<polygon fill="#fb8072" stroke="transparent" points="2464,-10 2464,-30 2484,-30 2484,-10 2464,-10"/>
<text text-anchor="start" x="2487.7258" y="-15.4" font-family="sans-serif" font-size="14.00" fill="#000000"> &#160;Exports</text>
<g id="clust1" class="cluster">
<title>cluster_BacktestModule</title>
<polygon fill="none" stroke="#000000" stroke-dasharray="1,5" points="8,-70 8,-268 4604,-268 4604,-70 8,-70"/>
</g>
<g id="clust2" class="cluster">
<title>cluster_BacktestModule_declarations</title>
<polygon fill="none" stroke="#000000" points="1340,-78 1340,-130 4596,-130 4596,-78 1340,-78"/>
</g>
<g id="clust21" class="cluster">
<title>cluster_BacktestModule_imports</title>
<polygon fill="none" stroke="#000000" points="878,-78 878,-130 1332,-130 1332,-78 878,-78"/>
</g>
<g id="clust22" class="cluster">
<title>cluster_BacktestModule_exports</title>
<polygon fill="none" stroke="#000000" points="1575,-208 1575,-260 2766,-260 2766,-208 1575,-208"/>
</g>
<g id="clust24" class="cluster">
<title>cluster_BacktestModule_providers</title>
<polygon fill="none" stroke="#000000" points="16,-78 16,-130 870,-130 870,-78 16,-78"/>
</g>
<!-- AccountInfoComponent -->
<g id="node1" class="node">
<title>AccountInfoComponent</title>
<polygon fill="#ffffb3" stroke="#000000" points="4588.08,-122 4435.92,-122 4435.92,-86 4588.08,-86 4588.08,-122"/>
<text text-anchor="middle" x="4512" y="-99.8" font-family="Times,serif" font-size="14.00" fill="#000000">AccountInfoComponent</text>
</g>
<!-- BacktestModule -->
<g id="node19" class="node">
<title>BacktestModule</title>
<polygon fill="#8dd3c7" stroke="#000000" points="2211.7563,-187 2208.7563,-191 2187.7563,-191 2184.7563,-187 2104.2437,-187 2104.2437,-151 2211.7563,-151 2211.7563,-187"/>
<text text-anchor="middle" x="2158" y="-164.8" font-family="Times,serif" font-size="14.00" fill="#000000">BacktestModule</text>
</g>
<!-- AccountInfoComponent&#45;&gt;BacktestModule -->
<g id="edge1" class="edge">
<title>AccountInfoComponent&#45;&gt;BacktestModule</title>
<path fill="none" stroke="#000000" d="M4512,-122.0109C4512,-144.4852 4512,-180 4512,-180 4512,-180 2221.8718,-180 2221.8718,-180"/>
<polygon fill="#000000" stroke="#000000" points="2221.8718,-176.5001 2211.8718,-180 2221.8717,-183.5001 2221.8718,-176.5001"/>
</g>
<!-- AdvancedOptionsComponent -->
<g id="node2" class="node">
<title>AdvancedOptionsComponent</title>
<polygon fill="#ffffb3" stroke="#000000" points="4418.4157,-122 4235.5843,-122 4235.5843,-86 4418.4157,-86 4418.4157,-122"/>
<text text-anchor="middle" x="4327" y="-99.8" font-family="Times,serif" font-size="14.00" fill="#000000">AdvancedOptionsComponent</text>
</g>
<!-- AdvancedOptionsComponent&#45;&gt;BacktestModule -->
<g id="edge2" class="edge">
<title>AdvancedOptionsComponent&#45;&gt;BacktestModule</title>
<path fill="none" stroke="#000000" d="M4327,-122.2921C4327,-144.2057 4327,-178 4327,-178 4327,-178 2221.8863,-178 2221.8863,-178"/>
<polygon fill="#000000" stroke="#000000" points="2221.8863,-174.5001 2211.8863,-178 2221.8862,-181.5001 2221.8863,-174.5001"/>
</g>
<!-- ArgOptimizerComponent -->
<g id="node3" class="node">
<title>ArgOptimizerComponent</title>
<polygon fill="#ffffb3" stroke="#000000" points="4217.8585,-122 4058.1415,-122 4058.1415,-86 4217.8585,-86 4217.8585,-122"/>
<text text-anchor="middle" x="4138" y="-99.8" font-family="Times,serif" font-size="14.00" fill="#000000">ArgOptimizerComponent</text>
</g>
<!-- ArgOptimizerComponent&#45;&gt;BacktestModule -->
<g id="edge3" class="edge">
<title>ArgOptimizerComponent&#45;&gt;BacktestModule</title>
<path fill="none" stroke="#000000" d="M4138,-122.2843C4138,-143.3211 4138,-175 4138,-175 4138,-175 2221.9871,-175 2221.9871,-175"/>
<polygon fill="#000000" stroke="#000000" points="2221.9871,-171.5001 2211.9871,-175 2221.9871,-178.5001 2221.9871,-171.5001"/>
</g>
<!-- BacktestChartComponent -->
<g id="node4" class="node">
<title>BacktestChartComponent</title>
<polygon fill="#ffffb3" stroke="#000000" points="4040.1414,-122 3879.8586,-122 3879.8586,-86 4040.1414,-86 4040.1414,-122"/>
<text text-anchor="middle" x="3960" y="-99.8" font-family="Times,serif" font-size="14.00" fill="#000000">BacktestChartComponent</text>
</g>
<!-- BacktestChartComponent&#45;&gt;BacktestModule -->
<g id="edge4" class="edge">
<title>BacktestChartComponent&#45;&gt;BacktestModule</title>
<path fill="none" stroke="#000000" d="M3960,-122.1289C3960,-142.5724 3960,-173 3960,-173 3960,-173 2221.9303,-173 2221.9303,-173"/>
<polygon fill="#000000" stroke="#000000" points="2221.9303,-169.5001 2211.9303,-173 2221.9302,-176.5001 2221.9303,-169.5001"/>
</g>
<!-- BacktestLogComponent -->
<g id="node5" class="node">
<title>BacktestLogComponent</title>
<polygon fill="#ffffb3" stroke="#000000" points="3862.0912,-122 3709.9088,-122 3709.9088,-86 3862.0912,-86 3862.0912,-122"/>
<text text-anchor="middle" x="3786" y="-99.8" font-family="Times,serif" font-size="14.00" fill="#000000">BacktestLogComponent</text>
</g>
<!-- BacktestLogComponent&#45;&gt;BacktestModule -->
<g id="edge5" class="edge">
<title>BacktestLogComponent&#45;&gt;BacktestModule</title>
<path fill="none" stroke="#000000" d="M3786,-122.308C3786,-142.1455 3786,-171 3786,-171 3786,-171 2222.1665,-171 2222.1665,-171"/>
<polygon fill="#000000" stroke="#000000" points="2222.1665,-167.5001 2212.1665,-171 2222.1664,-174.5001 2222.1665,-167.5001"/>
</g>
<!-- BacktestLogInfoComponent -->
<g id="node6" class="node">
<title>BacktestLogInfoComponent</title>
<polygon fill="#ffffb3" stroke="#000000" points="3691.9129,-122 3516.0871,-122 3516.0871,-86 3691.9129,-86 3691.9129,-122"/>
<text text-anchor="middle" x="3604" y="-99.8" font-family="Times,serif" font-size="14.00" fill="#000000">BacktestLogInfoComponent</text>
</g>
<!-- BacktestLogInfoComponent&#45;&gt;BacktestModule -->
<g id="edge6" class="edge">
<title>BacktestLogInfoComponent&#45;&gt;BacktestModule</title>
<path fill="none" stroke="#000000" d="M3604,-122.1686C3604,-141.0898 3604,-168 3604,-168 3604,-168 2222.0458,-168 2222.0458,-168"/>
<polygon fill="#000000" stroke="#000000" points="2222.0459,-164.5001 2212.0458,-168 2222.0458,-171.5001 2222.0459,-164.5001"/>
</g>
<!-- BacktestResultComponent -->
<g id="node7" class="node">
<title>BacktestResultComponent</title>
<polygon fill="#ffffb3" stroke="#000000" points="3498.8159,-122 3333.1841,-122 3333.1841,-86 3498.8159,-86 3498.8159,-122"/>
<text text-anchor="middle" x="3416" y="-99.8" font-family="Times,serif" font-size="14.00" fill="#000000">BacktestResultComponent</text>
</g>
<!-- BacktestResultComponent&#45;&gt;BacktestModule -->
<g id="edge7" class="edge">
<title>BacktestResultComponent&#45;&gt;BacktestModule</title>
<path fill="none" stroke="#000000" d="M3416,-122.2667C3416,-140.5552 3416,-166 3416,-166 3416,-166 2222.0547,-166 2222.0547,-166"/>
<polygon fill="#000000" stroke="#000000" points="2222.0547,-162.5001 2212.0547,-166 2222.0547,-169.5001 2222.0547,-162.5001"/>
</g>
<!-- BacktestStatusComponent -->
<g id="node8" class="node">
<title>BacktestStatusComponent</title>
<polygon fill="#ffffb3" stroke="#000000" points="3314.7618,-122 3151.2382,-122 3151.2382,-86 3314.7618,-86 3314.7618,-122"/>
<text text-anchor="middle" x="3233" y="-99.8" font-family="Times,serif" font-size="14.00" fill="#000000">BacktestStatusComponent</text>
</g>
<!-- BacktestStatusComponent&#45;&gt;BacktestModule -->
<g id="edge8" class="edge">
<title>BacktestStatusComponent&#45;&gt;BacktestModule</title>
<path fill="none" stroke="#000000" d="M3233,-122.0225C3233,-139.3734 3233,-163 3233,-163 3233,-163 2222.0461,-163 2222.0461,-163"/>
<polygon fill="#000000" stroke="#000000" points="2222.0462,-159.5001 2212.0461,-163 2222.0461,-166.5001 2222.0462,-159.5001"/>
</g>
<!-- BacktestStrategyArgsComponent -->
<g id="node9" class="node">
<title>BacktestStrategyArgsComponent</title>
<polygon fill="#ffffb3" stroke="#000000" points="3132.9044,-122 2929.0956,-122 2929.0956,-86 3132.9044,-86 3132.9044,-122"/>
<text text-anchor="middle" x="3031" y="-99.8" font-family="Times,serif" font-size="14.00" fill="#000000">BacktestStrategyArgsComponent</text>
</g>
<!-- BacktestStrategyArgsComponent&#45;&gt;BacktestModule -->
<g id="edge9" class="edge">
<title>BacktestStrategyArgsComponent&#45;&gt;BacktestModule</title>
<path fill="none" stroke="#000000" d="M3031,-122.0352C3031,-138.7344 3031,-161 3031,-161 3031,-161 2221.9512,-161 2221.9512,-161"/>
<polygon fill="#000000" stroke="#000000" points="2221.9513,-157.5001 2211.9512,-161 2221.9512,-164.5001 2221.9513,-157.5001"/>
</g>
<!-- BacktestStrategyChartComponent -->
<g id="node10" class="node">
<title>BacktestStrategyChartComponent</title>
<polygon fill="#ffffb3" stroke="#000000" points="2911.7948,-122 2704.2052,-122 2704.2052,-86 2911.7948,-86 2911.7948,-122"/>
<text text-anchor="middle" x="2808" y="-99.8" font-family="Times,serif" font-size="14.00" fill="#000000">BacktestStrategyChartComponent</text>
</g>
<!-- BacktestStrategyChartComponent&#45;&gt;BacktestModule -->
<g id="edge10" class="edge">
<title>BacktestStrategyChartComponent&#45;&gt;BacktestModule</title>
<path fill="none" stroke="#000000" d="M2731.1552,-122.0091C2731.1552,-138.0494 2731.1552,-159 2731.1552,-159 2731.1552,-159 2221.921,-159 2221.921,-159"/>
<polygon fill="#000000" stroke="#000000" points="2221.9211,-155.5001 2211.921,-159 2221.921,-162.5001 2221.9211,-155.5001"/>
</g>
<!-- DispenseOptionsComponent -->
<g id="node11" class="node">
<title>DispenseOptionsComponent</title>
<polygon fill="#ffffb3" stroke="#000000" points="2686.4804,-122 2509.5196,-122 2509.5196,-86 2686.4804,-86 2686.4804,-122"/>
<text text-anchor="middle" x="2598" y="-99.8" font-family="Times,serif" font-size="14.00" fill="#000000">DispenseOptionsComponent</text>
</g>
<!-- DispenseOptionsComponent&#45;&gt;BacktestModule -->
<g id="edge11" class="edge">
<title>DispenseOptionsComponent&#45;&gt;BacktestModule</title>
<path fill="none" stroke="#000000" d="M2531.9588,-122.1871C2531.9588,-137.1824 2531.9588,-156 2531.9588,-156 2531.9588,-156 2221.9774,-156 2221.9774,-156"/>
<polygon fill="#000000" stroke="#000000" points="2221.9775,-152.5001 2211.9774,-156 2221.9774,-159.5001 2221.9775,-152.5001"/>
</g>
<!-- ExchangeOptionsComponent -->
<g id="node12" class="node">
<title>ExchangeOptionsComponent</title>
<polygon fill="#ffffb3" stroke="#000000" points="2491.3613,-122 2310.6387,-122 2310.6387,-86 2491.3613,-86 2491.3613,-122"/>
<text text-anchor="middle" x="2401" y="-99.8" font-family="Times,serif" font-size="14.00" fill="#000000">ExchangeOptionsComponent</text>
</g>
<!-- ExchangeOptionsComponent&#45;&gt;BacktestModule -->
<g id="edge12" class="edge">
<title>ExchangeOptionsComponent&#45;&gt;BacktestModule</title>
<path fill="none" stroke="#000000" d="M2339.0107,-122.0511C2339.0107,-136.373 2339.0107,-154 2339.0107,-154 2339.0107,-154 2221.8191,-154 2221.8191,-154"/>
<polygon fill="#000000" stroke="#000000" points="2221.8191,-150.5001 2211.8191,-154 2221.8191,-157.5001 2221.8191,-150.5001"/>
</g>
<!-- FuturesResultPipe -->
<g id="node13" class="node">
<title>FuturesResultPipe</title>
<polygon fill="#ffffb3" stroke="#000000" points="2292.1583,-122 2173.8417,-122 2173.8417,-86 2292.1583,-86 2292.1583,-122"/>
<text text-anchor="middle" x="2233" y="-99.8" font-family="Times,serif" font-size="14.00" fill="#000000">FuturesResultPipe</text>
</g>
<!-- FuturesResultPipe&#45;&gt;BacktestModule -->
<g id="edge13" class="edge">
<title>FuturesResultPipe&#45;&gt;BacktestModule</title>
<path fill="none" stroke="#000000" d="M2192.7746,-122.1061C2192.7746,-122.1061 2192.7746,-140.991 2192.7746,-140.991"/>
<polygon fill="#000000" stroke="#000000" points="2189.2746,-140.9909 2192.7746,-150.991 2196.2746,-140.991 2189.2746,-140.9909"/>
</g>
<!-- OptimizeFilterDesPipe -->
<g id="node14" class="node">
<title>OptimizeFilterDesPipe</title>
<polygon fill="#ffffb3" stroke="#000000" points="2155.5814,-122 2010.4186,-122 2010.4186,-86 2155.5814,-86 2155.5814,-122"/>
<text text-anchor="middle" x="2083" y="-99.8" font-family="Times,serif" font-size="14.00" fill="#000000">OptimizeFilterDesPipe</text>
</g>
<!-- OptimizeFilterDesPipe&#45;&gt;BacktestModule -->
<g id="edge14" class="edge">
<title>OptimizeFilterDesPipe&#45;&gt;BacktestModule</title>
<path fill="none" stroke="#000000" d="M2129.8314,-122.1061C2129.8314,-122.1061 2129.8314,-140.991 2129.8314,-140.991"/>
<polygon fill="#000000" stroke="#000000" points="2126.3314,-140.9909 2129.8314,-150.991 2133.3314,-140.991 2126.3314,-140.9909"/>
</g>
<!-- ProfitCurveComponent -->
<g id="node15" class="node">
<title>ProfitCurveComponent</title>
<polygon fill="#ffffb3" stroke="#000000" points="1992.9298,-122 1845.0702,-122 1845.0702,-86 1992.9298,-86 1992.9298,-122"/>
<text text-anchor="middle" x="1919" y="-99.8" font-family="Times,serif" font-size="14.00" fill="#000000">ProfitCurveComponent</text>
</g>
<!-- ProfitCurveComponent&#45;&gt;BacktestModule -->
<g id="edge15" class="edge">
<title>ProfitCurveComponent&#45;&gt;BacktestModule</title>
<path fill="none" stroke="#000000" d="M1977.2372,-122.0511C1977.2372,-136.373 1977.2372,-154 1977.2372,-154 1977.2372,-154 2093.7652,-154 2093.7652,-154"/>
<polygon fill="#000000" stroke="#000000" points="2093.7652,-157.5001 2103.7652,-154 2093.7652,-150.5001 2093.7652,-157.5001"/>
</g>
<!-- ProfitLoseComponent -->
<g id="node16" class="node">
<title>ProfitLoseComponent</title>
<polygon fill="#ffffb3" stroke="#000000" points="1827.4299,-122 1686.5701,-122 1686.5701,-86 1827.4299,-86 1827.4299,-122"/>
<text text-anchor="middle" x="1757" y="-99.8" font-family="Times,serif" font-size="14.00" fill="#000000">ProfitLoseComponent</text>
</g>
<!-- ProfitLoseComponent&#45;&gt;BacktestModule -->
<g id="edge16" class="edge">
<title>ProfitLoseComponent&#45;&gt;BacktestModule</title>
<path fill="none" stroke="#000000" d="M1793.517,-122.1871C1793.517,-137.1824 1793.517,-156 1793.517,-156 1793.517,-156 2094.2193,-156 2094.2193,-156"/>
<polygon fill="#000000" stroke="#000000" points="2094.2193,-159.5001 2104.2193,-156 2094.2192,-152.5001 2094.2193,-159.5001"/>
</g>
<!-- QuotaChartComponent -->
<g id="node17" class="node">
<title>QuotaChartComponent</title>
<polygon fill="#ffffb3" stroke="#000000" points="1668.147,-122 1521.853,-122 1521.853,-86 1668.147,-86 1668.147,-122"/>
<text text-anchor="middle" x="1595" y="-99.8" font-family="Times,serif" font-size="14.00" fill="#000000">QuotaChartComponent</text>
</g>
<!-- QuotaChartComponent&#45;&gt;BacktestModule -->
<g id="edge17" class="edge">
<title>QuotaChartComponent&#45;&gt;BacktestModule</title>
<path fill="none" stroke="#000000" d="M1625.4834,-122.0091C1625.4834,-138.0494 1625.4834,-159 1625.4834,-159 1625.4834,-159 2094.0089,-159 2094.0089,-159"/>
<polygon fill="#000000" stroke="#000000" points="2094.009,-162.5001 2104.0089,-159 2094.0089,-155.5001 2094.009,-162.5001"/>
</g>
<!-- TimeOptionsComponent -->
<g id="node18" class="node">
<title>TimeOptionsComponent</title>
<polygon fill="#ffffb3" stroke="#000000" points="1503.7133,-122 1348.2867,-122 1348.2867,-86 1503.7133,-86 1503.7133,-122"/>
<text text-anchor="middle" x="1426" y="-99.8" font-family="Times,serif" font-size="14.00" fill="#000000">TimeOptionsComponent</text>
</g>
<!-- TimeOptionsComponent&#45;&gt;BacktestModule -->
<g id="edge18" class="edge">
<title>TimeOptionsComponent&#45;&gt;BacktestModule</title>
<path fill="none" stroke="#000000" d="M1426,-122.0352C1426,-138.7344 1426,-161 1426,-161 1426,-161 2094.1743,-161 2094.1743,-161"/>
<polygon fill="#000000" stroke="#000000" points="2094.1743,-164.5001 2104.1743,-161 2094.1743,-157.5001 2094.1743,-164.5001"/>
</g>
<!-- AdvancedOptionsComponent  -->
<g id="node24" class="node">
<title>AdvancedOptionsComponent </title>
<polygon fill="#fb8072" stroke="#000000" points="2757.9152,-252 2572.0848,-252 2572.0848,-216 2757.9152,-216 2757.9152,-252"/>
<text text-anchor="middle" x="2665" y="-229.8" font-family="Times,serif" font-size="14.00" fill="#000000">AdvancedOptionsComponent </text>
</g>
<!-- BacktestModule&#45;&gt;AdvancedOptionsComponent  -->
<g id="edge23" class="edge">
<title>BacktestModule&#45;&gt;AdvancedOptionsComponent </title>
<path fill="none" stroke="#000000" stroke-dasharray="5,2" d="M2212.0602,-183C2335.8467,-183 2629.2663,-183 2629.2663,-183 2629.2663,-183 2629.2663,-205.8757 2629.2663,-205.8757"/>
<polygon fill="#000000" stroke="#000000" points="2625.7664,-205.8757 2629.2663,-215.8757 2632.7664,-205.8757 2625.7664,-205.8757"/>
</g>
<!-- BacktestResultComponent  -->
<g id="node25" class="node">
<title>BacktestResultComponent </title>
<polygon fill="#fb8072" stroke="#000000" points="2554.3157,-252 2385.6843,-252 2385.6843,-216 2554.3157,-216 2554.3157,-252"/>
<text text-anchor="middle" x="2470" y="-229.8" font-family="Times,serif" font-size="14.00" fill="#000000">BacktestResultComponent </text>
</g>
<!-- BacktestModule&#45;&gt;BacktestResultComponent  -->
<g id="edge24" class="edge">
<title>BacktestModule&#45;&gt;BacktestResultComponent </title>
<path fill="none" stroke="#000000" stroke-dasharray="5,2" d="M2212.0854,-185C2293.5988,-185 2438.5114,-185 2438.5114,-185 2438.5114,-185 2438.5114,-205.7542 2438.5114,-205.7542"/>
<polygon fill="#000000" stroke="#000000" points="2435.0115,-205.7542 2438.5114,-215.7542 2442.0115,-205.7542 2435.0115,-205.7542"/>
</g>
<!-- BacktestStrategyArgsComponent  -->
<g id="node26" class="node">
<title>BacktestStrategyArgsComponent </title>
<polygon fill="#fb8072" stroke="#000000" points="2367.404,-252 2160.596,-252 2160.596,-216 2367.404,-216 2367.404,-252"/>
<text text-anchor="middle" x="2264" y="-229.8" font-family="Times,serif" font-size="14.00" fill="#000000">BacktestStrategyArgsComponent </text>
</g>
<!-- BacktestModule&#45;&gt;BacktestStrategyArgsComponent  -->
<g id="edge25" class="edge">
<title>BacktestModule&#45;&gt;BacktestStrategyArgsComponent </title>
<path fill="none" stroke="#000000" stroke-dasharray="5,2" d="M2186.213,-187.1061C2186.213,-187.1061 2186.213,-205.991 2186.213,-205.991"/>
<polygon fill="#000000" stroke="#000000" points="2182.7131,-205.9909 2186.213,-215.991 2189.7131,-205.991 2182.7131,-205.9909"/>
</g>
<!-- DispenseOptionsComponent  -->
<g id="node27" class="node">
<title>DispenseOptionsComponent </title>
<polygon fill="#fb8072" stroke="#000000" points="2142.481,-252 1961.519,-252 1961.519,-216 2142.481,-216 2142.481,-252"/>
<text text-anchor="middle" x="2052" y="-229.8" font-family="Times,serif" font-size="14.00" fill="#000000">DispenseOptionsComponent </text>
</g>
<!-- BacktestModule&#45;&gt;DispenseOptionsComponent  -->
<g id="edge26" class="edge">
<title>BacktestModule&#45;&gt;DispenseOptionsComponent </title>
<path fill="none" stroke="#000000" stroke-dasharray="5,2" d="M2123.1811,-187.1061C2123.1811,-187.1061 2123.1811,-205.991 2123.1811,-205.991"/>
<polygon fill="#000000" stroke="#000000" points="2119.6812,-205.9909 2123.1811,-215.991 2126.6812,-205.991 2119.6812,-205.9909"/>
</g>
<!-- ExchangeOptionsComponent  -->
<g id="node28" class="node">
<title>ExchangeOptionsComponent </title>
<polygon fill="#fb8072" stroke="#000000" points="1944.3616,-252 1759.6384,-252 1759.6384,-216 1944.3616,-216 1944.3616,-252"/>
<text text-anchor="middle" x="1852" y="-229.8" font-family="Times,serif" font-size="14.00" fill="#000000">ExchangeOptionsComponent </text>
</g>
<!-- BacktestModule&#45;&gt;ExchangeOptionsComponent  -->
<g id="edge27" class="edge">
<title>BacktestModule&#45;&gt;ExchangeOptionsComponent </title>
<path fill="none" stroke="#000000" stroke-dasharray="5,2" d="M2104.0887,-185C2027.0665,-185 1894.733,-185 1894.733,-185 1894.733,-185 1894.733,-205.7542 1894.733,-205.7542"/>
<polygon fill="#000000" stroke="#000000" points="1891.2331,-205.7542 1894.733,-215.7542 1898.2331,-205.7542 1891.2331,-205.7542"/>
</g>
<!-- TimeOptionsComponent  -->
<g id="node29" class="node">
<title>TimeOptionsComponent </title>
<polygon fill="#fb8072" stroke="#000000" points="1741.2135,-252 1582.7865,-252 1582.7865,-216 1741.2135,-216 1741.2135,-252"/>
<text text-anchor="middle" x="1662" y="-229.8" font-family="Times,serif" font-size="14.00" fill="#000000">TimeOptionsComponent </text>
</g>
<!-- BacktestModule&#45;&gt;TimeOptionsComponent  -->
<g id="edge28" class="edge">
<title>BacktestModule&#45;&gt;TimeOptionsComponent </title>
<path fill="none" stroke="#000000" stroke-dasharray="5,2" d="M2104.0094,-183C1985.7016,-183 1714.071,-183 1714.071,-183 1714.071,-183 1714.071,-205.8757 1714.071,-205.8757"/>
<polygon fill="#000000" stroke="#000000" points="1710.5711,-205.8757 1714.071,-215.8757 1717.5711,-205.8757 1710.5711,-205.8757"/>
</g>
<!-- RobotModule -->
<g id="node20" class="node">
<title>RobotModule</title>
<polygon fill="#8dd3c7" stroke="#000000" points="1323.7773,-122 1320.7773,-126 1299.7773,-126 1296.7773,-122 1230.2227,-122 1230.2227,-86 1323.7773,-86 1323.7773,-122"/>
<text text-anchor="middle" x="1277" y="-99.8" font-family="Times,serif" font-size="14.00" fill="#000000">RobotModule</text>
</g>
<!-- RobotModule&#45;&gt;BacktestModule -->
<g id="edge19" class="edge">
<title>RobotModule&#45;&gt;BacktestModule</title>
<path fill="none" stroke="#000000" d="M1277,-122.0225C1277,-139.3734 1277,-163 1277,-163 1277,-163 2094.2157,-163 2094.2157,-163"/>
<polygon fill="#000000" stroke="#000000" points="2094.2157,-166.5001 2104.2157,-163 2094.2157,-159.5001 2094.2157,-166.5001"/>
</g>
<!-- SharedModule -->
<g id="node21" class="node">
<title>SharedModule</title>
<polygon fill="#8dd3c7" stroke="#000000" points="1212.4231,-122 1209.4231,-126 1188.4231,-126 1185.4231,-122 1113.5769,-122 1113.5769,-86 1212.4231,-86 1212.4231,-122"/>
<text text-anchor="middle" x="1163" y="-99.8" font-family="Times,serif" font-size="14.00" fill="#000000">SharedModule</text>
</g>
<!-- SharedModule&#45;&gt;BacktestModule -->
<g id="edge20" class="edge">
<title>SharedModule&#45;&gt;BacktestModule</title>
<path fill="none" stroke="#000000" d="M1163,-122.2667C1163,-140.5552 1163,-166 1163,-166 1163,-166 2094.1517,-166 2094.1517,-166"/>
<polygon fill="#000000" stroke="#000000" points="2094.1517,-169.5001 2104.1517,-166 2094.1517,-162.5001 2094.1517,-169.5001"/>
</g>
<!-- StrategyModule -->
<g id="node22" class="node">
<title>StrategyModule</title>
<polygon fill="#8dd3c7" stroke="#000000" points="1096.2036,-122 1093.2036,-126 1072.2036,-126 1069.2036,-122 989.7964,-122 989.7964,-86 1096.2036,-86 1096.2036,-122"/>
<text text-anchor="middle" x="1043" y="-99.8" font-family="Times,serif" font-size="14.00" fill="#000000">StrategyModule</text>
</g>
<!-- StrategyModule&#45;&gt;BacktestModule -->
<g id="edge21" class="edge">
<title>StrategyModule&#45;&gt;BacktestModule</title>
<path fill="none" stroke="#000000" d="M1043,-122.1686C1043,-141.0898 1043,-168 1043,-168 1043,-168 2094.2212,-168 2094.2212,-168"/>
<polygon fill="#000000" stroke="#000000" points="2094.2213,-171.5001 2104.2212,-168 2094.2212,-164.5001 2094.2213,-171.5001"/>
</g>
<!-- ToolModule -->
<g id="node23" class="node">
<title>ToolModule</title>
<polygon fill="#8dd3c7" stroke="#000000" points="971.993,-122 968.993,-126 947.993,-126 944.993,-122 886.007,-122 886.007,-86 971.993,-86 971.993,-122"/>
<text text-anchor="middle" x="929" y="-99.8" font-family="Times,serif" font-size="14.00" fill="#000000">ToolModule</text>
</g>
<!-- ToolModule&#45;&gt;BacktestModule -->
<g id="edge22" class="edge">
<title>ToolModule&#45;&gt;BacktestModule</title>
<path fill="none" stroke="#000000" d="M929,-122.308C929,-142.1455 929,-171 929,-171 929,-171 2094.004,-171 2094.004,-171"/>
<polygon fill="#000000" stroke="#000000" points="2094.0041,-174.5001 2104.004,-171 2094.004,-167.5001 2094.0041,-174.5001"/>
</g>
<!-- BacktestChartService -->
<g id="node30" class="node">
<title>BacktestChartService</title>
<ellipse fill="#fdb462" stroke="#000000" cx="767" cy="-104" rx="94.8954" ry="18"/>
<text text-anchor="middle" x="767" y="-99.8" font-family="Times,serif" font-size="14.00" fill="#000000">BacktestChartService</text>
</g>
<!-- BacktestChartService&#45;&gt;BacktestModule -->
<g id="edge29" class="edge">
<title>BacktestChartService&#45;&gt;BacktestModule</title>
<path fill="none" stroke="#000000" d="M767,-122.1289C767,-142.5724 767,-173 767,-173 767,-173 2093.8981,-173 2093.8981,-173"/>
<polygon fill="#000000" stroke="#000000" points="2093.8981,-176.5001 2103.8981,-173 2093.898,-169.5001 2093.8981,-176.5001"/>
</g>
<!-- BacktestComputingService -->
<g id="node31" class="node">
<title>BacktestComputingService</title>
<ellipse fill="#fdb462" stroke="#000000" cx="538" cy="-104" rx="116.9117" ry="18"/>
<text text-anchor="middle" x="538" y="-99.8" font-family="Times,serif" font-size="14.00" fill="#000000">BacktestComputingService</text>
</g>
<!-- BacktestComputingService&#45;&gt;BacktestModule -->
<g id="edge30" class="edge">
<title>BacktestComputingService&#45;&gt;BacktestModule</title>
<path fill="none" stroke="#000000" d="M538,-122.2843C538,-143.3211 538,-175 538,-175 538,-175 2094.0997,-175 2094.0997,-175"/>
<polygon fill="#000000" stroke="#000000" points="2094.0997,-178.5001 2104.0997,-175 2094.0997,-171.5001 2094.0997,-178.5001"/>
</g>
<!-- BacktestConstantService -->
<g id="node32" class="node">
<title>BacktestConstantService</title>
<ellipse fill="#fdb462" stroke="#000000" cx="296" cy="-104" rx="107.6579" ry="18"/>
<text text-anchor="middle" x="296" y="-99.8" font-family="Times,serif" font-size="14.00" fill="#000000">BacktestConstantService</text>
</g>
<!-- BacktestConstantService&#45;&gt;BacktestModule -->
<g id="edge31" class="edge">
<title>BacktestConstantService&#45;&gt;BacktestModule</title>
<path fill="none" stroke="#000000" d="M296,-122.2921C296,-144.2057 296,-178 296,-178 296,-178 2094.0329,-178 2094.0329,-178"/>
<polygon fill="#000000" stroke="#000000" points="2094.0329,-181.5001 2104.0329,-178 2094.0329,-174.5001 2094.0329,-181.5001"/>
</g>
<!-- BacktestService -->
<g id="node33" class="node">
<title>BacktestService</title>
<ellipse fill="#fdb462" stroke="#000000" cx="97" cy="-104" rx="73.4881" ry="18"/>
<text text-anchor="middle" x="97" y="-99.8" font-family="Times,serif" font-size="14.00" fill="#000000">BacktestService</text>
</g>
<!-- BacktestService&#45;&gt;BacktestModule -->
<g id="edge32" class="edge">
<title>BacktestService&#45;&gt;BacktestModule</title>
<path fill="none" stroke="#000000" d="M97,-122.0109C97,-144.4852 97,-180 97,-180 97,-180 2094.196,-180 2094.196,-180"/>
<polygon fill="#000000" stroke="#000000" points="2094.196,-183.5001 2104.196,-180 2094.196,-176.5001 2094.196,-183.5001"/>
</g>
</g>
</svg>
