<?xml version="1.0" encoding="UTF-8" standalone="no"?>
<!DOCTYPE svg PUBLIC "-//W3C//DTD SVG 1.1//EN"
 "http://www.w3.org/Graphics/SVG/1.1/DTD/svg11.dtd">
<!-- Generated by graphviz version 2.40.1 (20161225.0304)
 -->
<!-- Title: dependencies Pages: 1 -->
<svg width="504pt" height="211pt"
 viewBox="0.00 0.00 504.00 211.00" xmlns="http://www.w3.org/2000/svg" xmlns:xlink="http://www.w3.org/1999/xlink">
<g id="graph0" class="graph" transform="scale(1 1) rotate(0) translate(4 207)">
<title>dependencies</title>
<polygon fill="#ffffff" stroke="transparent" points="-4,4 -4,-207 500,-207 500,4 -4,4"/>
<text text-anchor="start" x="227.0091" y="-42.4" font-family="sans-serif" font-weight="bold" font-size="14.00" fill="#000000">Legend</text>
<polygon fill="#ffffb3" stroke="transparent" points="14,-10 14,-30 34,-30 34,-10 14,-10"/>
<text text-anchor="start" x="37.629" y="-15.4" font-family="sans-serif" font-size="14.00" fill="#000000"> &#160;Declarations</text>
<polygon fill="#8dd3c7" stroke="transparent" points="127,-10 127,-30 147,-30 147,-10 127,-10"/>
<text text-anchor="start" x="150.7251" y="-15.4" font-family="sans-serif" font-size="14.00" fill="#000000"> &#160;Module</text>
<polygon fill="#80b1d3" stroke="transparent" points="213,-10 213,-30 233,-30 233,-10 213,-10"/>
<text text-anchor="start" x="236.7812" y="-15.4" font-family="sans-serif" font-size="14.00" fill="#000000"> &#160;Bootstrap</text>
<polygon fill="#fdb462" stroke="transparent" points="310,-10 310,-30 330,-30 330,-10 310,-10"/>
<text text-anchor="start" x="333.6732" y="-15.4" font-family="sans-serif" font-size="14.00" fill="#000000"> &#160;Providers</text>
<polygon fill="#fb8072" stroke="transparent" points="406,-10 406,-30 426,-30 426,-10 406,-10"/>
<text text-anchor="start" x="429.7258" y="-15.4" font-family="sans-serif" font-size="14.00" fill="#000000"> &#160;Exports</text>
<g id="clust1" class="cluster">
<title>cluster_FactModule</title>
<polygon fill="none" stroke="#000000" stroke-dasharray="1,5" points="88,-70 88,-195 408,-195 408,-70 88,-70"/>
</g>
<g id="clust2" class="cluster">
<title>cluster_FactModule_declarations</title>
<polygon fill="none" stroke="#000000" points="248,-78 248,-130 400,-130 400,-78 248,-78"/>
</g>
<g id="clust4" class="cluster">
<title>cluster_FactModule_imports</title>
<polygon fill="none" stroke="#000000" points="96,-78 96,-130 240,-130 240,-78 96,-78"/>
</g>
<!-- ContainerComponent -->
<g id="node1" class="node">
<title>ContainerComponent</title>
<polygon fill="#ffffb3" stroke="#000000" points="392.0408,-122 255.9592,-122 255.9592,-86 392.0408,-86 392.0408,-122"/>
<text text-anchor="middle" x="324" y="-99.8" font-family="Times,serif" font-size="14.00" fill="#000000">ContainerComponent</text>
</g>
<!-- FactModule -->
<g id="node2" class="node">
<title>FactModule</title>
<polygon fill="#8dd3c7" stroke="#000000" points="287.6529,-187 284.6529,-191 263.6529,-191 260.6529,-187 204.3471,-187 204.3471,-151 287.6529,-151 287.6529,-187"/>
<text text-anchor="middle" x="246" y="-164.8" font-family="Times,serif" font-size="14.00" fill="#000000">FactModule</text>
</g>
<!-- ContainerComponent&#45;&gt;FactModule -->
<g id="edge1" class="edge">
<title>ContainerComponent&#45;&gt;FactModule</title>
<path fill="none" stroke="#000000" d="M271.7781,-122.1061C271.7781,-122.1061 271.7781,-140.991 271.7781,-140.991"/>
<polygon fill="#000000" stroke="#000000" points="268.2781,-140.9909 271.7781,-150.991 275.2781,-140.991 268.2781,-140.9909"/>
</g>
<!-- FactRoutingModule -->
<g id="node3" class="node">
<title>FactRoutingModule</title>
<polygon fill="#8dd3c7" stroke="#000000" points="232.2702,-122 229.2702,-126 208.2702,-126 205.2702,-122 103.7298,-122 103.7298,-86 232.2702,-86 232.2702,-122"/>
<text text-anchor="middle" x="168" y="-99.8" font-family="Times,serif" font-size="14.00" fill="#000000">FactRoutingModule</text>
</g>
<!-- FactRoutingModule&#45;&gt;FactModule -->
<g id="edge2" class="edge">
<title>FactRoutingModule&#45;&gt;FactModule</title>
<path fill="none" stroke="#000000" d="M218.2795,-122.1061C218.2795,-122.1061 218.2795,-140.991 218.2795,-140.991"/>
<polygon fill="#000000" stroke="#000000" points="214.7795,-140.9909 218.2795,-150.991 221.7795,-140.991 214.7795,-140.9909"/>
</g>
</g>
</svg>
