<?xml version="1.0" encoding="UTF-8" standalone="no"?>
<!DOCTYPE svg PUBLIC "-//W3C//DTD SVG 1.1//EN"
 "http://www.w3.org/Graphics/SVG/1.1/DTD/svg11.dtd">
<!-- Generated by graphviz version 2.40.1 (20161225.0304)
 -->
<!-- Title: dependencies Pages: 1 -->
<svg width="1356pt" height="284pt"
 viewBox="0.00 0.00 1356.00 284.00" xmlns="http://www.w3.org/2000/svg" xmlns:xlink="http://www.w3.org/1999/xlink">
<g id="graph0" class="graph" transform="scale(1 1) rotate(0) translate(4 280)">
<title>dependencies</title>
<polygon fill="#ffffff" stroke="transparent" points="-4,4 -4,-280 1352,-280 1352,4 -4,4"/>
<text text-anchor="start" x="653.0091" y="-42.4" font-family="sans-serif" font-weight="bold" font-size="14.00" fill="#000000">Legend</text>
<polygon fill="#ffffb3" stroke="transparent" points="440,-10 440,-30 460,-30 460,-10 440,-10"/>
<text text-anchor="start" x="463.629" y="-15.4" font-family="sans-serif" font-size="14.00" fill="#000000"> &#160;Declarations</text>
<polygon fill="#8dd3c7" stroke="transparent" points="553,-10 553,-30 573,-30 573,-10 553,-10"/>
<text text-anchor="start" x="576.7251" y="-15.4" font-family="sans-serif" font-size="14.00" fill="#000000"> &#160;Module</text>
<polygon fill="#80b1d3" stroke="transparent" points="639,-10 639,-30 659,-30 659,-10 639,-10"/>
<text text-anchor="start" x="662.7812" y="-15.4" font-family="sans-serif" font-size="14.00" fill="#000000"> &#160;Bootstrap</text>
<polygon fill="#fdb462" stroke="transparent" points="736,-10 736,-30 756,-30 756,-10 736,-10"/>
<text text-anchor="start" x="759.6732" y="-15.4" font-family="sans-serif" font-size="14.00" fill="#000000"> &#160;Providers</text>
<polygon fill="#fb8072" stroke="transparent" points="832,-10 832,-30 852,-30 852,-10 832,-10"/>
<text text-anchor="start" x="855.7258" y="-15.4" font-family="sans-serif" font-size="14.00" fill="#000000"> &#160;Exports</text>
<g id="clust1" class="cluster">
<title>cluster_ChargeModule</title>
<polygon fill="none" stroke="#000000" stroke-dasharray="1,5" points="8,-70 8,-268 1340,-268 1340,-70 8,-70"/>
</g>
<g id="clust2" class="cluster">
<title>cluster_ChargeModule_declarations</title>
<polygon fill="none" stroke="#000000" points="520,-78 520,-130 1332,-130 1332,-78 520,-78"/>
</g>
<g id="clust8" class="cluster">
<title>cluster_ChargeModule_imports</title>
<polygon fill="none" stroke="#000000" points="398,-78 398,-130 512,-130 512,-78 398,-78"/>
</g>
<g id="clust9" class="cluster">
<title>cluster_ChargeModule_exports</title>
<polygon fill="none" stroke="#000000" points="278,-208 278,-260 1106,-260 1106,-208 278,-208"/>
</g>
<g id="clust11" class="cluster">
<title>cluster_ChargeModule_providers</title>
<polygon fill="none" stroke="#000000" points="16,-78 16,-130 390,-130 390,-78 16,-78"/>
</g>
<!-- AccountBalanceComponent -->
<g id="node1" class="node">
<title>AccountBalanceComponent</title>
<polygon fill="#ffffb3" stroke="#000000" points="1323.8445,-122 1150.1555,-122 1150.1555,-86 1323.8445,-86 1323.8445,-122"/>
<text text-anchor="middle" x="1237" y="-99.8" font-family="Times,serif" font-size="14.00" fill="#000000">AccountBalanceComponent</text>
</g>
<!-- ChargeModule -->
<g id="node6" class="node">
<title>ChargeModule</title>
<polygon fill="#8dd3c7" stroke="#000000" points="725.9762,-187 722.9762,-191 701.9762,-191 698.9762,-187 626.0238,-187 626.0238,-151 725.9762,-151 725.9762,-187"/>
<text text-anchor="middle" x="676" y="-164.8" font-family="Times,serif" font-size="14.00" fill="#000000">ChargeModule</text>
</g>
<!-- AccountBalanceComponent&#45;&gt;ChargeModule -->
<g id="edge1" class="edge">
<title>AccountBalanceComponent&#45;&gt;ChargeModule</title>
<path fill="none" stroke="#000000" d="M1237,-122.1061C1237,-141.3391 1237,-169 1237,-169 1237,-169 736.2787,-169 736.2787,-169"/>
<polygon fill="#000000" stroke="#000000" points="736.2788,-165.5001 726.2787,-169 736.2787,-172.5001 736.2788,-165.5001"/>
</g>
<!-- ChargeComponent -->
<g id="node2" class="node">
<title>ChargeComponent</title>
<polygon fill="#ffffb3" stroke="#000000" points="1131.759,-122 1010.241,-122 1010.241,-86 1131.759,-86 1131.759,-122"/>
<text text-anchor="middle" x="1071" y="-99.8" font-family="Times,serif" font-size="14.00" fill="#000000">ChargeComponent</text>
</g>
<!-- ChargeComponent&#45;&gt;ChargeModule -->
<g id="edge2" class="edge">
<title>ChargeComponent&#45;&gt;ChargeModule</title>
<path fill="none" stroke="#000000" d="M1053.8964,-122.0225C1053.8964,-139.3734 1053.8964,-163 1053.8964,-163 1053.8964,-163 736.1817,-163 736.1817,-163"/>
<polygon fill="#000000" stroke="#000000" points="736.1818,-159.5001 726.1817,-163 736.1817,-166.5001 736.1818,-159.5001"/>
</g>
<!-- ChargeHistoryComponent -->
<g id="node3" class="node">
<title>ChargeHistoryComponent</title>
<polygon fill="#ffffb3" stroke="#000000" points="991.752,-122 828.248,-122 828.248,-86 991.752,-86 991.752,-122"/>
<text text-anchor="middle" x="910" y="-99.8" font-family="Times,serif" font-size="14.00" fill="#000000">ChargeHistoryComponent</text>
</g>
<!-- ChargeHistoryComponent&#45;&gt;ChargeModule -->
<g id="edge3" class="edge">
<title>ChargeHistoryComponent&#45;&gt;ChargeModule</title>
<path fill="none" stroke="#000000" d="M865.3768,-122.2396C865.3768,-137.5706 865.3768,-157 865.3768,-157 865.3768,-157 736.2523,-157 736.2523,-157"/>
<polygon fill="#000000" stroke="#000000" points="736.2523,-153.5001 726.2523,-157 736.2523,-160.5001 736.2523,-153.5001"/>
</g>
<!-- FuturesResultPipe -->
<g id="node4" class="node">
<title>FuturesResultPipe</title>
<polygon fill="#ffffb3" stroke="#000000" points="810.1583,-122 691.8417,-122 691.8417,-86 810.1583,-86 810.1583,-122"/>
<text text-anchor="middle" x="751" y="-99.8" font-family="Times,serif" font-size="14.00" fill="#000000">FuturesResultPipe</text>
</g>
<!-- FuturesResultPipe&#45;&gt;ChargeModule -->
<g id="edge4" class="edge">
<title>FuturesResultPipe&#45;&gt;ChargeModule</title>
<path fill="none" stroke="#000000" d="M708.8296,-122.1061C708.8296,-122.1061 708.8296,-140.991 708.8296,-140.991"/>
<polygon fill="#000000" stroke="#000000" points="705.3297,-140.9909 708.8296,-150.991 712.3297,-140.991 705.3297,-140.9909"/>
</g>
<!-- OptimizeFilterDesPipe -->
<g id="node5" class="node">
<title>OptimizeFilterDesPipe</title>
<polygon fill="#ffffb3" stroke="#000000" points="673.5814,-122 528.4186,-122 528.4186,-86 673.5814,-86 673.5814,-122"/>
<text text-anchor="middle" x="601" y="-99.8" font-family="Times,serif" font-size="14.00" fill="#000000">OptimizeFilterDesPipe</text>
</g>
<!-- OptimizeFilterDesPipe&#45;&gt;ChargeModule -->
<g id="edge5" class="edge">
<title>OptimizeFilterDesPipe&#45;&gt;ChargeModule</title>
<path fill="none" stroke="#000000" d="M649.7763,-122.1061C649.7763,-122.1061 649.7763,-140.991 649.7763,-140.991"/>
<polygon fill="#000000" stroke="#000000" points="646.2764,-140.9909 649.7763,-150.991 653.2764,-140.991 646.2764,-140.9909"/>
</g>
<!-- AccountBalanceComponent  -->
<g id="node8" class="node">
<title>AccountBalanceComponent </title>
<polygon fill="#fb8072" stroke="#000000" points="1097.8447,-252 920.1553,-252 920.1553,-216 1097.8447,-216 1097.8447,-252"/>
<text text-anchor="middle" x="1009" y="-229.8" font-family="Times,serif" font-size="14.00" fill="#000000">AccountBalanceComponent </text>
</g>
<!-- ChargeModule&#45;&gt;AccountBalanceComponent  -->
<g id="edge7" class="edge">
<title>ChargeModule&#45;&gt;AccountBalanceComponent </title>
<path fill="none" stroke="#000000" stroke-dasharray="5,2" d="M726.0766,-175C806.6438,-175 956.1019,-175 956.1019,-175 956.1019,-175 956.1019,-205.9775 956.1019,-205.9775"/>
<polygon fill="#000000" stroke="#000000" points="952.6019,-205.9774 956.1019,-215.9775 959.6019,-205.9775 952.6019,-205.9774"/>
</g>
<!-- ChargeComponent  -->
<g id="node9" class="node">
<title>ChargeComponent </title>
<polygon fill="#fb8072" stroke="#000000" points="902.7591,-252 777.2409,-252 777.2409,-216 902.7591,-216 902.7591,-252"/>
<text text-anchor="middle" x="840" y="-229.8" font-family="Times,serif" font-size="14.00" fill="#000000">ChargeComponent </text>
</g>
<!-- ChargeModule&#45;&gt;ChargeComponent  -->
<g id="edge8" class="edge">
<title>ChargeModule&#45;&gt;ChargeComponent </title>
<path fill="none" stroke="#000000" stroke-dasharray="5,2" d="M725.9789,-181C758.0989,-181 793.8498,-181 793.8498,-181 793.8498,-181 793.8498,-205.7604 793.8498,-205.7604"/>
<polygon fill="#000000" stroke="#000000" points="790.3498,-205.7604 793.8498,-215.7604 797.3498,-205.7604 790.3498,-205.7604"/>
</g>
<!-- ChargeHistoryComponent  -->
<g id="node10" class="node">
<title>ChargeHistoryComponent </title>
<polygon fill="#fb8072" stroke="#000000" points="759.752,-252 592.248,-252 592.248,-216 759.752,-216 759.752,-252"/>
<text text-anchor="middle" x="676" y="-229.8" font-family="Times,serif" font-size="14.00" fill="#000000">ChargeHistoryComponent </text>
</g>
<!-- ChargeModule&#45;&gt;ChargeHistoryComponent  -->
<g id="edge9" class="edge">
<title>ChargeModule&#45;&gt;ChargeHistoryComponent </title>
<path fill="none" stroke="#000000" stroke-dasharray="5,2" d="M676,-187.1061C676,-187.1061 676,-205.991 676,-205.991"/>
<polygon fill="#000000" stroke="#000000" points="672.5001,-205.9909 676,-215.991 679.5001,-205.991 672.5001,-205.9909"/>
</g>
<!-- FuturesResultPipe  -->
<g id="node11" class="node">
<title>FuturesResultPipe </title>
<polygon fill="#fb8072" stroke="#000000" points="574.1579,-252 451.8421,-252 451.8421,-216 574.1579,-216 574.1579,-252"/>
<text text-anchor="middle" x="513" y="-229.8" font-family="Times,serif" font-size="14.00" fill="#000000">FuturesResultPipe </text>
</g>
<!-- ChargeModule&#45;&gt;FuturesResultPipe  -->
<g id="edge10" class="edge">
<title>ChargeModule&#45;&gt;FuturesResultPipe </title>
<path fill="none" stroke="#000000" stroke-dasharray="5,2" d="M625.9859,-181C591.2848,-181 551.2691,-181 551.2691,-181 551.2691,-181 551.2691,-205.7604 551.2691,-205.7604"/>
<polygon fill="#000000" stroke="#000000" points="547.7692,-205.7604 551.2691,-215.7604 554.7692,-205.7604 547.7692,-205.7604"/>
</g>
<!-- OptimizeFilterDesPipe  -->
<g id="node12" class="node">
<title>OptimizeFilterDesPipe </title>
<polygon fill="#fb8072" stroke="#000000" points="434.082,-252 285.918,-252 285.918,-216 434.082,-216 434.082,-252"/>
<text text-anchor="middle" x="360" y="-229.8" font-family="Times,serif" font-size="14.00" fill="#000000">OptimizeFilterDesPipe </text>
</g>
<!-- ChargeModule&#45;&gt;OptimizeFilterDesPipe  -->
<g id="edge11" class="edge">
<title>ChargeModule&#45;&gt;OptimizeFilterDesPipe </title>
<path fill="none" stroke="#000000" stroke-dasharray="5,2" d="M625.7359,-175C551.1935,-175 420.0398,-175 420.0398,-175 420.0398,-175 420.0398,-205.9775 420.0398,-205.9775"/>
<polygon fill="#000000" stroke="#000000" points="416.5399,-205.9774 420.0398,-215.9775 423.5399,-205.9775 416.5399,-205.9774"/>
</g>
<!-- SharedModule -->
<g id="node7" class="node">
<title>SharedModule</title>
<polygon fill="#8dd3c7" stroke="#000000" points="504.4231,-122 501.4231,-126 480.4231,-126 477.4231,-122 405.5769,-122 405.5769,-86 504.4231,-86 504.4231,-122"/>
<text text-anchor="middle" x="455" y="-99.8" font-family="Times,serif" font-size="14.00" fill="#000000">SharedModule</text>
</g>
<!-- SharedModule&#45;&gt;ChargeModule -->
<g id="edge6" class="edge">
<title>SharedModule&#45;&gt;ChargeModule</title>
<path fill="none" stroke="#000000" d="M478.0661,-122.2396C478.0661,-137.5706 478.0661,-157 478.0661,-157 478.0661,-157 615.797,-157 615.797,-157"/>
<polygon fill="#000000" stroke="#000000" points="615.7971,-160.5001 625.797,-157 615.797,-153.5001 615.7971,-160.5001"/>
</g>
<!-- ChargeConstantService -->
<g id="node13" class="node">
<title>ChargeConstantService</title>
<ellipse fill="#fdb462" stroke="#000000" cx="280" cy="-104" rx="102.4255" ry="18"/>
<text text-anchor="middle" x="280" y="-99.8" font-family="Times,serif" font-size="14.00" fill="#000000">ChargeConstantService</text>
</g>
<!-- ChargeConstantService&#45;&gt;ChargeModule -->
<g id="edge12" class="edge">
<title>ChargeConstantService&#45;&gt;ChargeModule</title>
<path fill="none" stroke="#000000" d="M333.9609,-119.5016C333.9609,-136.9822 333.9609,-163 333.9609,-163 333.9609,-163 615.8983,-163 615.8983,-163"/>
<polygon fill="#000000" stroke="#000000" points="615.8983,-166.5001 625.8983,-163 615.8982,-159.5001 615.8983,-166.5001"/>
</g>
<!-- ChargeService -->
<g id="node14" class="node">
<title>ChargeService</title>
<ellipse fill="#fdb462" stroke="#000000" cx="92" cy="-104" rx="67.7548" ry="18"/>
<text text-anchor="middle" x="92" y="-99.8" font-family="Times,serif" font-size="14.00" fill="#000000">ChargeService</text>
</g>
<!-- ChargeService&#45;&gt;ChargeModule -->
<g id="edge13" class="edge">
<title>ChargeService&#45;&gt;ChargeModule</title>
<path fill="none" stroke="#000000" d="M92,-122.1061C92,-141.3391 92,-169 92,-169 92,-169 615.956,-169 615.956,-169"/>
<polygon fill="#000000" stroke="#000000" points="615.9561,-172.5001 625.956,-169 615.956,-165.5001 615.9561,-172.5001"/>
</g>
</g>
</svg>
