<?xml version="1.0" encoding="UTF-8" standalone="no"?>
<!DOCTYPE svg PUBLIC "-//W3C//DTD SVG 1.1//EN"
 "http://www.w3.org/Graphics/SVG/1.1/DTD/svg11.dtd">
<!-- Generated by graphviz version 2.40.1 (20161225.0304)
 -->
<!-- Title: dependencies Pages: 1 -->
<svg width="1324pt" height="284pt"
 viewBox="0.00 0.00 1324.00 284.00" xmlns="http://www.w3.org/2000/svg" xmlns:xlink="http://www.w3.org/1999/xlink">
<g id="graph0" class="graph" transform="scale(1 1) rotate(0) translate(4 280)">
<title>dependencies</title>
<polygon fill="#ffffff" stroke="transparent" points="-4,4 -4,-280 1320,-280 1320,4 -4,4"/>
<text text-anchor="start" x="637.0091" y="-42.4" font-family="sans-serif" font-weight="bold" font-size="14.00" fill="#000000">Legend</text>
<polygon fill="#ffffb3" stroke="transparent" points="424,-10 424,-30 444,-30 444,-10 424,-10"/>
<text text-anchor="start" x="447.629" y="-15.4" font-family="sans-serif" font-size="14.00" fill="#000000"> &#160;Declarations</text>
<polygon fill="#8dd3c7" stroke="transparent" points="537,-10 537,-30 557,-30 557,-10 537,-10"/>
<text text-anchor="start" x="560.7251" y="-15.4" font-family="sans-serif" font-size="14.00" fill="#000000"> &#160;Module</text>
<polygon fill="#80b1d3" stroke="transparent" points="623,-10 623,-30 643,-30 643,-10 623,-10"/>
<text text-anchor="start" x="646.7812" y="-15.4" font-family="sans-serif" font-size="14.00" fill="#000000"> &#160;Bootstrap</text>
<polygon fill="#fdb462" stroke="transparent" points="720,-10 720,-30 740,-30 740,-10 720,-10"/>
<text text-anchor="start" x="743.6732" y="-15.4" font-family="sans-serif" font-size="14.00" fill="#000000"> &#160;Providers</text>
<polygon fill="#fb8072" stroke="transparent" points="816,-10 816,-30 836,-30 836,-10 816,-10"/>
<text text-anchor="start" x="839.7258" y="-15.4" font-family="sans-serif" font-size="14.00" fill="#000000"> &#160;Exports</text>
<g id="clust1" class="cluster">
<title>cluster_ChargeModule</title>
<polygon fill="none" stroke="#000000" stroke-dasharray="1,5" points="8,-70 8,-268 1308,-268 1308,-70 8,-70"/>
</g>
<g id="clust2" class="cluster">
<title>cluster_ChargeModule_declarations</title>
<polygon fill="none" stroke="#000000" points="520,-78 520,-130 1300,-130 1300,-78 520,-78"/>
</g>
<g id="clust8" class="cluster">
<title>cluster_ChargeModule_imports</title>
<polygon fill="none" stroke="#000000" points="398,-78 398,-130 512,-130 512,-78 398,-78"/>
</g>
<g id="clust9" class="cluster">
<title>cluster_ChargeModule_exports</title>
<polygon fill="none" stroke="#000000" points="271,-208 271,-260 1068,-260 1068,-208 271,-208"/>
</g>
<g id="clust11" class="cluster">
<title>cluster_ChargeModule_providers</title>
<polygon fill="none" stroke="#000000" points="16,-78 16,-130 390,-130 390,-78 16,-78"/>
</g>
<!-- AccountBalanceComponent -->
<g id="node1" class="node">
<title>AccountBalanceComponent</title>
<polygon fill="#ffffb3" stroke="#000000" points="1291.8445,-122 1118.1555,-122 1118.1555,-86 1291.8445,-86 1291.8445,-122"/>
<text text-anchor="middle" x="1205" y="-99.8" font-family="Times,serif" font-size="14.00" fill="#000000">AccountBalanceComponent</text>
</g>
<!-- ChargeModule -->
<g id="node6" class="node">
<title>ChargeModule</title>
<polygon fill="#8dd3c7" stroke="#000000" points="714.9762,-187 711.9762,-191 690.9762,-191 687.9762,-187 615.0238,-187 615.0238,-151 714.9762,-151 714.9762,-187"/>
<text text-anchor="middle" x="665" y="-164.8" font-family="Times,serif" font-size="14.00" fill="#000000">ChargeModule</text>
</g>
<!-- AccountBalanceComponent&#45;&gt;ChargeModule -->
<g id="edge1" class="edge">
<title>AccountBalanceComponent&#45;&gt;ChargeModule</title>
<path fill="none" stroke="#000000" d="M1205,-122.1061C1205,-141.3391 1205,-169 1205,-169 1205,-169 725.317,-169 725.317,-169"/>
<polygon fill="#000000" stroke="#000000" points="725.317,-165.5001 715.317,-169 725.3169,-172.5001 725.317,-165.5001"/>
</g>
<!-- AgentRegionPipe -->
<g id="node2" class="node">
<title>AgentRegionPipe</title>
<polygon fill="#ffffb3" stroke="#000000" points="1099.5423,-122 984.4577,-122 984.4577,-86 1099.5423,-86 1099.5423,-122"/>
<text text-anchor="middle" x="1042" y="-99.8" font-family="Times,serif" font-size="14.00" fill="#000000">AgentRegionPipe</text>
</g>
<!-- AgentRegionPipe&#45;&gt;ChargeModule -->
<g id="edge2" class="edge">
<title>AgentRegionPipe&#45;&gt;ChargeModule</title>
<path fill="none" stroke="#000000" d="M1021.9508,-122.0225C1021.9508,-139.3734 1021.9508,-163 1021.9508,-163 1021.9508,-163 725.0083,-163 725.0083,-163"/>
<polygon fill="#000000" stroke="#000000" points="725.0084,-159.5001 715.0083,-163 725.0083,-166.5001 725.0084,-159.5001"/>
</g>
<!-- ChargeComponent -->
<g id="node3" class="node">
<title>ChargeComponent</title>
<polygon fill="#ffffb3" stroke="#000000" points="965.759,-122 844.241,-122 844.241,-86 965.759,-86 965.759,-122"/>
<text text-anchor="middle" x="905" y="-99.8" font-family="Times,serif" font-size="14.00" fill="#000000">ChargeComponent</text>
</g>
<!-- ChargeComponent&#45;&gt;ChargeModule -->
<g id="edge3" class="edge">
<title>ChargeComponent&#45;&gt;ChargeModule</title>
<path fill="none" stroke="#000000" d="M854.3207,-122.2396C854.3207,-137.5706 854.3207,-157 854.3207,-157 854.3207,-157 725.2374,-157 725.2374,-157"/>
<polygon fill="#000000" stroke="#000000" points="725.2374,-153.5001 715.2374,-157 725.2374,-160.5001 725.2374,-153.5001"/>
</g>
<!-- ChargeHistoryComponent -->
<g id="node4" class="node">
<title>ChargeHistoryComponent</title>
<polygon fill="#ffffb3" stroke="#000000" points="825.752,-122 662.248,-122 662.248,-86 825.752,-86 825.752,-122"/>
<text text-anchor="middle" x="744" y="-99.8" font-family="Times,serif" font-size="14.00" fill="#000000">ChargeHistoryComponent</text>
</g>
<!-- ChargeHistoryComponent&#45;&gt;ChargeModule -->
<g id="edge4" class="edge">
<title>ChargeHistoryComponent&#45;&gt;ChargeModule</title>
<path fill="none" stroke="#000000" d="M688.5561,-122.1061C688.5561,-122.1061 688.5561,-140.991 688.5561,-140.991"/>
<polygon fill="#000000" stroke="#000000" points="685.0562,-140.9909 688.5561,-150.991 692.0562,-140.991 685.0562,-140.9909"/>
</g>
<!-- IsOldVersionPipe -->
<g id="node5" class="node">
<title>IsOldVersionPipe</title>
<polygon fill="#ffffb3" stroke="#000000" points="644.3076,-122 527.6924,-122 527.6924,-86 644.3076,-86 644.3076,-122"/>
<text text-anchor="middle" x="586" y="-99.8" font-family="Times,serif" font-size="14.00" fill="#000000">IsOldVersionPipe</text>
</g>
<!-- IsOldVersionPipe&#45;&gt;ChargeModule -->
<g id="edge5" class="edge">
<title>IsOldVersionPipe&#45;&gt;ChargeModule</title>
<path fill="none" stroke="#000000" d="M629.5828,-122.1061C629.5828,-122.1061 629.5828,-140.991 629.5828,-140.991"/>
<polygon fill="#000000" stroke="#000000" points="626.0828,-140.9909 629.5828,-150.991 633.0828,-140.991 626.0828,-140.9909"/>
</g>
<!-- AccountBalanceComponent  -->
<g id="node8" class="node">
<title>AccountBalanceComponent </title>
<polygon fill="#fb8072" stroke="#000000" points="1059.8447,-252 882.1553,-252 882.1553,-216 1059.8447,-216 1059.8447,-252"/>
<text text-anchor="middle" x="971" y="-229.8" font-family="Times,serif" font-size="14.00" fill="#000000">AccountBalanceComponent </text>
</g>
<!-- ChargeModule&#45;&gt;AccountBalanceComponent  -->
<g id="edge7" class="edge">
<title>ChargeModule&#45;&gt;AccountBalanceComponent </title>
<path fill="none" stroke="#000000" stroke-dasharray="5,2" d="M715.265,-175C790.6138,-175 924.1036,-175 924.1036,-175 924.1036,-175 924.1036,-205.9775 924.1036,-205.9775"/>
<polygon fill="#000000" stroke="#000000" points="920.6037,-205.9774 924.1036,-215.9775 927.6037,-205.9775 920.6037,-205.9774"/>
</g>
<!-- AgentRegionPipe  -->
<g id="node9" class="node">
<title>AgentRegionPipe </title>
<polygon fill="#fb8072" stroke="#000000" points="864.5414,-252 745.4586,-252 745.4586,-216 864.5414,-216 864.5414,-252"/>
<text text-anchor="middle" x="805" y="-229.8" font-family="Times,serif" font-size="14.00" fill="#000000">AgentRegionPipe </text>
</g>
<!-- ChargeModule&#45;&gt;AgentRegionPipe  -->
<g id="edge8" class="edge">
<title>ChargeModule&#45;&gt;AgentRegionPipe </title>
<path fill="none" stroke="#000000" stroke-dasharray="5,2" d="M715.1298,-181C748.2858,-181 785.6776,-181 785.6776,-181 785.6776,-181 785.6776,-205.7604 785.6776,-205.7604"/>
<polygon fill="#000000" stroke="#000000" points="782.1777,-205.7604 785.6776,-215.7604 789.1777,-205.7604 782.1777,-205.7604"/>
</g>
<!-- ChargeComponent  -->
<g id="node10" class="node">
<title>ChargeComponent </title>
<polygon fill="#fb8072" stroke="#000000" points="727.7591,-252 602.2409,-252 602.2409,-216 727.7591,-216 727.7591,-252"/>
<text text-anchor="middle" x="665" y="-229.8" font-family="Times,serif" font-size="14.00" fill="#000000">ChargeComponent </text>
</g>
<!-- ChargeModule&#45;&gt;ChargeComponent  -->
<g id="edge9" class="edge">
<title>ChargeModule&#45;&gt;ChargeComponent </title>
<path fill="none" stroke="#000000" stroke-dasharray="5,2" d="M665,-187.1061C665,-187.1061 665,-205.991 665,-205.991"/>
<polygon fill="#000000" stroke="#000000" points="661.5001,-205.9909 665,-215.991 668.5001,-205.991 661.5001,-205.9909"/>
</g>
<!-- ChargeHistoryComponent  -->
<g id="node11" class="node">
<title>ChargeHistoryComponent </title>
<polygon fill="#fb8072" stroke="#000000" points="584.752,-252 417.248,-252 417.248,-216 584.752,-216 584.752,-252"/>
<text text-anchor="middle" x="501" y="-229.8" font-family="Times,serif" font-size="14.00" fill="#000000">ChargeHistoryComponent </text>
</g>
<!-- ChargeModule&#45;&gt;ChargeHistoryComponent  -->
<g id="edge10" class="edge">
<title>ChargeModule&#45;&gt;ChargeHistoryComponent </title>
<path fill="none" stroke="#000000" stroke-dasharray="5,2" d="M614.7569,-181C586.2588,-181 556.2361,-181 556.2361,-181 556.2361,-181 556.2361,-205.7604 556.2361,-205.7604"/>
<polygon fill="#000000" stroke="#000000" points="552.7362,-205.7604 556.2361,-215.7604 559.7362,-205.7604 552.7362,-205.7604"/>
</g>
<!-- IsOldVersionPipe  -->
<g id="node12" class="node">
<title>IsOldVersionPipe </title>
<polygon fill="#fb8072" stroke="#000000" points="398.8074,-252 279.1926,-252 279.1926,-216 398.8074,-216 398.8074,-252"/>
<text text-anchor="middle" x="339" y="-229.8" font-family="Times,serif" font-size="14.00" fill="#000000">IsOldVersionPipe </text>
</g>
<!-- ChargeModule&#45;&gt;IsOldVersionPipe  -->
<g id="edge11" class="edge">
<title>ChargeModule&#45;&gt;IsOldVersionPipe </title>
<path fill="none" stroke="#000000" stroke-dasharray="5,2" d="M614.9822,-175C535.8238,-175 390.5581,-175 390.5581,-175 390.5581,-175 390.5581,-205.9775 390.5581,-205.9775"/>
<polygon fill="#000000" stroke="#000000" points="387.0582,-205.9774 390.5581,-215.9775 394.0582,-205.9775 387.0582,-205.9774"/>
</g>
<!-- SharedModule -->
<g id="node7" class="node">
<title>SharedModule</title>
<polygon fill="#8dd3c7" stroke="#000000" points="504.4231,-122 501.4231,-126 480.4231,-126 477.4231,-122 405.5769,-122 405.5769,-86 504.4231,-86 504.4231,-122"/>
<text text-anchor="middle" x="455" y="-99.8" font-family="Times,serif" font-size="14.00" fill="#000000">SharedModule</text>
</g>
<!-- SharedModule&#45;&gt;ChargeModule -->
<g id="edge6" class="edge">
<title>SharedModule&#45;&gt;ChargeModule</title>
<path fill="none" stroke="#000000" d="M460.7926,-122.2396C460.7926,-137.5706 460.7926,-157 460.7926,-157 460.7926,-157 604.7837,-157 604.7837,-157"/>
<polygon fill="#000000" stroke="#000000" points="604.7837,-160.5001 614.7837,-157 604.7837,-153.5001 604.7837,-160.5001"/>
</g>
<!-- ChargeConstantService -->
<g id="node13" class="node">
<title>ChargeConstantService</title>
<ellipse fill="#fdb462" stroke="#000000" cx="280" cy="-104" rx="102.4255" ry="18"/>
<text text-anchor="middle" x="280" y="-99.8" font-family="Times,serif" font-size="14.00" fill="#000000">ChargeConstantService</text>
</g>
<!-- ChargeConstantService&#45;&gt;ChargeModule -->
<g id="edge12" class="edge">
<title>ChargeConstantService&#45;&gt;ChargeModule</title>
<path fill="none" stroke="#000000" d="M330.6545,-119.8109C330.6545,-137.2874 330.6545,-163 330.6545,-163 330.6545,-163 604.9451,-163 604.9451,-163"/>
<polygon fill="#000000" stroke="#000000" points="604.9451,-166.5001 614.9451,-163 604.9451,-159.5001 604.9451,-166.5001"/>
</g>
<!-- ChargeService -->
<g id="node14" class="node">
<title>ChargeService</title>
<ellipse fill="#fdb462" stroke="#000000" cx="92" cy="-104" rx="67.7548" ry="18"/>
<text text-anchor="middle" x="92" y="-99.8" font-family="Times,serif" font-size="14.00" fill="#000000">ChargeService</text>
</g>
<!-- ChargeService&#45;&gt;ChargeModule -->
<g id="edge13" class="edge">
<title>ChargeService&#45;&gt;ChargeModule</title>
<path fill="none" stroke="#000000" d="M92,-122.1061C92,-141.3391 92,-169 92,-169 92,-169 604.9026,-169 604.9026,-169"/>
<polygon fill="#000000" stroke="#000000" points="604.9026,-172.5001 614.9026,-169 604.9026,-165.5001 604.9026,-172.5001"/>
</g>
</g>
</svg>
