<?xml version="1.0" encoding="UTF-8" standalone="no"?>
<!DOCTYPE svg PUBLIC "-//W3C//DTD SVG 1.1//EN"
 "http://www.w3.org/Graphics/SVG/1.1/DTD/svg11.dtd">
<!-- Generated by graphviz version 2.40.1 (20161225.0304)
 -->
<!-- Title: dependencies Pages: 1 -->
<svg width="1649pt" height="284pt"
 viewBox="0.00 0.00 1649.00 284.00" xmlns="http://www.w3.org/2000/svg" xmlns:xlink="http://www.w3.org/1999/xlink">
<g id="graph0" class="graph" transform="scale(1 1) rotate(0) translate(4 280)">
<title>dependencies</title>
<polygon fill="#ffffff" stroke="transparent" points="-4,4 -4,-280 1645,-280 1645,4 -4,4"/>
<text text-anchor="start" x="799.5091" y="-42.4" font-family="sans-serif" font-weight="bold" font-size="14.00" fill="#000000">Legend</text>
<polygon fill="#ffffb3" stroke="transparent" points="586.5,-10 586.5,-30 606.5,-30 606.5,-10 586.5,-10"/>
<text text-anchor="start" x="610.129" y="-15.4" font-family="sans-serif" font-size="14.00" fill="#000000"> &#160;Declarations</text>
<polygon fill="#8dd3c7" stroke="transparent" points="699.5,-10 699.5,-30 719.5,-30 719.5,-10 699.5,-10"/>
<text text-anchor="start" x="723.2251" y="-15.4" font-family="sans-serif" font-size="14.00" fill="#000000"> &#160;Module</text>
<polygon fill="#80b1d3" stroke="transparent" points="785.5,-10 785.5,-30 805.5,-30 805.5,-10 785.5,-10"/>
<text text-anchor="start" x="809.2812" y="-15.4" font-family="sans-serif" font-size="14.00" fill="#000000"> &#160;Bootstrap</text>
<polygon fill="#fdb462" stroke="transparent" points="882.5,-10 882.5,-30 902.5,-30 902.5,-10 882.5,-10"/>
<text text-anchor="start" x="906.1732" y="-15.4" font-family="sans-serif" font-size="14.00" fill="#000000"> &#160;Providers</text>
<polygon fill="#fb8072" stroke="transparent" points="978.5,-10 978.5,-30 998.5,-30 998.5,-10 978.5,-10"/>
<text text-anchor="start" x="1002.2258" y="-15.4" font-family="sans-serif" font-size="14.00" fill="#000000"> &#160;Exports</text>
<g id="clust1" class="cluster">
<title>cluster_ChargeModule</title>
<polygon fill="none" stroke="#000000" stroke-dasharray="1,5" points="8,-70 8,-268 1633,-268 1633,-70 8,-70"/>
</g>
<g id="clust2" class="cluster">
<title>cluster_ChargeModule_declarations</title>
<polygon fill="none" stroke="#000000" points="520,-78 520,-130 1625,-130 1625,-78 520,-78"/>
</g>
<g id="clust10" class="cluster">
<title>cluster_ChargeModule_imports</title>
<polygon fill="none" stroke="#000000" points="398,-78 398,-130 512,-130 512,-78 398,-78"/>
</g>
<g id="clust11" class="cluster">
<title>cluster_ChargeModule_exports</title>
<polygon fill="none" stroke="#000000" points="385,-208 385,-260 1312,-260 1312,-208 385,-208"/>
</g>
<g id="clust13" class="cluster">
<title>cluster_ChargeModule_providers</title>
<polygon fill="none" stroke="#000000" points="16,-78 16,-130 390,-130 390,-78 16,-78"/>
</g>
<!-- AccountBalanceComponent -->
<g id="node1" class="node">
<title>AccountBalanceComponent</title>
<polygon fill="#ffffb3" stroke="#000000" points="1616.8445,-122 1443.1555,-122 1443.1555,-86 1616.8445,-86 1616.8445,-122"/>
<text text-anchor="middle" x="1530" y="-99.8" font-family="Times,serif" font-size="14.00" fill="#000000">AccountBalanceComponent</text>
</g>
<!-- ChargeModule -->
<g id="node8" class="node">
<title>ChargeModule</title>
<polygon fill="#8dd3c7" stroke="#000000" points="876.9762,-187 873.9762,-191 852.9762,-191 849.9762,-187 777.0238,-187 777.0238,-151 876.9762,-151 876.9762,-187"/>
<text text-anchor="middle" x="827" y="-164.8" font-family="Times,serif" font-size="14.00" fill="#000000">ChargeModule</text>
</g>
<!-- AccountBalanceComponent&#45;&gt;ChargeModule -->
<g id="edge1" class="edge">
<title>AccountBalanceComponent&#45;&gt;ChargeModule</title>
<path fill="none" stroke="#000000" d="M1530,-122.2228C1530,-142.3652 1530,-172 1530,-172 1530,-172 886.9945,-172 886.9945,-172"/>
<polygon fill="#000000" stroke="#000000" points="886.9945,-168.5001 876.9945,-172 886.9944,-175.5001 886.9945,-168.5001"/>
</g>
<!-- AgentRegionPipe -->
<g id="node2" class="node">
<title>AgentRegionPipe</title>
<polygon fill="#ffffb3" stroke="#000000" points="1424.5423,-122 1309.4577,-122 1309.4577,-86 1424.5423,-86 1424.5423,-122"/>
<text text-anchor="middle" x="1367" y="-99.8" font-family="Times,serif" font-size="14.00" fill="#000000">AgentRegionPipe</text>
</g>
<!-- AgentRegionPipe&#45;&gt;ChargeModule -->
<g id="edge2" class="edge">
<title>AgentRegionPipe&#45;&gt;ChargeModule</title>
<path fill="none" stroke="#000000" d="M1367,-122.2222C1367,-140.8285 1367,-167 1367,-167 1367,-167 887.317,-167 887.317,-167"/>
<polygon fill="#000000" stroke="#000000" points="887.317,-163.5001 877.317,-167 887.3169,-170.5001 887.317,-163.5001"/>
</g>
<!-- ChargeComponent -->
<g id="node3" class="node">
<title>ChargeComponent</title>
<polygon fill="#ffffb3" stroke="#000000" points="1290.759,-122 1169.241,-122 1169.241,-86 1290.759,-86 1290.759,-122"/>
<text text-anchor="middle" x="1230" y="-99.8" font-family="Times,serif" font-size="14.00" fill="#000000">ChargeComponent</text>
</g>
<!-- ChargeComponent&#45;&gt;ChargeModule -->
<g id="edge3" class="edge">
<title>ChargeComponent&#45;&gt;ChargeModule</title>
<path fill="none" stroke="#000000" d="M1230,-122.0336C1230,-139.0597 1230,-162 1230,-162 1230,-162 887.2254,-162 887.2254,-162"/>
<polygon fill="#000000" stroke="#000000" points="887.2254,-158.5001 877.2254,-162 887.2254,-165.5001 887.2254,-158.5001"/>
</g>
<!-- ChargeHistoryComponent -->
<g id="node4" class="node">
<title>ChargeHistoryComponent</title>
<polygon fill="#ffffb3" stroke="#000000" points="1150.752,-122 987.248,-122 987.248,-86 1150.752,-86 1150.752,-122"/>
<text text-anchor="middle" x="1069" y="-99.8" font-family="Times,serif" font-size="14.00" fill="#000000">ChargeHistoryComponent</text>
</g>
<!-- ChargeHistoryComponent&#45;&gt;ChargeModule -->
<g id="edge4" class="edge">
<title>ChargeHistoryComponent&#45;&gt;ChargeModule</title>
<path fill="none" stroke="#000000" d="M1029.1598,-122.2396C1029.1598,-137.5706 1029.1598,-157 1029.1598,-157 1029.1598,-157 887.2318,-157 887.2318,-157"/>
<polygon fill="#000000" stroke="#000000" points="887.2319,-153.5001 877.2318,-157 887.2318,-160.5001 887.2319,-153.5001"/>
</g>
<!-- IsOldVersionPipe -->
<g id="node5" class="node">
<title>IsOldVersionPipe</title>
<polygon fill="#ffffb3" stroke="#000000" points="969.3076,-122 852.6924,-122 852.6924,-86 969.3076,-86 969.3076,-122"/>
<text text-anchor="middle" x="911" y="-99.8" font-family="Times,serif" font-size="14.00" fill="#000000">IsOldVersionPipe</text>
</g>
<!-- IsOldVersionPipe&#45;&gt;ChargeModule -->
<g id="edge5" class="edge">
<title>IsOldVersionPipe&#45;&gt;ChargeModule</title>
<path fill="none" stroke="#000000" d="M864.9173,-122.1061C864.9173,-122.1061 864.9173,-140.991 864.9173,-140.991"/>
<polygon fill="#000000" stroke="#000000" points="861.4173,-140.9909 864.9173,-150.991 868.4173,-140.991 861.4173,-140.9909"/>
</g>
<!-- PaymentIndicatorComponent -->
<g id="node6" class="node">
<title>PaymentIndicatorComponent</title>
<polygon fill="#ffffb3" stroke="#000000" points="834.3571,-122 653.6429,-122 653.6429,-86 834.3571,-86 834.3571,-122"/>
<text text-anchor="middle" x="744" y="-99.8" font-family="Times,serif" font-size="14.00" fill="#000000">PaymentIndicatorComponent</text>
</g>
<!-- PaymentIndicatorComponent&#45;&gt;ChargeModule -->
<g id="edge6" class="edge">
<title>PaymentIndicatorComponent&#45;&gt;ChargeModule</title>
<path fill="none" stroke="#000000" d="M805.7202,-122.1061C805.7202,-122.1061 805.7202,-140.991 805.7202,-140.991"/>
<polygon fill="#000000" stroke="#000000" points="802.2203,-140.9909 805.7202,-150.991 809.2203,-140.991 802.2203,-140.9909"/>
</g>
<!-- RentComponent -->
<g id="node7" class="node">
<title>RentComponent</title>
<polygon fill="#ffffb3" stroke="#000000" points="635.7744,-122 528.2256,-122 528.2256,-86 635.7744,-86 635.7744,-122"/>
<text text-anchor="middle" x="582" y="-99.8" font-family="Times,serif" font-size="14.00" fill="#000000">RentComponent</text>
</g>
<!-- RentComponent&#45;&gt;ChargeModule -->
<g id="edge7" class="edge">
<title>RentComponent&#45;&gt;ChargeModule</title>
<path fill="none" stroke="#000000" d="M582,-122.2396C582,-137.5706 582,-157 582,-157 582,-157 766.8294,-157 766.8294,-157"/>
<polygon fill="#000000" stroke="#000000" points="766.8294,-160.5001 776.8294,-157 766.8294,-153.5001 766.8294,-160.5001"/>
</g>
<!-- AccountBalanceComponent  -->
<g id="node10" class="node">
<title>AccountBalanceComponent </title>
<polygon fill="#fb8072" stroke="#000000" points="1303.8447,-252 1126.1553,-252 1126.1553,-216 1303.8447,-216 1303.8447,-252"/>
<text text-anchor="middle" x="1215" y="-229.8" font-family="Times,serif" font-size="14.00" fill="#000000">AccountBalanceComponent </text>
</g>
<!-- ChargeModule&#45;&gt;AccountBalanceComponent  -->
<g id="edge9" class="edge">
<title>ChargeModule&#45;&gt;AccountBalanceComponent </title>
<path fill="none" stroke="#000000" stroke-dasharray="5,2" d="M877.0642,-177C965.1468,-177 1138.6019,-177 1138.6019,-177 1138.6019,-177 1138.6019,-205.9648 1138.6019,-205.9648"/>
<polygon fill="#000000" stroke="#000000" points="1135.1019,-205.9648 1138.6019,-215.9648 1142.1019,-205.9649 1135.1019,-205.9648"/>
</g>
<!-- AgentRegionPipe  -->
<g id="node11" class="node">
<title>AgentRegionPipe </title>
<polygon fill="#fb8072" stroke="#000000" points="1108.5414,-252 989.4586,-252 989.4586,-216 1108.5414,-216 1108.5414,-252"/>
<text text-anchor="middle" x="1049" y="-229.8" font-family="Times,serif" font-size="14.00" fill="#000000">AgentRegionPipe </text>
</g>
<!-- ChargeModule&#45;&gt;AgentRegionPipe  -->
<g id="edge10" class="edge">
<title>ChargeModule&#45;&gt;AgentRegionPipe </title>
<path fill="none" stroke="#000000" stroke-dasharray="5,2" d="M877.1095,-182C947.9459,-182 1068.8402,-182 1068.8402,-182 1068.8402,-182 1068.8402,-205.8129 1068.8402,-205.8129"/>
<polygon fill="#000000" stroke="#000000" points="1065.3403,-205.8129 1068.8402,-215.8129 1072.3403,-205.813 1065.3403,-205.8129"/>
</g>
<!-- ChargeComponent  -->
<g id="node12" class="node">
<title>ChargeComponent </title>
<polygon fill="#fb8072" stroke="#000000" points="971.7591,-252 846.2409,-252 846.2409,-216 971.7591,-216 971.7591,-252"/>
<text text-anchor="middle" x="909" y="-229.8" font-family="Times,serif" font-size="14.00" fill="#000000">ChargeComponent </text>
</g>
<!-- ChargeModule&#45;&gt;ChargeComponent  -->
<g id="edge11" class="edge">
<title>ChargeModule&#45;&gt;ChargeComponent </title>
<path fill="none" stroke="#000000" stroke-dasharray="5,2" d="M861.6794,-187.1061C861.6794,-187.1061 861.6794,-205.991 861.6794,-205.991"/>
<polygon fill="#000000" stroke="#000000" points="858.1794,-205.9909 861.6794,-215.991 865.1794,-205.991 858.1794,-205.9909"/>
</g>
<!-- ChargeHistoryComponent  -->
<g id="node13" class="node">
<title>ChargeHistoryComponent </title>
<polygon fill="#fb8072" stroke="#000000" points="828.752,-252 661.248,-252 661.248,-216 828.752,-216 828.752,-252"/>
<text text-anchor="middle" x="745" y="-229.8" font-family="Times,serif" font-size="14.00" fill="#000000">ChargeHistoryComponent </text>
</g>
<!-- ChargeModule&#45;&gt;ChargeHistoryComponent  -->
<g id="edge12" class="edge">
<title>ChargeModule&#45;&gt;ChargeHistoryComponent </title>
<path fill="none" stroke="#000000" stroke-dasharray="5,2" d="M802.8189,-187.1061C802.8189,-187.1061 802.8189,-205.991 802.8189,-205.991"/>
<polygon fill="#000000" stroke="#000000" points="799.319,-205.9909 802.8189,-215.991 806.319,-205.991 799.319,-205.9909"/>
</g>
<!-- IsOldVersionPipe  -->
<g id="node14" class="node">
<title>IsOldVersionPipe </title>
<polygon fill="#fb8072" stroke="#000000" points="642.8074,-252 523.1926,-252 523.1926,-216 642.8074,-216 642.8074,-252"/>
<text text-anchor="middle" x="583" y="-229.8" font-family="Times,serif" font-size="14.00" fill="#000000">IsOldVersionPipe </text>
</g>
<!-- ChargeModule&#45;&gt;IsOldVersionPipe  -->
<g id="edge13" class="edge">
<title>ChargeModule&#45;&gt;IsOldVersionPipe </title>
<path fill="none" stroke="#000000" stroke-dasharray="5,2" d="M776.7254,-182C721.1546,-182 639.3954,-182 639.3954,-182 639.3954,-182 639.3954,-205.8129 639.3954,-205.8129"/>
<polygon fill="#000000" stroke="#000000" points="635.8954,-205.8129 639.3954,-215.8129 642.8954,-205.813 635.8954,-205.8129"/>
</g>
<!-- RentComponent  -->
<g id="node15" class="node">
<title>RentComponent </title>
<polygon fill="#fb8072" stroke="#000000" points="504.7745,-252 393.2255,-252 393.2255,-216 504.7745,-216 504.7745,-252"/>
<text text-anchor="middle" x="449" y="-229.8" font-family="Times,serif" font-size="14.00" fill="#000000">RentComponent </text>
</g>
<!-- ChargeModule&#45;&gt;RentComponent  -->
<g id="edge14" class="edge">
<title>ChargeModule&#45;&gt;RentComponent </title>
<path fill="none" stroke="#000000" stroke-dasharray="5,2" d="M777.0181,-177C672.1165,-177 438.5963,-177 438.5963,-177 438.5963,-177 438.5963,-205.9648 438.5963,-205.9648"/>
<polygon fill="#000000" stroke="#000000" points="435.0964,-205.9648 438.5963,-215.9648 442.0964,-205.9649 435.0964,-205.9648"/>
</g>
<!-- SharedModule -->
<g id="node9" class="node">
<title>SharedModule</title>
<polygon fill="#8dd3c7" stroke="#000000" points="504.4231,-122 501.4231,-126 480.4231,-126 477.4231,-122 405.5769,-122 405.5769,-86 504.4231,-86 504.4231,-122"/>
<text text-anchor="middle" x="455" y="-99.8" font-family="Times,serif" font-size="14.00" fill="#000000">SharedModule</text>
</g>
<!-- SharedModule&#45;&gt;ChargeModule -->
<g id="edge8" class="edge">
<title>SharedModule&#45;&gt;ChargeModule</title>
<path fill="none" stroke="#000000" d="M471.4037,-122.0336C471.4037,-139.0597 471.4037,-162 471.4037,-162 471.4037,-162 766.8059,-162 766.8059,-162"/>
<polygon fill="#000000" stroke="#000000" points="766.806,-165.5001 776.8059,-162 766.8059,-158.5001 766.806,-165.5001"/>
</g>
<!-- ChargeConstantService -->
<g id="node16" class="node">
<title>ChargeConstantService</title>
<ellipse fill="#fdb462" stroke="#000000" cx="280" cy="-104" rx="102.4255" ry="18"/>
<text text-anchor="middle" x="280" y="-99.8" font-family="Times,serif" font-size="14.00" fill="#000000">ChargeConstantService</text>
</g>
<!-- ChargeConstantService&#45;&gt;ChargeModule -->
<g id="edge15" class="edge">
<title>ChargeConstantService&#45;&gt;ChargeModule</title>
<path fill="none" stroke="#000000" d="M280,-122.2222C280,-140.8285 280,-167 280,-167 280,-167 767.0073,-167 767.0073,-167"/>
<polygon fill="#000000" stroke="#000000" points="767.0073,-170.5001 777.0073,-167 767.0073,-163.5001 767.0073,-170.5001"/>
</g>
<!-- ChargeService -->
<g id="node17" class="node">
<title>ChargeService</title>
<ellipse fill="#fdb462" stroke="#000000" cx="92" cy="-104" rx="67.7548" ry="18"/>
<text text-anchor="middle" x="92" y="-99.8" font-family="Times,serif" font-size="14.00" fill="#000000">ChargeService</text>
</g>
<!-- ChargeService&#45;&gt;ChargeModule -->
<g id="edge16" class="edge">
<title>ChargeService&#45;&gt;ChargeModule</title>
<path fill="none" stroke="#000000" d="M92,-122.2228C92,-142.3652 92,-172 92,-172 92,-172 766.7698,-172 766.7698,-172"/>
<polygon fill="#000000" stroke="#000000" points="766.7698,-175.5001 776.7698,-172 766.7697,-168.5001 766.7698,-175.5001"/>
</g>
</g>
</svg>
